<svg width="917" height="890" viewBox="0 0 917 890" fill="none" xmlns="http://www.w3.org/2000/svg">
<g clip-path="url(#clip0_255_42)">
<rect width="917" height="890" rx="20" fill="#1A1B1F"/>
<rect x="1" y="1" width="915" height="888" rx="19" stroke="#6B6B70" stroke-opacity="0.4" stroke-width="2"/>
<rect x="128" y="556" width="582" height="1.5" fill="#87899D" fill-opacity="0.54"/>
<rect x="128" y="415" width="582" height="1.5" fill="#87899D" fill-opacity="0.3"/>
<rect x="128" y="271" width="582" height="1.5" fill="#87899D" fill-opacity="0.3"/>
<rect x="128" y="139" width="582" height="1.5" fill="#87899D" fill-opacity="0.3"/>
<path d="M763.41 551.039V553.828C763.41 555.609 763.18 557.043 762.719 558.129C762.258 559.215 761.609 560.004 760.773 560.496C759.938 560.988 758.957 561.234 757.832 561.234C756.715 561.234 755.734 560.988 754.891 560.496C754.047 560.004 753.391 559.215 752.922 558.129C752.453 557.043 752.219 555.609 752.219 553.828V551.039C752.219 549.258 752.449 547.832 752.91 546.762C753.379 545.684 754.031 544.906 754.867 544.43C755.711 543.945 756.691 543.703 757.809 543.703C758.934 543.703 759.914 543.945 760.75 544.43C761.594 544.906 762.246 545.684 762.707 546.762C763.176 547.832 763.41 549.258 763.41 551.039ZM760.586 554.227V550.617C760.586 549.477 760.477 548.562 760.258 547.875C760.047 547.188 759.734 546.695 759.32 546.398C758.906 546.094 758.402 545.941 757.809 545.941C757.223 545.941 756.723 546.094 756.309 546.398C755.902 546.695 755.59 547.188 755.371 547.875C755.16 548.562 755.055 549.477 755.055 550.617V554.227C755.055 555.367 755.16 556.289 755.371 556.992C755.59 557.688 755.906 558.195 756.32 558.516C756.742 558.828 757.246 558.984 757.832 558.984C758.434 558.984 758.938 558.828 759.344 558.516C759.75 558.195 760.059 557.688 760.27 556.992C760.48 556.289 760.586 555.367 760.586 554.227ZM767.57 543.938H770.195L775.129 557.098L780.051 543.938H782.676L776.16 561H774.074L767.57 543.938ZM766.375 543.938H768.871L769.305 555.328V561H766.375V543.938ZM781.375 543.938H783.883V561H780.941V555.328L781.375 543.938Z" fill="#919193"/>
<path d="M760 405.879V423H757.176V409.23L752.992 410.648V408.316L759.66 405.879H760ZM768.895 415.066L766.645 414.516L767.57 405.938H776.77V408.328H769.914L769.445 412.512C769.711 412.355 770.078 412.203 770.547 412.055C771.016 411.898 771.551 411.82 772.152 411.82C773.223 411.82 774.145 412.051 774.918 412.512C775.691 412.973 776.281 413.633 776.688 414.492C777.102 415.344 777.309 416.359 777.309 417.539C777.309 418.586 777.105 419.543 776.699 420.41C776.293 421.27 775.676 421.957 774.848 422.473C774.02 422.98 772.973 423.234 771.707 423.234C770.996 423.234 770.312 423.133 769.656 422.93C769.008 422.719 768.426 422.41 767.91 422.004C767.395 421.59 766.98 421.082 766.668 420.48C766.355 419.871 766.176 419.172 766.129 418.383H768.895C768.996 419.219 769.289 419.863 769.773 420.316C770.266 420.762 770.906 420.984 771.695 420.984C772.328 420.984 772.848 420.836 773.254 420.539C773.66 420.242 773.965 419.828 774.168 419.297C774.371 418.766 774.473 418.152 774.473 417.457C774.473 416.793 774.355 416.207 774.121 415.699C773.895 415.191 773.555 414.789 773.102 414.492C772.656 414.195 772.098 414.047 771.426 414.047C770.754 414.047 770.238 414.145 769.879 414.34C769.527 414.535 769.199 414.777 768.895 415.066ZM781.211 405.938H783.836L788.77 419.098L793.691 405.938H796.316L789.801 423H787.715L781.211 405.938ZM780.016 405.938H782.512L782.945 417.328V423H780.016V405.938ZM795.016 405.938H797.523V423H794.582V417.328L795.016 405.938Z" fill="#919193"/>
<path d="M764.043 274.918V277.168H751.738L751.645 275.469L759.004 263.938H761.266L758.816 268.133L754.586 274.918H764.043ZM761.91 263.938V281H759.086V263.938H761.91ZM777.051 271.039V273.828C777.051 275.609 776.82 277.043 776.359 278.129C775.898 279.215 775.25 280.004 774.414 280.496C773.578 280.988 772.598 281.234 771.473 281.234C770.355 281.234 769.375 280.988 768.531 280.496C767.688 280.004 767.031 279.215 766.562 278.129C766.094 277.043 765.859 275.609 765.859 273.828V271.039C765.859 269.258 766.09 267.832 766.551 266.762C767.02 265.684 767.672 264.906 768.508 264.43C769.352 263.945 770.332 263.703 771.449 263.703C772.574 263.703 773.555 263.945 774.391 264.43C775.234 264.906 775.887 265.684 776.348 266.762C776.816 267.832 777.051 269.258 777.051 271.039ZM774.227 274.227V270.617C774.227 269.477 774.117 268.562 773.898 267.875C773.688 267.188 773.375 266.695 772.961 266.398C772.547 266.094 772.043 265.941 771.449 265.941C770.863 265.941 770.363 266.094 769.949 266.398C769.543 266.695 769.23 267.188 769.012 267.875C768.801 268.562 768.695 269.477 768.695 270.617V274.227C768.695 275.367 768.801 276.289 769.012 276.992C769.23 277.688 769.547 278.195 769.961 278.516C770.383 278.828 770.887 278.984 771.473 278.984C772.074 278.984 772.578 278.828 772.984 278.516C773.391 278.195 773.699 277.688 773.91 276.992C774.121 276.289 774.227 275.367 774.227 274.227ZM781.211 263.938H783.836L788.77 277.098L793.691 263.938H796.316L789.801 281H787.715L781.211 263.938ZM780.016 263.938H782.512L782.945 275.328V281H780.016V263.938ZM795.016 263.938H797.523V281H794.582V275.328L795.016 263.938Z" fill="#919193"/>
<path d="M760 124.879V142H757.176V128.23L752.992 129.648V127.316L759.66 124.879H760ZM777.051 132.039V134.828C777.051 136.609 776.82 138.043 776.359 139.129C775.898 140.215 775.25 141.004 774.414 141.496C773.578 141.988 772.598 142.234 771.473 142.234C770.355 142.234 769.375 141.988 768.531 141.496C767.688 141.004 767.031 140.215 766.562 139.129C766.094 138.043 765.859 136.609 765.859 134.828V132.039C765.859 130.258 766.09 128.832 766.551 127.762C767.02 126.684 767.672 125.906 768.508 125.43C769.352 124.945 770.332 124.703 771.449 124.703C772.574 124.703 773.555 124.945 774.391 125.43C775.234 125.906 775.887 126.684 776.348 127.762C776.816 128.832 777.051 130.258 777.051 132.039ZM774.227 135.227V131.617C774.227 130.477 774.117 129.562 773.898 128.875C773.688 128.188 773.375 127.695 772.961 127.398C772.547 127.094 772.043 126.941 771.449 126.941C770.863 126.941 770.363 127.094 769.949 127.398C769.543 127.695 769.23 128.188 769.012 128.875C768.801 129.562 768.695 130.477 768.695 131.617V135.227C768.695 136.367 768.801 137.289 769.012 137.992C769.23 138.688 769.547 139.195 769.961 139.516C770.383 139.828 770.887 139.984 771.473 139.984C772.074 139.984 772.578 139.828 772.984 139.516C773.391 139.195 773.699 138.688 773.91 137.992C774.121 137.289 774.227 136.367 774.227 135.227ZM790.691 132.039V134.828C790.691 136.609 790.461 138.043 790 139.129C789.539 140.215 788.891 141.004 788.055 141.496C787.219 141.988 786.238 142.234 785.113 142.234C783.996 142.234 783.016 141.988 782.172 141.496C781.328 141.004 780.672 140.215 780.203 139.129C779.734 138.043 779.5 136.609 779.5 134.828V132.039C779.5 130.258 779.73 128.832 780.191 127.762C780.66 126.684 781.312 125.906 782.148 125.43C782.992 124.945 783.973 124.703 785.09 124.703C786.215 124.703 787.195 124.945 788.031 125.43C788.875 125.906 789.527 126.684 789.988 127.762C790.457 128.832 790.691 130.258 790.691 132.039ZM787.867 135.227V131.617C787.867 130.477 787.758 129.562 787.539 128.875C787.328 128.188 787.016 127.695 786.602 127.398C786.188 127.094 785.684 126.941 785.09 126.941C784.504 126.941 784.004 127.094 783.59 127.398C783.184 127.695 782.871 128.188 782.652 128.875C782.441 129.562 782.336 130.477 782.336 131.617V135.227C782.336 136.367 782.441 137.289 782.652 137.992C782.871 138.688 783.188 139.195 783.602 139.516C784.023 139.828 784.527 139.984 785.113 139.984C785.715 139.984 786.219 139.828 786.625 139.516C787.031 139.195 787.34 138.688 787.551 137.992C787.762 137.289 787.867 136.367 787.867 135.227ZM794.852 124.938H797.477L802.41 138.098L807.332 124.938H809.957L803.441 142H801.355L794.852 124.938ZM793.656 124.938H796.152L796.586 136.328V142H793.656V124.938ZM808.656 124.938H811.164V142H808.223V136.328L808.656 124.938Z" fill="#919193"/>
<path d="M150 354C150 348.477 154.477 344 160 344H295C300.523 344 305 348.477 305 354V556H150V354Z" fill="#36394D" fill-opacity="0.79"/>
<path d="M336 211C336 205.477 340.477 201 346 201H481C486.523 201 491 205.477 491 211V557H336V211Z" fill="#4258CD" fill-opacity="0.75"/>
<path d="M522 293C522 287.477 526.477 283 532 283H667C672.523 283 677 287.477 677 293V556H522V293Z" fill="#A5AB62" fill-opacity="0.78"/>
<path d="M197.998 602.648H200.514L205.242 615.26L209.958 602.648H212.474L206.23 619H204.231L197.998 602.648ZM196.853 602.648H199.245L199.66 613.564V619H196.853V602.648ZM211.228 602.648H213.631V619H210.812V613.564L211.228 602.648ZM223.559 616.563V610.768C223.559 610.124 223.383 609.611 223.031 609.229C222.679 608.848 222.14 608.657 221.414 608.657C220.972 608.657 220.59 608.732 220.268 608.881C219.946 609.031 219.695 609.233 219.516 609.488C219.336 609.742 219.246 610.031 219.246 610.353H216.551C216.551 609.709 216.757 609.102 217.168 608.533C217.58 607.964 218.16 607.504 218.909 607.152C219.658 606.8 220.541 606.624 221.56 606.624C222.473 606.624 223.282 606.778 223.985 607.084C224.697 607.391 225.254 607.856 225.659 608.477C226.07 609.091 226.276 609.862 226.276 610.791V616.192C226.276 616.746 226.314 617.244 226.389 617.686C226.471 618.12 226.587 618.498 226.737 618.82V619H223.963C223.836 618.708 223.735 618.337 223.66 617.888C223.592 617.431 223.559 616.99 223.559 616.563ZM223.952 611.61L223.974 613.284H222.031C221.021 613.284 220.261 613.467 219.751 613.834C219.242 614.193 218.988 614.699 218.988 615.35C218.988 615.844 219.153 616.256 219.482 616.585C219.819 616.915 220.298 617.08 220.919 617.08C221.473 617.08 221.956 616.967 222.368 616.743C222.787 616.511 223.117 616.23 223.356 615.9C223.596 615.563 223.723 615.245 223.738 614.946L224.614 616.147C224.524 616.454 224.371 616.784 224.154 617.136C223.937 617.488 223.652 617.825 223.3 618.146C222.956 618.461 222.54 618.719 222.054 618.921C221.575 619.124 221.021 619.225 220.392 619.225C219.598 619.225 218.89 619.067 218.269 618.753C217.648 618.431 217.161 618 216.809 617.461C216.457 616.915 216.281 616.297 216.281 615.608C216.281 614.321 216.76 613.332 217.719 612.644C218.685 611.955 220.055 611.61 221.829 611.61H223.952ZM232.453 617.675L235.755 606.849H238.652L233.778 620.853C233.666 621.153 233.52 621.478 233.34 621.83C233.161 622.182 232.925 622.515 232.633 622.83C232.348 623.152 231.993 623.41 231.566 623.604C231.139 623.807 230.623 623.908 230.016 623.908C229.777 623.908 229.544 623.885 229.32 623.84C229.103 623.803 228.897 623.762 228.702 623.717L228.691 621.65C228.766 621.658 228.856 621.665 228.96 621.673C229.073 621.68 229.163 621.684 229.23 621.684C229.904 621.684 230.413 621.557 230.757 621.302C231.102 621.055 231.375 620.632 231.577 620.033L232.453 617.675ZM230.589 606.849L233.475 615.945L233.958 618.798L232.083 619.281L227.669 606.849H230.589Z" fill="#6F7078"/>
<path d="M392.031 614.092V602.648H394.838V614.092C394.838 615.178 394.606 616.103 394.142 616.866C393.678 617.63 393.045 618.214 392.244 618.618C391.443 619.022 390.533 619.225 389.515 619.225C388.474 619.225 387.55 619.049 386.741 618.697C385.94 618.345 385.311 617.806 384.854 617.08C384.398 616.353 384.169 615.432 384.169 614.317H387C387 615.275 387.228 615.96 387.685 616.372C388.141 616.784 388.751 616.99 389.515 616.99C390.002 616.99 390.432 616.881 390.807 616.664C391.188 616.439 391.488 616.114 391.705 615.687C391.922 615.253 392.031 614.721 392.031 614.092ZM405.125 616.136V606.849H407.843V619H405.283L405.125 616.136ZM405.507 613.609L406.417 613.587C406.417 614.673 406.256 615.642 405.934 616.496C405.612 617.342 405.111 618.008 404.429 618.495C403.748 618.981 402.864 619.225 401.779 619.225C400.588 619.225 399.619 618.873 398.87 618.169C398.129 617.465 397.758 616.308 397.758 614.699V606.849H400.465V614.721C400.465 615.305 400.555 615.769 400.734 616.114C400.914 616.451 401.154 616.69 401.453 616.833C401.753 616.967 402.082 617.035 402.441 617.035C403.213 617.035 403.819 616.885 404.261 616.585C404.71 616.278 405.028 615.867 405.215 615.35C405.41 614.833 405.507 614.253 405.507 613.609ZM413.301 609.443V619H410.595V606.849H413.144L413.301 609.443ZM412.818 612.475L411.942 612.464C411.957 611.303 412.167 610.285 412.571 609.409C412.976 608.533 413.537 607.852 414.256 607.365C414.982 606.871 415.828 606.624 416.794 606.624C417.58 606.624 418.261 606.774 418.838 607.073C419.414 607.365 419.86 607.844 420.174 608.511C420.496 609.17 420.657 610.049 420.657 611.15V619H417.939V611.139C417.939 610.555 417.853 610.094 417.681 609.757C417.516 609.413 417.273 609.17 416.951 609.027C416.637 608.878 416.244 608.803 415.772 608.803C415.308 608.803 414.892 608.9 414.525 609.095C414.159 609.289 413.848 609.555 413.593 609.892C413.346 610.229 413.155 610.618 413.021 611.06C412.886 611.502 412.818 611.973 412.818 612.475ZM428.777 619.225C427.571 619.225 426.535 618.966 425.666 618.45C424.798 617.933 424.124 617.233 423.645 616.35C423.173 615.459 422.937 614.455 422.937 613.34V612.891C422.937 611.618 423.177 610.514 423.656 609.578C424.135 608.634 424.79 607.908 425.621 607.399C426.46 606.882 427.403 606.624 428.451 606.624C429.612 606.624 430.574 606.879 431.337 607.388C432.109 607.897 432.685 608.597 433.067 609.488C433.449 610.379 433.64 611.408 433.64 612.576V613.733H424.251V611.79H430.967V611.577C430.952 611.09 430.854 610.633 430.675 610.207C430.503 609.78 430.237 609.435 429.877 609.173C429.518 608.911 429.039 608.78 428.44 608.78C427.841 608.78 427.332 608.949 426.913 609.286C426.501 609.615 426.186 610.09 425.969 610.712C425.76 611.326 425.655 612.052 425.655 612.891V613.34C425.655 614.044 425.782 614.68 426.037 615.249C426.299 615.811 426.677 616.256 427.171 616.585C427.665 616.915 428.253 617.08 428.934 617.08C429.585 617.08 430.166 616.949 430.675 616.687C431.184 616.424 431.626 616.054 432 615.575L433.426 616.956C433.037 617.533 432.46 618.057 431.697 618.528C430.941 618.993 429.967 619.225 428.777 619.225Z" fill="#6F7078"/>
<path d="M569.396 604.827L564.511 619H561.557L567.711 602.648H569.598L569.396 604.827ZM573.484 619L568.587 604.827L568.374 602.648H570.272L576.449 619H573.484ZM573.248 612.936V615.17H564.354V612.936H573.248ZM585.186 616.136V606.849H587.904V619H585.343L585.186 616.136ZM585.568 613.609L586.478 613.587C586.478 614.673 586.317 615.642 585.995 616.496C585.673 617.342 585.171 618.008 584.49 618.495C583.808 618.981 582.925 619.225 581.839 619.225C580.649 619.225 579.679 618.873 578.931 618.169C578.189 617.465 577.819 616.308 577.819 614.699V606.849H580.525V614.721C580.525 615.305 580.615 615.769 580.795 616.114C580.975 616.451 581.214 616.69 581.514 616.833C581.813 616.967 582.143 617.035 582.502 617.035C583.273 617.035 583.88 616.885 584.321 616.585C584.771 616.278 585.089 615.867 585.276 615.35C585.471 614.833 585.568 614.253 585.568 613.609ZM598.46 606.849H600.92V618.663C600.92 619.756 600.688 620.685 600.224 621.448C599.759 622.212 599.112 622.792 598.281 623.189C597.45 623.593 596.488 623.795 595.395 623.795C594.93 623.795 594.414 623.728 593.845 623.593C593.283 623.458 592.737 623.241 592.205 622.942C591.681 622.65 591.243 622.264 590.891 621.785L592.16 620.19C592.594 620.707 593.074 621.085 593.598 621.325C594.122 621.564 594.672 621.684 595.249 621.684C596.169 621.684 596.892 621.43 597.416 620.92C597.948 620.411 598.213 619.678 598.213 618.719V609.6L598.46 606.849ZM590.206 613.059V612.823C590.206 611.588 590.401 610.506 590.79 609.578C591.187 608.642 591.748 607.916 592.475 607.399C593.201 606.882 594.066 606.624 595.069 606.624C595.855 606.624 596.525 606.766 597.079 607.051C597.641 607.335 598.109 607.743 598.483 608.275C598.857 608.799 599.149 609.428 599.359 610.162C599.576 610.888 599.737 611.696 599.842 612.587V613.34C599.715 614.493 599.464 615.515 599.089 616.406C598.722 617.289 598.21 617.982 597.551 618.483C596.892 618.978 596.057 619.225 595.046 619.225C594.058 619.225 593.201 618.959 592.475 618.427C591.748 617.888 591.187 617.154 590.79 616.226C590.401 615.298 590.206 614.242 590.206 613.059ZM592.913 612.823V613.059C592.913 613.793 593.01 614.463 593.205 615.069C593.407 615.668 593.714 616.147 594.125 616.507C594.537 616.859 595.069 617.035 595.72 617.035C596.357 617.035 596.877 616.9 597.281 616.63C597.693 616.361 598.007 615.998 598.225 615.541C598.449 615.077 598.606 614.56 598.696 613.991V611.958C598.651 611.517 598.558 611.105 598.416 610.723C598.281 610.341 598.097 610.008 597.865 609.724C597.633 609.432 597.341 609.207 596.989 609.05C596.637 608.885 596.222 608.803 595.743 608.803C595.091 608.803 594.556 608.986 594.137 609.353C593.717 609.712 593.407 610.195 593.205 610.802C593.01 611.408 592.913 612.082 592.913 612.823ZM611.039 616.136V606.849H613.756V619H611.196L611.039 616.136ZM611.42 613.609L612.33 613.587C612.33 614.673 612.169 615.642 611.847 616.496C611.525 617.342 611.024 618.008 610.342 618.495C609.661 618.981 608.778 619.225 607.692 619.225C606.501 619.225 605.532 618.873 604.783 618.169C604.042 617.465 603.671 616.308 603.671 614.699V606.849H606.378V614.721C606.378 615.305 606.468 615.769 606.647 616.114C606.827 616.451 607.067 616.69 607.366 616.833C607.666 616.967 607.995 617.035 608.354 617.035C609.126 617.035 609.732 616.885 610.174 616.585C610.623 616.278 610.941 615.867 611.128 615.35C611.323 614.833 611.42 614.253 611.42 613.609ZM623.347 615.709C623.347 615.44 623.28 615.197 623.145 614.979C623.01 614.755 622.752 614.553 622.37 614.373C621.996 614.193 621.442 614.029 620.708 613.879C619.847 613.692 619.087 613.448 618.428 613.149C617.777 612.849 617.268 612.468 616.901 612.003C616.542 611.539 616.362 610.966 616.362 610.285C616.362 609.619 616.549 609.012 616.923 608.466C617.305 607.912 617.848 607.466 618.552 607.129C619.256 606.792 620.087 606.624 621.045 606.624C622.063 606.624 622.935 606.796 623.662 607.141C624.395 607.478 624.957 607.938 625.346 608.522C625.736 609.098 625.93 609.75 625.93 610.476H623.224C623.224 609.989 623.04 609.559 622.673 609.185C622.314 608.81 621.771 608.623 621.045 608.623C620.581 608.623 620.195 608.698 619.888 608.848C619.589 608.99 619.364 609.177 619.214 609.409C619.072 609.641 619.001 609.896 619.001 610.173C619.001 610.442 619.072 610.678 619.214 610.88C619.364 611.075 619.619 611.251 619.978 611.408C620.345 611.558 620.858 611.704 621.517 611.846C622.445 612.041 623.242 612.292 623.909 612.599C624.583 612.898 625.099 613.287 625.458 613.767C625.818 614.238 625.998 614.837 625.998 615.563C625.998 616.275 625.795 616.907 625.391 617.461C624.987 618.015 624.414 618.45 623.673 618.764C622.939 619.071 622.074 619.225 621.079 619.225C619.978 619.225 619.046 619.03 618.282 618.641C617.519 618.244 616.938 617.738 616.542 617.125C616.152 616.503 615.958 615.859 615.958 615.193H618.574C618.604 615.694 618.743 616.095 618.99 616.395C619.244 616.687 619.559 616.9 619.933 617.035C620.315 617.162 620.708 617.226 621.112 617.226C621.599 617.226 622.007 617.162 622.336 617.035C622.666 616.9 622.917 616.72 623.089 616.496C623.261 616.264 623.347 616.001 623.347 615.709ZM633.938 606.849V608.825H627.087V606.849H633.938ZM629.063 603.873H631.77V615.642C631.77 616.016 631.822 616.305 631.927 616.507C632.04 616.701 632.193 616.833 632.388 616.9C632.582 616.967 632.811 617.001 633.073 617.001C633.26 617.001 633.44 616.99 633.612 616.967C633.784 616.945 633.923 616.922 634.027 616.9L634.039 618.966C633.814 619.034 633.552 619.094 633.252 619.146C632.96 619.198 632.624 619.225 632.242 619.225C631.62 619.225 631.07 619.116 630.591 618.899C630.112 618.674 629.737 618.311 629.468 617.81C629.198 617.308 629.063 616.642 629.063 615.811V603.873Z" fill="#6F7078"/>
<path d="M3 645H917V870C917 881.046 908.046 890 897 890H23C11.9543 890 3 881.046 3 870V645Z" fill="url(#paint0_linear_255_42)"/>
<path d="M282.969 752L277.375 746.375C276.271 747.104 274.958 748.094 273.438 749.344C271.938 750.594 270.479 752.135 269.062 753.969L261.844 748.344C263.427 746.302 265.052 744.552 266.719 743.094C268.406 741.615 269.948 740.396 271.344 739.438C272.74 738.458 273.885 737.74 274.781 737.281C275.677 736.802 276.167 736.542 276.25 736.5L279.188 735.156L286.812 742.781H290.906V752H282.969ZM306.469 743.031C306.469 749.01 303.115 752 296.406 752H290.906C290.573 752 290.24 751.906 289.906 751.719C289.552 751.531 289.375 751.365 289.375 751.219V743.5C289.375 743.271 289.573 743.094 289.969 742.969C290.344 742.844 290.656 742.781 290.906 742.781H294.562C295.625 742.781 296.333 742.417 296.688 741.688C297.062 740.958 297.25 740.281 297.25 739.656V736.125H306.469V743.031ZM301.219 729.781C299.635 729.781 298.312 729.25 297.25 728.188C296.188 727.125 295.656 725.802 295.656 724.219C295.656 722.677 296.188 721.375 297.25 720.312C298.312 719.25 299.635 718.719 301.219 718.719C302.74 718.719 304.031 719.25 305.094 720.312C306.177 721.375 306.719 722.677 306.719 724.219C306.719 725.802 306.177 727.125 305.094 728.188C304.031 729.25 302.74 729.781 301.219 729.781ZM321 752C314.312 752 310.969 749.01 310.969 743.031V720.562H320.188V739.656C320.188 740.281 320.354 740.958 320.688 741.688C321.042 742.417 321.771 742.781 322.875 742.781H323.688V752H321ZM340.562 752C337.875 752 335.781 751.531 334.281 750.594C333.948 750.51 333.625 750.292 333.312 749.938C333.021 750.25 332.729 750.469 332.438 750.594C330.812 751.531 328.698 752 326.094 752H323.719C323.385 752 323.052 751.906 322.719 751.719C322.365 751.531 322.188 751.365 322.188 751.219V743.5C322.188 743.271 322.385 743.094 322.781 742.969C323.156 742.844 323.469 742.781 323.719 742.781H326.094C326.906 742.781 327.542 742.5 328 741.938C328.479 741.354 328.719 740.594 328.719 739.656V736.125H337.875V739.656C337.875 740.427 338.083 741.146 338.5 741.812C338.938 742.458 339.625 742.781 340.562 742.781H346.562V752H340.562ZM325.312 757.062H341.688V764.938H325.312V757.062ZM346.594 752C346.26 752 345.927 751.906 345.594 751.719C345.24 751.531 345.062 751.365 345.062 751.219V743.5C345.062 743.271 345.26 743.094 345.656 742.969C346.031 742.844 346.344 742.781 346.594 742.781H349.406C349.156 741.844 349.031 740.823 349.031 739.719C349.031 738.01 349.344 736.427 349.969 734.969C350.615 733.49 351.49 732.198 352.594 731.094C353.719 729.969 355.01 729.094 356.469 728.469C357.948 727.823 359.542 727.5 361.25 727.5L363.094 721.469C363.365 721.552 363.917 721.74 364.75 722.031C365.583 722.302 366.583 722.688 367.75 723.188C368.917 723.667 370.208 724.25 371.625 724.938C373.062 725.604 374.49 726.365 375.906 727.219C377.323 728.073 378.667 729.042 379.938 730.125C381.208 731.188 382.323 732.333 383.281 733.562C384.969 735.833 386.021 738.104 386.438 740.375C386.875 742.625 386.625 744.729 385.688 746.688C384.833 748.354 383.562 749.656 381.875 750.594C380.208 751.531 378.281 752 376.094 752H346.594ZM358.188 739.719C358.188 740.573 358.49 741.302 359.094 741.906C359.719 742.49 360.458 742.781 361.312 742.781C362.167 742.781 362.875 742.49 363.438 741.906C364.021 741.302 364.312 740.573 364.312 739.719C364.312 738.865 364.021 738.135 363.438 737.531C362.875 736.927 362.167 736.625 361.312 736.625C360.458 736.625 359.719 736.927 359.094 737.531C358.49 738.135 358.188 738.865 358.188 739.719ZM377.438 742.531C377.479 742.406 377.427 742.042 377.281 741.438C377.135 740.833 376.698 740.042 375.969 739.062C375.635 738.646 375.219 738.219 374.719 737.781C374.24 737.323 373.698 736.896 373.094 736.5C373.385 737.396 373.531 738.469 373.531 739.719C373.531 740.823 373.406 741.844 373.156 742.781H376.094C376.823 742.781 377.271 742.698 377.438 742.531ZM401.188 752C394.5 752 391.156 749.01 391.156 743.031V720.562H400.375V739.656C400.375 740.281 400.542 740.958 400.875 741.688C401.229 742.417 401.958 742.781 403.062 742.781H403.875V752H401.188ZM432.125 745.594C431.354 747.698 430.458 749.469 429.438 750.906C428.417 752.323 427.312 753.469 426.125 754.344C424.958 755.219 423.76 755.844 422.531 756.219C421.302 756.615 420.083 756.812 418.875 756.812C418.25 756.812 417.656 756.76 417.094 756.656C416.531 756.573 415.958 756.448 415.375 756.281C414.208 755.948 413.104 755.406 412.062 754.656C411.021 753.906 410.135 753.021 409.406 752H403.656C403.302 751.958 403.01 751.854 402.781 751.688C402.552 751.521 402.438 751.365 402.438 751.219V743.5C402.438 743.271 402.594 743.094 402.906 742.969C403.198 742.844 403.469 742.781 403.719 742.781H404.031H407.562C407.646 742.323 407.75 741.833 407.875 741.312C408 740.792 408.167 740.281 408.375 739.781L407.438 739.406L411.406 731.062L433.531 741.688L432.125 745.594ZM418.062 747.531C418.771 747.74 419.417 747.698 420 747.406C420.583 747.094 421.104 746.667 421.562 746.125L416.719 743.812C416.573 744.188 416.49 744.594 416.469 745.031C416.448 745.448 416.531 745.833 416.719 746.188C416.844 746.604 417.042 746.917 417.312 747.125C417.583 747.312 417.833 747.448 418.062 747.531ZM459.75 748.219C459.25 749.031 458.625 749.688 457.875 750.188C457.125 750.667 456.312 751.052 455.438 751.344C454.562 751.615 453.656 751.792 452.719 751.875C451.781 751.958 450.844 752 449.906 752H439.094V742.781H447.781C449.24 742.781 449.969 742.208 449.969 741.062C449.969 740.583 449.802 739.958 449.469 739.188L445.812 731.781L454.125 727.75L458.156 736.062C458.76 737.292 459.344 738.625 459.906 740.062C460.49 741.5 460.781 742.958 460.781 744.438C460.781 745.083 460.708 745.729 460.562 746.375C460.417 747 460.146 747.615 459.75 748.219ZM486.406 752C485.469 754.271 484.104 756.385 482.312 758.344C480.521 760.302 478.281 762.052 475.594 763.594C475.115 763.073 474.615 762.5 474.094 761.875C473.594 761.271 473.073 760.656 472.531 760.031C472.01 759.406 471.5 758.802 471 758.219C470.521 757.656 470.083 757.146 469.688 756.688C470.896 756.083 472.021 755.427 473.062 754.719C474.104 754.01 475.052 753.104 475.906 752H467C466.667 751.521 466.292 750.604 465.875 749.25C465.479 747.875 465.281 746.292 465.281 744.5C465.281 743.146 465.479 741.719 465.875 740.219C466.292 738.719 466.969 737.354 467.906 736.125C468.844 734.896 470.052 733.875 471.531 733.062C473.031 732.25 474.854 731.844 477 731.844C478.792 731.844 480.323 732.219 481.594 732.969C482.885 733.719 483.958 734.656 484.812 735.781C485.667 736.906 486.323 738.104 486.781 739.375C487.26 740.625 487.583 741.76 487.75 742.781H489.844V752H486.406ZM479.281 742.781C479.281 741.969 478.958 741.26 478.312 740.656C477.688 740.031 476.948 739.719 476.094 739.719C475.323 739.719 474.604 740.021 473.938 740.625C473.292 741.208 472.969 741.927 472.969 742.781H479.281ZM526.375 742.781V752H489.844C489.51 752 489.177 751.906 488.844 751.719C488.49 751.531 488.312 751.365 488.312 751.219V743.5C488.312 743.271 488.51 743.094 488.906 742.969C489.281 742.844 489.594 742.781 489.844 742.781H526.375ZM533.156 757.25C534.427 756.229 535.542 755.26 536.5 754.344C537.458 753.427 538.281 752.375 538.969 751.188C539.656 749.979 540.198 748.531 540.594 746.844C541.01 745.156 541.302 743.031 541.469 740.469L550.688 741.062C550.479 744.208 550.094 746.917 549.531 749.188C548.969 751.438 548.208 753.448 547.25 755.219C546.292 756.99 545.115 758.604 543.719 760.062C542.344 761.521 540.74 762.969 538.906 764.406L533.156 757.25ZM554.844 720.562H564.188V752H554.844V720.562ZM589.375 748.219C588.875 749.031 588.25 749.688 587.5 750.188C586.75 750.667 585.938 751.052 585.062 751.344C584.188 751.615 583.281 751.792 582.344 751.875C581.406 751.958 580.469 752 579.531 752H568.719V742.781H577.406C578.865 742.781 579.594 742.208 579.594 741.062C579.594 740.583 579.427 739.958 579.094 739.188L575.438 731.781L583.75 727.75L587.781 736.062C588.385 737.292 588.969 738.625 589.531 740.062C590.115 741.5 590.406 742.958 590.406 744.438C590.406 745.083 590.333 745.729 590.188 746.375C590.042 747 589.771 747.615 589.375 748.219ZM616.031 752C615.094 754.271 613.729 756.385 611.938 758.344C610.146 760.302 607.906 762.052 605.219 763.594C604.74 763.073 604.24 762.5 603.719 761.875C603.219 761.271 602.698 760.656 602.156 760.031C601.635 759.406 601.125 758.802 600.625 758.219C600.146 757.656 599.708 757.146 599.312 756.688C600.521 756.083 601.646 755.427 602.688 754.719C603.729 754.01 604.677 753.104 605.531 752H596.625C596.292 751.521 595.917 750.604 595.5 749.25C595.104 747.875 594.906 746.292 594.906 744.5C594.906 743.146 595.104 741.719 595.5 740.219C595.917 738.719 596.594 737.354 597.531 736.125C598.469 734.896 599.677 733.875 601.156 733.062C602.656 732.25 604.479 731.844 606.625 731.844C608.417 731.844 609.948 732.219 611.219 732.969C612.51 733.719 613.583 734.656 614.438 735.781C615.292 736.906 615.948 738.104 616.406 739.375C616.885 740.625 617.208 741.76 617.375 742.781H619.469V752H616.031ZM608.906 742.781C608.906 741.969 608.583 741.26 607.938 740.656C607.312 740.031 606.573 739.719 605.719 739.719C604.948 739.719 604.229 740.021 603.562 740.625C602.917 741.208 602.594 741.927 602.594 742.781H608.906ZM620.812 742.781L630.938 727.281L638.656 732.281L631.875 742.781H639.625V752H619.469C619.135 752 618.802 751.906 618.469 751.719C618.115 751.531 617.938 751.365 617.938 751.219V743.5C617.938 743.271 618.135 743.094 618.531 742.969C618.906 742.844 619.219 742.781 619.469 742.781H620.812ZM631.125 723.406C629.542 723.406 628.219 722.875 627.156 721.812C626.094 720.729 625.562 719.396 625.562 717.812C625.562 716.292 626.094 715 627.156 713.938C628.219 712.854 629.542 712.312 631.125 712.312C632.646 712.312 633.938 712.854 635 713.938C636.083 715 636.625 716.292 636.625 717.812C636.625 719.396 636.083 720.729 635 721.812C633.938 722.875 632.646 723.406 631.125 723.406Z" fill="white"/>
<path d="M359.038 794.352C359.038 795.677 359.165 796.983 359.419 798.271C359.681 799.559 360.071 800.719 360.587 801.752C361.104 802.786 361.755 803.594 362.542 804.178L361.913 805.885C361.059 805.481 360.288 804.901 359.599 804.145C358.91 803.388 358.323 802.497 357.836 801.472C357.357 800.453 356.986 799.342 356.724 798.136C356.47 796.931 356.342 795.684 356.342 794.396C356.342 793.116 356.47 791.87 356.724 790.657C356.986 789.444 357.357 788.321 357.836 787.288C358.323 786.247 358.91 785.345 359.599 784.581C360.288 783.81 361.059 783.226 361.913 782.829L362.542 784.536C361.755 785.113 361.104 785.921 360.587 786.962C360.071 787.995 359.681 789.156 359.419 790.443C359.165 791.724 359.038 793.026 359.038 794.352ZM370.773 790.612L372.716 792.555L370.773 794.498L368.831 792.555L370.773 790.612ZM370.919 802.988C372.028 802.988 372.9 802.808 373.536 802.449C374.173 802.089 374.622 801.606 374.884 801C375.153 800.394 375.288 799.716 375.288 798.967C375.288 798.144 375.161 797.301 374.906 796.44C374.652 795.579 374.375 794.782 374.075 794.048L376.86 792.993C377.28 794.086 377.575 795.104 377.748 796.047C377.927 796.983 378.017 797.927 378.017 798.877C378.017 800.322 377.751 801.573 377.22 802.628C376.688 803.692 375.895 804.511 374.839 805.088C373.791 805.672 372.484 805.964 370.919 805.964C369.302 805.964 367.977 805.657 366.944 805.043C365.918 804.437 365.158 803.609 364.664 802.561C364.177 801.513 363.934 800.337 363.934 799.035C363.934 798.159 364.028 797.257 364.215 796.328C364.41 795.392 364.683 794.468 365.035 793.554L367.584 794.542C367.322 795.306 367.101 796.066 366.921 796.822C366.742 797.571 366.652 798.275 366.652 798.934C366.652 799.675 366.779 800.352 367.034 800.966C367.296 801.58 367.737 802.071 368.359 802.438C368.98 802.804 369.834 802.988 370.919 802.988ZM380.521 785.199H383.363V795.666C383.363 796.512 383.49 797.111 383.745 797.462C383.999 797.807 384.497 797.979 385.238 797.979H385.508V801H385.238C383.614 801 382.419 800.577 381.656 799.731C380.9 798.885 380.521 797.601 380.521 795.879V785.199ZM392.426 794.902C392.104 794.902 391.812 795.01 391.55 795.228C391.295 795.445 391.067 795.71 390.865 796.025C390.67 796.332 390.505 796.631 390.371 796.923C390.588 797.133 390.797 797.316 391 797.474C391.209 797.623 391.404 797.751 391.583 797.855C391.861 798.013 392.115 798.125 392.347 798.192C392.587 798.26 392.796 798.293 392.976 798.293C393.403 798.293 393.71 798.151 393.897 797.867C394.092 797.582 394.189 797.238 394.189 796.833C394.189 796.302 394.032 795.849 393.717 795.475C393.403 795.093 392.972 794.902 392.426 794.902ZM392.965 801.258C392.448 801.258 391.958 801.183 391.494 801.034C391.029 800.884 390.576 800.674 390.135 800.405C389.701 800.135 389.263 799.825 388.821 799.473C388.544 799.765 388.263 800.027 387.979 800.259C387.694 800.483 387.365 800.663 386.99 800.798C386.616 800.933 386.144 801 385.575 801H385.104V797.979H385.519C385.916 797.979 386.264 797.837 386.563 797.552C386.863 797.268 387.151 796.901 387.428 796.452C387.705 795.995 387.99 795.516 388.282 795.014C388.581 794.505 388.914 794.022 389.281 793.565C389.648 793.109 390.079 792.738 390.573 792.454C391.067 792.169 391.655 792.027 392.336 792.027C393.257 792.027 394.054 792.248 394.728 792.689C395.409 793.124 395.933 793.7 396.3 794.419C396.667 795.138 396.851 795.924 396.851 796.777C396.851 797.646 396.705 798.417 396.413 799.091C396.121 799.765 395.686 800.296 395.11 800.686C394.541 801.067 393.826 801.258 392.965 801.258ZM402.926 791.724C403.645 791.724 404.274 791.892 404.813 792.229C405.352 792.558 405.809 793.015 406.183 793.599C406.565 794.176 406.861 794.842 407.07 795.598C407.287 796.347 407.418 797.14 407.463 797.979H408.396V801H407.261C406.999 802.086 406.557 803.029 405.936 803.83C405.315 804.639 404.495 805.312 403.477 805.852C402.458 806.398 401.212 806.814 399.737 807.098L398.715 804.335C399.696 804.141 400.587 803.886 401.388 803.572C402.196 803.265 402.874 802.894 403.42 802.46C403.967 802.026 404.334 801.539 404.521 801H403.331C401.833 801 400.695 800.689 399.917 800.068C399.138 799.446 398.749 798.454 398.749 797.092C398.749 796.53 398.831 795.939 398.996 795.317C399.168 794.696 399.426 794.112 399.771 793.565C400.115 793.019 400.549 792.577 401.073 792.24C401.597 791.896 402.215 791.724 402.926 791.724ZM403.297 797.979H404.835C404.806 797.59 404.746 797.2 404.656 796.811C404.566 796.422 404.442 796.07 404.285 795.755C404.135 795.433 403.944 795.179 403.712 794.992C403.488 794.797 403.218 794.7 402.904 794.7C402.529 794.7 402.23 794.834 402.005 795.104C401.788 795.366 401.635 795.677 401.545 796.036C401.455 796.388 401.41 796.702 401.41 796.979C401.41 797.399 401.579 797.672 401.916 797.799C402.252 797.919 402.713 797.979 403.297 797.979ZM407.969 797.979H408.766V801H407.969V797.979ZM412.944 786.524L414.797 788.366L412.944 790.23L411.091 788.366L412.944 786.524ZM409.148 786.524L411.023 788.366L409.148 790.23L407.317 788.366L409.148 786.524ZM409.721 801H408.474V797.979H409.698C410.424 797.979 410.956 797.848 411.293 797.586C411.637 797.316 411.81 796.826 411.81 796.115C411.81 795.703 411.765 795.168 411.675 794.509C411.592 793.85 411.446 793.116 411.237 792.308L413.955 791.578C414.142 792.311 414.28 793.034 414.37 793.745C414.467 794.449 414.516 795.123 414.516 795.767C414.516 796.815 414.366 797.732 414.067 798.518C413.767 799.297 413.27 799.907 412.573 800.349C411.877 800.783 410.926 801 409.721 801ZM419.39 794.352C419.39 793.026 419.263 791.724 419.008 790.443C418.754 789.156 418.364 787.995 417.84 786.962C417.324 785.921 416.676 785.113 415.897 784.536L416.515 782.829C417.376 783.226 418.147 783.806 418.829 784.57C419.517 785.333 420.105 786.232 420.592 787.265C421.078 788.291 421.449 789.41 421.704 790.623C421.958 791.828 422.085 793.071 422.085 794.352C422.085 795.639 421.958 796.89 421.704 798.103C421.449 799.308 421.078 800.424 420.592 801.449C420.105 802.482 419.517 803.377 418.829 804.133C418.147 804.897 417.376 805.481 416.515 805.885L415.897 804.178C416.676 803.594 417.324 802.786 417.84 801.752C418.364 800.719 418.754 799.559 419.008 798.271C419.263 796.983 419.39 795.677 419.39 794.352ZM439.976 802.404L441.918 804.347L439.976 806.29L438.033 804.347L439.976 802.404ZM446.175 793.206L448.814 792.88L449.05 795.991C449.087 796.59 449.248 797.073 449.533 797.44C449.817 797.799 450.278 797.979 450.914 797.979H451.161V801H450.914C450.061 801 449.349 800.843 448.78 800.528C448.219 800.214 447.755 799.765 447.388 799.181C446.938 799.607 446.426 799.956 445.849 800.225C445.273 800.495 444.595 800.693 443.816 800.82C443.038 800.94 442.117 801 441.054 801H439.178C437.861 801 436.659 800.903 435.573 800.708C434.488 800.506 433.552 800.18 432.766 799.731C431.979 799.282 431.373 798.683 430.946 797.934C430.52 797.185 430.306 796.261 430.306 795.16C430.306 794.516 430.377 793.891 430.52 793.285C430.669 792.671 430.853 792.098 431.07 791.566L433.585 792.521C433.458 792.865 433.335 793.262 433.215 793.711C433.095 794.153 433.035 794.58 433.035 794.992C433.035 795.591 433.189 796.085 433.496 796.474C433.81 796.856 434.244 797.159 434.798 797.384C435.36 797.601 436.011 797.754 436.752 797.844C437.501 797.934 438.31 797.979 439.178 797.979H441.054C442.162 797.979 443.105 797.908 443.884 797.766C444.662 797.623 445.258 797.38 445.669 797.036C446.081 796.684 446.287 796.208 446.287 795.609C446.287 795.243 446.276 794.838 446.253 794.396C446.231 793.947 446.205 793.55 446.175 793.206ZM464.548 801C463.874 801 463.298 800.861 462.818 800.584C462.339 800.3 461.946 799.941 461.639 799.506C461.25 799.956 460.782 800.319 460.235 800.596C459.689 800.865 459.094 801 458.45 801C457.671 801 457.027 800.869 456.518 800.607C456.016 800.337 455.608 799.978 455.294 799.529C454.89 799.986 454.388 800.345 453.789 800.607C453.19 800.869 452.441 801 451.543 801H450.757V797.979H451.565C452.411 797.979 453.037 797.826 453.441 797.519C453.845 797.204 454.047 796.643 454.047 795.834C454.047 795.714 454.04 795.535 454.025 795.295C454.01 795.055 453.991 794.786 453.969 794.486C453.954 794.187 453.935 793.895 453.913 793.61L456.541 793.285L456.776 796.137C456.799 796.482 456.874 796.796 457.001 797.081C457.136 797.358 457.323 797.578 457.562 797.743C457.81 797.9 458.113 797.979 458.472 797.979C459.131 797.979 459.599 797.796 459.876 797.429C460.153 797.054 460.292 796.523 460.292 795.834C460.292 795.722 460.284 795.546 460.269 795.306C460.262 795.059 460.247 794.786 460.224 794.486C460.202 794.187 460.179 793.895 460.157 793.61L462.785 793.285L463.021 796.137C463.043 796.467 463.107 796.774 463.211 797.058C463.324 797.335 463.488 797.56 463.706 797.732C463.923 797.897 464.2 797.979 464.537 797.979C464.851 797.979 465.102 797.889 465.289 797.709C465.476 797.522 465.611 797.268 465.693 796.946C465.776 796.624 465.817 796.261 465.817 795.856C465.817 795.587 465.802 795.22 465.772 794.756C465.75 794.284 465.72 793.816 465.682 793.352L468.31 793.026L468.546 796.137C468.568 796.527 468.647 796.86 468.782 797.137C468.924 797.406 469.126 797.616 469.388 797.766C469.65 797.908 469.98 797.979 470.376 797.979H470.691V801H470.399C469.688 801 469.066 800.876 468.535 800.629C468.011 800.375 467.606 800.027 467.322 799.585C467.022 799.997 466.648 800.337 466.199 800.607C465.757 800.869 465.207 801 464.548 801ZM470.298 797.979H472.185C473.195 797.979 474.142 797.867 475.026 797.642C475.917 797.417 476.819 797.103 477.732 796.699C478.653 796.287 479.653 795.804 480.731 795.25C480.454 795.13 480.143 795.003 479.799 794.868C479.462 794.733 479.125 794.602 478.788 794.475C478.459 794.34 478.167 794.228 477.912 794.138C477.65 794.033 477.414 793.947 477.205 793.88C477.002 793.805 476.826 793.749 476.677 793.711C476.535 793.674 476.418 793.655 476.329 793.655C475.909 793.655 475.509 793.786 475.127 794.048C474.753 794.303 474.453 794.576 474.229 794.868L473.689 795.542L471.331 794.385L471.769 793.678C472.286 792.824 472.933 792.12 473.712 791.566C474.491 791.012 475.367 790.735 476.34 790.735C477.006 790.735 477.643 790.855 478.249 791.095C478.863 791.327 479.481 791.596 480.102 791.903C480.768 792.233 481.349 792.506 481.843 792.723C482.337 792.933 482.779 793.105 483.168 793.24C483.565 793.367 483.95 793.464 484.325 793.532C484.699 793.592 485.103 793.633 485.538 793.655V796.429C485.021 796.497 484.523 796.616 484.044 796.789C483.565 796.953 483.052 797.17 482.505 797.44C481.959 797.709 481.33 798.035 480.619 798.417C479.66 798.926 478.739 799.375 477.856 799.765C476.98 800.154 476.082 800.457 475.161 800.674C474.247 800.891 473.244 801 472.151 801H470.298V797.979ZM501.182 801C500.822 801 500.489 800.959 500.182 800.876C499.875 800.794 499.621 800.689 499.418 800.562C499.239 801.678 498.868 802.681 498.307 803.572C497.745 804.463 496.993 805.208 496.049 805.807C495.113 806.413 493.987 806.847 492.669 807.109L491.636 804.347C492.744 804.1 493.683 803.77 494.455 803.358C495.233 802.954 495.825 802.419 496.229 801.752C496.633 801.086 496.835 800.255 496.835 799.259C496.835 798.585 496.734 797.837 496.532 797.013C496.338 796.19 496.117 795.415 495.87 794.688L498.655 793.768L499.306 796.272C499.441 796.789 499.639 797.204 499.901 797.519C500.171 797.826 500.556 797.979 501.058 797.979H501.485V801H501.182ZM501.036 797.979H501.575V801H501.036V797.979ZM503.349 802.404L505.292 804.347L503.349 806.29L501.406 804.347L503.349 802.404ZM502.529 801H501.283V797.979H502.507C503.233 797.979 503.765 797.848 504.102 797.586C504.446 797.316 504.618 796.826 504.618 796.115C504.618 795.703 504.573 795.168 504.483 794.509C504.401 793.85 504.255 793.116 504.045 792.308L506.763 791.578C506.95 792.311 507.089 793.034 507.179 793.745C507.276 794.449 507.325 795.123 507.325 795.767C507.325 796.815 507.175 797.732 506.875 798.518C506.576 799.297 506.078 799.907 505.382 800.349C504.686 800.783 503.735 801 502.529 801ZM521.453 796.294C521.453 796.107 521.408 795.86 521.318 795.553C521.236 795.246 521.146 794.988 521.048 794.778L518.881 789.938L521.374 788.736L524.114 795.093C524.361 795.669 524.582 796.175 524.777 796.609C524.972 797.043 525.185 797.38 525.417 797.62C525.649 797.859 525.941 797.979 526.293 797.979H526.753V801H526.293C525.724 801 525.237 800.929 524.833 800.787C524.436 800.637 524.084 800.431 523.777 800.169C523.478 799.907 523.197 799.6 522.935 799.248C522.568 799.622 522.145 799.941 521.666 800.203C521.194 800.465 520.659 800.663 520.06 800.798C519.461 800.925 518.784 800.989 518.027 800.989C517.398 800.989 516.856 800.966 516.399 800.921C515.95 800.876 515.493 800.798 515.029 800.686V797.676C515.493 797.781 515.972 797.863 516.466 797.923C516.96 797.983 517.425 798.013 517.859 798.013C518.48 798.013 519.064 797.96 519.611 797.855C520.157 797.743 520.599 797.563 520.936 797.316C521.28 797.062 521.453 796.721 521.453 796.294ZM533.66 794.902C533.338 794.902 533.046 795.01 532.784 795.228C532.53 795.445 532.301 795.71 532.099 796.025C531.904 796.332 531.74 796.631 531.605 796.923C531.822 797.133 532.032 797.316 532.234 797.474C532.444 797.623 532.638 797.751 532.818 797.855C533.095 798.013 533.349 798.125 533.582 798.192C533.821 798.26 534.031 798.293 534.21 798.293C534.637 798.293 534.944 798.151 535.131 797.867C535.326 797.582 535.423 797.238 535.423 796.833C535.423 796.302 535.266 795.849 534.952 795.475C534.637 795.093 534.207 794.902 533.66 794.902ZM534.199 801.258C533.683 801.258 533.192 801.183 532.728 801.034C532.264 800.884 531.811 800.674 531.369 800.405C530.935 800.135 530.497 799.825 530.055 799.473C529.778 799.765 529.497 800.027 529.213 800.259C528.928 800.483 528.599 800.663 528.225 800.798C527.85 800.933 527.379 801 526.81 801H526.338V797.979H526.753C527.15 797.979 527.498 797.837 527.798 797.552C528.097 797.268 528.386 796.901 528.663 796.452C528.94 795.995 529.224 795.516 529.516 795.014C529.816 794.505 530.149 794.022 530.516 793.565C530.882 793.109 531.313 792.738 531.807 792.454C532.301 792.169 532.889 792.027 533.57 792.027C534.491 792.027 535.289 792.248 535.962 792.689C536.644 793.124 537.168 793.7 537.535 794.419C537.902 795.138 538.085 795.924 538.085 796.777C538.085 797.646 537.939 798.417 537.647 799.091C537.355 799.765 536.921 800.296 536.344 800.686C535.775 801.067 535.06 801.258 534.199 801.258ZM543.083 783.649C543.18 783.686 543.27 783.705 543.352 783.705C543.517 783.705 543.67 783.653 543.812 783.548C543.962 783.436 544.138 783.286 544.34 783.099L544.992 782.503L546.25 783.66L545.531 784.334C545.156 784.693 544.812 784.97 544.498 785.165C544.191 785.36 543.869 785.457 543.532 785.457C543.225 785.457 542.869 785.363 542.465 785.176L541.016 784.525C540.919 784.48 540.829 784.446 540.747 784.424C540.664 784.401 540.582 784.39 540.5 784.39C540.305 784.39 540.11 784.465 539.916 784.615C539.728 784.764 539.489 784.985 539.197 785.277L538.478 785.996L537.209 784.851L537.939 784.087C538.411 783.6 538.83 783.233 539.197 782.986C539.571 782.739 539.938 782.616 540.297 782.616C540.5 782.616 540.709 782.649 540.926 782.717C541.143 782.777 541.379 782.867 541.634 782.986L543.083 783.649ZM543.431 786.793V800.989H540.578V786.793H543.431ZM543.857 807.109L542.802 804.347C543.91 804.1 544.849 803.77 545.621 803.358C546.399 802.954 546.991 802.419 547.395 801.752C547.799 801.086 548.001 800.255 548.001 799.259C548.001 798.585 547.9 797.837 547.698 797.013C547.504 796.19 547.283 795.415 547.036 794.688L549.832 793.768C550.124 794.576 550.345 795.433 550.495 796.339C550.644 797.245 550.719 798.114 550.719 798.945C550.719 800.457 550.442 801.771 549.888 802.887C549.334 804.01 548.544 804.923 547.519 805.627C546.493 806.331 545.272 806.825 543.857 807.109ZM555.537 798.024C556.226 798.024 556.87 797.972 557.469 797.867C558.068 797.762 558.551 797.582 558.917 797.328C559.284 797.066 559.468 796.702 559.468 796.238C559.468 795.767 559.254 795.269 558.828 794.745C558.401 794.221 557.821 793.696 557.087 793.172C556.353 792.641 555.526 792.15 554.605 791.701L555.896 789.006C556.728 789.418 557.517 789.867 558.266 790.354C559.015 790.84 559.681 791.375 560.265 791.959C560.849 792.543 561.31 793.184 561.646 793.88C561.983 794.569 562.152 795.321 562.152 796.137C562.152 797.283 561.89 798.211 561.366 798.922C560.849 799.634 560.108 800.154 559.142 800.483C558.184 800.813 557.038 800.978 555.706 800.978C555.129 800.978 554.586 800.959 554.077 800.921C553.576 800.876 553.085 800.802 552.606 800.697V797.687C553.093 797.784 553.602 797.867 554.133 797.934C554.672 797.994 555.14 798.024 555.537 798.024Z" fill="#6F7078"/>
</g>
<defs>
<linearGradient id="paint0_linear_255_42" x1="400.5" y1="890" x2="428.829" y2="378.046" gradientUnits="userSpaceOnUse">
<stop offset="0.132159" stop-color="#1A1B1F"/>
<stop offset="0.412402" stop-color="#26272B" stop-opacity="0.82"/>
</linearGradient>
<clipPath id="clip0_255_42">
<rect width="917" height="890" fill="white"/>
</clipPath>
</defs>
</svg>
