<svg width="917" height="890" viewBox="0 0 917 890" fill="none" xmlns="http://www.w3.org/2000/svg">
<g clip-path="url(#clip0_260_295)">
<rect width="917" height="890" rx="20" fill="#1A1B1F"/>
<circle cx="459" cy="445" r="474.5" stroke="#626E9A" stroke-opacity="0.62"/>
<circle cx="459" cy="445" r="339.5" stroke="#626E9A" stroke-opacity="0.62"/>
<circle cx="459" cy="445" r="225" fill="#414F6B" fill-opacity="0.13"/>
<circle cx="459" cy="445" r="225" fill="#414F6B" fill-opacity="0.07"/>
<circle cx="459" cy="445" r="224.5" stroke="#626E9A" stroke-opacity="0.62"/>
<circle cx="459" cy="445" r="150" fill="#414F6B" fill-opacity="0.34"/>
<circle cx="459" cy="445" r="149.5" stroke="#626E9A" stroke-opacity="0.62"/>
<circle cx="459" cy="445" r="75" fill="#1E2131" fill-opacity="0.68"/>
<circle cx="459" cy="445" r="74.5" stroke="#63636F" stroke-opacity="0.71"/>
<g filter="url(#filter0_d_260_295)">
<path d="M438.977 446.547H456.454V464.024C456.454 473.676 448.629 481.5 438.977 481.5C429.325 481.5 421.5 473.676 421.5 464.024C421.5 454.372 429.325 446.547 438.977 446.547Z" fill="white" stroke="#DEE0E2"/>
<path d="M459 463.443V446.546H475.897C485.229 446.546 492.794 454.111 492.794 463.443C492.794 472.775 485.229 480.34 475.897 480.34C466.565 480.34 459 472.775 459 463.443Z" fill="white" stroke="#DEE0E2"/>
<path d="M477.25 444H459V425.75C459 415.671 467.171 407.5 477.25 407.5C487.329 407.5 495.5 415.671 495.5 425.75C495.5 435.829 487.329 444 477.25 444Z" fill="white" stroke="#DEE0E2"/>
</g>
<path d="M456.454 428.07V444H440.523C431.725 444 424.593 436.868 424.593 428.07C424.593 419.272 431.725 412.14 440.523 412.14C449.321 412.14 456.454 419.272 456.454 428.07Z" fill="white" stroke="#DEE0E2"/>
<circle cx="418" cy="710" r="75" fill="#1E2131" fill-opacity="0.68"/>
<circle cx="418" cy="710" r="74.5" stroke="#63636F" stroke-opacity="0.71"/>
<circle cx="499" cy="145" r="75" fill="#1E2131" fill-opacity="0.68"/>
<circle cx="499" cy="145" r="74.5" stroke="#63636F" stroke-opacity="0.71"/>
<circle cx="199" cy="538" r="75" fill="#1E2131" fill-opacity="0.68"/>
<circle cx="199" cy="538" r="74.5" stroke="#63636F" stroke-opacity="0.71"/>
<circle cx="684" cy="337" r="75" fill="#1E2131" fill-opacity="0.68"/>
<circle cx="684" cy="337" r="74.5" stroke="#63636F" stroke-opacity="0.71"/>
<circle cx="239" cy="269" r="75" fill="#1E2131" fill-opacity="0.68"/>
<circle cx="239" cy="269" r="74.5" stroke="#63636F" stroke-opacity="0.71"/>
<circle cx="665" cy="571" r="75" fill="#1E2131" fill-opacity="0.68"/>
<circle cx="665" cy="571" r="74.5" stroke="#63636F" stroke-opacity="0.71"/>
<path d="M413.719 703.752C412.429 704.458 411.389 705.511 410.731 706.779C410.072 708.046 409.825 709.47 410.019 710.871C410.213 712.272 410.841 713.586 411.823 714.649C412.805 715.711 414.096 716.473 415.535 716.839C416.973 717.204 418.493 717.157 419.903 716.703C421.313 716.249 422.549 715.408 423.456 714.287C424.362 713.166 424.898 711.815 424.995 710.405C425.092 708.995 424.747 707.59 424.002 706.366C423.004 704.725 421.36 703.528 419.431 703.038C417.503 702.548 415.448 702.804 413.719 703.752ZM447.461 711.502C446.967 710.966 446.445 710.429 445.897 709.89C446.28 709.508 446.651 709.126 447.009 708.744C453.779 701.527 456.635 694.289 453.988 689.938C451.45 685.766 443.899 684.523 434.446 686.267C433.515 686.44 432.589 686.635 431.668 686.852C431.492 686.275 431.305 685.702 431.106 685.132C427.899 675.962 422.719 669.997 417.424 670C412.347 670.002 407.44 675.588 404.31 684.23C404.002 685.082 403.717 685.942 403.455 686.809C402.84 686.665 402.222 686.533 401.601 686.412C391.627 684.468 383.594 685.748 380.952 690.102C378.419 694.277 381.068 701.101 387.395 707.99C388.023 708.672 388.668 709.338 389.331 709.989C388.549 710.753 387.809 711.517 387.12 712.276C380.946 719.068 378.448 725.781 380.977 729.938C383.589 734.232 391.509 735.635 401.149 733.835C401.93 733.688 402.707 733.523 403.48 733.339C403.763 734.277 404.073 735.206 404.411 736.127C407.528 744.595 412.407 750.002 417.466 750C422.691 749.997 427.928 744.189 431.102 735.365C431.352 734.668 431.589 733.944 431.814 733.198C432.812 733.434 433.817 733.643 434.828 733.825C444.115 735.493 451.489 734.181 454.013 730.021C456.621 725.724 453.933 718.517 447.461 711.502ZM384.073 691.807C385.7 689.127 392.265 688.082 400.876 689.759C401.426 689.867 401.986 689.987 402.555 690.119C401.714 693.648 401.121 697.226 400.779 700.83C397.672 702.904 394.71 705.167 391.911 707.604C391.294 706.999 390.694 706.379 390.11 705.745C384.689 699.842 382.546 694.323 384.073 691.807ZM400.457 714.72C398.304 713.173 396.304 711.589 394.489 709.996C396.303 708.412 398.304 706.833 400.452 705.291C400.375 706.862 400.337 708.434 400.338 710.008C400.339 711.579 400.378 713.15 400.457 714.72ZM400.454 730.482C396.801 731.253 393.029 731.379 389.327 730.855C388.312 730.78 387.324 730.508 386.425 730.056C385.525 729.605 384.732 728.983 384.096 728.229C382.561 725.707 384.567 720.317 389.847 714.508C390.51 713.78 391.196 713.071 391.903 712.381C394.703 714.832 397.67 717.103 400.786 719.182C401.132 722.831 401.732 726.455 402.582 730.03C401.877 730.197 401.168 730.348 400.454 730.482ZM430.388 698.325C428.974 697.479 427.543 696.661 426.094 695.87C424.668 695.091 423.226 694.342 421.766 693.622C424.265 692.624 426.722 691.773 429.095 691.079C429.654 693.472 430.085 695.89 430.388 698.325ZM407.716 685.341C410.398 677.936 414.366 673.419 417.426 673.417C420.685 673.416 424.919 678.29 427.688 686.208C427.868 686.724 428.038 687.243 428.198 687.765C424.56 688.836 421.002 690.133 417.545 691.65C414.103 690.116 410.555 688.803 406.927 687.722C407.169 686.922 407.432 686.129 407.716 685.341ZM406.028 691.036C408.503 691.775 410.936 692.632 413.32 693.604C410.366 695.05 407.49 696.625 404.689 698.33C405.028 695.778 405.478 693.332 406.028 691.036ZM404.695 721.679C406.092 722.527 407.509 723.344 408.946 724.129C410.412 724.931 411.898 725.698 413.403 726.432C411.002 727.437 408.547 728.325 406.05 729.091C405.493 726.763 405.038 724.275 404.695 721.679ZM427.693 734.261C426.571 737.649 424.802 740.813 422.474 743.594C421.899 744.39 421.157 745.066 420.295 745.58C419.434 746.094 418.47 746.435 417.464 746.582C414.395 746.583 410.477 742.242 407.811 735C407.498 734.144 407.209 733.28 406.945 732.408C410.591 731.292 414.153 729.943 417.606 728.369C421.092 729.896 424.679 731.203 428.344 732.283C428.144 732.947 427.927 733.606 427.693 734.261ZM429.22 728.964C426.82 728.26 424.328 727.394 421.792 726.382C423.221 725.668 424.661 724.914 426.111 724.12C427.6 723.305 429.05 722.469 430.462 721.612C430.181 724.081 429.766 726.535 429.22 728.964ZM431.101 709.993C431.104 712.422 431.024 714.849 430.861 717.275C428.785 718.608 426.592 719.911 424.311 721.16C422.039 722.405 419.788 723.549 417.58 724.584C415.256 723.527 412.978 722.389 410.744 721.168C408.522 719.955 406.352 718.663 404.232 717.292C404.039 714.868 403.941 712.439 403.94 710.005C403.938 707.574 404.034 705.145 404.226 702.719C406.303 701.373 408.479 700.072 410.73 698.839C412.991 697.6 415.27 696.461 417.536 695.429C419.831 696.487 422.085 697.622 424.297 698.832C426.517 700.042 428.693 701.321 430.826 702.666C431.01 705.105 431.101 707.547 431.101 709.993ZM435.134 689.622C443.233 688.127 449.34 689.133 450.87 691.647C452.499 694.325 450.164 700.241 444.32 706.472C443.997 706.816 443.661 707.161 443.314 707.508C440.467 705.065 437.447 702.81 434.277 700.757C433.957 697.192 433.386 693.653 432.568 690.161C433.44 689.957 434.295 689.778 435.134 689.622ZM434.587 705.161C436.725 706.642 438.781 708.228 440.747 709.912C438.79 711.623 436.74 713.237 434.606 714.745C434.671 713.161 434.704 711.577 434.703 709.991C434.702 708.381 434.663 706.77 434.587 705.161ZM450.892 728.316C449.36 730.84 443.44 731.893 435.497 730.467C434.586 730.304 433.652 730.11 432.694 729.885C433.493 726.348 434.039 722.764 434.328 719.158C437.493 717.069 440.503 714.775 443.336 712.294C443.832 712.783 444.304 713.269 444.751 713.754C447.285 716.368 449.29 719.402 450.665 722.705C451.105 723.576 451.353 724.523 451.392 725.488C451.43 726.453 451.26 727.415 450.892 728.316Z" fill="#67B5FC"/>
<path d="M190.379 568.719C188.326 569.953 187.936 570.098 186.006 570.807C185.539 570.973 184.832 571.267 186.272 572.125L195.938 578.135C196.862 578.699 197.928 578.993 198.978 578.993L198.985 579C200.048 579 201.098 578.703 202.022 578.142L230.96 560.585C232.84 559.433 234 557.306 234 555.034V519.94C234 517.65 232.843 515.524 230.96 514.389L202.022 496.814C200.205 495.729 197.775 495.729 195.942 496.814L167.037 514.372C165.16 515.51 164 517.65 164 519.923V555.017C164 557.306 165.157 559.433 167.037 560.567L174.619 565.163C178.286 567.076 179.599 567.076 181.276 567.076C186.712 567.076 189.845 563.618 189.845 557.59V522.924C189.845 522.433 189.455 522.053 188.999 522.053H185.332C184.862 522.053 184.486 522.43 184.486 522.924V557.573C184.486 560.256 181.852 562.909 177.543 560.654L169.616 555.843C169.34 555.695 169.166 555.366 169.166 555.034V519.94C169.166 519.597 169.34 519.265 169.62 519.099L198.525 501.542C198.788 501.376 199.152 501.376 199.418 501.542L228.34 519.082C228.62 519.262 228.794 519.577 228.794 519.923V555.034C228.794 555.359 228.624 555.691 228.357 555.857L199.418 573.415C199.168 573.581 198.792 573.581 198.525 573.415L191.099 568.788C190.879 568.639 190.599 568.587 190.379 568.719Z" fill="#4CBF23"/>
<path d="M207.911 549.498C200.252 549.498 198.572 547.471 198.012 543.47C197.948 543.041 197.605 542.73 197.182 542.73H193.439C192.969 542.73 192.609 543.124 192.609 543.602C192.609 548.723 195.255 554.834 207.928 554.834C217.074 554.817 222.344 551.016 222.344 544.393L222.334 544.397C222.334 537.826 218.104 536.08 209.221 534.845C200.228 533.593 199.322 532.95 199.322 530.744C199.322 528.918 200.092 526.48 206.748 526.48C212.688 526.48 214.881 527.828 215.788 532.044C215.864 532.442 216.211 532.736 216.604 532.736H220.364C220.597 532.736 220.817 532.639 220.974 532.456C221.131 532.272 221.207 532.027 221.194 531.781C220.614 524.519 216.024 521.144 206.748 521.144C198.492 521.144 193.572 524.802 193.572 530.941C193.572 537.595 198.475 539.441 206.388 540.261C215.868 541.236 216.601 542.699 216.601 544.66C216.608 548.052 214.008 549.498 207.911 549.498Z" fill="#4CBF23"/>
<path d="M683.5 295C676.083 295 668.833 297.199 662.666 301.32C656.499 305.44 651.693 311.297 648.855 318.149C646.016 325.002 645.274 332.542 646.721 339.816C648.168 347.09 651.739 353.772 656.984 359.017C662.228 364.261 668.91 367.833 676.185 369.28C683.459 370.726 690.999 369.984 697.851 367.145C704.704 364.307 710.56 359.5 714.681 353.333C718.801 347.166 721 339.916 721 332.499C720.989 322.557 717.034 313.025 710.004 305.995C702.974 298.965 693.442 295.011 683.5 295ZM649.785 332.499C649.782 327.771 650.776 323.095 652.705 318.778L668.788 362.842C663.091 360.079 658.287 355.767 654.926 350.401C651.566 345.034 649.784 338.83 649.785 332.499ZM683.5 366.216C680.276 366.216 677.068 365.754 673.975 364.843L684.092 335.448L694.455 363.84C694.522 364.001 694.603 364.157 694.696 364.305C691.1 365.572 687.314 366.218 683.5 366.216ZM688.147 316.691C690.176 316.585 692.005 316.371 692.005 316.371C692.37 316.337 692.707 316.162 692.943 315.882C693.179 315.602 693.295 315.241 693.267 314.876C693.239 314.511 693.068 314.171 692.792 313.931C692.515 313.691 692.156 313.569 691.79 313.592C691.79 313.592 686.329 314.021 682.804 314.021C679.491 314.021 673.924 313.592 673.924 313.592C673.56 313.57 673.201 313.693 672.925 313.933C672.65 314.173 672.48 314.512 672.452 314.877C672.424 315.241 672.54 315.602 672.776 315.881C673.011 316.161 673.347 316.337 673.711 316.371C673.711 316.371 675.43 316.585 677.247 316.691L682.5 331.084L675.12 353.212L662.843 316.691C664.874 316.585 666.701 316.371 666.701 316.371C667.066 316.337 667.402 316.161 667.638 315.881C667.873 315.602 667.99 315.24 667.961 314.876C667.933 314.511 667.762 314.172 667.486 313.932C667.21 313.692 666.851 313.57 666.486 313.592C666.486 313.592 661.026 314.021 657.501 314.021C656.868 314.021 656.122 314.005 655.331 313.98C658.011 309.901 661.546 306.452 665.69 303.873C669.834 301.294 674.49 299.645 679.333 299.042C684.177 298.439 689.094 298.895 693.745 300.379C698.395 301.862 702.668 304.338 706.267 307.636C706.122 307.627 705.98 307.609 705.831 307.609C704.288 307.655 702.825 308.31 701.764 309.432C700.703 310.553 700.13 312.049 700.169 313.592C700.522 316.483 701.669 319.22 703.481 321.5C705.253 324.281 706.215 327.501 706.26 330.798C705.91 334.532 705.047 338.199 703.695 341.697L700.331 352.934L688.147 316.691ZM700.45 361.641L710.748 331.867C712.382 328.048 713.253 323.945 713.312 319.791C713.314 318.632 713.238 317.473 713.085 316.324C717.299 324.035 718.336 333.086 715.976 341.55C713.616 350.014 708.045 357.222 700.45 361.641Z" fill="white"/>
<path d="M657.107 545.227H644.786V577.827C644.786 585.893 642.008 588.145 637.175 588.145C634.911 588.145 632.871 587.758 631.284 587.215L630 596.758C632.264 597.535 635.739 598 638.457 598C649.553 598 657.107 592.804 657.107 577.906V545.227ZM683.978 544C672.05 544 664.5 550.75 664.5 559.671C664.5 567.355 670.314 572.165 678.768 575.268C684.883 577.44 687.3 579.38 687.3 582.561C687.3 586.052 684.506 588.302 679.222 588.302C674.314 588.302 669.859 586.67 666.84 585.041V585.038L664.5 594.737C667.371 596.368 672.731 597.997 678.541 597.997C692.509 597.997 699 590.549 699 581.782C699 574.334 694.848 569.525 685.866 566.109C679.221 563.472 676.429 561.999 676.429 558.663C676.429 556.024 678.845 553.62 683.828 553.62C688.733 553.62 692.106 555.263 694.071 556.273L697.017 546.455C693.937 545.108 689.788 544 683.978 544Z" fill="#FAFF10"/>
<path d="M216.354 257.234H200.747L194 289H202.014L203.702 280.766H211.295C218.463 281.157 226.481 275.667 226.481 266.255C226.481 260.764 223.105 257.626 216.358 257.234H216.354ZM210.449 274.884H205.386L207.494 263.12H212.979C215.929 263.12 218.042 264.298 218.042 266.65C217.621 273.318 214.246 274.492 210.449 274.884ZM244.614 257.234H237.021L238.709 249H230.695L223.947 280.766H231.961L235.758 263.12H242.084C245.039 263.12 245.039 264.298 244.614 266.258L241.663 280.77H250.098L253.049 264.689C253.891 260.768 251.361 257.626 244.614 257.234ZM272.873 257.234H257.266L250.519 289H258.533L260.221 280.766H267.814C274.986 281.157 283 275.667 283 266.255C283 260.764 279.621 257.626 272.873 257.234ZM266.968 274.884H261.905L264.013 263.12H269.498C272.452 263.12 274.561 264.298 274.561 266.65C274.14 273.318 270.765 274.492 266.968 274.884Z" fill="white"/>
</g>
<rect x="1" y="1" width="915" height="888" rx="19" stroke="#6B6B70" stroke-opacity="0.4" stroke-width="2"/>
<g clip-path="url(#clip1_260_295)">
<path d="M497.213 171.057C494.82 168.28 497.597 53.2433 506.217 170.673C506.217 170.673 503.247 172.157 502.72 174.697C502.147 177.187 500.807 171.773 497.213 171.057Z" fill="white"/>
<path d="M497.213 171.057C494.82 168.28 497.597 53.2433 506.217 170.673C506.217 170.673 503.247 172.157 502.72 174.697C502.147 177.187 500.807 171.773 497.213 171.057Z" fill="#A6A385"/>
<path d="M503.583 172.78C503.583 172.78 520.777 161.477 516.753 137.964C512.873 120.867 503.727 115.264 502.72 113.107C501.62 111.574 500.563 108.894 500.563 108.894L501.283 156.45C501.287 156.497 499.8 171.007 503.583 172.78Z" fill="white"/>
<path d="M503.583 172.78C503.583 172.78 520.777 161.477 516.753 137.964C512.873 120.867 503.727 115.264 502.72 113.107C501.62 111.574 500.563 108.894 500.563 108.894L501.283 156.45C501.287 156.497 499.8 171.007 503.583 172.78Z" fill="#499D4A"/>
<path d="M499.563 173.403C499.563 173.403 483.423 162.386 484.38 142.993C485.29 123.596 496.687 114.066 498.89 112.343C500.327 110.81 500.373 110.236 500.47 108.703C501.477 110.86 501.283 140.936 501.427 144.48C501.86 158.123 500.663 170.816 499.563 173.403Z" fill="white"/>
<path d="M499.563 173.403C499.563 173.403 483.423 162.386 484.38 142.993C485.29 123.596 496.687 114.066 498.89 112.343C500.327 110.81 500.373 110.236 500.47 108.703C501.477 110.86 501.283 140.936 501.427 144.48C501.86 158.123 500.663 170.816 499.563 173.403Z" fill="#58AA50"/>
<path d="M502.287 185C502.003 185 501.72 184.95 501.45 184.857L499.557 184.183C498.54 183.823 497.87 182.85 497.893 181.773C497.92 180.493 497.82 176.937 497.103 174.643C495.677 173.463 492.697 170.773 489.783 166.68C488.717 165.183 487.74 163.607 486.887 162.007C484.21 156.977 482.7 151.623 482.393 146.087C482.323 144.813 482.317 143.537 482.377 142.223C482.95 129.413 487.95 117.76 496.093 110.253C497.243 109.197 497.81 108.253 497.987 107.113C498.173 105.947 499.143 105.07 500.317 105.003C501.543 104.927 502.557 105.703 502.87 106.84C503.21 108.07 503.823 109.407 504.563 110.503C504.65 110.633 504.727 110.77 504.787 110.913C504.893 111.093 505.533 111.793 506.043 112.353C509.06 115.673 515.343 122.577 518.357 136.68C521.453 155.87 512.14 167.687 507.833 172.003C507.777 172.073 507.717 172.15 507.683 172.187C506.61 173.237 505.743 173.943 505.26 174.323C505.063 174.607 504.94 174.87 504.89 175.12C504.543 176.75 504.64 180.403 504.78 182.323C504.843 183.167 504.473 183.983 503.8 184.493C503.363 184.823 502.827 185 502.287 185ZM500.3 113.117C500.04 113.393 499.77 113.667 499.48 113.933C492.3 120.55 487.883 130.947 487.37 142.457C487.313 143.607 487.323 144.713 487.387 145.817C487.65 150.62 488.97 155.28 491.3 159.66C492.053 161.073 492.91 162.46 493.853 163.78C496.947 168.123 500.14 170.687 500.747 171.157C500.883 171.263 501.01 171.383 501.12 171.517C501.24 171.337 501.37 171.163 501.51 170.987C501.643 170.817 501.8 170.667 501.97 170.54C502.24 170.337 503.01 169.747 503.95 168.847C504.027 168.75 504.12 168.64 504.187 168.573C508.777 164.027 516.083 153.953 513.447 137.593C510.74 124.94 505.28 118.937 502.347 115.717C501.38 114.657 500.71 113.92 500.313 113.137C500.307 113.127 500.303 113.123 500.3 113.117Z" fill="black"/>
</g>
<defs>
<filter id="filter0_d_260_295" x="417" y="407" width="83" height="83" filterUnits="userSpaceOnUse" color-interpolation-filters="sRGB">
<feFlood flood-opacity="0" result="BackgroundImageFix"/>
<feColorMatrix in="SourceAlpha" type="matrix" values="0 0 0 0 0 0 0 0 0 0 0 0 0 0 0 0 0 0 127 0" result="hardAlpha"/>
<feOffset dy="4"/>
<feGaussianBlur stdDeviation="2"/>
<feComposite in2="hardAlpha" operator="out"/>
<feColorMatrix type="matrix" values="0 0 0 0 0 0 0 0 0 0 0 0 0 0 0 0 0 0 0.25 0"/>
<feBlend mode="normal" in2="BackgroundImageFix" result="effect1_dropShadow_260_295"/>
<feBlend mode="normal" in="SourceGraphic" in2="effect1_dropShadow_260_295" result="shape"/>
</filter>
<clipPath id="clip0_260_295">
<rect width="917" height="890" rx="20" fill="white"/>
</clipPath>
<clipPath id="clip1_260_295">
<rect width="80" height="80" fill="white" transform="translate(459 105)"/>
</clipPath>
</defs>
</svg>
