<svg width="917" height="890" viewBox="0 0 917 890" fill="none" xmlns="http://www.w3.org/2000/svg">
<rect width="917" height="890" rx="20" fill="#1A1B1F"/>
<rect x="1" y="1" width="915" height="888" rx="19" stroke="#6B6B70" stroke-opacity="0.4" stroke-width="2"/>
<path d="M3 683H917V870C917 881.046 908.046 890 897 890H23C11.9543 890 3 881.046 3 870V683Z" fill="url(#paint0_linear_277_87)"/>
<path d="M621.656 768C621.07 768 620.452 767.935 619.801 767.805C619.15 767.674 618.395 767.382 617.535 766.926C616.611 767.642 615.53 768 614.293 768H598.414C597.971 768 597.477 767.889 596.93 767.668C596.383 767.434 595.882 767.108 595.426 766.691C594.97 766.262 594.586 765.76 594.273 765.188C593.974 764.615 593.824 763.964 593.824 763.234V758.039H599.586V760.168C599.586 760.637 599.645 761.014 599.762 761.301C599.879 761.574 600.035 761.789 600.23 761.945C600.439 762.089 600.667 762.173 600.914 762.199C601.174 762.225 601.422 762.238 601.656 762.238H612.457L604.02 752.512L619.215 745.754L621.578 751.008L613.512 754.602L618.59 760.48C618.98 760.91 619.299 761.242 619.547 761.477C619.807 761.698 620.055 761.867 620.289 761.984C620.536 762.102 620.81 762.173 621.109 762.199C621.422 762.225 621.819 762.238 622.301 762.238H622.496V768H621.656ZM633.238 758V763.195C633.238 763.924 633.082 764.589 632.77 765.188C632.47 765.786 632.086 766.294 631.617 766.711C631.148 767.115 630.647 767.434 630.113 767.668C629.579 767.889 629.091 768 628.648 768H621.441C621.233 768 621.051 767.941 620.895 767.824C620.725 767.707 620.641 767.603 620.641 767.512V762.688C620.641 762.544 620.738 762.434 620.934 762.355C621.116 762.277 621.285 762.238 621.441 762.238H625.367C625.602 762.238 625.842 762.225 626.09 762.199C626.35 762.173 626.578 762.089 626.773 761.945C626.982 761.789 627.151 761.574 627.281 761.301C627.411 761.014 627.477 760.624 627.477 760.129V758H633.238ZM620.914 771.086H631.168V776.008H620.914V771.086ZM636.52 771.281C637.314 770.643 638.01 770.038 638.609 769.465C639.208 768.892 639.723 768.234 640.152 767.492C640.582 766.737 640.921 765.832 641.168 764.777C641.428 763.723 641.611 762.395 641.715 760.793L647.477 761.164C647.346 763.13 647.105 764.823 646.754 766.242C646.402 767.648 645.927 768.905 645.328 770.012C644.729 771.118 643.993 772.128 643.121 773.039C642.262 773.951 641.259 774.855 640.113 775.754L636.52 771.281ZM656.344 768C652.164 768 650.074 766.132 650.074 762.395V748.352H655.836V760.285C655.836 760.676 655.94 761.099 656.148 761.555C656.37 762.01 656.826 762.238 657.516 762.238H658.023V768H656.344ZM667.77 762.395C667.77 766.132 665.673 768 661.48 768H658.043C657.835 768 657.626 767.941 657.418 767.824C657.197 767.707 657.086 767.603 657.086 767.512V762.688C657.086 762.544 657.21 762.434 657.457 762.355C657.691 762.277 657.887 762.238 658.043 762.238H660.328C660.992 762.238 661.435 762.01 661.656 761.555C661.891 761.099 662.008 760.676 662.008 760.285V758.078H667.77V762.395ZM659.371 749.074H669.605V753.996H659.371V749.074ZM678.805 755.402C680.133 755.402 681.24 755.728 682.125 756.379C683.023 757.03 683.733 757.798 684.254 758.684C684.775 759.556 685.139 760.448 685.348 761.359C685.569 762.271 685.68 762.98 685.68 763.488C685.68 765.754 685.035 767.909 683.746 769.953C682.47 772.01 680.543 773.775 677.965 775.246C677.665 774.921 677.353 774.562 677.027 774.172C676.715 773.794 676.383 773.41 676.031 773.02C675.693 772.629 675.367 772.251 675.055 771.887C674.755 771.535 674.482 771.216 674.234 770.93C674.99 770.552 675.693 770.142 676.344 769.699C676.995 769.257 677.587 768.69 678.121 768H672.555C672.372 767.701 672.151 767.128 671.891 766.281C671.643 765.422 671.52 764.432 671.52 763.312C671.52 762.466 671.643 761.574 671.891 760.637C672.151 759.699 672.568 758.846 673.141 758.078C673.714 757.31 674.462 756.672 675.387 756.164C676.324 755.656 677.464 755.402 678.805 755.402ZM680.27 762.238C680.27 761.73 680.061 761.288 679.645 760.91C679.241 760.52 678.785 760.324 678.277 760.324C677.77 760.324 677.307 760.513 676.891 760.891C676.487 761.255 676.285 761.704 676.285 762.238H680.27ZM709.762 768C709.71 768.352 709.625 768.671 709.508 768.957C709.391 769.257 709.267 769.536 709.137 769.797C708.655 770.734 708.036 771.535 707.281 772.199C706.539 772.863 705.738 773.404 704.879 773.82C704.033 774.237 703.16 774.543 702.262 774.738C701.376 774.934 700.53 775.031 699.723 775.031C698.928 775.031 698.082 774.934 697.184 774.738C696.298 774.543 695.426 774.237 694.566 773.82C693.72 773.404 692.926 772.863 692.184 772.199C691.454 771.535 690.836 770.734 690.328 769.797C690.003 769.159 689.768 768.443 689.625 767.648C689.482 766.841 689.43 765.995 689.469 765.109C689.508 764.211 689.651 763.293 689.898 762.355C690.159 761.405 690.517 760.461 690.973 759.523L696.578 761.887C696.174 762.837 695.934 763.71 695.855 764.504C695.777 765.285 695.882 765.995 696.168 766.633C696.572 767.492 697.105 768.091 697.77 768.43C698.434 768.781 699.085 768.957 699.723 768.957C700.53 768.957 701.24 768.749 701.852 768.332C702.464 767.928 702.958 767.362 703.336 766.633C703.596 766.047 703.753 765.422 703.805 764.758C703.857 764.094 703.792 763.254 703.609 762.238H711.773V768H709.762ZM699.84 760.129C698.863 760.129 698.036 759.797 697.359 759.133C696.695 758.456 696.363 757.622 696.363 756.633C696.363 755.682 696.695 754.875 697.359 754.211C698.036 753.534 698.863 753.195 699.84 753.195C700.803 753.195 701.617 753.534 702.281 754.211C702.958 754.875 703.297 755.682 703.297 756.633C703.297 757.622 702.958 758.456 702.281 759.133C701.617 759.797 700.803 760.129 699.84 760.129ZM734.625 762.238V768H711.793C711.585 768 711.376 767.941 711.168 767.824C710.947 767.707 710.836 767.603 710.836 767.512V762.688C710.836 762.544 710.96 762.434 711.207 762.355C711.441 762.277 711.637 762.238 711.793 762.238H734.625ZM728.473 753.645V758H717.105V753.645H720.562C720.367 753.371 720.217 753.091 720.113 752.805C720.009 752.505 719.957 752.186 719.957 751.848C719.957 751.066 720.23 750.409 720.777 749.875C721.324 749.341 722.008 749.074 722.828 749.074C723.609 749.074 724.273 749.341 724.82 749.875C725.367 750.409 725.641 751.066 725.641 751.848C725.641 752.186 725.582 752.505 725.465 752.805C725.361 753.091 725.217 753.371 725.035 753.645H728.473ZM744.742 755.402C746.07 755.402 747.177 755.728 748.062 756.379C748.961 757.03 749.671 757.798 750.191 758.684C750.712 759.556 751.077 760.448 751.285 761.359C751.507 762.271 751.617 762.98 751.617 763.488C751.617 765.754 750.973 767.909 749.684 769.953C748.408 772.01 746.48 773.775 743.902 775.246C743.603 774.921 743.29 774.562 742.965 774.172C742.652 773.794 742.32 773.41 741.969 773.02C741.63 772.629 741.305 772.251 740.992 771.887C740.693 771.535 740.419 771.216 740.172 770.93C740.927 770.552 741.63 770.142 742.281 769.699C742.932 769.257 743.525 768.69 744.059 768H738.492C738.31 767.701 738.089 767.128 737.828 766.281C737.581 765.422 737.457 764.432 737.457 763.312C737.457 762.466 737.581 761.574 737.828 760.637C738.089 759.699 738.505 758.846 739.078 758.078C739.651 757.31 740.4 756.672 741.324 756.164C742.262 755.656 743.401 755.402 744.742 755.402ZM746.207 762.238C746.207 761.73 745.999 761.288 745.582 760.91C745.178 760.52 744.723 760.324 744.215 760.324C743.707 760.324 743.245 760.513 742.828 760.891C742.424 761.255 742.223 761.704 742.223 762.238H746.207ZM753.316 771.281C754.111 770.643 754.807 770.038 755.406 769.465C756.005 768.892 756.52 768.234 756.949 767.492C757.379 766.737 757.717 765.832 757.965 764.777C758.225 763.723 758.408 762.395 758.512 760.793L764.273 761.164C764.143 763.13 763.902 764.823 763.551 766.242C763.199 767.648 762.724 768.905 762.125 770.012C761.526 771.118 760.79 772.128 759.918 773.039C759.059 773.951 758.056 774.855 756.91 775.754L753.316 771.281ZM796.168 768C794.566 768 793.258 767.707 792.242 767.121C791.982 766.991 791.786 766.854 791.656 766.711C791.565 766.802 791.474 766.88 791.383 766.945C791.292 767.01 791.194 767.069 791.09 767.121C789.996 767.707 788.674 768 787.125 768H774.078C769.898 768 767.809 766.118 767.809 762.355V758.078H773.57V760.285C773.57 760.676 773.674 761.099 773.883 761.555C774.104 762.01 774.56 762.238 775.25 762.238H787.125C787.633 762.238 788.03 762.056 788.316 761.691C788.616 761.314 788.766 760.845 788.766 760.285V758.078H794.488V760.285C794.488 760.793 794.618 761.242 794.879 761.633C795.152 762.01 795.582 762.212 796.168 762.238H796.734V768H796.168ZM775.484 749.074H785.719V753.996H775.484V749.074ZM797.477 762.238C798.141 762.238 798.577 762.01 798.785 761.555C799.007 761.099 799.117 760.676 799.117 760.285V748.449H804.879V762.355C804.879 766.118 802.783 768 798.59 768H796.754C796.546 768 796.337 767.941 796.129 767.824C795.908 767.707 795.797 767.603 795.797 767.512V762.688C795.797 762.544 795.921 762.434 796.168 762.355C796.402 762.277 796.598 762.238 796.754 762.238H797.477ZM813.961 768C809.781 768 807.691 766.132 807.691 762.395V748.352H813.453V760.285C813.453 760.676 813.557 761.099 813.766 761.555C813.987 762.01 814.443 762.238 815.133 762.238H815.641V768H813.961ZM824.859 762.238C824.833 761.522 824.658 760.949 824.332 760.52C824.176 760.311 823.948 760.129 823.648 759.973C823.362 759.803 823.03 759.719 822.652 759.719H817.652V754.191H824.176C825.139 754.191 826.09 754.419 827.027 754.875C827.978 755.331 828.733 755.93 829.293 756.672C829.618 757.076 829.885 757.525 830.094 758.02C830.315 758.514 830.478 759.081 830.582 759.719C830.634 760.122 830.706 760.487 830.797 760.812C830.888 761.125 831.044 761.385 831.266 761.594C831.604 762.023 832.333 762.238 833.453 762.238H834.977V768H815.621C815.413 768 815.204 767.941 814.996 767.824C814.775 767.707 814.664 767.603 814.664 767.512V762.688C814.664 762.544 814.788 762.434 815.035 762.355C815.27 762.277 815.465 762.238 815.621 762.238H824.859Z" fill="white"/>
<path d="M359.688 810.516C359.688 810.095 359.836 809.743 360.133 809.458C360.43 809.174 360.789 809.031 361.209 809.031C361.63 809.031 361.989 809.174 362.286 809.458C362.589 809.743 362.74 810.095 362.74 810.516C362.74 810.936 362.589 811.289 362.286 811.573C361.989 811.858 361.63 812 361.209 812C360.783 812 360.421 811.861 360.124 811.583C359.833 811.298 359.688 810.942 359.688 810.516ZM376.267 812C375.933 812 375.636 811.96 375.376 811.879C375.116 811.799 374.903 811.706 374.736 811.601C374.6 812.492 374.312 813.308 373.873 814.05C373.44 814.799 372.843 815.426 372.083 815.934C371.322 816.447 370.385 816.812 369.271 817.028L368.492 814.932C369.426 814.728 370.208 814.443 370.839 814.078C371.47 813.719 371.946 813.256 372.268 812.687C372.59 812.124 372.75 811.44 372.75 810.636C372.75 810.086 372.673 809.483 372.519 808.827C372.364 808.172 372.185 807.544 371.98 806.944L374.114 806.239L374.634 808.28C374.751 808.725 374.928 809.071 375.163 809.319C375.404 809.566 375.738 809.69 376.165 809.69H376.508V812H376.267ZM376.155 809.69H376.814V812H376.155V809.69ZM380.256 801.062L381.731 802.528L380.256 804.012L378.781 802.528L380.256 801.062ZM377.139 801.062L378.623 802.528L377.139 804.012L375.673 802.528L377.139 801.062ZM379.3 805.775L381.332 805.534L381.508 808.001C381.527 808.342 381.598 808.642 381.722 808.901C381.845 809.155 382.022 809.35 382.25 809.486C382.486 809.622 382.782 809.69 383.141 809.69H383.327V812H383.123C382.696 812 382.315 811.947 381.981 811.842C381.647 811.737 381.354 811.589 381.1 811.397C380.853 811.205 380.636 810.979 380.451 810.72C380.098 811.134 379.656 811.453 379.124 811.675C378.598 811.892 378.042 812 377.454 812H376.573V809.69H377.454C378.178 809.69 378.682 809.523 378.966 809.189C379.251 808.849 379.393 808.348 379.393 807.686C379.393 807.346 379.384 807.018 379.365 806.703C379.353 806.387 379.331 806.078 379.3 805.775ZM382.983 812V809.69H384.653V809.504C384.653 808.88 384.715 808.233 384.839 807.565C384.963 806.891 385.164 806.264 385.442 805.682C385.72 805.101 386.085 804.631 386.537 804.272C386.994 803.913 387.551 803.734 388.207 803.734C388.776 803.734 389.261 803.87 389.663 804.142C390.071 804.414 390.384 804.788 390.6 805.265C390.817 805.735 390.925 806.273 390.925 806.879C390.925 807.454 390.813 808.023 390.591 808.586C390.374 809.143 390.074 809.659 389.691 810.135C389.314 810.605 388.881 811.004 388.392 811.332C387.91 811.66 387.399 811.873 386.861 811.972C386.936 812.22 387.044 812.47 387.186 812.724C387.328 812.983 387.501 813.234 387.706 813.475C387.91 813.716 388.129 813.927 388.364 814.106C388.451 813.487 388.612 812.909 388.847 812.371C389.088 811.839 389.391 811.372 389.756 810.97C390.121 810.568 390.535 810.256 390.999 810.033C391.463 809.804 391.961 809.69 392.493 809.69H392.79V812H392.474C392.066 812 391.72 812.053 391.435 812.158C391.151 812.263 390.919 812.424 390.739 812.64C390.566 812.857 390.436 813.132 390.35 813.466C390.269 813.806 390.229 814.205 390.229 814.663C390.229 814.811 390.232 814.966 390.238 815.126C390.251 815.287 390.263 815.451 390.275 815.618L388.828 816.982C388.185 816.667 387.585 816.249 387.028 815.729C386.478 815.21 386.008 814.629 385.618 813.985C385.235 813.342 384.969 812.68 384.82 812H382.983ZM388.132 805.96C387.885 805.96 387.668 806.066 387.483 806.276C387.297 806.486 387.143 806.764 387.019 807.111C386.902 807.457 386.812 807.841 386.75 808.261C386.694 808.676 386.667 809.087 386.667 809.495V809.699C387.099 809.674 387.495 809.538 387.854 809.291C388.213 809.037 388.5 808.71 388.717 808.308C388.933 807.906 389.042 807.473 389.042 807.009C389.042 806.675 388.958 806.418 388.791 806.239C388.624 806.053 388.404 805.96 388.132 805.96ZM392.418 809.69H392.864V812H392.418V809.69ZM394.33 813.215L395.879 814.765L394.33 816.305L392.79 814.765L394.33 813.215ZM393.652 812H392.623V809.69H393.634C394.283 809.69 394.75 809.563 395.035 809.31C395.319 809.056 395.461 808.632 395.461 808.039C395.461 807.698 395.424 807.262 395.35 806.73C395.282 806.192 395.165 805.605 394.998 804.968L397.085 804.411C397.24 804.986 397.354 805.565 397.428 806.146C397.502 806.721 397.54 807.265 397.54 807.779C397.54 808.62 397.422 809.356 397.187 809.987C396.952 810.618 396.55 811.112 395.981 811.471C395.418 811.824 394.642 812 393.652 812ZM409.758 816.676C408.428 816.676 407.343 816.425 406.501 815.924C405.66 815.423 405.042 814.746 404.646 813.893C404.256 813.045 404.062 812.093 404.062 811.035C404.062 810.33 404.136 809.603 404.284 808.855C404.439 808.1 404.655 807.355 404.934 806.619L406.891 807.389C406.687 808.008 406.511 808.626 406.362 809.245C406.22 809.857 406.149 810.438 406.149 810.989C406.149 811.613 406.26 812.182 406.483 812.696C406.706 813.215 407.077 813.63 407.596 813.939C408.122 814.248 408.842 814.403 409.758 814.403C410.444 814.403 411.054 814.338 411.585 814.208C412.117 814.084 412.563 813.92 412.921 813.716C413.28 813.512 413.552 813.293 413.738 813.058C413.93 812.823 414.025 812.597 414.025 812.38C414.025 812.25 413.988 812.139 413.914 812.046C413.84 811.954 413.704 811.907 413.506 811.907H412.003C411.632 811.907 411.279 811.867 410.945 811.787C410.611 811.7 410.314 811.555 410.055 811.351C409.801 811.14 409.6 810.85 409.452 810.479C409.309 810.107 409.238 809.634 409.238 809.059C409.238 808.428 409.34 807.825 409.544 807.25C409.749 806.675 410.039 806.161 410.417 805.71C410.8 805.258 411.258 804.903 411.79 804.643C412.328 804.377 412.931 804.244 413.599 804.244C414.007 804.244 414.418 804.306 414.833 804.43C415.247 804.547 415.637 804.736 416.001 804.996L415.278 807C414.975 806.845 414.684 806.734 414.406 806.666C414.127 806.597 413.861 806.563 413.608 806.563C413.132 806.563 412.723 806.675 412.383 806.897C412.043 807.114 411.783 807.411 411.604 807.788C411.425 808.165 411.335 808.589 411.335 809.059C411.335 809.269 411.391 809.415 411.502 809.495C411.613 809.569 411.786 809.606 412.021 809.606H413.45C414.106 809.606 414.619 809.718 414.99 809.94C415.368 810.157 415.633 810.457 415.788 810.84C415.943 811.218 416.02 811.654 416.02 812.148C416.02 812.959 415.782 813.707 415.306 814.394C414.829 815.08 414.127 815.631 413.2 816.045C412.272 816.465 411.125 816.676 409.758 816.676ZM424.212 812C423.878 812 423.581 811.96 423.321 811.879C423.062 811.799 422.848 811.706 422.681 811.601C422.545 812.492 422.257 813.308 421.818 814.05C421.385 814.799 420.789 815.426 420.028 815.934C419.267 816.447 418.33 816.812 417.217 817.028L416.438 814.932C417.371 814.728 418.154 814.443 418.785 814.078C419.416 813.719 419.892 813.256 420.213 812.687C420.535 812.124 420.696 811.44 420.696 810.636C420.696 810.086 420.618 809.483 420.464 808.827C420.309 808.172 420.13 807.544 419.926 806.944L422.06 806.239L422.579 808.28C422.697 808.725 422.873 809.071 423.108 809.319C423.349 809.566 423.683 809.69 424.11 809.69H424.453V812H424.212ZM424.091 809.69H424.537V812H424.091V809.69ZM426.002 813.215L427.552 814.765L426.002 816.305L424.462 814.765L426.002 813.215ZM425.325 812H424.295V809.69H425.307C425.956 809.69 426.423 809.563 426.708 809.31C426.992 809.056 427.134 808.632 427.134 808.039C427.134 807.698 427.097 807.262 427.023 806.73C426.955 806.192 426.837 805.605 426.67 804.968L428.758 804.411C428.912 804.986 429.027 805.565 429.101 806.146C429.175 806.721 429.212 807.265 429.212 807.779C429.212 808.62 429.095 809.356 428.86 809.987C428.625 810.618 428.223 811.112 427.654 811.471C427.091 811.824 426.315 812 425.325 812ZM430.02 817.038L429.222 814.932C430.156 814.728 430.938 814.443 431.569 814.078C432.2 813.719 432.676 813.256 432.998 812.687C433.319 812.124 433.48 811.44 433.48 810.636C433.48 810.086 433.403 809.483 433.248 808.827C433.093 808.172 432.914 807.544 432.71 806.944L434.844 806.239C435.079 806.894 435.255 807.581 435.373 808.298C435.496 809.016 435.558 809.708 435.558 810.376C435.558 811.576 435.342 812.631 434.909 813.54C434.476 814.455 433.845 815.207 433.016 815.794C432.187 816.388 431.188 816.803 430.02 817.038ZM437.692 798.984H439.872V807.705C439.872 808.447 439.99 808.963 440.225 809.254C440.46 809.545 440.886 809.69 441.505 809.69H441.728V812H441.505C440.2 812 439.238 811.66 438.62 810.979C438.001 810.293 437.692 809.248 437.692 807.844V798.984ZM444.307 803.27C444.783 803.567 445.241 803.867 445.68 804.17C446.125 804.467 446.539 804.776 446.923 805.098C447.306 805.413 447.64 805.747 447.925 806.1C448.215 806.446 448.441 806.814 448.602 807.204C448.763 807.593 448.843 808.014 448.843 808.465C448.843 809.362 448.639 810.067 448.231 810.581C447.823 811.094 447.229 811.459 446.45 811.675C445.677 811.892 444.74 812 443.639 812H441.394V809.69H443.629C444.341 809.69 444.925 809.656 445.383 809.588C445.847 809.514 446.19 809.387 446.413 809.208C446.635 809.022 446.747 808.762 446.747 808.428C446.747 808.199 446.648 807.961 446.45 807.714C446.258 807.466 446.001 807.213 445.68 806.953C445.358 806.693 445.006 806.434 444.622 806.174C444.239 805.914 443.855 805.657 443.472 805.404C443.088 805.15 442.742 804.906 442.433 804.671C442.198 804.492 442.015 804.275 441.885 804.021C441.762 803.762 441.7 803.493 441.7 803.214C441.7 802.899 441.78 802.596 441.941 802.305C442.102 802.008 442.34 801.798 442.655 801.674L449.632 798.835V801.108L444.307 803.27ZM464.921 812C464.333 812 463.82 811.91 463.381 811.731C462.948 811.552 462.589 811.289 462.305 810.942C462.02 810.596 461.81 810.175 461.674 809.681C461.29 809.99 460.907 810.225 460.523 810.386C460.14 810.54 459.716 810.618 459.252 810.618C458.275 810.618 457.462 810.355 456.812 809.829C456.163 809.297 455.838 808.533 455.838 807.538C455.838 806.981 455.956 806.48 456.191 806.035C456.432 805.589 456.769 805.187 457.202 804.829C457.635 804.47 458.142 804.154 458.724 803.882C459.311 803.604 459.948 803.36 460.635 803.149L460.57 802.704L462.537 802.305L463.39 808.168C463.446 808.583 463.6 808.942 463.854 809.245C464.114 809.542 464.482 809.69 464.958 809.69H465.236V812H464.921ZM461.219 807.046C461.219 806.953 461.213 806.857 461.201 806.758C461.188 806.659 461.173 806.554 461.154 806.443L460.969 805.255C460.536 805.41 460.137 805.571 459.772 805.738C459.407 805.899 459.089 806.069 458.816 806.248C458.544 806.427 458.331 806.619 458.176 806.823C458.028 807.021 457.954 807.228 457.954 807.445C457.954 807.76 458.071 808.008 458.306 808.187C458.541 808.36 458.854 808.447 459.243 808.447C459.559 808.447 459.868 808.394 460.171 808.289C460.474 808.184 460.724 808.026 460.922 807.816C461.12 807.606 461.219 807.349 461.219 807.046ZM464.875 809.69H465.32V812H464.875V809.69ZM466.786 813.215L468.335 814.765L466.786 816.305L465.246 814.765L466.786 813.215ZM466.108 812H465.079V809.69H466.09C466.739 809.69 467.206 809.563 467.491 809.31C467.775 809.056 467.917 808.632 467.917 808.039C467.917 807.698 467.88 807.262 467.806 806.73C467.738 806.192 467.621 805.605 467.454 804.968L469.541 804.411C469.696 804.986 469.81 805.565 469.884 806.146C469.958 806.721 469.996 807.265 469.996 807.779C469.996 808.62 469.878 809.356 469.643 809.987C469.408 810.618 469.006 811.112 468.437 811.471C467.874 811.824 467.098 812 466.108 812ZM477.779 812C477.445 812 477.148 811.96 476.889 811.879C476.629 811.799 476.416 811.706 476.249 811.601C476.112 812.492 475.825 813.308 475.386 814.05C474.953 814.799 474.356 815.426 473.595 815.934C472.834 816.447 471.897 816.812 470.784 817.028L470.005 814.932C470.939 814.728 471.721 814.443 472.352 814.078C472.983 813.719 473.459 813.256 473.781 812.687C474.102 812.124 474.263 811.44 474.263 810.636C474.263 810.086 474.186 809.483 474.031 808.827C473.877 808.172 473.697 807.544 473.493 806.944L475.627 806.239L476.146 808.28C476.264 808.725 476.44 809.071 476.675 809.319C476.917 809.566 477.25 809.69 477.677 809.69H478.021V812H477.779ZM484.032 813.215L485.582 814.765L484.032 816.305L482.492 814.765L484.032 813.215ZM491.167 809.69V812H490.628C489.843 812 489.172 811.923 488.615 811.768C488.059 811.607 487.61 811.354 487.27 811.007C486.936 810.655 486.701 810.203 486.565 809.653C485.779 810.067 484.988 810.454 484.19 810.812C483.392 811.171 482.582 811.459 481.759 811.675C480.937 811.892 480.089 812 479.217 812H477.687V809.69H479.245C480.111 809.69 480.924 809.591 481.685 809.393C482.446 809.189 483.213 808.911 483.986 808.558C484.765 808.199 485.6 807.788 486.491 807.324C486.268 807.231 486.027 807.136 485.767 807.037C485.514 806.931 485.26 806.829 485.006 806.73C484.753 806.625 484.508 806.529 484.273 806.443C484.007 806.338 483.769 806.248 483.559 806.174C483.355 806.1 483.179 806.041 483.03 805.998C482.882 805.954 482.761 805.933 482.668 805.933C482.316 805.933 481.979 806.041 481.657 806.257C481.336 806.468 481.076 806.703 480.878 806.962L480.479 807.463L478.651 806.573L478.958 806.072C479.384 805.373 479.913 804.801 480.544 804.355C481.181 803.91 481.892 803.688 482.678 803.688C483.197 803.688 483.704 803.783 484.199 803.975C484.7 804.167 485.217 804.393 485.749 804.652C486.287 804.918 486.76 805.141 487.168 805.32C487.576 805.493 487.944 805.636 488.272 805.747C488.606 805.852 488.924 805.933 489.228 805.988C489.537 806.044 489.861 806.081 490.202 806.1V808.243C489.88 808.274 489.558 808.332 489.237 808.419C488.915 808.499 488.553 808.629 488.151 808.809C488.207 809.019 488.346 809.192 488.569 809.328C488.798 809.458 489.091 809.551 489.45 809.606C489.815 809.662 490.22 809.69 490.666 809.69H491.167ZM490.805 809.69H491.463V812H490.805V809.69ZM494.905 800.255L496.38 801.721L494.905 803.205L493.43 801.721L494.905 800.255ZM491.788 800.255L493.272 801.721L491.788 803.205L490.322 801.721L491.788 800.255ZM492.252 812H491.222V809.69H492.233C492.883 809.69 493.35 809.563 493.634 809.31C493.919 809.056 494.061 808.632 494.061 808.039C494.061 807.698 494.024 807.262 493.95 806.73C493.882 806.192 493.764 805.605 493.597 804.968L495.685 804.411C495.839 804.986 495.954 805.565 496.028 806.146C496.102 806.721 496.139 807.265 496.139 807.779C496.139 808.62 496.022 809.356 495.787 809.987C495.552 810.618 495.15 811.112 494.581 811.471C494.018 811.824 493.242 812 492.252 812ZM508.357 816.676C507.028 816.676 505.942 816.425 505.101 815.924C504.26 815.423 503.641 814.746 503.246 813.893C502.856 813.045 502.661 812.093 502.661 811.035C502.661 810.33 502.735 809.603 502.884 808.855C503.038 808.1 503.255 807.355 503.533 806.619L505.491 807.389C505.287 808.008 505.11 808.626 504.962 809.245C504.82 809.857 504.749 810.438 504.749 810.989C504.749 811.613 504.86 812.182 505.083 812.696C505.305 813.215 505.676 813.63 506.196 813.939C506.722 814.248 507.442 814.403 508.357 814.403C509.044 814.403 509.653 814.338 510.185 814.208C510.717 814.084 511.162 813.92 511.521 813.716C511.88 813.512 512.152 813.293 512.337 813.058C512.529 812.823 512.625 812.597 512.625 812.38C512.625 812.25 512.588 812.139 512.514 812.046C512.439 811.954 512.303 811.907 512.105 811.907H510.603C510.231 811.907 509.879 811.867 509.545 811.787C509.211 811.7 508.914 811.555 508.654 811.351C508.401 811.14 508.2 810.85 508.051 810.479C507.909 810.107 507.838 809.634 507.838 809.059C507.838 808.428 507.94 807.825 508.144 807.25C508.348 806.675 508.639 806.161 509.016 805.71C509.4 805.258 509.857 804.903 510.389 804.643C510.927 804.377 511.53 804.244 512.198 804.244C512.606 804.244 513.018 804.306 513.432 804.43C513.847 804.547 514.236 804.736 514.601 804.996L513.877 807C513.574 806.845 513.284 806.734 513.005 806.666C512.727 806.597 512.461 806.563 512.208 806.563C511.731 806.563 511.323 806.675 510.983 806.897C510.643 807.114 510.383 807.411 510.204 807.788C510.024 808.165 509.935 808.589 509.935 809.059C509.935 809.269 509.99 809.415 510.102 809.495C510.213 809.569 510.386 809.606 510.621 809.606H512.05C512.705 809.606 513.219 809.718 513.59 809.94C513.967 810.157 514.233 810.457 514.388 810.84C514.542 811.218 514.62 811.654 514.62 812.148C514.62 812.959 514.382 813.707 513.905 814.394C513.429 815.08 512.727 815.631 511.799 816.045C510.872 816.465 509.724 816.676 508.357 816.676ZM518.878 798.984V811.991H516.707V798.984H518.878ZM526.244 812C525.91 812 525.613 811.96 525.354 811.879C525.094 811.799 524.88 811.706 524.713 811.601C524.577 812.492 524.29 813.308 523.851 814.05C523.418 814.799 522.821 815.426 522.06 815.934C521.299 816.447 520.362 816.812 519.249 817.028L518.47 814.932C519.404 814.728 520.186 814.443 520.817 814.078C521.448 813.719 521.924 813.256 522.246 812.687C522.567 812.124 522.728 811.44 522.728 810.636C522.728 810.086 522.651 809.483 522.496 808.827C522.341 808.172 522.162 807.544 521.958 806.944L524.092 806.239L524.611 808.28C524.729 808.725 524.905 809.071 525.14 809.319C525.381 809.566 525.715 809.69 526.142 809.69H526.485V812H526.244ZM526.124 809.69H526.569V812H526.124V809.69ZM528.035 813.215L529.584 814.765L528.035 816.305L526.495 814.765L528.035 813.215ZM527.357 812H526.328V809.69H527.339C527.988 809.69 528.455 809.563 528.74 809.31C529.024 809.056 529.167 808.632 529.167 808.039C529.167 807.698 529.129 807.262 529.055 806.73C528.987 806.192 528.87 805.605 528.703 804.968L530.79 804.411C530.945 804.986 531.059 805.565 531.133 806.146C531.208 806.721 531.245 807.265 531.245 807.779C531.245 808.62 531.127 809.356 530.892 809.987C530.657 810.618 530.255 811.112 529.686 811.471C529.123 811.824 528.347 812 527.357 812ZM543.361 804.281L544.91 805.831L543.361 807.371L541.821 805.831L543.361 804.281ZM543.463 814.496C544.409 814.496 545.148 814.341 545.68 814.032C546.218 813.729 546.599 813.32 546.821 812.807C547.044 812.3 547.155 811.734 547.155 811.109C547.155 810.417 547.05 809.715 546.84 809.003C546.63 808.292 546.41 807.649 546.181 807.074L548.324 806.257L549.048 808.484C549.159 808.83 549.335 809.118 549.577 809.347C549.818 809.576 550.161 809.69 550.606 809.69H550.959V812H550.644C550.316 812 550.047 811.972 549.836 811.917C549.626 811.855 549.428 811.753 549.243 811.61C549.162 812.643 548.893 813.546 548.436 814.319C547.984 815.099 547.344 815.702 546.515 816.128C545.693 816.555 544.675 816.769 543.463 816.769C542.133 816.769 541.048 816.518 540.207 816.017C539.365 815.516 538.747 814.839 538.351 813.985C537.961 813.138 537.767 812.186 537.767 811.128C537.767 810.423 537.841 809.696 537.989 808.948C538.144 808.193 538.36 807.448 538.639 806.712L540.596 807.482C540.392 808.1 540.216 808.719 540.067 809.337C539.925 809.95 539.854 810.531 539.854 811.082C539.854 811.706 539.965 812.275 540.188 812.789C540.411 813.308 540.782 813.722 541.301 814.032C541.827 814.341 542.548 814.496 543.463 814.496ZM559.058 799.049L560.459 800.45L559.058 801.86L557.657 800.45L559.058 799.049ZM560.672 801.415L562.073 802.815L560.672 804.216L559.262 802.815L560.672 801.415ZM557.453 801.415L558.854 802.815L557.453 804.216L556.052 802.815L557.453 801.415ZM556.98 812C556.318 812 555.783 811.889 555.375 811.666C554.967 811.437 554.636 811.128 554.382 810.738C554.061 811.134 553.653 811.443 553.158 811.666C552.669 811.889 552.041 812 551.274 812H550.625V809.69H551.293C552.017 809.69 552.552 809.551 552.898 809.272C553.244 808.988 553.417 808.499 553.417 807.807C553.417 807.708 553.411 807.569 553.399 807.389C553.393 807.21 553.38 807.006 553.362 806.777C553.349 806.542 553.331 806.304 553.306 806.062L555.347 805.812L555.523 808.057C555.542 808.36 555.607 808.635 555.718 808.883C555.836 809.13 556 809.328 556.21 809.477C556.42 809.619 556.683 809.69 556.999 809.69C557.568 809.69 557.973 809.523 558.214 809.189C558.455 808.855 558.576 808.394 558.576 807.807C558.576 807.708 558.569 807.569 558.557 807.389C558.551 807.21 558.539 807.006 558.52 806.777C558.508 806.542 558.489 806.304 558.464 806.062L560.505 805.812L560.682 808.057C560.7 808.342 560.756 808.611 560.849 808.864C560.941 809.112 561.081 809.313 561.266 809.467C561.458 809.616 561.699 809.69 561.99 809.69C562.262 809.69 562.481 809.61 562.648 809.449C562.815 809.288 562.936 809.075 563.01 808.809C563.084 808.536 563.122 808.236 563.122 807.909C563.122 807.507 563.072 807.049 562.973 806.536C562.88 806.022 562.772 805.528 562.648 805.051L564.745 804.495C564.894 805.033 565.005 805.571 565.079 806.109C565.153 806.641 565.19 807.17 565.19 807.695C565.19 808.475 565.091 809.192 564.894 809.848C564.696 810.497 564.365 811.017 563.901 811.406C563.437 811.796 562.809 811.994 562.018 812C561.449 812 560.969 811.882 560.58 811.647C560.19 811.412 559.871 811.106 559.624 810.729C559.296 811.125 558.903 811.437 558.446 811.666C557.994 811.889 557.506 812 556.98 812ZM573.939 810.117C573.939 811.471 573.688 812.612 573.188 813.54C572.693 814.474 571.972 815.225 571.026 815.794C570.086 816.363 568.954 816.775 567.63 817.028L566.851 814.922C567.736 814.749 568.515 814.52 569.189 814.236C569.863 813.958 570.414 813.617 570.84 813.215C571.267 812.813 571.549 812.356 571.685 811.842C571.499 811.892 571.295 811.935 571.072 811.972C570.85 812.003 570.652 812.019 570.479 812.019C569.328 812.019 568.434 811.768 567.797 811.267C567.167 810.766 566.851 809.962 566.851 808.855C566.851 808.366 566.922 807.868 567.064 807.361C567.207 806.854 567.417 806.387 567.695 805.96C567.974 805.534 568.323 805.19 568.744 804.931C569.17 804.671 569.665 804.541 570.228 804.541C570.89 804.541 571.453 804.702 571.917 805.023C572.387 805.339 572.77 805.766 573.067 806.304C573.37 806.836 573.59 807.432 573.726 808.094C573.868 808.756 573.939 809.43 573.939 810.117ZM570.469 809.727C570.735 809.727 570.989 809.712 571.23 809.681C571.471 809.644 571.688 809.597 571.879 809.542C571.848 809.201 571.793 808.87 571.712 808.549C571.638 808.221 571.536 807.924 571.406 807.658C571.276 807.392 571.112 807.182 570.915 807.027C570.717 806.873 570.482 806.795 570.209 806.795C569.869 806.795 569.603 806.913 569.412 807.148C569.22 807.383 569.084 807.655 569.003 807.964C568.929 808.274 568.892 808.543 568.892 808.771C568.892 809.149 569.034 809.402 569.319 809.532C569.603 809.662 569.987 809.727 570.469 809.727ZM574.913 817.038L574.115 814.932C575.049 814.728 575.832 814.443 576.462 814.078C577.093 813.719 577.569 813.256 577.891 812.687C578.213 812.124 578.374 811.44 578.374 810.636C578.374 810.086 578.296 809.483 578.142 808.827C577.987 808.172 577.808 807.544 577.604 806.944L579.737 806.239C579.972 806.894 580.149 807.581 580.266 808.298C580.39 809.016 580.452 809.708 580.452 810.376C580.452 811.576 580.235 812.631 579.802 813.54C579.369 814.455 578.738 815.207 577.91 815.794C577.081 816.388 576.082 816.803 574.913 817.038ZM594.052 810.117C594.052 811.471 593.802 812.612 593.301 813.54C592.806 814.474 592.085 815.225 591.139 815.794C590.199 816.363 589.067 816.775 587.744 817.028L586.964 814.922C587.849 814.749 588.628 814.52 589.302 814.236C589.976 813.958 590.527 813.617 590.954 813.215C591.38 812.813 591.662 812.356 591.798 811.842C591.612 811.892 591.408 811.935 591.186 811.972C590.963 812.003 590.765 812.019 590.592 812.019C589.441 812.019 588.548 811.768 587.911 811.267C587.28 810.766 586.964 809.962 586.964 808.855C586.964 808.366 587.035 807.868 587.178 807.361C587.32 806.854 587.53 806.387 587.809 805.96C588.087 805.534 588.436 805.19 588.857 804.931C589.284 804.671 589.778 804.541 590.341 804.541C591.003 804.541 591.566 804.702 592.03 805.023C592.5 805.339 592.883 805.766 593.18 806.304C593.483 806.836 593.703 807.432 593.839 808.094C593.981 808.756 594.052 809.43 594.052 810.117ZM590.583 809.727C590.848 809.727 591.102 809.712 591.343 809.681C591.584 809.644 591.801 809.597 591.993 809.542C591.962 809.201 591.906 808.87 591.826 808.549C591.751 808.221 591.649 807.924 591.52 807.658C591.39 807.392 591.226 807.182 591.028 807.027C590.83 806.873 590.595 806.795 590.323 806.795C589.983 806.795 589.717 806.913 589.525 807.148C589.333 807.383 589.197 807.655 589.117 807.964C589.042 808.274 589.005 808.543 589.005 808.771C589.005 809.149 589.148 809.402 589.432 809.532C589.717 809.662 590.1 809.727 590.583 809.727ZM610.158 812H607.801C606.7 812 605.705 811.917 604.814 811.75C603.923 811.583 603.16 811.313 602.522 810.942C601.892 810.571 601.406 810.086 601.066 809.486C600.732 808.88 600.565 808.134 600.565 807.25C600.565 806.743 600.621 806.248 600.732 805.766C600.843 805.277 600.986 804.822 601.159 804.402L603.098 805.125C602.993 805.41 602.894 805.732 602.801 806.09C602.708 806.443 602.662 806.78 602.662 807.102C602.662 807.609 602.785 808.029 603.033 808.363C603.286 808.697 603.642 808.963 604.1 809.161C604.557 809.353 605.098 809.489 605.723 809.569C606.354 809.65 607.047 809.69 607.801 809.69H610.148C610.866 809.69 611.453 809.656 611.911 809.588C612.369 809.514 612.709 809.387 612.932 809.208C613.154 809.022 613.266 808.762 613.266 808.428C613.266 808.199 613.167 807.961 612.969 807.714C612.777 807.466 612.52 807.213 612.199 806.953C611.877 806.693 611.525 806.434 611.141 806.174C610.758 805.914 610.374 805.657 609.991 805.404C609.607 805.15 609.261 804.906 608.952 804.671C608.723 804.492 608.543 804.272 608.414 804.012C608.284 803.752 608.219 803.48 608.219 803.196C608.219 802.874 608.299 802.574 608.46 802.296C608.621 802.011 608.862 801.804 609.184 801.674L616.16 798.835V801.108L610.835 803.27C611.299 803.567 611.726 803.848 612.115 804.114C612.511 804.38 612.873 804.646 613.201 804.912C613.528 805.172 613.822 805.441 614.082 805.719C614.348 805.998 614.583 806.298 614.787 806.619C614.997 806.941 615.183 807.293 615.344 807.677C615.542 808.159 615.736 808.549 615.928 808.846C616.12 809.136 616.355 809.35 616.633 809.486C616.912 809.622 617.273 809.69 617.719 809.69H617.979L617.969 812H617.709C616.986 812 616.377 811.882 615.882 811.647C615.387 811.406 614.957 811.017 614.592 810.479C614.302 810.843 613.971 811.137 613.6 811.36C613.229 811.583 612.771 811.746 612.227 811.852C611.682 811.951 610.993 812 610.158 812ZM617.589 809.69H618.331V812H617.589V809.69ZM620.957 813.299L622.432 814.765L620.957 816.249L619.481 814.765L620.957 813.299ZM617.839 813.299L619.324 814.765L617.839 816.249L616.374 814.765L617.839 813.299ZM619.147 812H618.118V809.69H619.129C619.778 809.69 620.245 809.563 620.53 809.31C620.814 809.056 620.957 808.632 620.957 808.039C620.957 807.698 620.919 807.262 620.845 806.73C620.777 806.192 620.66 805.605 620.493 804.968L622.58 804.411C622.735 804.986 622.849 805.565 622.923 806.146C622.998 806.721 623.035 807.265 623.035 807.779C623.035 808.62 622.917 809.356 622.682 809.987C622.447 810.618 622.045 811.112 621.476 811.471C620.913 811.824 620.137 812 619.147 812ZM624.306 817.038L623.508 814.932C624.442 814.728 625.224 814.443 625.855 814.078C626.486 813.719 626.962 813.256 627.284 812.687C627.605 812.124 627.766 811.44 627.766 810.636C627.766 810.086 627.689 809.483 627.534 808.827C627.38 808.172 627.2 807.544 626.996 806.944L629.13 806.239C629.365 806.894 629.541 807.581 629.659 808.298C629.782 809.016 629.844 809.708 629.844 810.376C629.844 811.576 629.628 812.631 629.195 813.54C628.762 814.455 628.131 815.207 627.302 815.794C626.473 816.388 625.475 816.803 624.306 817.038ZM631.978 798.984H634.158V807.705C634.158 808.447 634.276 808.963 634.511 809.254C634.746 809.545 635.173 809.69 635.791 809.69H636.014V812H635.791C634.486 812 633.524 811.66 632.906 810.979C632.287 810.293 631.978 809.248 631.978 807.844V798.984ZM635.661 809.69H636.747V812H635.661V809.69ZM640.226 800.255L641.701 801.721L640.226 803.205L638.75 801.721L640.226 800.255ZM637.108 800.255L638.593 801.721L637.108 803.205L635.643 801.721L637.108 800.255ZM637.572 812H636.542V809.69H637.554C638.203 809.69 638.67 809.563 638.955 809.31C639.239 809.056 639.381 808.632 639.381 808.039C639.381 807.698 639.344 807.262 639.27 806.73C639.202 806.192 639.084 805.605 638.917 804.968L641.005 804.411C641.16 804.986 641.274 805.565 641.348 806.146C641.422 806.721 641.459 807.265 641.459 807.779C641.459 808.62 641.342 809.356 641.107 809.987C640.872 810.618 640.47 811.112 639.901 811.471C639.338 811.824 638.562 812 637.572 812ZM657.342 802.24L658.817 803.706L657.342 805.19L655.867 803.706L657.342 802.24ZM654.225 802.24L655.709 803.706L654.225 805.19L652.759 803.706L654.225 802.24ZM661.081 805.738L663.113 805.487L663.298 807.974C663.329 808.487 663.472 808.901 663.725 809.217C663.979 809.532 664.375 809.69 664.913 809.69H665.117V812H664.913C664.208 812 663.623 811.87 663.159 811.61C662.695 811.351 662.315 810.967 662.018 810.46C661.659 810.825 661.242 811.122 660.766 811.351C660.296 811.573 659.736 811.737 659.086 811.842C658.437 811.947 657.667 812 656.776 812H655.227C654.12 812 653.118 811.917 652.221 811.75C651.331 811.583 650.567 811.313 649.93 810.942C649.299 810.571 648.813 810.086 648.473 809.486C648.139 808.88 647.972 808.134 647.972 807.25C647.972 806.743 648.028 806.248 648.139 805.766C648.25 805.283 648.393 804.829 648.566 804.402L650.505 805.135C650.4 805.419 650.301 805.741 650.208 806.1C650.115 806.452 650.069 806.789 650.069 807.111C650.069 807.618 650.196 808.039 650.449 808.373C650.703 808.7 651.055 808.963 651.507 809.161C651.965 809.353 652.509 809.489 653.14 809.569C653.771 809.65 654.466 809.69 655.227 809.69H656.776C657.704 809.69 658.493 809.628 659.142 809.504C659.798 809.375 660.299 809.161 660.645 808.864C660.998 808.561 661.174 808.156 661.174 807.649C661.174 807.358 661.161 807.037 661.137 806.684C661.118 806.332 661.1 806.016 661.081 805.738ZM664.792 809.69H665.506C666.187 809.69 666.629 809.517 666.833 809.17C667.037 808.824 667.139 808.339 667.139 807.714V798.984H669.319V807.853C669.319 809.22 669.016 810.253 668.41 810.952C667.804 811.651 666.833 812 665.497 812H664.792V809.69ZM671.945 798.984H674.125V807.705C674.125 808.447 674.243 808.963 674.478 809.254C674.713 809.545 675.139 809.69 675.758 809.69H675.98V812H675.758C674.453 812 673.491 811.66 672.873 810.979C672.254 810.293 671.945 809.248 671.945 807.844V798.984ZM675.646 809.69H677.205C678.071 809.69 678.884 809.591 679.645 809.393C680.406 809.189 681.173 808.911 681.946 808.558C682.725 808.199 683.56 807.788 684.451 807.324C684.228 807.231 683.987 807.136 683.727 807.037C683.473 806.931 683.22 806.829 682.966 806.73C682.713 806.625 682.468 806.529 682.233 806.443C681.967 806.338 681.729 806.248 681.519 806.174C681.315 806.1 681.139 806.041 680.99 805.998C680.842 805.954 680.721 805.933 680.628 805.933C680.276 805.933 679.939 806.041 679.617 806.257C679.296 806.468 679.036 806.703 678.838 806.962L678.439 807.463L676.611 806.573L676.917 806.072C677.344 805.373 677.873 804.801 678.504 804.355C679.141 803.91 679.852 803.688 680.638 803.688C681.157 803.688 681.664 803.783 682.159 803.975C682.66 804.167 683.177 804.393 683.708 804.652C684.247 804.918 684.72 805.141 685.128 805.32C685.536 805.493 685.904 805.636 686.232 805.747C686.566 805.852 686.884 805.933 687.188 805.988C687.497 806.044 687.821 806.081 688.162 806.1V808.233C687.772 808.283 687.385 808.376 687.002 808.512C686.625 808.642 686.21 808.818 685.759 809.041C685.307 809.263 684.778 809.535 684.172 809.857C683.381 810.278 682.62 810.649 681.89 810.97C681.167 811.292 680.424 811.545 679.664 811.731C678.903 811.91 678.074 812 677.177 812H675.646V809.69ZM701.159 812C700.825 812 700.528 811.96 700.269 811.879C700.009 811.799 699.795 811.706 699.628 811.601C699.492 812.492 699.205 813.308 698.766 814.05C698.333 814.799 697.736 815.426 696.975 815.934C696.214 816.447 695.277 816.812 694.164 817.028L693.385 814.932C694.319 814.728 695.101 814.443 695.732 814.078C696.363 813.719 696.839 813.256 697.161 812.687C697.482 812.124 697.643 811.44 697.643 810.636C697.643 810.086 697.566 809.483 697.411 808.827C697.257 808.172 697.077 807.544 696.873 806.944L699.007 806.239L699.526 808.28C699.644 808.725 699.82 809.071 700.055 809.319C700.296 809.566 700.63 809.69 701.057 809.69H701.4V812H701.159ZM704.536 807.371C704.536 807.606 704.607 807.834 704.75 808.057C704.892 808.28 705.083 808.481 705.325 808.66C705.566 808.84 705.832 808.982 706.123 809.087C706.376 809 706.614 808.88 706.837 808.725C707.066 808.57 707.254 808.388 707.403 808.178C707.551 807.961 707.625 807.732 707.625 807.491C707.625 807.201 707.557 806.941 707.421 806.712C707.285 806.483 707.106 806.304 706.883 806.174C706.661 806.038 706.413 805.97 706.141 805.97C705.696 805.97 705.315 806.103 705 806.369C704.691 806.635 704.536 806.969 704.536 807.371ZM705.826 804.328L706.809 802.426C707.947 802.97 708.949 803.474 709.815 803.938C710.681 804.396 711.408 804.844 711.995 805.283C712.583 805.722 713.025 806.18 713.322 806.656C713.619 807.132 713.767 807.664 713.767 808.252C713.767 809.446 713.405 810.355 712.682 810.979C711.958 811.598 710.993 811.907 709.787 811.907C709.354 811.907 708.9 811.87 708.423 811.796C707.953 811.722 707.502 811.632 707.069 811.527C706.642 811.416 706.274 811.31 705.965 811.211C705.408 811.409 704.771 811.592 704.054 811.759C703.342 811.92 702.647 812 701.966 812H701.066V809.69H701.846C702.13 809.69 702.387 809.687 702.616 809.681C702.851 809.668 703.095 809.65 703.349 809.625C703.163 809.433 703.008 809.214 702.885 808.966C702.761 808.719 702.665 808.459 702.597 808.187C702.529 807.909 702.495 807.643 702.495 807.389C702.495 806.808 702.637 806.27 702.922 805.775C703.206 805.28 703.611 804.881 704.137 804.578C704.663 804.269 705.291 804.114 706.021 804.114C706.583 804.114 707.125 804.25 707.644 804.522C708.17 804.795 708.597 805.163 708.924 805.626C709.258 806.09 709.425 806.613 709.425 807.194C709.425 807.541 709.385 807.862 709.305 808.159C709.224 808.45 709.107 808.719 708.952 808.966C708.798 809.214 708.615 809.446 708.405 809.662C708.689 809.705 708.977 809.739 709.268 809.764C709.558 809.789 709.787 809.801 709.954 809.801C710.461 809.801 710.882 809.69 711.216 809.467C711.556 809.245 711.726 808.858 711.726 808.308C711.726 808.153 711.661 807.98 711.531 807.788C711.408 807.596 711.207 807.383 710.928 807.148C710.656 806.913 710.291 806.656 709.833 806.378C709.382 806.1 708.825 805.79 708.164 805.45C707.502 805.11 706.722 804.736 705.826 804.328ZM720.762 798.984H722.942V807.705C722.942 808.447 723.06 808.963 723.295 809.254C723.53 809.545 723.957 809.69 724.575 809.69H724.798V812H724.575C723.27 812 722.308 811.66 721.69 810.979C721.071 810.293 720.762 809.248 720.762 807.844V798.984ZM724.436 809.69H724.881V812H724.436V809.69ZM726.347 813.215L727.896 814.765L726.347 816.305L724.807 814.765L726.347 813.215ZM725.67 812H724.64V809.69H725.651C726.301 809.69 726.768 809.563 727.052 809.31C727.337 809.056 727.479 808.632 727.479 808.039C727.479 807.698 727.442 807.262 727.368 806.73C727.3 806.192 727.182 805.605 727.015 804.968L729.103 804.411C729.257 804.986 729.372 805.565 729.446 806.146C729.52 806.721 729.557 807.265 729.557 807.779C729.557 808.62 729.44 809.356 729.205 809.987C728.97 810.618 728.568 811.112 727.999 811.471C727.436 811.824 726.66 812 725.67 812ZM745.44 802.24L746.915 803.706L745.44 805.19L743.965 803.706L745.44 802.24ZM742.323 802.24L743.807 803.706L742.323 805.19L740.857 803.706L742.323 802.24ZM749.179 805.738L751.21 805.487L751.396 807.974C751.427 808.487 751.569 808.901 751.823 809.217C752.076 809.532 752.472 809.69 753.01 809.69H753.214V812H753.01C752.305 812 751.721 811.87 751.257 811.61C750.793 811.351 750.413 810.967 750.116 810.46C749.757 810.825 749.34 811.122 748.863 811.351C748.393 811.573 747.833 811.737 747.184 811.842C746.535 811.947 745.765 812 744.874 812H743.325C742.218 812 741.216 811.917 740.319 811.75C739.428 811.583 738.664 811.313 738.027 810.942C737.396 810.571 736.911 810.086 736.571 809.486C736.237 808.88 736.07 808.134 736.07 807.25C736.07 806.743 736.125 806.248 736.237 805.766C736.348 805.283 736.49 804.829 736.664 804.402L738.603 805.135C738.497 805.419 738.398 805.741 738.306 806.1C738.213 806.452 738.167 806.789 738.167 807.111C738.167 807.618 738.293 808.039 738.547 808.373C738.8 808.7 739.153 808.963 739.604 809.161C740.062 809.353 740.606 809.489 741.237 809.569C741.868 809.65 742.564 809.69 743.325 809.69H744.874C745.802 809.69 746.59 809.628 747.24 809.504C747.895 809.375 748.396 809.161 748.743 808.864C749.095 808.561 749.271 808.156 749.271 807.649C749.271 807.358 749.259 807.037 749.234 806.684C749.216 806.332 749.197 806.016 749.179 805.738ZM752.853 809.69H753.595V812H752.853V809.69ZM756.22 813.299L757.695 814.765L756.22 816.249L754.745 814.765L756.22 813.299ZM753.103 813.299L754.587 814.765L753.103 816.249L751.637 814.765L753.103 813.299ZM754.411 812H753.381V809.69H754.393C755.042 809.69 755.509 809.563 755.793 809.31C756.078 809.056 756.22 808.632 756.22 808.039C756.22 807.698 756.183 807.262 756.109 806.73C756.041 806.192 755.923 805.605 755.756 804.968L757.844 804.411C757.998 804.986 758.113 805.565 758.187 806.146C758.261 806.721 758.298 807.265 758.298 807.779C758.298 808.62 758.181 809.356 757.946 809.987C757.711 810.618 757.309 811.112 756.74 811.471C756.177 811.824 755.401 812 754.411 812ZM760.432 798.984H762.612V807.705C762.612 808.447 762.73 808.963 762.965 809.254C763.2 809.545 763.627 809.69 764.245 809.69H764.468V812H764.245C762.94 812 761.978 811.66 761.36 810.979C760.741 810.293 760.432 809.248 760.432 807.844V798.984ZM775.526 812C774.964 812 774.484 811.882 774.088 811.647C773.699 811.412 773.38 811.106 773.133 810.729C772.805 811.125 772.412 811.437 771.955 811.666C771.503 811.889 771.014 812 770.489 812C769.827 812 769.292 811.889 768.884 811.666C768.476 811.437 768.145 811.128 767.891 810.738C767.569 811.134 767.161 811.443 766.667 811.666C766.178 811.889 765.55 812 764.783 812H764.134V809.69H764.802C765.525 809.69 766.06 809.551 766.407 809.272C766.753 808.988 766.926 808.499 766.926 807.807C766.926 807.708 766.92 807.569 766.908 807.389C766.902 807.21 766.889 807.006 766.871 806.777C766.858 806.542 766.84 806.304 766.815 806.062L768.856 805.812L769.032 808.057C769.051 808.36 769.116 808.635 769.227 808.883C769.345 809.13 769.508 809.328 769.719 809.477C769.929 809.619 770.192 809.69 770.507 809.69C771.076 809.69 771.481 809.523 771.723 809.189C771.964 808.855 772.084 808.394 772.084 807.807C772.084 807.708 772.078 807.569 772.066 807.389C772.06 807.21 772.047 807.006 772.029 806.777C772.016 806.542 771.998 806.304 771.973 806.062L774.014 805.812L774.19 808.057C774.209 808.342 774.265 808.611 774.357 808.864C774.456 809.112 774.599 809.313 774.784 809.467C774.976 809.616 775.22 809.69 775.517 809.69C775.789 809.69 776.009 809.61 776.176 809.449C776.343 809.288 776.463 809.068 776.538 808.79C776.612 808.506 776.649 808.184 776.649 807.825C776.649 807.603 776.637 807.315 776.612 806.962C776.593 806.61 776.569 806.239 776.538 805.849L778.579 805.608L778.755 808.057C778.773 808.397 778.845 808.691 778.968 808.938C779.092 809.18 779.265 809.365 779.488 809.495C779.717 809.625 780.001 809.69 780.341 809.69H780.601V812H780.36C779.76 812 779.24 811.895 778.801 811.685C778.368 811.468 778.044 811.165 777.827 810.775C777.574 811.14 777.267 811.437 776.909 811.666C776.55 811.889 776.089 812 775.526 812ZM780.249 809.69H780.694V812H780.249V809.69ZM782.16 813.215L783.709 814.765L782.16 816.305L780.62 814.765L782.16 813.215ZM781.482 812H780.453V809.69H781.464C782.113 809.69 782.58 809.563 782.865 809.31C783.149 809.056 783.292 808.632 783.292 808.039C783.292 807.698 783.254 807.262 783.18 806.73C783.112 806.192 782.995 805.605 782.828 804.968L784.915 804.411C785.07 804.986 785.184 805.565 785.258 806.146C785.333 806.721 785.37 807.265 785.37 807.779C785.37 808.62 785.252 809.356 785.017 809.987C784.782 810.618 784.38 811.112 783.811 811.471C783.248 811.824 782.472 812 781.482 812ZM794.109 810.117C794.109 811.471 793.858 812.612 793.357 813.54C792.863 814.474 792.142 815.225 791.196 815.794C790.256 816.363 789.124 816.775 787.8 817.028L787.021 814.922C787.905 814.749 788.685 814.52 789.359 814.236C790.033 813.958 790.583 813.617 791.01 813.215C791.437 812.813 791.718 812.356 791.854 811.842C791.669 811.892 791.465 811.935 791.242 811.972C791.02 812.003 790.822 812.019 790.648 812.019C789.498 812.019 788.604 811.768 787.967 811.267C787.336 810.766 787.021 809.962 787.021 808.855C787.021 808.366 787.092 807.868 787.234 807.361C787.377 806.854 787.587 806.387 787.865 805.96C788.144 805.534 788.493 805.19 788.914 804.931C789.34 804.671 789.835 804.541 790.398 804.541C791.06 804.541 791.623 804.702 792.086 805.023C792.556 805.339 792.94 805.766 793.237 806.304C793.54 806.836 793.759 807.432 793.896 808.094C794.038 808.756 794.109 809.43 794.109 810.117ZM790.639 809.727C790.905 809.727 791.159 809.712 791.4 809.681C791.641 809.644 791.858 809.597 792.049 809.542C792.018 809.201 791.963 808.87 791.882 808.549C791.808 808.221 791.706 807.924 791.576 807.658C791.446 807.392 791.282 807.182 791.084 807.027C790.887 806.873 790.652 806.795 790.379 806.795C790.039 806.795 789.773 806.913 789.582 807.148C789.39 807.383 789.254 807.655 789.173 807.964C789.099 808.274 789.062 808.543 789.062 808.771C789.062 809.149 789.204 809.402 789.489 809.532C789.773 809.662 790.157 809.727 790.639 809.727ZM806.327 816.676C804.997 816.676 803.912 816.425 803.071 815.924C802.23 815.423 801.611 814.746 801.215 813.893C800.826 813.045 800.631 812.093 800.631 811.035C800.631 810.33 800.705 809.603 800.854 808.855C801.008 808.1 801.225 807.355 801.503 806.619L803.46 807.389C803.256 808.008 803.08 808.626 802.932 809.245C802.789 809.857 802.718 810.438 802.718 810.989C802.718 811.613 802.83 812.182 803.052 812.696C803.275 813.215 803.646 813.63 804.166 813.939C804.691 814.248 805.412 814.403 806.327 814.403C807.014 814.403 807.623 814.338 808.155 814.208C808.687 814.084 809.132 813.92 809.491 813.716C809.849 813.512 810.122 813.293 810.307 813.058C810.499 812.823 810.595 812.597 810.595 812.38C810.595 812.25 810.558 812.139 810.483 812.046C810.409 811.954 810.273 811.907 810.075 811.907H808.572C808.201 811.907 807.849 811.867 807.515 811.787C807.181 811.7 806.884 811.555 806.624 811.351C806.37 811.14 806.169 810.85 806.021 810.479C805.879 810.107 805.808 809.634 805.808 809.059C805.808 808.428 805.91 807.825 806.114 807.25C806.318 806.675 806.609 806.161 806.986 805.71C807.369 805.258 807.827 804.903 808.359 804.643C808.897 804.377 809.5 804.244 810.168 804.244C810.576 804.244 810.987 804.306 811.402 804.43C811.816 804.547 812.206 804.736 812.571 804.996L811.847 807C811.544 806.845 811.253 806.734 810.975 806.666C810.697 806.597 810.431 806.563 810.177 806.563C809.701 806.563 809.293 806.675 808.953 806.897C808.612 807.114 808.353 807.411 808.173 807.788C807.994 808.165 807.904 808.589 807.904 809.059C807.904 809.269 807.96 809.415 808.071 809.495C808.183 809.569 808.356 809.606 808.591 809.606H810.02C810.675 809.606 811.188 809.718 811.56 809.94C811.937 810.157 812.203 810.457 812.357 810.84C812.512 811.218 812.589 811.654 812.589 812.148C812.589 812.959 812.351 813.707 811.875 814.394C811.399 815.08 810.697 815.631 809.769 816.045C808.841 816.465 807.694 816.676 806.327 816.676ZM814.667 798.984H816.848V807.705C816.848 808.447 816.965 808.963 817.2 809.254C817.435 809.545 817.862 809.69 818.48 809.69H818.703V812H818.48C817.175 812 816.214 811.66 815.595 810.979C814.977 810.293 814.667 809.248 814.667 807.844V798.984ZM818.341 809.69H818.787V812H818.341V809.69ZM820.252 813.215L821.802 814.765L820.252 816.305L818.712 814.765L820.252 813.215ZM821.273 805.775L823.305 805.534L823.481 808.001C823.5 808.342 823.571 808.642 823.694 808.901C823.818 809.155 823.994 809.35 824.223 809.486C824.458 809.622 824.755 809.69 825.114 809.69H825.299V812H825.095C824.668 812 824.288 811.947 823.954 811.842C823.62 811.737 823.326 811.589 823.073 811.397C822.825 811.205 822.609 810.979 822.423 810.72C822.071 811.134 821.629 811.453 821.097 811.675C820.571 811.892 820.014 812 819.427 812H818.545V809.69H819.427C820.15 809.69 820.654 809.523 820.939 809.189C821.223 808.849 821.366 808.348 821.366 807.686C821.366 807.346 821.356 807.018 821.338 806.703C821.326 806.387 821.304 806.078 821.273 805.775ZM824.919 809.69H825.661V812H824.919V809.69ZM828.287 813.299L829.762 814.765L828.287 816.249L826.812 814.765L828.287 813.299ZM825.169 813.299L826.654 814.765L825.169 816.249L823.704 814.765L825.169 813.299ZM826.478 812H825.448V809.69H826.459C827.108 809.69 827.575 809.563 827.86 809.31C828.144 809.056 828.287 808.632 828.287 808.039C828.287 807.698 828.25 807.262 828.175 806.73C828.107 806.192 827.99 805.605 827.823 804.968L829.91 804.411C830.065 804.986 830.179 805.565 830.253 806.146C830.328 806.721 830.365 807.265 830.365 807.779C830.365 808.62 830.247 809.356 830.012 809.987C829.777 810.618 829.375 811.112 828.806 811.471C828.243 811.824 827.467 812 826.478 812ZM835.124 801.665L836.673 803.214L835.124 804.754L833.584 803.214L835.124 801.665ZM831.636 817.038L830.838 814.932C831.772 814.728 832.554 814.443 833.185 814.078C833.816 813.719 834.292 813.256 834.614 812.687C834.935 812.124 835.096 811.44 835.096 810.636C835.096 810.086 835.019 809.483 834.864 808.827C834.71 808.172 834.53 807.544 834.326 806.944L836.46 806.239C836.695 806.894 836.871 807.581 836.989 808.298C837.112 809.016 837.174 809.708 837.174 810.376C837.174 811.576 836.958 812.631 836.525 813.54C836.092 814.455 835.461 815.207 834.632 815.794C833.804 816.388 832.805 816.803 831.636 817.038Z" fill="#696E84"/>
<rect x="159" y="68" width="588" height="577" fill="white"/>
<rect x="160" y="69" width="586" height="575" stroke="#7C8092" stroke-opacity="0.95" stroke-width="2"/>
<circle cx="660" cy="153" r="45" fill="#D9D9D9"/>
<rect x="468" y="128" width="133" height="25" fill="#D9D9D9"/>
<rect x="429" y="161" width="172" height="18" fill="#D9D9D9"/>
<rect x="159" y="68" width="294" height="577" fill="#1C1A1A"/>
<rect x="429" y="161" width="24" height="18" fill="#D4D5DA"/>
<rect x="207" y="128" width="32" height="30" fill="#D9D9D9"/>
<rect x="207" y="449" width="32" height="30" fill="#D9D9D9"/>
<rect x="247" y="128" width="32" height="30" fill="#D9D9D9"/>
<rect x="207" y="224" width="478" height="213" fill="#D9D9D9"/>
<rect x="548" y="449" width="133" height="25" fill="#D9D9D9"/>
<rect x="359" y="486" width="322" height="25" fill="#D9D9D9"/>
<rect x="207" y="573" width="171" height="48" fill="#D9D9D9"/>
<defs>
<linearGradient id="paint0_linear_277_87" x1="400.5" y1="890" x2="420.741" y2="457.073" gradientUnits="userSpaceOnUse">
<stop offset="0.132159" stop-color="#1A1B1F"/>
<stop offset="0.412402" stop-color="#26272B" stop-opacity="0.82"/>
</linearGradient>
</defs>
</svg>
