<svg width="379" height="233" viewBox="0 0 379 233" fill="none" xmlns="http://www.w3.org/2000/svg">
<rect width="379" height="233" fill="#1A1D2C"/>
<path d="M247.747 117.747H260.356C267.319 117.747 272.965 123.392 272.965 130.356V130.356C272.965 137.32 267.319 142.965 260.356 142.965V142.965C253.392 142.965 247.747 137.32 247.747 130.356V117.747Z" fill="white"/>
<path d="M221 130.356C221 123.392 226.645 117.747 233.609 117.747H246.218V130.356C246.218 137.32 240.573 142.965 233.609 142.965V142.965C226.645 142.965 221 137.32 221 130.356V130.356Z" fill="white"/>
<path d="M247.747 103.609C247.747 96.6453 253.392 91 260.356 91V91C267.319 91 272.965 96.6453 272.965 103.609V103.609C272.965 110.573 267.319 116.218 260.356 116.218H247.747V103.609Z" fill="white"/>
<path d="M224.057 105.137C224.057 99.0177 229.018 94.0566 235.137 94.0566V94.0566C241.257 94.0566 246.218 99.0177 246.218 105.137V116.218H235.137C229.018 116.218 224.057 111.257 224.057 105.137V105.137Z" fill="white"/>
<g filter="url(#filter0_d_328_6)">
<path d="M200.611 118.962C197.044 118.962 195.26 117.537 195.26 114.689C195.26 114.317 195.273 114.032 195.298 113.834L196.486 103.06H199.83C202.332 103.06 204.239 103.592 205.552 104.657C206.865 105.698 207.744 107.159 208.19 109.041C208.661 110.899 208.896 113.314 208.896 116.286L206.109 119.668C206.109 116.175 206.023 113.673 205.849 112.162C205.676 110.627 205.156 109.438 204.289 108.596C203.422 107.729 201.973 107.295 199.942 107.295H198.716L198.084 114.392C198.579 114.491 199.706 114.54 201.465 114.54C202.803 114.515 204.066 114.441 205.255 114.317C206.469 114.193 207.298 114.07 207.744 113.946V117.884C207.001 118.132 205.986 118.379 204.698 118.627C203.41 118.85 202.047 118.962 200.611 118.962ZM193.455 123.063C196.254 122.766 200.375 122.182 202.134 121.562C203.893 120.968 205.218 120.299 206.109 119.556V115.952C206.109 115.754 206.32 115.469 206.741 115.098C207.187 114.726 207.596 114.54 207.967 114.54C208.586 114.54 208.896 115.122 208.896 116.286C208.896 118.392 208.661 120.076 208.19 121.339C207.744 122.627 206.592 123.779 204.735 124.795C202.902 125.835 200.004 126.64 196.041 127.21L193.455 123.063Z" fill="white"/>
<path d="M183.325 115.255C184.291 115.236 185.391 115.153 186.627 115.005C187.863 114.858 188.726 114.643 189.216 114.361L188.609 104.042L192.283 103.786L192.457 112.813C192.504 115.264 191.745 117.013 190.179 118.059C188.638 119.079 186.381 119.618 183.41 119.675L183.325 115.255Z" fill="white"/>
<path d="M167 115.568L168.078 115.547C172.288 115.467 174.799 115.282 175.611 114.994L175.543 111.465C175.53 110.772 175.42 110.204 175.213 109.762C175.03 109.295 174.626 108.881 174 108.522C172.822 107.826 170.681 106.604 167.575 104.855L168.428 98.9669L181.163 94.5231L180.537 98.6972L170.681 102.119L172.109 102.947C174.063 104.074 175.443 104.964 176.248 105.617C177.053 106.246 177.638 107.027 178.003 107.962C178.367 108.896 178.566 110.23 178.6 111.964L178.642 114.155C178.671 115.691 178.223 116.876 177.298 117.712C176.372 118.547 175.083 119.129 173.429 119.458C171.775 119.762 169.661 119.939 167.085 119.989L167 115.568ZM183.393 119.676C182.13 119.7 181.051 119.659 180.157 119.552C179.288 119.445 178.451 119.052 177.645 118.374C176.839 117.671 176.421 116.539 176.391 114.979L176.333 111.97L178.599 111.927L178.605 112.261C178.629 113.499 179.029 114.321 179.805 114.728C180.58 115.109 181.748 115.285 183.308 115.255L183.687 115.619L183.757 119.297L183.393 119.676Z" fill="white"/>
<path d="M157.284 120.288C156.144 120.31 154.891 120.161 153.522 119.84C152.178 119.519 151.017 119.034 150.038 118.384C149.084 117.733 148.598 116.937 148.58 115.996C148.568 115.352 148.778 114.679 149.21 113.977C151.487 115.148 154.473 115.846 158.169 116.072L157.622 105.009L161.296 104.752L161.5 115.377C161.532 117.036 161.221 118.268 160.568 119.073C159.914 119.854 158.819 120.259 157.284 120.288ZM131.268 116.254L132.419 116.232C134.549 116.191 136.129 115.901 137.159 115.361L136.992 106.631L140.186 106.57L140.281 111.51C140.329 114.012 139.994 115.926 139.277 117.253C138.558 118.555 137.547 119.441 136.243 119.912C134.964 120.383 133.334 120.637 131.353 120.675L131.268 116.254ZM144.022 120.543C142.066 120.581 140.559 120.188 139.503 119.366C138.471 118.519 137.94 117.303 137.909 115.718L137.735 106.617L140.186 106.57L140.323 113.702C140.34 114.594 140.637 115.22 141.214 115.58C141.816 115.94 142.81 116.107 144.197 116.08L144.022 120.543ZM144.022 120.543C143.873 120.546 143.669 120.228 143.409 119.589C143.173 118.924 143.05 118.295 143.038 117.701C143.029 117.23 143.109 116.845 143.276 116.544C143.469 116.243 143.751 116.089 144.122 116.082C145.039 116.064 145.867 115.986 146.608 115.848C147.373 115.71 147.977 115.537 148.418 115.33L148.244 106.229L151.438 106.168L151.598 114.489C151.636 116.47 150.947 117.97 149.529 118.988C148.111 119.981 146.276 120.5 144.022 120.543ZM167.088 119.989C164.439 120.04 162.561 119.642 161.454 118.796C160.372 117.925 159.813 116.549 159.777 114.666L159.687 109.986L161.396 109.953L161.411 110.733C161.441 112.293 161.598 113.405 161.884 114.069C162.169 114.732 162.673 115.156 163.395 115.34C164.117 115.525 165.32 115.601 167.004 115.568L167.382 115.933L167.453 119.61L167.088 119.989Z" fill="white"/>
<path d="M116.295 125.906C110.475 126.018 107.517 123.56 107.421 118.533C107.404 117.666 107.524 114.877 107.78 110.165L110.682 110.332C110.557 114.15 110.505 116.591 110.525 117.656C110.554 119.167 111.119 120.196 112.22 120.745C113.32 121.269 114.737 121.514 116.47 121.481C118.179 121.448 119.588 121.285 120.697 120.991C121.831 120.697 122.84 120.306 123.722 119.818L122.907 96.7196L126.502 96.2418L126.935 118.753C126.964 120.264 126.493 121.549 125.522 122.608C124.552 123.667 123.242 124.472 121.592 125.024C119.968 125.576 118.202 125.87 116.295 125.906ZM131.356 120.675C130.267 120.696 129.324 120.64 128.529 120.506C127.734 120.373 127.007 119.966 126.35 119.285C125.717 118.578 125.386 117.47 125.357 115.959L125.28 111.947L126.803 111.918L126.829 113.255C126.852 114.469 127.227 115.279 127.953 115.686C128.704 116.068 129.81 116.258 131.272 116.254L131.65 116.619L131.721 120.296L131.356 120.675Z" fill="white"/>
<path d="M179.879 123.062H192.026L194.884 127.35H185.827C183.129 127.35 180.733 125.623 179.879 123.062V123.062Z" fill="white"/>
</g>
<path d="M136.684 140.008C136.121 140.008 135.66 139.901 135.301 139.688C134.944 139.477 134.68 139.189 134.508 138.824C134.339 138.462 134.254 138.053 134.254 137.598C134.254 137.34 134.28 137.064 134.332 136.77C134.387 136.473 134.475 136.161 134.598 135.836L135.484 136.176C135.391 136.452 135.319 136.706 135.27 136.938C135.223 137.169 135.199 137.379 135.199 137.566C135.199 137.822 135.243 138.056 135.332 138.27C135.423 138.483 135.577 138.654 135.793 138.781C136.009 138.909 136.306 138.973 136.684 138.973C137.092 138.973 137.424 138.928 137.68 138.84C137.938 138.751 138.126 138.651 138.246 138.539C138.366 138.427 138.426 138.336 138.426 138.266C138.426 138.169 138.379 138.1 138.285 138.059C138.194 138.02 138.048 138 137.848 138H137.242C137.143 138 137.079 137.974 137.051 137.922C137.025 137.87 136.999 137.799 136.973 137.711L136.82 137.148C136.799 137.083 136.796 137.035 136.809 137.004C136.822 136.97 136.867 136.953 136.945 136.953H139.258V138C139.279 138.057 139.292 138.104 139.297 138.141C139.302 138.177 139.305 138.217 139.305 138.262C139.305 138.488 139.247 138.706 139.133 138.914C139.018 139.125 138.849 139.312 138.625 139.477C138.401 139.641 138.126 139.77 137.801 139.863C137.475 139.96 137.103 140.008 136.684 140.008ZM143.996 135.566C143.845 135.566 143.691 135.603 143.535 135.676C143.382 135.749 143.229 135.849 143.078 135.977C142.927 136.104 142.781 136.251 142.641 136.418C142.5 136.585 142.366 136.762 142.238 136.949H142.648C142.932 136.949 143.197 136.939 143.441 136.918C143.686 136.897 143.901 136.859 144.086 136.805C144.271 136.747 144.414 136.671 144.516 136.574C144.617 136.475 144.668 136.35 144.668 136.199C144.668 136.009 144.604 135.857 144.477 135.742C144.352 135.625 144.191 135.566 143.996 135.566ZM141.254 136.805C141.439 136.492 141.633 136.199 141.836 135.926C142.042 135.652 142.257 135.411 142.48 135.203C142.704 134.995 142.94 134.832 143.188 134.715C143.435 134.595 143.695 134.535 143.969 134.535C144.292 134.535 144.578 134.604 144.828 134.742C145.078 134.878 145.273 135.066 145.414 135.309C145.557 135.548 145.629 135.822 145.629 136.129C145.629 136.48 145.555 136.776 145.406 137.016C145.258 137.255 145.047 137.448 144.773 137.594C144.503 137.737 144.184 137.841 143.816 137.906C143.449 137.969 143.048 138 142.613 138H142.406C142.102 138 141.831 137.983 141.594 137.949C141.357 137.913 141.15 137.855 140.973 137.777C140.798 137.699 140.651 137.599 140.531 137.477C140.383 137.643 140.21 137.772 140.012 137.863C139.816 137.954 139.569 138 139.27 138H139.113L139.117 136.949H139.27C139.592 136.949 139.806 136.883 139.91 136.75C140.017 136.615 140.07 136.413 140.07 136.145C140.07 135.999 140.066 135.858 140.059 135.723C140.051 135.585 140.042 135.448 140.031 135.312L140.945 135.203L141.016 136.273C141.026 136.393 141.049 136.509 141.086 136.621C141.125 136.73 141.181 136.792 141.254 136.805ZM146.5 132.504H147.488V136.145C147.488 136.439 147.533 136.647 147.621 136.77C147.71 136.889 147.883 136.949 148.141 136.949H148.234V138H148.141C147.576 138 147.16 137.853 146.895 137.559C146.632 137.264 146.5 136.818 146.5 136.219V132.504ZM152.973 135.566C152.822 135.566 152.668 135.603 152.512 135.676C152.358 135.749 152.206 135.849 152.055 135.977C151.904 136.104 151.758 136.251 151.617 136.418C151.477 136.585 151.342 136.762 151.215 136.949H151.625C151.909 136.949 152.173 136.939 152.418 136.918C152.663 136.897 152.878 136.859 153.062 136.805C153.247 136.747 153.391 136.671 153.492 136.574C153.594 136.475 153.645 136.35 153.645 136.199C153.645 136.009 153.581 135.857 153.453 135.742C153.328 135.625 153.168 135.566 152.973 135.566ZM151.59 138H151.383C151.078 138 150.807 137.983 150.57 137.949C150.333 137.913 150.126 137.855 149.949 137.777C149.775 137.699 149.628 137.599 149.508 137.477C149.359 137.643 149.186 137.772 148.988 137.863C148.793 137.954 148.546 138 148.246 138H148.09L148.094 136.949H148.246C148.569 136.949 148.783 136.883 148.887 136.75C148.993 136.615 149.047 136.413 149.047 136.145C149.047 135.999 149.043 135.858 149.035 135.723C149.027 135.585 149.018 135.448 149.008 135.312L149.922 135.203L149.992 136.273C150.003 136.393 150.026 136.509 150.062 136.621C150.102 136.73 150.158 136.792 150.23 136.805C150.418 136.492 150.613 136.199 150.816 135.926C151.02 135.652 151.233 135.411 151.457 135.203C151.681 134.995 151.915 134.832 152.16 134.715C152.408 134.595 152.669 134.535 152.945 134.535C153.268 134.535 153.555 134.604 153.805 134.742C154.055 134.878 154.25 135.066 154.391 135.309C154.534 135.548 154.605 135.822 154.605 136.129C154.605 136.254 154.59 136.391 154.559 136.539C154.53 136.688 154.483 136.812 154.418 136.914C154.46 136.922 154.508 136.928 154.562 136.934C154.617 136.939 154.68 136.943 154.75 136.945C154.823 136.948 154.908 136.949 155.004 136.949H155.117V138H155.008C154.693 138 154.43 137.961 154.219 137.883C154.008 137.802 153.822 137.704 153.66 137.59C153.397 137.712 153.087 137.811 152.73 137.887C152.376 137.962 151.996 138 151.59 138ZM154.969 136.949H155.246V138H154.969V136.949ZM156.699 133.305L157.344 133.945L156.699 134.594L156.055 133.945L156.699 133.305ZM155.379 133.305L156.031 133.945L155.379 134.594L154.742 133.945L155.379 133.305ZM156.262 135.309L157.176 135.199L157.254 136.277C157.262 136.413 157.289 136.531 157.336 136.633C157.385 136.734 157.457 136.812 157.551 136.867C157.645 136.922 157.764 136.949 157.91 136.949H157.988V138H157.902C157.725 138 157.566 137.978 157.426 137.934C157.285 137.889 157.161 137.828 157.055 137.75C156.948 137.672 156.855 137.581 156.777 137.477C156.624 137.643 156.436 137.772 156.215 137.863C155.996 137.954 155.763 138 155.516 138H155.145V136.949H155.516C155.81 136.949 156.014 136.883 156.129 136.75C156.243 136.617 156.301 136.415 156.301 136.145C156.301 135.999 156.297 135.857 156.289 135.719C156.284 135.578 156.275 135.441 156.262 135.309ZM160.27 132.57L160.945 133.246L160.27 133.922L159.594 133.246L160.27 132.57ZM157.844 136.949H158.5C158.852 136.949 159.181 136.91 159.488 136.832C159.798 136.754 160.112 136.645 160.43 136.504C160.75 136.361 161.098 136.193 161.473 136C161.376 135.958 161.268 135.914 161.148 135.867C161.031 135.82 160.914 135.775 160.797 135.73C160.682 135.684 160.581 135.645 160.492 135.613C160.401 135.577 160.319 135.547 160.246 135.523C160.176 135.497 160.115 135.478 160.062 135.465C160.013 135.452 159.973 135.445 159.941 135.445C159.796 135.445 159.656 135.491 159.523 135.582C159.393 135.671 159.289 135.766 159.211 135.867L159.023 136.102L158.203 135.699L158.355 135.453C158.535 135.156 158.76 134.911 159.031 134.719C159.302 134.526 159.607 134.43 159.945 134.43C160.177 134.43 160.398 134.471 160.609 134.555C160.823 134.635 161.038 134.729 161.254 134.836C161.486 134.951 161.688 135.046 161.859 135.121C162.031 135.194 162.185 135.254 162.32 135.301C162.458 135.345 162.592 135.379 162.723 135.402C162.853 135.423 162.993 135.438 163.145 135.445V136.41C162.965 136.434 162.792 136.475 162.625 136.535C162.458 136.592 162.28 136.668 162.09 136.762C161.9 136.855 161.681 136.969 161.434 137.102C161.1 137.279 160.78 137.435 160.473 137.57C160.168 137.706 159.855 137.811 159.535 137.887C159.217 137.962 158.868 138 158.488 138H157.844V136.949ZM164.961 132.504V137.996H163.969V132.504H164.961ZM171.84 133.805L172.484 134.445L171.84 135.094L171.195 134.445L171.84 133.805ZM170.52 133.805L171.172 134.445L170.52 135.094L169.883 134.445L170.52 133.805ZM173.367 135.289L174.285 135.176L174.367 136.258C174.38 136.466 174.436 136.634 174.535 136.762C174.634 136.887 174.794 136.949 175.016 136.949H175.102V138H175.016C174.719 138 174.471 137.945 174.273 137.836C174.078 137.727 173.917 137.57 173.789 137.367C173.633 137.516 173.454 137.637 173.254 137.73C173.053 137.824 172.818 137.893 172.547 137.938C172.276 137.979 171.956 138 171.586 138H170.934C170.475 138 170.057 137.966 169.68 137.898C169.302 137.828 168.977 137.715 168.703 137.559C168.43 137.402 168.219 137.194 168.07 136.934C167.922 136.673 167.848 136.352 167.848 135.969C167.848 135.745 167.872 135.527 167.922 135.316C167.974 135.103 168.038 134.904 168.113 134.719L168.988 135.051C168.944 135.171 168.901 135.309 168.859 135.465C168.818 135.618 168.797 135.767 168.797 135.91C168.797 136.118 168.85 136.29 168.957 136.426C169.066 136.559 169.217 136.664 169.41 136.742C169.605 136.818 169.832 136.871 170.09 136.902C170.35 136.934 170.632 136.949 170.934 136.949H171.586C171.971 136.949 172.299 136.924 172.57 136.875C172.841 136.826 173.048 136.741 173.191 136.621C173.335 136.499 173.406 136.333 173.406 136.125C173.406 135.997 173.402 135.857 173.395 135.703C173.387 135.547 173.378 135.409 173.367 135.289ZM174.945 136.949H175.258V138H174.945V136.949ZM176.367 138.523L177.012 139.164L176.367 139.812L175.723 139.164L176.367 138.523ZM175.047 138.523L175.699 139.164L175.047 139.812L174.41 139.164L175.047 138.523ZM175.602 138H175.168V136.949H175.594C175.846 136.949 176.031 136.904 176.148 136.812C176.268 136.719 176.328 136.548 176.328 136.301C176.328 136.158 176.312 135.971 176.281 135.742C176.253 135.513 176.202 135.258 176.129 134.977L177.074 134.723C177.139 134.978 177.188 135.229 177.219 135.477C177.253 135.721 177.27 135.956 177.27 136.18C177.27 136.544 177.217 136.863 177.113 137.137C177.009 137.408 176.836 137.62 176.594 137.773C176.352 137.924 176.021 138 175.602 138ZM178.141 132.504H179.129V136.145C179.129 136.439 179.173 136.647 179.262 136.77C179.35 136.889 179.523 136.949 179.781 136.949H179.875V138H179.781C179.216 138 178.801 137.853 178.535 137.559C178.272 137.264 178.141 136.818 178.141 136.219V132.504ZM182.41 138C182.139 138 181.915 137.954 181.738 137.863C181.564 137.77 181.422 137.645 181.312 137.488C181.172 137.647 180.997 137.772 180.789 137.863C180.581 137.954 180.32 138 180.008 138H179.734V136.949H180.016C180.31 136.949 180.527 136.896 180.668 136.789C180.809 136.68 180.879 136.484 180.879 136.203C180.879 136.161 180.876 136.099 180.871 136.016C180.866 135.932 180.859 135.839 180.852 135.734C180.846 135.63 180.84 135.529 180.832 135.43L181.746 135.316L181.828 136.309C181.836 136.428 181.862 136.538 181.906 136.637C181.953 136.733 182.018 136.81 182.102 136.867C182.188 136.922 182.293 136.949 182.418 136.949C182.647 136.949 182.81 136.885 182.906 136.758C183.003 136.628 183.051 136.443 183.051 136.203C183.051 136.164 183.048 136.103 183.043 136.02C183.04 135.934 183.035 135.839 183.027 135.734C183.02 135.63 183.012 135.529 183.004 135.43L183.918 135.316L184 136.309C184.008 136.421 184.03 136.526 184.066 136.625C184.103 136.724 184.158 136.803 184.23 136.863C184.306 136.921 184.402 136.949 184.52 136.949C184.629 136.949 184.716 136.918 184.781 136.855C184.846 136.79 184.893 136.706 184.922 136.602C184.951 136.495 184.965 136.379 184.965 136.254C184.965 136.077 184.943 135.875 184.898 135.648C184.854 135.419 184.807 135.206 184.758 135.008L185.703 134.758C185.766 134.99 185.814 135.223 185.848 135.457C185.882 135.689 185.898 135.921 185.898 136.152C185.898 136.486 185.855 136.793 185.77 137.074C185.684 137.353 185.542 137.577 185.344 137.746C185.146 137.913 184.875 137.997 184.531 138C184.292 138 184.09 137.952 183.926 137.855C183.762 137.757 183.626 137.632 183.52 137.48C183.384 137.637 183.221 137.763 183.031 137.859C182.841 137.953 182.634 138 182.41 138ZM191.02 140.008C190.457 140.008 189.996 139.901 189.637 139.688C189.28 139.477 189.016 139.189 188.844 138.824C188.674 138.462 188.59 138.053 188.59 137.598C188.59 137.34 188.616 137.064 188.668 136.77C188.723 136.473 188.811 136.161 188.934 135.836L189.82 136.176C189.727 136.452 189.655 136.706 189.605 136.938C189.559 137.169 189.535 137.379 189.535 137.566C189.535 137.822 189.579 138.056 189.668 138.27C189.759 138.483 189.913 138.654 190.129 138.781C190.345 138.909 190.642 138.973 191.02 138.973C191.428 138.973 191.76 138.928 192.016 138.84C192.273 138.751 192.462 138.651 192.582 138.539C192.702 138.427 192.762 138.336 192.762 138.266C192.762 138.169 192.715 138.1 192.621 138.059C192.53 138.02 192.384 138 192.184 138H191.578C191.479 138 191.415 137.974 191.387 137.922C191.361 137.87 191.335 137.799 191.309 137.711L191.156 137.148C191.135 137.083 191.132 137.035 191.145 137.004C191.158 136.97 191.203 136.953 191.281 136.953H193.594V138C193.615 138.057 193.628 138.104 193.633 138.141C193.638 138.177 193.641 138.217 193.641 138.262C193.641 138.488 193.583 138.706 193.469 138.914C193.354 139.125 193.185 139.312 192.961 139.477C192.737 139.641 192.462 139.77 192.137 139.863C191.811 139.96 191.439 140.008 191.02 140.008ZM193.453 136.949H194.109C194.461 136.949 194.79 136.91 195.098 136.832C195.408 136.754 195.721 136.645 196.039 136.504C196.359 136.361 196.707 136.193 197.082 136C196.986 135.958 196.878 135.914 196.758 135.867C196.641 135.82 196.523 135.775 196.406 135.73C196.292 135.684 196.19 135.645 196.102 135.613C196.01 135.577 195.928 135.547 195.855 135.523C195.785 135.497 195.724 135.478 195.672 135.465C195.622 135.452 195.582 135.445 195.551 135.445C195.405 135.445 195.266 135.491 195.133 135.582C195.003 135.671 194.898 135.766 194.82 135.867L194.633 136.102L193.812 135.699L193.965 135.453C194.145 135.156 194.37 134.911 194.641 134.719C194.911 134.526 195.216 134.43 195.555 134.43C195.786 134.43 196.008 134.471 196.219 134.555C196.432 134.635 196.647 134.729 196.863 134.836C197.095 134.951 197.297 135.046 197.469 135.121C197.641 135.194 197.794 135.254 197.93 135.301C198.068 135.345 198.202 135.379 198.332 135.402C198.462 135.423 198.603 135.438 198.754 135.445V136.41C198.574 136.434 198.401 136.475 198.234 136.535C198.068 136.592 197.889 136.668 197.699 136.762C197.509 136.855 197.29 136.969 197.043 137.102C196.71 137.279 196.389 137.435 196.082 137.57C195.777 137.706 195.465 137.811 195.145 137.887C194.827 137.962 194.478 138 194.098 138H193.453V136.949ZM200.57 132.504V137.996H199.578V132.504H200.57ZM203.672 138C203.547 138 203.431 137.986 203.324 137.957C203.217 137.928 203.129 137.892 203.059 137.848C202.996 138.236 202.867 138.585 202.672 138.895C202.477 139.204 202.215 139.464 201.887 139.672C201.561 139.883 201.169 140.034 200.711 140.125L200.352 139.164C200.737 139.078 201.064 138.964 201.332 138.82C201.603 138.68 201.809 138.493 201.949 138.262C202.09 138.03 202.16 137.741 202.16 137.395C202.16 137.16 202.125 136.9 202.055 136.613C201.987 136.327 201.91 136.057 201.824 135.805L202.793 135.484L203.02 136.355C203.066 136.535 203.135 136.68 203.227 136.789C203.32 136.896 203.454 136.949 203.629 136.949H203.777V138H203.672ZM207.031 135.566C206.88 135.566 206.727 135.603 206.57 135.676C206.417 135.749 206.264 135.849 206.113 135.977C205.962 136.104 205.816 136.251 205.676 136.418C205.535 136.585 205.401 136.762 205.273 136.949H205.684C205.967 136.949 206.232 136.939 206.477 136.918C206.721 136.897 206.936 136.859 207.121 136.805C207.306 136.747 207.449 136.671 207.551 136.574C207.652 136.475 207.703 136.35 207.703 136.199C207.703 136.009 207.639 135.857 207.512 135.742C207.387 135.625 207.227 135.566 207.031 135.566ZM204.203 136.949C204.242 136.887 204.28 136.828 204.316 136.773C204.353 136.716 204.392 136.658 204.434 136.598V132.504H205.422V135.34C205.547 135.212 205.671 135.099 205.793 135C205.918 134.901 206.046 134.818 206.176 134.75C206.306 134.68 206.439 134.626 206.574 134.59C206.71 134.553 206.852 134.535 207 134.535C207.326 134.535 207.613 134.604 207.863 134.742C208.113 134.878 208.309 135.065 208.449 135.305C208.592 135.544 208.664 135.819 208.664 136.129C208.664 136.48 208.589 136.776 208.438 137.016C208.289 137.255 208.079 137.448 207.809 137.594C207.538 137.737 207.219 137.841 206.852 137.906C206.484 137.969 206.083 138 205.648 138H203.633V136.949H204.203Z" fill="#E4E6EB"/>
<defs>
<filter id="filter0_d_328_6" x="103.419" y="94.5234" width="109.477" height="40.8262" filterUnits="userSpaceOnUse" color-interpolation-filters="sRGB">
<feFlood flood-opacity="0" result="BackgroundImageFix"/>
<feColorMatrix in="SourceAlpha" type="matrix" values="0 0 0 0 0 0 0 0 0 0 0 0 0 0 0 0 0 0 127 0" result="hardAlpha"/>
<feOffset dy="4"/>
<feGaussianBlur stdDeviation="2"/>
<feComposite in2="hardAlpha" operator="out"/>
<feColorMatrix type="matrix" values="0 0 0 0 0.484945 0 0 0 0 0.456885 0 0 0 0 0.456885 0 0 0 0.25 0"/>
<feBlend mode="normal" in2="BackgroundImageFix" result="effect1_dropShadow_328_6"/>
<feBlend mode="normal" in="SourceGraphic" in2="effect1_dropShadow_328_6" result="shape"/>
</filter>
</defs>
</svg>
