<svg width="23" height="23" viewBox="0 0 23 23" fill="none" xmlns="http://www.w3.org/2000/svg">
<g clip-path="url(#clip0_545_4972)">
<path d="M11.355 17.8806C14.6845 17.8806 17.3702 15.2041 17.3702 11.9022C17.3702 8.60031 14.6845 5.92383 11.355 5.92383C8.0255 5.92383 5.33984 8.60031 5.33984 11.9022C5.33984 15.2041 8.0255 17.8806 11.355 17.8806Z" stroke="#5D5AFF" stroke-width="1.67228" stroke-miterlimit="10" stroke-linecap="round"/>
<path d="M5.47779 13.1621C3.73946 14.7532 2.77368 16.1512 3.18756 16.8319C3.60145 17.5125 5.27544 17.3377 7.53803 16.5008C9.31315 15.8201 11.0331 14.974 12.6518 13.9714C14.289 13.0057 15.8342 11.8836 17.2506 10.6235C19.0349 9.03236 19.9639 7.63435 19.55 6.95373C19.1361 6.27311 17.4529 6.44786 15.1995 7.29403" stroke="#5D5AFF" stroke-width="1.67228" stroke-miterlimit="10" stroke-linecap="round"/>
</g>
<defs>
<clipPath id="clip0_545_4972">
<rect width="22.074" height="22.074" fill="white" transform="translate(0.336426 0.865234)"/>
</clipPath>
</defs>
</svg>
