<svg width="208" height="105" viewBox="0 0 208 105" fill="none" xmlns="http://www.w3.org/2000/svg">
<rect y="5" width="196" height="85" rx="42.5" fill="white"/>
<g filter="url(#filter0_d_600_3628)">
<circle cx="155.5" cy="48.5" r="28.5" fill="#5D5AFF"/>
</g>
<g clip-path="url(#clip0_600_3628)">
<path d="M155.472 57.4375C160.45 57.4375 164.465 53.4362 164.465 48.5C164.465 43.5638 160.45 39.5625 155.472 39.5625C150.495 39.5625 146.48 43.5638 146.48 48.5C146.48 53.4362 150.495 57.4375 155.472 57.4375Z" stroke="white" stroke-width="2.5" stroke-miterlimit="10" stroke-linecap="round"/>
<path d="M146.686 50.3836C144.088 52.7623 142.644 54.8523 143.262 55.8698C143.881 56.8873 146.384 56.6261 149.766 55.3748C152.42 54.3573 154.991 53.0923 157.411 51.5936C159.859 50.1498 162.169 48.4723 164.286 46.5886C166.954 44.2098 168.342 42.1198 167.724 41.1023C167.105 40.0848 164.589 40.3461 161.22 41.6111" stroke="white" stroke-width="2.5" stroke-miterlimit="10" stroke-linecap="round"/>
</g>
<path d="M18.6094 56.0156C17.4896 56.0156 16.5599 55.7995 15.8203 55.3672C15.0859 54.9349 14.5391 54.3438 14.1797 53.5938C13.8203 52.849 13.6406 52 13.6406 51.0469C13.6406 50.4531 13.6979 49.8516 13.8125 49.2422C13.9323 48.6328 14.125 47.9896 14.3906 47.3125L16.4141 48.0859C16.2161 48.6484 16.0599 49.1589 15.9453 49.6172C15.8359 50.0755 15.7812 50.513 15.7812 50.9297C15.7812 51.4193 15.8672 51.8672 16.0391 52.2734C16.2109 52.6849 16.5026 53.013 16.9141 53.2578C17.3255 53.5026 17.8906 53.625 18.6094 53.625C19.4479 53.625 20.112 53.5391 20.6016 53.3672C21.0911 53.2005 21.4401 53.013 21.6484 52.8047C21.862 52.6016 21.9688 52.4505 21.9688 52.3516C21.9688 52.1849 21.8828 52.0833 21.7109 52.0469C21.5443 52.0156 21.2812 52 20.9219 52H19.6797C19.4401 52 19.2917 51.9453 19.2344 51.8359C19.1771 51.7214 19.1198 51.5677 19.0625 51.375L18.7031 50.0781C18.651 49.901 18.638 49.7734 18.6641 49.6953C18.6901 49.6172 18.7995 49.5781 18.9922 49.5781H23.7656V52H23.9141C23.9349 52.0938 23.9479 52.1589 23.9531 52.1953C23.9583 52.237 23.9609 52.2891 23.9609 52.3516C23.9609 52.8568 23.8385 53.3307 23.5938 53.7734C23.349 54.2161 22.9948 54.6042 22.5312 54.9375C22.0729 55.276 21.513 55.5391 20.8516 55.7266C20.1901 55.9193 19.4427 56.0156 18.6094 56.0156ZM33.2422 47.1328C32.9401 47.1328 32.638 47.2083 32.3359 47.3594C32.0339 47.5052 31.7396 47.6979 31.4531 47.9375C31.1719 48.1771 30.9062 48.4401 30.6562 48.7266C30.4115 49.013 30.1901 49.2969 29.9922 49.5781H30.5938C31.0781 49.5781 31.5495 49.5651 32.0078 49.5391C32.4714 49.5078 32.888 49.4479 33.2578 49.3594C33.6276 49.2656 33.9193 49.1302 34.1328 48.9531C34.3516 48.776 34.4609 48.5391 34.4609 48.2422C34.4609 47.9036 34.3438 47.6354 34.1094 47.4375C33.875 47.2344 33.5859 47.1328 33.2422 47.1328ZM27.75 49.2656C28.0781 48.7188 28.4349 48.1797 28.8203 47.6484C29.2057 47.1172 29.6224 46.6354 30.0703 46.2031C30.5182 45.7656 31 45.4167 31.5156 45.1562C32.0365 44.8958 32.5938 44.7656 33.1875 44.7656C33.8594 44.7656 34.4531 44.9089 34.9688 45.1953C35.4896 45.4766 35.8958 45.8672 36.1875 46.3672C36.4844 46.862 36.6328 47.4323 36.6328 48.0781C36.6328 48.8438 36.4688 49.4792 36.1406 49.9844C35.8177 50.4896 35.3698 50.8906 34.7969 51.1875C34.224 51.4792 33.5677 51.6875 32.8281 51.8125C32.0885 51.9375 31.3047 52 30.4766 52H30.0625C29.5156 52 29.0104 51.9714 28.5469 51.9141C28.0833 51.8516 27.6641 51.7474 27.2891 51.6016C26.9141 51.4557 26.5885 51.2604 26.3125 51.0156C26.0208 51.3177 25.6719 51.5573 25.2656 51.7344C24.8646 51.9115 24.3724 52 23.7891 52H23.4766L23.4844 49.5781H23.7891C24.3932 49.5781 24.7917 49.4661 24.9844 49.2422C25.1771 49.0182 25.2734 48.6484 25.2734 48.1328C25.2734 47.8255 25.2656 47.5208 25.25 47.2188C25.2344 46.9167 25.2135 46.625 25.1875 46.3438L27.2656 46.0859L27.4219 48.3828C27.4375 48.5703 27.4714 48.7552 27.5234 48.9375C27.5807 49.1198 27.6562 49.2292 27.75 49.2656ZM38.2734 40.9297H40.5625V48.0859C40.5625 48.6068 40.6276 48.987 40.7578 49.2266C40.8932 49.4609 41.2109 49.5781 41.7109 49.5781H41.8984V52H41.7109C40.513 52 39.6406 51.6927 39.0938 51.0781C38.5469 50.4583 38.2734 49.5365 38.2734 48.3125V40.9297ZM51.3672 47.1328C51.0651 47.1328 50.763 47.2083 50.4609 47.3594C50.1589 47.5052 49.8646 47.6979 49.5781 47.9375C49.2969 48.1771 49.0312 48.4401 48.7812 48.7266C48.5365 49.013 48.3151 49.2969 48.1172 49.5781H48.7188C49.2031 49.5781 49.6745 49.5651 50.1328 49.5391C50.5964 49.5078 51.013 49.4479 51.3828 49.3594C51.7526 49.2656 52.0443 49.1302 52.2578 48.9531C52.4766 48.776 52.5859 48.5391 52.5859 48.2422C52.5859 47.9036 52.4688 47.6354 52.2344 47.4375C52 47.2344 51.7109 47.1328 51.3672 47.1328ZM48.6016 52H48.1875C47.6406 52 47.1354 51.9714 46.6719 51.9141C46.2083 51.8516 45.7891 51.7474 45.4141 51.6016C45.0391 51.4557 44.7135 51.2604 44.4375 51.0156C44.1458 51.3177 43.7969 51.5573 43.3906 51.7344C42.9896 51.9115 42.4974 52 41.9141 52H41.6016L41.6094 49.5781H41.9141C42.5182 49.5781 42.9167 49.4661 43.1094 49.2422C43.3021 49.0182 43.3984 48.6484 43.3984 48.1328C43.3984 47.8255 43.3906 47.5208 43.375 47.2188C43.3594 46.9167 43.3385 46.625 43.3125 46.3438L45.3906 46.0859L45.5469 48.3828C45.5625 48.5703 45.5964 48.7552 45.6484 48.9375C45.7057 49.1198 45.7812 49.2292 45.875 49.2656C46.2083 48.7188 46.5651 48.1797 46.9453 47.6484C47.3307 47.1172 47.7474 46.6354 48.1953 46.2031C48.6432 45.7656 49.125 45.4167 49.6406 45.1562C50.1562 44.8958 50.7135 44.7656 51.3125 44.7656C51.9844 44.7656 52.5781 44.9089 53.0938 45.1953C53.6146 45.4766 54.0208 45.8672 54.3125 46.3672C54.6094 46.862 54.7578 47.4323 54.7578 48.0781C54.7578 48.2865 54.737 48.5391 54.6953 48.8359C54.6589 49.1328 54.5911 49.3698 54.4922 49.5469C54.5703 49.5521 54.6562 49.5573 54.75 49.5625C54.8438 49.5677 54.9479 49.5729 55.0625 49.5781C55.1771 49.5781 55.2995 49.5781 55.4297 49.5781H55.6562V52H55.4375C54.8229 52 54.3047 51.9167 53.8828 51.75C53.4661 51.5781 53.0885 51.3802 52.75 51.1562C52.1823 51.401 51.5391 51.6042 50.8203 51.7656C50.1016 51.9219 49.362 52 48.6016 52ZM55.3594 49.5781H55.9141V52H55.3594V49.5781ZM58.8281 42.2344L60.2109 43.6094L58.8281 45L57.4453 43.6094L58.8281 42.2344ZM56.1719 42.2344L57.5703 43.6094L56.1719 45L54.8047 43.6094L56.1719 42.2344ZM57.8125 46.3281L59.8906 46.0781L60.0547 48.3906C60.0703 48.6354 60.1198 48.849 60.2031 49.0312C60.2865 49.2083 60.4115 49.3438 60.5781 49.4375C60.75 49.5312 60.9714 49.5781 61.2422 49.5781H61.3984V52H61.2266C60.888 52 60.5781 51.9583 60.2969 51.875C60.0156 51.7865 59.763 51.6693 59.5391 51.5234C59.3203 51.3776 59.1276 51.2109 58.9609 51.0234C58.6432 51.3203 58.2682 51.5573 57.8359 51.7344C57.4036 51.9115 56.9427 52 56.4531 52H55.7109V49.5781H56.4531C57.0104 49.5781 57.3906 49.4661 57.5938 49.2422C57.7969 49.013 57.8984 48.6458 57.8984 48.1406C57.8984 47.8281 57.8906 47.5208 57.875 47.2188C57.8594 46.9115 57.8385 46.6146 57.8125 46.3281ZM65.9609 40.8047L67.4219 42.2656L65.9609 43.7188L64.5078 42.2656L65.9609 40.8047ZM61.1094 49.5781H62.4219C63.0677 49.5781 63.6771 49.5156 64.25 49.3906C64.8229 49.2604 65.4115 49.0677 66.0156 48.8125C66.6198 48.5573 67.2891 48.2422 68.0234 47.8672C67.8359 47.7839 67.599 47.6875 67.3125 47.5781C67.0312 47.4635 66.7578 47.3568 66.4922 47.2578C66.2266 47.1536 66.0208 47.0781 65.875 47.0312C65.7812 47 65.6953 46.974 65.6172 46.9531C65.5443 46.9323 65.4792 46.9167 65.4219 46.9062C65.3698 46.8958 65.3307 46.8906 65.3047 46.8906C65.0286 46.8906 64.7656 46.9792 64.5156 47.1562C64.2656 47.3281 64.0729 47.5026 63.9375 47.6797L63.4844 48.25L61.6328 47.3438L62.0234 46.7031C62.3932 46.0938 62.8568 45.5833 63.4141 45.1719C63.9714 44.7604 64.6042 44.5547 65.3125 44.5547C65.8385 44.5547 66.3151 44.6432 66.7422 44.8203C67.1693 44.9974 67.5885 45.1875 68 45.3906C68.4844 45.6302 68.8958 45.8255 69.2344 45.9766C69.5781 46.1224 69.8828 46.2396 70.1484 46.3281C70.4193 46.4115 70.6849 46.474 70.9453 46.5156C71.2109 46.5521 71.5104 46.5807 71.8438 46.6016V48.8047C71.4167 48.862 71.0208 48.9557 70.6562 49.0859C70.2969 49.2109 69.9271 49.3698 69.5469 49.5625C69.1719 49.75 68.75 49.9688 68.2812 50.2188C67.6146 50.5729 66.9792 50.8854 66.375 51.1562C65.7708 51.4219 65.151 51.6302 64.5156 51.7812C63.8802 51.9271 63.1745 52 62.3984 52H61.1094V49.5781ZM75.6797 40.9297V51.9922H73.3906V40.9297H75.6797ZM89.3672 43.2656L90.75 44.6406L89.3672 46.0312L87.9844 44.6406L89.3672 43.2656ZM86.7109 43.2656L88.1094 44.6406L86.7109 46.0312L85.3438 44.6406L86.7109 43.2656ZM92.2578 46.2734L94.3438 46.0078L94.5156 48.3281C94.5417 48.7031 94.6406 49.0052 94.8125 49.2344C94.9844 49.4635 95.276 49.5781 95.6875 49.5781H95.8594V52H95.6875C95.0885 52 94.5885 51.8906 94.1875 51.6719C93.7865 51.4531 93.4557 51.1615 93.1953 50.7969C92.8776 51.0781 92.5156 51.3073 92.1094 51.4844C91.7031 51.6615 91.2318 51.7917 90.6953 51.875C90.1641 51.9583 89.5417 52 88.8281 52H87.5234C86.638 52 85.8125 51.9349 85.0469 51.8047C84.2865 51.6693 83.6198 51.4453 83.0469 51.1328C82.474 50.8151 82.026 50.388 81.7031 49.8516C81.3854 49.3099 81.2266 48.6302 81.2266 47.8125C81.2266 47.3177 81.2812 46.8385 81.3906 46.375C81.5 45.9115 81.6354 45.4844 81.7969 45.0938L83.8047 45.8516C83.7161 46.1016 83.6224 46.3932 83.5234 46.7266C83.4245 47.0599 83.375 47.3802 83.375 47.6875C83.375 48.0833 83.4896 48.4062 83.7188 48.6562C83.9479 48.901 84.2578 49.0911 84.6484 49.2266C85.0391 49.362 85.4818 49.4557 85.9766 49.5078C86.4714 49.5547 86.987 49.5781 87.5234 49.5781H88.8281C89.5677 49.5781 90.1979 49.5365 90.7188 49.4531C91.2448 49.3698 91.6458 49.2188 91.9219 49C92.2031 48.776 92.3438 48.4635 92.3438 48.0625C92.3438 47.7865 92.3333 47.4844 92.3125 47.1562C92.2969 46.8229 92.2786 46.5286 92.2578 46.2734ZM95.5469 49.5781H96.1719V52H95.5469V49.5781ZM98.3984 52.9531L99.7812 54.3281L98.3984 55.7188L97.0156 54.3281L98.3984 52.9531ZM95.7422 52.9531L97.1406 54.3281L95.7422 55.7188L94.375 54.3281L95.7422 52.9531ZM96.8594 52H95.9922V49.5781H96.8438C97.2552 49.5781 97.5807 49.513 97.8203 49.3828C98.0599 49.2526 98.1797 48.9479 98.1797 48.4688C98.1797 48.1823 98.1484 47.8047 98.0859 47.3359C98.0234 46.8672 97.9115 46.3177 97.75 45.6875L99.9062 45.1094C100.042 45.6667 100.143 46.1953 100.211 46.6953C100.284 47.1953 100.32 47.6849 100.32 48.1641C100.32 48.9453 100.206 49.6224 99.9766 50.1953C99.7526 50.7682 99.388 51.2135 98.8828 51.5312C98.3776 51.8438 97.7031 52 96.8594 52ZM101.961 40.9297H104.25V48.0859C104.25 48.6068 104.315 48.987 104.445 49.2266C104.581 49.4609 104.898 49.5781 105.398 49.5781H105.586V52H105.398C104.201 52 103.328 51.6927 102.781 51.0781C102.234 50.4583 101.961 49.5365 101.961 48.3125V40.9297ZM110.648 52C110.133 52 109.693 51.9141 109.328 51.7422C108.969 51.5651 108.672 51.3359 108.438 51.0547C108.141 51.3411 107.781 51.5703 107.359 51.7422C106.938 51.9141 106.432 52 105.844 52H105.297V49.5781H105.859C106.411 49.5781 106.815 49.4922 107.07 49.3203C107.331 49.1432 107.461 48.7969 107.461 48.2812C107.461 48.2031 107.453 48.0651 107.438 47.8672C107.427 47.6641 107.414 47.4427 107.398 47.2031C107.383 46.9635 107.367 46.7526 107.352 46.5703L109.438 46.3125L109.609 48.4766C109.625 48.6953 109.672 48.888 109.75 49.0547C109.833 49.2214 109.951 49.3516 110.102 49.4453C110.253 49.5339 110.44 49.5781 110.664 49.5781C111.076 49.5781 111.367 49.4714 111.539 49.2578C111.716 49.0443 111.805 48.7188 111.805 48.2812C111.805 48.2083 111.799 48.0729 111.789 47.875C111.779 47.6719 111.763 47.4505 111.742 47.2109C111.727 46.9661 111.711 46.7526 111.695 46.5703L113.781 46.3125L113.953 48.4766C113.969 48.6745 114.008 48.8594 114.07 49.0312C114.133 49.1979 114.229 49.3307 114.359 49.4297C114.49 49.5286 114.656 49.5781 114.859 49.5781C115.062 49.5781 115.219 49.5234 115.328 49.4141C115.443 49.3047 115.521 49.1615 115.562 48.9844C115.609 48.8021 115.633 48.6068 115.633 48.3984C115.633 48.0182 115.581 47.5781 115.477 47.0781C115.372 46.5729 115.273 46.1276 115.18 45.7422L117.344 45.1797C117.469 45.6693 117.568 46.1641 117.641 46.6641C117.714 47.1641 117.75 47.6641 117.75 48.1641C117.75 48.8516 117.661 49.487 117.484 50.0703C117.307 50.6484 117.01 51.1146 116.594 51.4688C116.177 51.8177 115.609 51.9948 114.891 52C114.422 52 114.021 51.9062 113.688 51.7188C113.354 51.526 113.076 51.2995 112.852 51.0391C112.591 51.2943 112.273 51.5182 111.898 51.7109C111.529 51.9036 111.112 52 110.648 52Z" fill="#020056"/>
<defs>
<filter id="filter0_d_600_3628" x="103" y="0" width="105" height="105" filterUnits="userSpaceOnUse" color-interpolation-filters="sRGB">
<feFlood flood-opacity="0" result="BackgroundImageFix"/>
<feColorMatrix in="SourceAlpha" type="matrix" values="0 0 0 0 0 0 0 0 0 0 0 0 0 0 0 0 0 0 127 0" result="hardAlpha"/>
<feOffset dy="4"/>
<feGaussianBlur stdDeviation="12"/>
<feComposite in2="hardAlpha" operator="out"/>
<feColorMatrix type="matrix" values="0 0 0 0 0.364706 0 0 0 0 0.352941 0 0 0 0 1 0 0 0 0.69 0"/>
<feBlend mode="normal" in2="BackgroundImageFix" result="effect1_dropShadow_600_3628"/>
<feBlend mode="normal" in="SourceGraphic" in2="effect1_dropShadow_600_3628" result="shape"/>
</filter>
<clipPath id="clip0_600_3628">
<rect width="33" height="33" fill="white" transform="translate(139 32)"/>
</clipPath>
</defs>
</svg>
