<svg width="176" height="53" viewBox="0 0 176 53" fill="none" xmlns="http://www.w3.org/2000/svg">
<path d="M150.282 27.2637H162.891C169.855 27.2637 175.5 32.909 175.5 39.8728V39.8728C175.5 46.8366 169.855 52.4819 162.891 52.4819V52.4819C155.927 52.4819 150.282 46.8366 150.282 39.8728V27.2637Z" fill="#5D5AFF"/>
<path d="M123.535 39.8728C123.535 32.909 129.18 27.2637 136.144 27.2637H148.753V39.8728C148.753 46.8366 143.108 52.4819 136.144 52.4819V52.4819C129.18 52.4819 123.535 46.8366 123.535 39.8728V39.8728Z" fill="#5D5AFF"/>
<path d="M150.282 13.1267C150.282 6.16287 155.927 0.517578 162.891 0.517578V0.517578C169.855 0.517578 175.5 6.16287 175.5 13.1267V13.1267C175.5 20.0905 169.855 25.7358 162.891 25.7358H150.282V13.1267Z" fill="#5D5AFF"/>
<path d="M126.592 14.6549C126.592 8.53523 131.553 3.57422 137.673 3.57422V3.57422C143.792 3.57422 148.753 8.53523 148.753 14.6549V25.7357H137.673C131.553 25.7357 126.592 20.7747 126.592 14.6549V14.6549Z" fill="#8A88FF"/>
<path opacity="0.7" d="M3.59125 43.4021C4.06189 43.9084 4.41487 44.3077 4.65019 44.6001C4.89264 44.8854 5.08161 45.1777 5.2171 45.4772C5.35971 45.7767 5.43102 46.0833 5.43102 46.3971C5.43102 46.775 5.33119 47.1209 5.13153 47.4347C4.93186 47.7484 4.66445 47.998 4.3293 48.1834C3.99415 48.3617 3.63047 48.4508 3.23827 48.4508C2.84607 48.4508 2.47883 48.3617 2.13654 48.1834C1.80139 47.998 1.53398 47.7484 1.33432 47.4347C1.13465 47.1209 1.03482 46.775 1.03482 46.3971C1.03482 46.062 1.10256 45.7482 1.23805 45.4558C1.37354 45.1563 1.54111 44.8818 1.74078 44.6322C1.94044 44.3826 2.21142 44.076 2.5537 43.7123L2.81041 43.4449L3.53777 44.2043L3.25966 44.5038C2.93877 44.8319 2.70345 45.0886 2.5537 45.274C2.40395 45.4523 2.27916 45.6305 2.17933 45.8088C2.08663 45.9871 2.04028 46.1689 2.04028 46.3543C2.04028 46.6253 2.14724 46.8535 2.36117 47.0389C2.57509 47.2172 2.86746 47.3063 3.23827 47.3063C3.60195 47.3063 3.89075 47.2172 4.10467 47.0389C4.3186 46.8535 4.42557 46.6253 4.42557 46.3543C4.42557 46.1903 4.37208 46.0156 4.26512 45.8302C4.16529 45.6448 4.01554 45.4344 3.81587 45.1991C3.61621 44.9638 3.29532 44.6072 2.8532 44.1295C2.74624 44.0154 2.64284 43.9049 2.54301 43.7979C2.44317 43.6838 2.33264 43.559 2.21142 43.4235L2.94947 42.6855L3.59125 43.4021ZM9.47124 43.723C9.71369 44.101 9.90266 44.4004 10.0381 44.6215C10.1808 44.8354 10.3697 45.1242 10.6051 45.4879C10.8261 45.8302 10.9473 46.1974 10.9687 46.5896C10.9901 46.9818 10.9081 47.3099 10.7227 47.5737C10.5159 47.8661 10.2628 48.0729 9.96327 48.1941C9.66378 48.3082 9.32506 48.3652 8.94712 48.3652H8.38021C7.97375 48.3652 7.61007 48.3046 7.28918 48.1834C6.96829 48.0622 6.70801 47.9231 6.50835 47.7662L7.01108 46.8143L7.06456 46.8464C7.22857 46.9462 7.41041 47.0318 7.61007 47.1031C7.81687 47.1744 8.07358 47.21 8.38021 47.21H8.93642C9.186 47.21 9.38567 47.1886 9.53542 47.1458C9.6923 47.0959 9.81352 47.0104 9.8991 46.8891C9.96327 46.7964 9.98467 46.6895 9.96327 46.5682C9.94188 46.4399 9.87414 46.2794 9.76004 46.0869C9.11113 45.0815 8.56562 44.2543 8.1235 43.6054L8.97921 42.9636L9.47124 43.723ZM14.3657 48.3652C13.8736 48.3652 13.4814 48.2725 13.1891 48.0871C12.9038 47.8946 12.7006 47.6308 12.5794 47.2956C12.4581 46.9533 12.3975 46.5397 12.3975 46.0548L12.3868 41.3591H13.3923L13.403 46.0548C13.403 46.4042 13.4244 46.6574 13.4672 46.8143C13.51 46.964 13.5955 47.0674 13.7239 47.1245C13.8522 47.1815 14.0662 47.21 14.3657 47.21H14.601L14.6652 47.7983L14.601 48.3652H14.3657ZM14.4959 47.21H14.7847C14.9488 47.21 15.0771 47.1744 15.1698 47.1031C15.2625 47.0318 15.3267 46.9177 15.3623 46.7608L15.6832 45.6056C15.8401 45.028 16.0897 44.5787 16.432 44.2578C16.7743 43.9369 17.1879 43.7765 17.6728 43.7765C18.0578 43.7765 18.4001 43.887 18.6996 44.1081C18.9991 44.322 19.2309 44.6179 19.3949 44.9959C19.5589 45.3738 19.6409 45.7874 19.6409 46.2367C19.6409 46.7857 19.5589 47.235 19.3949 47.5844C19.2309 47.9338 19.0205 48.1905 18.7638 48.3545C18.5071 48.5114 18.2397 48.5899 17.9616 48.5899C17.6906 48.5899 17.4089 48.5328 17.1166 48.4187C16.8313 48.3046 16.3785 48.0907 15.7581 47.7769L15.48 47.6379L15.94 46.6324C16.0113 46.6681 16.079 46.7037 16.1432 46.7394C16.7208 47.0246 17.1237 47.2136 17.3519 47.3063C17.5801 47.399 17.7904 47.4453 17.983 47.4453C18.204 47.4453 18.3716 47.3598 18.4857 47.1886C18.6069 47.0104 18.6675 46.693 18.6675 46.2367C18.6675 45.8231 18.582 45.4986 18.4108 45.2633C18.2397 45.028 18.0008 44.9103 17.6942 44.9103C17.4517 44.9032 17.2378 44.9852 17.0524 45.1563C16.8741 45.3275 16.7422 45.5806 16.6566 45.9158L16.325 47.1352C16.2608 47.3705 16.1503 47.5844 15.9934 47.7769C15.8366 47.9623 15.6511 48.1085 15.4372 48.2155C15.2304 48.3153 15.0165 48.3652 14.7954 48.3652H14.4959V47.21ZM21.1309 41.3591H22.1363L22.147 48.3652H21.1416L21.1309 41.3591ZM27.2224 49.9055C27.7144 49.9055 28.0888 49.852 28.3455 49.7451C28.6093 49.6381 28.7876 49.4705 28.8803 49.2423C28.9801 49.0213 29.03 48.7146 29.03 48.3224V46.2153C29.03 45.8088 28.9373 45.4915 28.7519 45.2633C28.5737 45.0351 28.2991 44.921 27.9283 44.921C27.5932 44.921 27.3329 45.0387 27.1475 45.274C26.9621 45.5093 26.8694 45.8195 26.8694 46.2046C26.8694 46.5611 26.9549 46.8178 27.1261 46.9747C27.2972 47.1245 27.5682 47.1993 27.939 47.1993H29.4793V48.3331H27.939C27.3186 48.3331 26.8195 48.1477 26.4415 47.7769C26.0636 47.4061 25.8746 46.8891 25.8746 46.226C25.8746 45.7696 25.9602 45.356 26.1313 44.9852C26.3096 44.6144 26.5556 44.3256 26.8694 44.1188C27.1831 43.9049 27.5361 43.7979 27.9283 43.7979C28.3562 43.7979 28.727 43.9013 29.0407 44.1081C29.3616 44.3077 29.6076 44.593 29.7788 44.9638C29.9571 45.3275 30.0462 45.7482 30.0462 46.226V48.3224C30.0462 48.8644 29.9499 49.3386 29.7574 49.7451C29.572 50.1515 29.2689 50.4724 28.8482 50.7077C28.4346 50.9431 27.8927 51.0607 27.2224 51.0607H26.0351V49.9055H27.2224ZM35.1989 45.6163C34.9993 46.0513 34.8424 46.4648 34.7283 46.857C34.6213 47.2492 34.5714 47.6094 34.5785 47.9374C34.5857 48.3367 34.6534 48.6826 34.7818 48.9749C34.9172 49.2673 35.1205 49.4955 35.3915 49.6595C35.6624 49.8235 36.0047 49.9055 36.4183 49.9055H37.4986C37.8552 49.9055 38.1618 49.8734 38.4185 49.8092C38.6824 49.7451 38.882 49.6524 39.0175 49.5311C39.153 49.417 39.2208 49.2887 39.2208 49.1461C39.2279 49.0605 39.1994 48.9749 39.1352 48.8894C39.0781 48.8038 38.9783 48.7253 38.8357 48.654C38.6859 48.5827 38.4934 48.5221 38.2581 48.4722C38.0228 48.4294 37.7375 48.3973 37.4024 48.3759C37.3025 48.3688 37.1492 48.3652 36.9424 48.3652V47.21H40.4936L40.5578 47.7769L40.4936 48.3652H39.9588C40.0515 48.4508 40.1192 48.5578 40.162 48.6861C40.2119 48.8216 40.2369 48.9642 40.2369 49.114C40.2298 49.442 40.1264 49.7522 39.9267 50.0446C39.727 50.3441 39.4204 50.5865 39.0068 50.7719C38.6004 50.9645 38.0976 51.0607 37.4986 51.0607H36.4183C35.8407 51.0607 35.338 50.9181 34.9101 50.6329C34.4823 50.3476 34.1542 49.9697 33.9261 49.499C33.705 49.0284 33.5873 48.5114 33.5731 47.9481C33.5659 47.5416 33.6301 47.0924 33.7656 46.6003C33.9082 46.1012 34.0829 45.6163 34.2897 45.1456L35.1989 45.6163ZM44.7121 45.3916C45.0758 44.8354 45.4323 44.4361 45.7817 44.1937C46.1383 43.9441 46.5554 43.8193 47.0332 43.8193C47.4539 43.8193 47.814 43.9298 48.1135 44.1509C48.4202 44.3648 48.6519 44.65 48.8088 45.0066C48.9657 45.3631 49.0441 45.7482 49.0441 46.1618C49.0441 46.5968 48.9443 46.9818 48.7446 47.317C48.5449 47.645 48.2704 47.9017 47.921 48.0871C47.5787 48.2725 47.1972 48.3652 46.7765 48.3652H44.0168C43.7672 48.3652 43.4998 48.3046 43.2146 48.1834C42.9365 48.0622 42.6905 47.8661 42.4765 47.5951C42.2697 47.317 42.1663 46.9676 42.1663 46.5469V44.9745H43.1718V46.5469C43.1718 46.7964 43.2502 46.9711 43.4071 47.071C43.5711 47.1637 43.7601 47.21 43.974 47.21H46.7765C47.1829 47.21 47.4967 47.1245 47.7178 46.9533C47.9388 46.775 48.0493 46.5112 48.0493 46.1618C48.0493 45.791 47.9638 45.5022 47.7926 45.2954C47.6286 45.0815 47.3719 44.9745 47.0225 44.9745C46.8228 44.9745 46.6481 45.0101 46.4984 45.0815C46.3558 45.1456 46.2131 45.2455 46.0705 45.3809C45.935 45.5164 45.7639 45.7232 45.5571 46.0013C45.2576 46.3935 44.7905 47.0389 44.1559 47.9374L43.3857 47.4133L44.7121 45.3916ZM43.1718 46.5469C43.1718 46.9177 43.0684 47.2421 42.8616 47.5202C42.6619 47.7983 42.4052 48.0087 42.0915 48.1513C41.7848 48.2939 41.4746 48.3652 41.1609 48.3652H40.3908V47.21H41.1716C41.4782 47.21 41.7207 47.1565 41.8989 47.0496C42.0772 46.9426 42.1663 46.775 42.1663 46.5469H43.1718ZM52.4401 48.3652C51.9481 48.3652 51.5559 48.2725 51.2635 48.0871C50.9783 47.8946 50.7751 47.6308 50.6538 47.2956C50.5326 46.9533 50.472 46.5397 50.472 46.0548L50.4613 41.3591H51.4668L51.4774 46.0548C51.4774 46.4042 51.4988 46.6574 51.5416 46.8143C51.5844 46.964 51.67 47.0674 51.7983 47.1245C51.9267 47.1815 52.1406 47.21 52.4401 47.21H52.6754L52.7396 47.7983L52.6754 48.3652H52.4401ZM56.8596 45.3916C57.2162 44.8354 57.5727 44.4361 57.9293 44.1937C58.2858 43.9441 58.703 43.8193 59.1808 43.8193C59.6015 43.8193 59.9616 43.9298 60.2611 44.1509C60.5677 44.3648 60.7995 44.65 60.9563 45.0066C61.1132 45.3631 61.1917 45.7482 61.1917 46.1618C61.1917 46.5968 61.0918 46.9818 60.8922 47.317C60.6925 47.645 60.418 47.9017 60.0686 48.0871C59.7263 48.2725 59.3448 48.3652 58.924 48.3652H56.1644C55.9148 48.3652 55.6474 48.3046 55.3622 48.1834C55.084 48.0622 54.838 47.8661 54.6241 47.5951C54.4173 47.317 54.3139 46.9676 54.3139 46.5469V44.9745H55.3194V46.5469C55.3194 46.7964 55.3978 46.9711 55.5547 47.071C55.7187 47.1637 55.9077 47.21 56.1216 47.21H58.924C59.3234 47.21 59.6336 47.1245 59.8546 46.9533C60.0757 46.775 60.1862 46.5112 60.1862 46.1618C60.1862 45.791 60.1042 45.5022 59.9402 45.2954C59.7762 45.0815 59.5195 44.9745 59.1701 44.9745C58.9633 44.9745 58.7886 45.0101 58.6459 45.0815C58.5033 45.1456 58.3607 45.2455 58.2181 45.3809C58.0826 45.5164 57.9115 45.7232 57.7047 46.0013C57.4052 46.3935 56.9345 47.0389 56.2927 47.9374L55.5333 47.4133L56.8596 45.3916ZM55.3194 46.5469C55.3194 46.9177 55.216 47.2421 55.0092 47.5202C54.8095 47.7983 54.5528 48.0087 54.239 48.1513C53.9324 48.2939 53.6222 48.3652 53.3084 48.3652H52.5383V47.21H53.3191C53.6258 47.21 53.8682 47.1565 54.0465 47.0496C54.2248 46.9426 54.3139 46.775 54.3139 46.5469H55.3194ZM61.8762 48.3652C61.6053 48.3652 61.345 48.3118 61.0954 48.2048C60.853 48.0907 60.6533 47.9481 60.4964 47.7769C60.3395 47.6058 60.2504 47.4347 60.229 47.2635L60.8494 46.611C60.9136 46.8107 61.0312 46.9604 61.2024 47.0603C61.3735 47.1601 61.6017 47.21 61.8869 47.21H62.1971L62.2827 47.7983L62.1971 48.3652H61.8762ZM65.2734 44.9745V46.5041C65.2734 46.7608 65.334 46.9426 65.4553 47.0496C65.5836 47.1565 65.7868 47.21 66.0649 47.21H66.6212L66.6853 47.8197L66.6212 48.3652H66.0649C65.8011 48.3652 65.5301 48.2975 65.252 48.162C64.9739 48.0265 64.7386 47.8126 64.5461 47.5202C64.3535 47.2207 64.2573 46.8464 64.2573 46.3971V44.9745H65.2734ZM65.1451 46.5469C65.1451 46.9391 65.0524 47.2742 64.867 47.5523C64.6887 47.8233 64.4534 48.0265 64.161 48.162C63.8758 48.2975 63.5798 48.3652 63.2732 48.3652H62.1073V47.21H63.2732C63.6155 47.21 63.8651 47.1458 64.0219 47.0175C64.1788 46.8891 64.2573 46.6823 64.2573 46.3971L65.1451 46.5469ZM62.6528 42.7389C62.8382 42.7247 62.9773 42.714 63.07 42.7069C63.1627 42.6926 63.2982 42.6783 63.4764 42.6641C63.6904 42.6498 63.9007 42.6355 64.1075 42.6213C64.1218 42.7568 64.1325 42.8887 64.1396 43.0171C64.1467 43.1454 64.1467 43.2702 64.1396 43.3914C64.1396 43.5055 64.1289 43.6267 64.1075 43.7551C63.7795 43.7836 63.5335 43.805 63.3695 43.8193C63.2126 43.8335 62.9737 43.8549 62.6528 43.8835C62.6528 43.6196 62.6528 43.4271 62.6528 43.3059C62.6528 43.1775 62.6528 42.9885 62.6528 42.7389ZM64.1075 42.6213C64.4427 42.5928 64.6887 42.5714 64.8456 42.5571C65.0096 42.5428 65.252 42.5215 65.5729 42.4929C65.5729 42.7496 65.5729 42.9422 65.5729 43.0705C65.5729 43.1918 65.5729 43.3772 65.5729 43.6267C65.2449 43.6553 64.9989 43.6767 64.8349 43.6909C64.6709 43.7052 64.4284 43.7266 64.1075 43.7551C64.1004 43.6481 64.0897 43.5269 64.0754 43.3914C64.0683 43.2702 64.0683 43.149 64.0754 43.0277C64.0826 42.8994 64.0933 42.7639 64.1075 42.6213ZM66.4726 47.21H67.7882C68.266 47.21 68.7153 47.1565 69.136 47.0496C69.5638 46.9426 69.9632 46.8 70.334 46.6217C70.7048 46.4435 71.1433 46.2046 71.6496 45.9051L71.9705 45.7125L71.9812 46.0334L71.4143 45.8088C70.744 45.545 70.1913 45.3417 69.7564 45.1991C69.3214 45.0494 69.029 44.9745 68.8793 44.9745C68.6867 44.9745 68.5334 45.0208 68.4193 45.1135C68.3052 45.2062 68.2018 45.3845 68.1091 45.6484L67.1678 45.3489C67.3319 44.8283 67.5636 44.4468 67.8631 44.2043C68.1626 43.9548 68.5013 43.83 68.8793 43.83C69.1288 43.83 69.5139 43.9227 70.0345 44.1081C70.555 44.2935 71.2539 44.568 72.131 44.9317C72.3378 45.0173 72.516 45.0921 72.6658 45.1563L72.8797 46.3864L72.3663 46.7073C71.7601 47.0924 71.2432 47.3954 70.8153 47.6165C70.3874 47.8375 69.9204 48.0194 69.4141 48.162C68.9149 48.2975 68.373 48.3652 67.7882 48.3652H66.4726V47.21ZM68.4407 41.7228C68.6332 41.7014 68.8222 41.6836 69.0076 41.6693C69.2144 41.6479 69.4176 41.6301 69.6173 41.6158C69.6173 41.8868 69.6173 42.0865 69.6173 42.2148C69.6173 42.3361 69.6173 42.525 69.6173 42.7817C69.3749 42.8031 69.1788 42.821 69.029 42.8352C68.8864 42.8495 68.6903 42.8673 68.4407 42.8887C68.4407 42.6249 68.4407 42.4288 68.4407 42.3004C68.4407 42.172 68.4407 41.9795 68.4407 41.7228ZM74.3306 41.3591H75.3361L75.3468 48.3652H74.3413L74.3306 41.3591ZM81.1174 48.3652C80.6753 48.3652 80.2902 48.2618 79.9622 48.055C79.6342 47.8411 79.3917 47.563 79.2348 47.2207C79.0851 46.8713 79.0387 46.4969 79.0958 46.0976C79.1528 45.7054 79.2669 45.1599 79.4381 44.4611L80.3687 44.7071L80.3259 44.9317C80.169 45.5806 80.0799 46.0192 80.0585 46.2474C80.0228 46.5397 80.0941 46.775 80.2724 46.9533C80.4578 47.1245 80.7395 47.21 81.1174 47.21H85.7489C86.0912 47.21 86.3408 47.1458 86.4977 47.0175C86.6617 46.8891 86.7437 46.6823 86.7437 46.3971V44.9745H87.7492V46.5041C87.7492 46.7608 87.8133 46.9426 87.9417 47.0496C88.07 47.1565 88.2733 47.21 88.5514 47.21H88.9151L88.9792 47.7769L88.9151 48.3652H88.5514C88.3232 48.3652 88.0843 48.3118 87.8347 48.2048C87.5923 48.0978 87.3819 47.9374 87.2036 47.7235C87.0325 47.9302 86.8186 48.0907 86.5619 48.2048C86.3051 48.3118 86.0342 48.3652 85.7489 48.3652H81.1174ZM82.155 43.7123C82.3404 43.6981 82.4794 43.6874 82.5721 43.6802C82.6648 43.666 82.8003 43.6517 82.9786 43.6374C83.1925 43.6232 83.4029 43.6089 83.6097 43.5947C83.6239 43.7301 83.6346 43.8621 83.6417 43.9904C83.6489 44.1188 83.6489 44.2436 83.6417 44.3648C83.6417 44.4789 83.6311 44.6001 83.6097 44.7285C83.2816 44.757 83.0356 44.7784 82.8716 44.7926C82.7147 44.8069 82.4758 44.8283 82.155 44.8568C82.155 44.593 82.155 44.4004 82.155 44.2792C82.155 44.1509 82.155 43.9619 82.155 43.7123ZM83.6097 43.5947C83.9448 43.5661 84.1908 43.5447 84.3477 43.5305C84.5117 43.5162 84.7542 43.4948 85.0751 43.4663C85.0751 43.723 85.0751 43.9155 85.0751 44.0439C85.0751 44.1651 85.0751 44.3505 85.0751 44.6001C84.747 44.6286 84.501 44.65 84.337 44.6643C84.173 44.6786 83.9305 44.6999 83.6097 44.7285C83.6025 44.6215 83.5918 44.5003 83.5776 44.3648C83.5704 44.2436 83.5704 44.1223 83.5776 44.0011C83.5847 43.8728 83.5954 43.7373 83.6097 43.5947ZM88.8064 47.21H90.1649C90.5428 47.21 90.8102 47.1458 90.9671 47.0175C91.124 46.882 91.1953 46.693 91.181 46.4506C91.1668 46.2509 91.1275 45.9692 91.0634 45.6056C91.0063 45.2419 90.9421 44.896 90.8708 44.568L91.8442 44.322C91.9226 44.6572 91.9975 45.0351 92.0688 45.4558C92.1401 45.8765 92.1829 46.2153 92.1972 46.472C92.2043 46.8 92.1366 47.1102 91.9939 47.4026C91.8513 47.6878 91.6267 47.9196 91.3201 48.0978C91.0206 48.2761 90.6462 48.3652 90.1969 48.3652H88.8064V47.21ZM88.4214 50.0125C88.6068 49.9982 88.7458 49.984 88.8385 49.9697C88.9312 49.9626 89.0667 49.9519 89.245 49.9376C89.4589 49.9233 89.6693 49.9091 89.8761 49.8948C89.8903 50.0303 89.901 50.1622 89.9081 50.2906C89.9153 50.4189 89.9153 50.5437 89.9081 50.665C89.9081 50.779 89.8974 50.9003 89.8761 51.0286C89.548 51.0572 89.302 51.0785 89.138 51.0928C88.9811 51.1071 88.7422 51.1285 88.4214 51.157C88.4214 50.8931 88.4214 50.697 88.4214 50.5687C88.4214 50.4475 88.4214 50.2621 88.4214 50.0125ZM89.8761 49.8948C90.2112 49.8663 90.4572 49.8449 90.6141 49.8306C90.7781 49.8164 91.0206 49.795 91.3415 49.7665C91.3415 50.0232 91.3415 50.2121 91.3415 50.3334C91.3415 50.4617 91.3415 50.6507 91.3415 50.9003C91.0134 50.9288 90.7674 50.9502 90.6034 50.9645C90.4394 50.9787 90.1969 51.0001 89.8761 51.0286C89.8689 50.9217 89.8582 50.8004 89.844 50.665C89.8368 50.5437 89.8368 50.4189 89.844 50.2906C89.8511 50.1694 89.8618 50.0374 89.8761 49.8948ZM95.5912 48.3652C95.0991 48.3652 94.7069 48.2725 94.4146 48.0871C94.1293 47.8946 93.9261 47.6308 93.8049 47.2956C93.6837 46.9533 93.623 46.5397 93.623 46.0548L93.6123 41.3591H94.6178L94.6285 46.0548C94.6285 46.4042 94.6499 46.6574 94.6927 46.8143C94.7355 46.964 94.821 47.0674 94.9494 47.1245C95.0777 47.1815 95.2917 47.21 95.5912 47.21H95.8265L95.8907 47.7983L95.8265 48.3652H95.5912ZM95.7215 47.21H96.4167C96.7305 47.21 96.9515 47.1423 97.0799 47.0068C97.2154 46.8713 97.2831 46.6574 97.2831 46.365V44.9745H98.2993V46.4613C98.2993 46.718 98.3635 46.907 98.4918 47.0282C98.6273 47.1423 98.827 47.2029 99.0908 47.21C99.3903 47.2029 99.6078 47.1316 99.7433 46.9961C99.8859 46.8606 99.9572 46.6467 99.9572 46.3543V44.9745H100.963V46.4613C100.963 46.718 101.027 46.907 101.155 47.0282C101.284 47.1423 101.48 47.2029 101.744 47.21C102.029 47.2029 102.239 47.1316 102.375 46.9961C102.51 46.8606 102.571 46.6788 102.556 46.4506C102.535 46.2081 102.492 45.9193 102.428 45.5842C102.371 45.2419 102.307 44.9032 102.236 44.568L103.198 44.322C103.284 44.6572 103.362 45.0351 103.434 45.4558C103.505 45.8765 103.548 46.2153 103.562 46.472C103.569 46.7857 103.505 47.0888 103.369 47.3812C103.241 47.6735 103.038 47.9124 102.76 48.0978C102.482 48.2761 102.143 48.3652 101.744 48.3652C101.501 48.3652 101.262 48.3118 101.027 48.2048C100.792 48.0907 100.592 47.9231 100.428 47.7021C100.257 47.916 100.057 48.08 99.8289 48.1941C99.6007 48.3082 99.3475 48.3652 99.0694 48.3652C98.8341 48.3652 98.5916 48.3046 98.3421 48.1834C98.0925 48.055 97.8928 47.8946 97.7431 47.7021C97.5862 47.916 97.3901 48.08 97.1548 48.1941C96.9266 48.3082 96.6734 48.3652 96.3953 48.3652H95.7215V47.21Z" fill="white"/>
<path d="M94.1106 25.4782C90.5438 25.4782 88.7604 24.0539 88.7604 21.2054C88.7604 20.8339 88.7727 20.549 88.7975 20.3509L89.9864 9.57617H93.3303C95.832 9.57617 97.7393 10.1087 99.0521 11.1738C100.365 12.2141 101.244 13.6755 101.69 15.558C102.161 17.4157 102.396 19.8307 102.396 22.8031L99.6094 26.1841C99.6094 22.6916 99.5227 20.1899 99.3493 18.679C99.1759 17.1432 98.6558 15.9543 97.7888 15.1121C96.9219 14.2452 95.4729 13.8118 93.4418 13.8118H92.2157L91.5841 20.9082C92.0795 21.0073 93.2065 21.0568 94.9651 21.0568C96.3027 21.0321 97.5659 20.9577 98.7548 20.8339C99.9685 20.71 100.798 20.5862 101.244 20.4624V24.4007C100.501 24.6484 99.4855 24.8961 98.1975 25.1438C96.9095 25.3667 95.5472 25.4782 94.1106 25.4782ZM86.9551 29.5794C89.754 29.2822 93.8752 28.6982 95.6339 28.079C97.3925 27.4845 98.7177 26.8157 99.6094 26.0726V22.4687C99.6094 22.2705 99.8199 21.9857 100.241 21.6141C100.687 21.2426 101.096 21.0568 101.467 21.0568C102.086 21.0568 102.396 21.6389 102.396 22.8031C102.396 24.9085 102.161 26.5928 101.69 27.856C101.244 29.1441 100.092 30.2958 98.2347 31.3114C96.4017 32.3517 93.5037 33.1567 89.5406 33.7264L86.9551 29.5794Z" fill="white"/>
<path d="M76.8247 21.7713C77.7906 21.7528 78.8914 21.6697 80.1273 21.5221C81.3631 21.3745 82.2261 21.1597 82.7162 20.8778L82.1093 10.5587L85.7833 10.3023L85.9566 19.3292C86.0037 21.7809 85.2445 23.5296 83.679 24.5754C82.1379 25.596 79.8814 26.1348 76.9096 26.1919L76.8247 21.7713Z" fill="white"/>
<path d="M60.5003 22.0857L61.5775 22.065C65.7876 21.9842 68.2986 21.7997 69.1106 21.5116L69.0428 17.9826C69.0295 17.2892 68.9195 16.7215 68.7129 16.2795C68.5305 15.8123 68.1261 15.3989 67.4999 15.0393C66.3222 14.3435 64.1805 13.1211 61.0749 11.3723L61.9281 5.48444L74.6633 1.04073L74.0374 5.21478L64.1811 8.63704L65.6091 9.46432C67.5631 10.5912 68.9428 11.4813 69.7481 12.1348C70.5529 12.7634 71.1378 13.545 71.5025 14.4794C71.8673 15.4138 72.0663 16.7478 72.0996 18.4813L72.1417 20.673C72.1712 22.2084 71.7232 23.3938 70.7979 24.2291C69.8725 25.0644 68.583 25.6466 66.9295 25.9756C65.2755 26.2799 63.1607 26.4568 60.5851 26.5062L60.5003 22.0857ZM76.8928 26.1931C75.6298 26.2174 74.5514 26.1761 73.6574 26.0694C72.7883 25.9622 71.9508 25.5696 71.145 24.8914C70.3388 24.1884 69.9207 23.0568 69.8907 21.4966L69.8329 18.4877L72.0989 18.4442L72.1053 18.7785C72.1291 20.0167 72.5289 20.839 73.3047 21.2453C74.08 21.6268 75.2478 21.8025 76.808 21.7726L77.1866 22.1369L77.2572 25.8145L76.8928 26.1931Z" fill="white"/>
<path d="M50.7837 26.8051C49.6445 26.8269 48.3905 26.6776 47.0218 26.3571C45.6778 26.036 44.5165 25.5504 43.5379 24.9003C42.584 24.2498 42.098 23.4539 42.0799 22.5129C42.0675 21.869 42.2776 21.196 42.71 20.4941C44.9869 21.6643 47.9732 22.3625 51.6689 22.5889L51.122 11.5254L54.7961 11.269L55 21.8932C55.0319 23.5524 54.7211 24.7847 54.0677 25.59C53.4138 26.3706 52.3191 26.7756 50.7837 26.8051ZM24.7678 22.7709L25.9194 22.7488C28.0491 22.7079 29.6291 22.4175 30.6593 21.8774L30.4916 13.1478L33.6863 13.0865L33.7812 18.0271C33.8292 20.5283 33.4943 22.4424 32.7766 23.7692C32.0584 25.0712 31.0473 25.9577 29.7433 26.4287C28.4641 26.8992 26.8339 27.1534 24.8527 27.1915L24.7678 22.7709ZM37.5221 27.0597C35.5656 27.0973 34.0593 26.705 33.003 25.883C31.971 25.0357 31.4398 23.8196 31.4093 22.2346L31.2346 13.1335L33.6863 13.0865L33.8233 20.2188C33.8404 21.1103 34.1373 21.7363 34.714 22.0969C35.3155 22.4569 36.3097 22.6237 37.6965 22.597L37.5221 27.0597ZM37.5221 27.0597C37.3735 27.0626 37.1692 26.7444 36.9092 26.1053C36.6734 25.4409 36.5499 24.8115 36.5385 24.2172C36.5294 23.7467 36.6087 23.3611 36.7764 23.0606C36.9688 22.7596 37.2507 22.6056 37.6222 22.5985C38.5385 22.5809 39.3669 22.503 40.1075 22.3649C40.8729 22.2264 41.4765 22.0537 41.9185 21.8471L41.7437 12.746L44.9384 12.6846L45.0982 21.0056C45.1362 22.9868 44.4465 24.4865 43.0292 25.5047C41.6114 26.4981 39.7757 27.0164 37.5221 27.0597ZM60.5884 26.5053C57.9386 26.5562 56.0605 26.1587 54.9542 25.3129C53.8722 24.4418 53.3131 23.0652 53.277 21.183L53.1871 16.5025L54.8959 16.4697L54.9109 17.2498C54.9408 18.81 55.0985 19.9218 55.3837 20.5852C55.669 21.2486 56.1726 21.6725 56.8946 21.8568C57.6165 22.0411 58.8195 22.1171 60.5036 22.0848L60.8822 22.4491L60.9528 26.1267L60.5884 26.5053Z" fill="white"/>
<path d="M9.79522 32.4231C3.97547 32.5348 1.01733 30.077 0.920807 25.0498C0.904165 24.183 1.02403 21.3936 1.28039 16.6816L4.18217 16.8489C4.05727 20.6665 4.00505 23.1077 4.02549 24.1726C4.0545 25.6833 4.6193 26.7129 5.71989 27.2616C6.82001 27.7855 8.23684 28.0308 9.97038 27.9975C11.6792 27.9647 13.0881 27.8014 14.1973 27.5076C15.3313 27.2133 16.3395 26.8223 17.222 26.3347L16.4069 3.23617L20.0024 2.75837L20.4346 25.2697C20.4636 26.7803 19.9928 28.0652 19.0222 29.1244C18.0515 30.1835 16.7416 30.9891 15.0923 31.541C13.4678 32.0924 11.7021 32.3864 9.79522 32.4231ZM24.8565 27.1915C23.7668 27.2124 22.8243 27.1562 22.029 27.0228C21.2337 26.8894 20.5074 26.4822 19.8502 25.8011C19.2173 25.0948 18.8863 23.9864 18.8573 22.4757L18.7803 18.4638L20.3034 18.4346L20.329 19.7719C20.3523 20.9853 20.7271 21.7957 21.4534 22.2029C22.2039 22.5849 23.31 22.7742 24.7716 22.7709L25.1502 23.1353L25.2208 26.8129L24.8565 27.1915Z" fill="white"/>
<g filter="url(#filter0_d_600_3645)">
<path d="M73.3794 29.5801H85.526L88.384 33.8671H79.3273C76.6287 33.8671 74.2328 32.1402 73.3794 29.5801V29.5801Z" fill="#5D5AFF"/>
</g>
<defs>
<filter id="filter0_d_600_3645" x="67.6634" y="29.5801" width="26.4367" height="15.7192" filterUnits="userSpaceOnUse" color-interpolation-filters="sRGB">
<feFlood flood-opacity="0" result="BackgroundImageFix"/>
<feColorMatrix in="SourceAlpha" type="matrix" values="0 0 0 0 0 0 0 0 0 0 0 0 0 0 0 0 0 0 127 0" result="hardAlpha"/>
<feOffset dy="5.71603"/>
<feGaussianBlur stdDeviation="2.85802"/>
<feComposite in2="hardAlpha" operator="out"/>
<feColorMatrix type="matrix" values="0 0 0 0 0.364706 0 0 0 0 0.352941 0 0 0 0 1 0 0 0 0.27 0"/>
<feBlend mode="normal" in2="BackgroundImageFix" result="effect1_dropShadow_600_3645"/>
<feBlend mode="normal" in="SourceGraphic" in2="effect1_dropShadow_600_3645" result="shape"/>
</filter>
</defs>
</svg>
