<svg width="101" height="101" viewBox="0 0 101 101" fill="none" xmlns="http://www.w3.org/2000/svg">
<circle cx="50.2043" cy="50.2043" r="50.2043" fill="#0075FF" fill-opacity="0.16"/>
<path d="M38.6462 51.5781L49.1835 62.1154" stroke="#0075FF" stroke-width="3.13725"/>
<path d="M45.5759 64.0594C44.8721 64.4052 44.2761 64.6837 43.824 64.8893L35.9953 57.0606C36.1738 56.571 36.4261 55.9017 36.7492 55.1006C37.4605 53.3368 38.5096 50.9466 39.8614 48.434C41.2159 45.9163 42.8559 43.3104 44.7405 41.0955C46.6337 38.8704 48.7044 37.1222 50.8996 36.2015C53.7928 34.9879 57.0344 33.9731 59.8175 33.5701C61.2108 33.3683 62.4249 33.3296 63.3934 33.4627C64.3749 33.5976 64.9534 33.8869 65.2668 34.2003C65.5806 34.5141 65.8904 35.129 66.0533 36.1821C66.2126 37.2116 66.2056 38.4971 66.0416 39.948C65.7139 42.8477 64.7873 46.1702 63.6338 48.9412C61.7671 53.4256 56.753 57.5077 51.892 60.5528C49.5071 62.0467 47.2439 63.2397 45.5759 64.0594Z" stroke="#0075FF" stroke-width="3.13725"/>
<path d="M42.8981 42.8906L36.3749 42.4354C35.4691 42.3722 34.5803 42.7046 33.9382 43.3467L30.1425 47.1424L37.3522 51.0246" stroke="#0075FF" stroke-width="3.13725"/>
<path d="M57.5025 57.4942L57.9576 64.0174C58.0208 64.9233 57.6884 65.8121 57.0463 66.4541L53.2506 70.2499L49.3685 63.0401" stroke="#0075FF" stroke-width="3.13725"/>
<circle cx="52.5112" cy="48.0661" r="2.61438" transform="rotate(45 52.5112 48.0661)" stroke="#0075FF" stroke-width="3.13725"/>
<path d="M58.1125 40.3848L63.7694 46.0416" stroke="#0075FF" stroke-width="3.13725" stroke-linecap="round"/>
</svg>
