<svg width="101" height="101" viewBox="0 0 101 101" fill="none" xmlns="http://www.w3.org/2000/svg">
<circle cx="50.2043" cy="50.2043" r="50.2043" fill="#FF5E5D" fill-opacity="0.15"/>
<path d="M60.7083 34H40.2917C38.3585 34.0023 36.5052 34.7713 35.1382 36.1382C33.7713 37.5052 33.0023 39.3585 33 41.2917V58.7917C33.0023 60.7248 33.7713 62.5781 35.1382 63.9451C36.5052 65.312 38.3585 66.081 40.2917 66.0833H60.7083C62.6415 66.081 64.4948 65.312 65.8618 63.9451C67.2287 62.5781 67.9977 60.7248 68 58.7917V41.2917C67.9977 39.3585 67.2287 37.5052 65.8618 36.1382C64.4948 34.7713 62.6415 34.0023 60.7083 34ZM40.2917 36.9167H60.7083C61.8687 36.9167 62.9815 37.3776 63.8019 38.1981C64.6224 39.0185 65.0833 40.1313 65.0833 41.2917V42.75H35.9167V41.2917C35.9167 40.1313 36.3776 39.0185 37.1981 38.1981C38.0185 37.3776 39.1313 36.9167 40.2917 36.9167ZM60.7083 63.1667H40.2917C39.1313 63.1667 38.0185 62.7057 37.1981 61.8853C36.3776 61.0648 35.9167 59.952 35.9167 58.7917V45.6667H65.0833V58.7917C65.0833 59.952 64.6224 61.0648 63.8019 61.8853C62.9815 62.7057 61.8687 63.1667 60.7083 63.1667ZM60.7083 51.5C60.7083 51.8868 60.5547 52.2577 60.2812 52.5312C60.0077 52.8047 59.6368 52.9583 59.25 52.9583H41.75C41.3632 52.9583 40.9923 52.8047 40.7188 52.5312C40.4453 52.2577 40.2917 51.8868 40.2917 51.5C40.2917 51.1132 40.4453 50.7423 40.7188 50.4688C40.9923 50.1953 41.3632 50.0417 41.75 50.0417H59.25C59.6368 50.0417 60.0077 50.1953 60.2812 50.4688C60.5547 50.7423 60.7083 51.1132 60.7083 51.5ZM54.875 57.3333C54.875 57.7201 54.7214 58.091 54.4479 58.3645C54.1744 58.638 53.8034 58.7917 53.4167 58.7917H41.75C41.3632 58.7917 40.9923 58.638 40.7188 58.3645C40.4453 58.091 40.2917 57.7201 40.2917 57.3333C40.2917 56.9466 40.4453 56.5756 40.7188 56.3021C40.9923 56.0286 41.3632 55.875 41.75 55.875H53.4167C53.8034 55.875 54.1744 56.0286 54.4479 56.3021C54.7214 56.5756 54.875 56.9466 54.875 57.3333ZM37.375 39.8333C37.375 39.5449 37.4605 39.2629 37.6208 39.0231C37.781 38.7833 38.0088 38.5964 38.2753 38.486C38.5417 38.3756 38.835 38.3468 39.1178 38.403C39.4007 38.4593 39.6606 38.5982 39.8645 38.8021C40.0685 39.0061 40.2074 39.2659 40.2636 39.5488C40.3199 39.8317 40.291 40.1249 40.1807 40.3914C40.0703 40.6579 39.8834 40.8856 39.6435 41.0459C39.4037 41.2061 39.1218 41.2917 38.8333 41.2917C38.4466 41.2917 38.0756 41.138 37.8021 40.8645C37.5286 40.591 37.375 40.2201 37.375 39.8333ZM41.75 39.8333C41.75 39.5449 41.8355 39.2629 41.9958 39.0231C42.156 38.7833 42.3838 38.5964 42.6503 38.486C42.9167 38.3756 43.21 38.3468 43.4928 38.403C43.7757 38.4593 44.0356 38.5982 44.2395 38.8021C44.4435 39.0061 44.5824 39.2659 44.6386 39.5488C44.6949 39.8317 44.666 40.1249 44.5557 40.3914C44.4453 40.6579 44.2584 40.8856 44.0185 41.0459C43.7787 41.2061 43.4968 41.2917 43.2083 41.2917C42.8216 41.2917 42.4506 41.138 42.1771 40.8645C41.9036 40.591 41.75 40.2201 41.75 39.8333ZM46.125 39.8333C46.125 39.5449 46.2105 39.2629 46.3708 39.0231C46.531 38.7833 46.7588 38.5964 47.0253 38.486C47.2917 38.3756 47.585 38.3468 47.8678 38.403C48.1507 38.4593 48.4106 38.5982 48.6145 38.8021C48.8185 39.0061 48.9574 39.2659 49.0136 39.5488C49.0699 39.8317 49.041 40.1249 48.9307 40.3914C48.8203 40.6579 48.6334 40.8856 48.3935 41.0459C48.1537 41.2061 47.8718 41.2917 47.5833 41.2917C47.1966 41.2917 46.8256 41.138 46.5521 40.8645C46.2786 40.591 46.125 40.2201 46.125 39.8333Z" fill="#FF5E5D"/>
</svg>
