<svg width="101" height="101" viewBox="0 0 101 101" fill="none" xmlns="http://www.w3.org/2000/svg">
<circle cx="50.2043" cy="50.2043" r="50.2043" fill="#995AFF" fill-opacity="0.13"/>
<path d="M62.1667 37.8333H54.875C54.875 36.2862 54.2604 34.8025 53.1665 33.7085C52.0725 32.6146 50.5888 32 49.0417 32H38.8333C37.2862 32 35.8025 32.6146 34.7085 33.7085C33.6146 34.8025 33 36.2862 33 37.8333V65.5417C33 65.9284 33.1536 66.2994 33.4271 66.5729C33.7006 66.8464 34.0716 67 34.4583 67C34.8451 67 35.216 66.8464 35.4895 66.5729C35.763 66.2994 35.9167 65.9284 35.9167 65.5417V50.9583H47.5833C47.5833 52.5054 48.1979 53.9892 49.2919 55.0831C50.3858 56.1771 51.8696 56.7917 53.4167 56.7917H62.1667C63.7138 56.7917 65.1975 56.1771 66.2915 55.0831C67.3854 53.9892 68 52.5054 68 50.9583V43.6667C68 42.1196 67.3854 40.6358 66.2915 39.5419C65.1975 38.4479 63.7138 37.8333 62.1667 37.8333ZM35.9167 48.0417V37.8333C35.9167 37.0598 36.224 36.3179 36.7709 35.7709C37.3179 35.224 38.0598 34.9167 38.8333 34.9167H49.0417C49.8152 34.9167 50.5571 35.224 51.1041 35.7709C51.651 36.3179 51.9583 37.0598 51.9583 37.8333V45.125C51.9583 45.8985 51.651 46.6404 51.1041 47.1874C50.5571 47.7344 49.8152 48.0417 49.0417 48.0417H35.9167ZM65.0833 50.9583C65.0833 51.7319 64.776 52.4737 64.2291 53.0207C63.6821 53.5677 62.9402 53.875 62.1667 53.875H53.4167C52.6431 53.875 51.9013 53.5677 51.3543 53.0207C50.8073 52.4737 50.5 51.7319 50.5 50.9583V50.7512C51.7485 50.4289 52.8551 49.7019 53.6466 48.684C54.4382 47.666 54.8702 46.4145 54.875 45.125V40.75H62.1667C62.9402 40.75 63.6821 41.0573 64.2291 41.6043C64.776 42.1513 65.0833 42.8931 65.0833 43.6667V50.9583Z" fill="#995AFF"/>
</svg>
