<svg width="102" height="101" viewBox="0 0 102 101" fill="none" xmlns="http://www.w3.org/2000/svg">
<circle cx="50.9357" cy="50.3234" r="50.2043" fill="#4EC881" fill-opacity="0.17"/>
<path d="M46.2502 51.584C45.2052 52.1065 44.3344 52.8823 43.6852 53.8482C43.3211 54.4023 43.3211 55.099 43.6852 55.6532C44.3344 56.619 45.2052 57.3948 46.2502 57.9173" stroke="#4EC881" stroke-width="3.25714" stroke-linecap="round" stroke-linejoin="round"/>
<path d="M56.0825 51.584C57.1275 52.1065 57.9984 52.8823 58.6475 53.8482C59.0117 54.4023 59.0117 55.099 58.6475 55.6532C57.9984 56.619 57.1275 57.3948 56.0825 57.9173" stroke="#4EC881" stroke-width="3.25714" stroke-linecap="round" stroke-linejoin="round"/>
<path d="M46.2498 65.8327H55.7498C63.6665 65.8327 66.8332 62.666 66.8332 54.7493V45.2493C66.8332 37.3327 63.6665 34.166 55.7498 34.166H46.2498C38.3332 34.166 35.1665 37.3327 35.1665 45.2493V54.7493C35.1665 62.666 38.3332 65.8327 46.2498 65.8327Z" stroke="#4EC881" stroke-width="3.25714" stroke-linecap="round" stroke-linejoin="round"/>
<path d="M35.5308 43.6818L65.9624 43.666" stroke="#4EC881" stroke-width="3.25714" stroke-linecap="round" stroke-linejoin="round"/>
</svg>
