<svg width="1280" height="673" viewBox="0 0 1280 673" fill="none" xmlns="http://www.w3.org/2000/svg">
<g clip-path="url(#clip0_16_15)">
<rect width="1280" height="673" rx="5" fill="#0038FF" fill-opacity="0.64"/>
<path d="M617.6 0.606323H328H200H165.5H132H89H44.5H25H5.5C2.73858 0.606323 0.5 2.8449 0.5 5.60632V35.5V58V71V82.5V106V152V243.51C0.5 246.268 2.73235 248.505 5.48979 248.51L638.4 249.798H952.8H1275C1277.76 249.798 1280 247.56 1280 244.798V198V148V102V79.5V53V37.5V24V15.5V5.5C1280 2.73858 1277.76 0.5 1275 0.5H1254H1244H1237H1229H1216.5H1200H1182H1143L1105 0.606323H1036.8H897.6H617.6Z" fill="white" stroke="#0075FF" stroke-width="8" stroke-linejoin="round"/>
<path d="M857.648 173.34C857.654 164.322 850.889 157.007 842.538 157H523.11C514.758 157.007 507.994 164.322 508 173.34V193.382H857.648V173.34Z" fill="#313B78"/>
<path fill-rule="evenodd" clip-rule="evenodd" d="M857.648 173.34C857.654 164.322 850.889 157.007 842.538 157H523.11C514.758 157.007 507.994 164.322 508 173.34V193.382H857.648V173.34Z" stroke="black" stroke-width="1.6" stroke-linecap="round" stroke-linejoin="round"/>
<path d="M510.208 189.382V389.426C510.201 398.443 516.966 405.759 525.318 405.766H844.746C853.097 405.759 859.862 398.443 859.856 389.426V189.382H510.208Z" fill="#1A80FD" stroke="black" stroke-width="1.6" stroke-linecap="round" stroke-linejoin="round"/>
<ellipse cx="529.204" cy="170.756" rx="4.18546" ry="4.52612" fill="#E43334" stroke="black" stroke-width="1.6" stroke-linecap="round" stroke-linejoin="round"/>
<ellipse cx="546.791" cy="170.756" rx="4.18546" ry="4.52612" fill="#FDD504" stroke="black" stroke-width="1.6" stroke-linecap="round" stroke-linejoin="round"/>
<ellipse cx="564.378" cy="170.756" rx="4.18546" ry="4.52612" fill="#1AB995" stroke="black" stroke-width="1.6" stroke-linecap="round" stroke-linejoin="round"/>
<rect x="537.717" y="209.539" width="294.628" height="172.596" rx="2.37076" fill="#0075FF" fill-opacity="0.44"/>
<mask id="mask0_16_15" style="mask-type:luminance" maskUnits="userSpaceOnUse" x="556" y="210" width="295" height="173">
<rect x="556" y="210" width="294.628" height="172.596" rx="2.37076" fill="white"/>
</mask>
<g mask="url(#mask0_16_15)">
<path d="M824.346 179.659C840.66 422.456 478.249 372.313 478.249 372.313C478.249 372.313 564.886 440.93 570.987 442.25C577.088 443.569 801.612 427.735 801.612 427.735L851.856 364.396V186.382L838.22 178.339" fill="#020056"/>
</g>
<rect x="559" y="210" width="294.628" height="172.596" rx="2.37076" stroke="black" stroke-width="1.6" stroke-linecap="round" stroke-linejoin="round"/>
<ellipse cx="685.032" cy="287.885" rx="46.7292" ry="50.595" fill="white" stroke="black" stroke-width="1.6" stroke-linecap="round" stroke-linejoin="round"/>
<path d="M672.012 287.885V269.243C672.009 268.111 672.567 267.065 673.474 266.498C674.38 265.931 675.499 265.93 676.406 266.496L691.317 275.817L706.228 285.138C707.135 285.706 707.693 286.753 707.693 287.885C707.693 289.017 707.135 290.063 706.228 290.632L691.317 299.953L676.406 309.274C675.499 309.839 674.38 309.839 673.474 309.272C672.567 308.705 672.009 307.658 672.012 306.527V287.885Z" fill="#0075FF" fill-opacity="0.44" stroke="black" stroke-width="1.6" stroke-linecap="round" stroke-linejoin="round"/>
<path d="M798.97 334.893C793.406 341.266 785.79 345.092 777.691 345.583" stroke="black" stroke-width="1.6" stroke-linecap="round" stroke-linejoin="round"/>
<path d="M621.656 175.23L630.183 172.224" stroke="black" stroke-width="1.6" stroke-linecap="round" stroke-linejoin="round"/>
<path d="M870.353 320.157C883.793 359.252 860.405 416.207 860.405 416.207L870.353 320.157Z" fill="#1AB995"/>
<path d="M870.353 320.157C883.793 359.252 860.405 416.207 860.405 416.207" stroke="black" stroke-width="1.6" stroke-linecap="round" stroke-linejoin="round"/>
<path d="M845.365 290.544C870.427 314.157 891.395 353.258 853.171 415.898C853.171 415.898 799.651 361.56 845.365 290.544Z" fill="#1AB995"/>
<mask id="mask1_16_15" style="mask-type:luminance" maskUnits="userSpaceOnUse" x="826" y="290" width="49" height="126">
<path fill-rule="evenodd" clip-rule="evenodd" d="M845.365 290.544C870.427 314.157 891.395 353.258 853.171 415.898C853.171 415.898 799.651 361.56 845.365 290.544Z" fill="white"/>
</mask>
<g mask="url(#mask1_16_15)">
<path d="M844.011 280.891C814.776 331.731 857.224 329.852 858.815 373.029C860.406 416.207 821.21 338.641 821.21 338.641L829.486 290.544H833.221" fill="#0FA379"/>
</g>
<path fill-rule="evenodd" clip-rule="evenodd" d="M845.365 290.544C870.427 314.157 891.395 353.258 853.171 415.898C853.171 415.898 799.651 361.56 845.365 290.544Z" stroke="black" stroke-width="1.6" stroke-linecap="round" stroke-linejoin="round"/>
<path d="M885.823 236.328C902.562 276.87 912.366 333.055 865.41 384.77C865.41 384.77 830.512 293.69 885.823 236.328Z" fill="#FBD164"/>
<mask id="mask2_16_15" style="mask-type:luminance" maskUnits="userSpaceOnUse" x="854" y="236" width="46" height="149">
<path fill-rule="evenodd" clip-rule="evenodd" d="M885.823 236.328C902.562 276.87 912.366 333.055 865.41 384.77C865.41 384.77 830.512 293.69 885.823 236.328Z" fill="white"/>
</mask>
<g mask="url(#mask2_16_15)">
<path d="M881.911 226.144L885.822 236.328C885.822 236.328 898.982 319.785 870.528 377.374C842.073 434.963 940.561 287.585 940.561 287.585L903.49 238.013L881.911 226.144Z" fill="#F9B864"/>
</g>
<path fill-rule="evenodd" clip-rule="evenodd" d="M885.823 236.328C902.562 276.87 912.366 333.055 865.41 384.77C865.41 384.77 830.512 293.69 885.823 236.328Z" stroke="black" stroke-width="1.6" stroke-linecap="round" stroke-linejoin="round"/>
<path d="M779.644 300.942C814.246 306.634 854.669 327.296 860.405 399.694C860.405 399.694 784.192 384.322 779.644 300.942Z" fill="#FBD164"/>
<mask id="mask3_16_15" style="mask-type:luminance" maskUnits="userSpaceOnUse" x="779" y="300" width="82" height="100">
<path fill-rule="evenodd" clip-rule="evenodd" d="M779.644 300.942C814.246 306.634 854.669 327.296 860.405 399.694C860.405 399.694 784.192 384.322 779.644 300.942Z" fill="white"/>
</mask>
<g mask="url(#mask3_16_15)">
<path d="M760.184 314.996L779.644 300.942C779.644 300.942 803.349 375.401 858.119 393.528C912.889 411.655 743.17 424.492 743.17 424.492L756.034 317.734" fill="#F9B864"/>
</g>
<path fill-rule="evenodd" clip-rule="evenodd" d="M779.644 300.942C814.246 306.634 854.669 327.296 860.405 399.694C860.405 399.694 784.192 384.322 779.644 300.942Z" stroke="black" stroke-width="1.6" stroke-linecap="round" stroke-linejoin="round"/>
<path d="M933.636 297.377C939.494 330.625 932.571 374.103 863.344 403.259C863.344 403.259 853.226 329.09 933.636 297.377Z" fill="#1AB995"/>
<mask id="mask4_16_15" style="mask-type:luminance" maskUnits="userSpaceOnUse" x="862" y="297" width="74" height="107">
<path fill-rule="evenodd" clip-rule="evenodd" d="M933.636 297.377C939.494 330.625 932.571 374.103 863.344 403.259C863.344 403.259 853.226 329.09 933.636 297.377Z" fill="white"/>
</mask>
<g mask="url(#mask4_16_15)">
<path d="M846.013 378.121C904.768 407.362 933.17 334.136 933.17 334.136L939.455 394.874L899.672 420.004L837.094 396.587L839.307 382.265" fill="#0FA379"/>
</g>
<path fill-rule="evenodd" clip-rule="evenodd" d="M933.636 297.377C939.494 330.625 932.571 374.103 863.344 403.259C863.344 403.259 853.226 329.09 933.636 297.377Z" stroke="black" stroke-width="1.6" stroke-linecap="round" stroke-linejoin="round"/>
<path d="M823.904 474.082H895.536L908.607 385.867H810.833L823.904 474.082Z" fill="#1A80FD"/>
<mask id="mask5_16_15" style="mask-type:luminance" maskUnits="userSpaceOnUse" x="810" y="385" width="99" height="90">
<path fill-rule="evenodd" clip-rule="evenodd" d="M823.904 474.082H895.536L908.607 385.867H810.833L823.904 474.082Z" fill="white"/>
</mask>
<g mask="url(#mask5_16_15)">
<path d="M802.876 396.588C929.495 404.747 886.506 474.083 886.506 474.083L908.607 476.547L926.713 391.226L908.607 374.622L793.382 384.77" fill="#1D62FC"/>
</g>
<path fill-rule="evenodd" clip-rule="evenodd" d="M823.904 474.082H895.536L908.607 385.867H810.833L823.904 474.082V474.082Z" stroke="black" stroke-width="1.6" stroke-linecap="round" stroke-linejoin="round"/>
<rect x="916.835" y="396.587" width="113.959" height="14.3222" transform="rotate(-180 916.835 396.587)" fill="#1A80FD" stroke="black" stroke-width="1.6" stroke-linecap="round" stroke-linejoin="round"/>
<path d="M846.267 451.423L847.506 452.331" stroke="black" stroke-width="1.6" stroke-linecap="round" stroke-linejoin="round"/>
<path d="M812.878 345.481C813.418 347.054 814.117 348.557 814.963 349.964" stroke="black" stroke-width="1.6" stroke-linecap="round" stroke-linejoin="round"/>
<path d="M892.142 279.961C892.542 282.484 892.539 285.063 892.133 287.586" stroke="black" stroke-width="1.6" stroke-linecap="round" stroke-linejoin="round"/>
<path d="M895.707 356.946L892.809 361.214" stroke="black" stroke-width="1.6" stroke-linecap="round" stroke-linejoin="round"/>
<rect x="647.563" y="598.943" width="283.784" height="56.2957" fill="#FDD504"/>
<mask id="mask6_16_15" style="mask-type:luminance" maskUnits="userSpaceOnUse" x="647" y="598" width="285" height="58">
<rect x="647.563" y="598.943" width="283.784" height="56.2957" fill="white"/>
</mask>
<g mask="url(#mask6_16_15)">
<rect x="683.115" y="589.331" width="36.1873" height="73.459" fill="#104358" fill-opacity="0.81" stroke="white" stroke-opacity="0.08" stroke-width="1.6" stroke-linecap="round" stroke-linejoin="round"/>
<path d="M755.126 596.225C743.089 607.944 956.106 619.677 959.915 645.59C963.725 671.503 946.246 577.403 946.246 577.403L918.489 579.69" fill="#4EC881"/>
</g>
<rect x="647.563" y="598.943" width="283.784" height="56.2957" stroke="black" stroke-width="1.6" stroke-linecap="round" stroke-linejoin="round"/>
<rect x="721.216" y="467.586" width="283.784" height="56.2957" fill="#E43334"/>
<mask id="mask7_16_15" style="mask-type:luminance" maskUnits="userSpaceOnUse" x="721" y="467" width="284" height="57">
<rect x="721.216" y="467.586" width="283.784" height="56.2957" fill="white"/>
</mask>
<g mask="url(#mask7_16_15)">
<rect x="969.447" y="531.434" width="36.1873" height="73.459" transform="rotate(-180 969.447 531.434)" fill="white" stroke="black" stroke-width="1.6" stroke-linecap="round" stroke-linejoin="round"/>
<rect x="923.957" y="531.434" width="6.77189" height="73.459" transform="rotate(-180 923.957 531.434)" fill="white" stroke="black" stroke-width="1.6" stroke-linecap="round" stroke-linejoin="round"/>
<path d="M718.118 511.829C708.807 520.525 900.536 520.525 896.304 524.187C892.071 527.848 725.737 537.917 725.737 537.917L710.5 514.118" fill="#C11F27"/>
</g>
<rect x="721.216" y="467.586" width="283.784" height="56.2957" stroke="black" stroke-width="1.6" stroke-linecap="round" stroke-linejoin="round"/>
<path d="M988.854 559.124H737.361C747.155 568.563 737.361 595.682 737.361 595.682H988.854C988.854 595.682 979.06 568.563 988.854 559.124Z" fill="white"/>
<mask id="mask8_16_15" style="mask-type:luminance" maskUnits="userSpaceOnUse" x="737" y="559" width="252" height="37">
<path fill-rule="evenodd" clip-rule="evenodd" d="M988.854 559.124H737.361C747.155 568.563 737.361 595.682 737.361 595.682H988.854C988.854 595.682 979.06 568.563 988.854 559.124Z" fill="white"/>
</mask>
<g mask="url(#mask8_16_15)">
<path d="M733.885 573.274L738.962 573.368L825.94 574.99L728.806 577.403" fill="#D6DCF2"/>
<path d="M1027.95 583.753L1022.88 583.658L935.898 582.036L1033.03 579.624" fill="#D6DCF2"/>
</g>
<path fill-rule="evenodd" clip-rule="evenodd" d="M988.854 559.124H737.361C747.155 568.563 737.361 595.682 737.361 595.682H988.854C988.854 595.682 979.06 568.563 988.854 559.124Z" stroke="black" stroke-width="1.6" stroke-linecap="round" stroke-linejoin="round"/>
<rect x="727.564" y="552.258" width="271.087" height="10.298" fill="#1AB995" stroke="black" stroke-width="1.6" stroke-linecap="round" stroke-linejoin="round"/>
<rect x="727.564" y="588.645" width="271.087" height="10.298" fill="#1AB995" stroke="black" stroke-width="1.6" stroke-linecap="round" stroke-linejoin="round"/>
<rect x="658.144" y="538.07" width="301.772" height="17.3922" fill="#7A24EA"/>
<mask id="mask9_16_15" style="mask-type:luminance" maskUnits="userSpaceOnUse" x="658" y="538" width="302" height="18">
<rect x="658.144" y="538.07" width="301.772" height="17.3922" fill="white"/>
</mask>
<g mask="url(#mask9_16_15)">
<path d="M809.029 535.171C767.214 549.588 962.752 541.884 968.466 546.766C974.18 551.648 972.275 532.578 972.275 532.578L916.407 525.56" fill="#6B1AD3"/>
</g>
<rect x="658.144" y="538.07" width="301.772" height="17.3922" stroke="black" stroke-width="1.6" stroke-linecap="round" stroke-linejoin="round"/>
<rect x="682.692" y="523.882" width="301.772" height="17.3922" fill="#1A80FD" stroke="black" stroke-width="1.6" stroke-linecap="round" stroke-linejoin="round"/>
<path d="M821.743 631.813L827.984 637.173" stroke="black" stroke-width="1.6" stroke-linecap="round" stroke-linejoin="round"/>
<path d="M805.65 494.316L816.844 492.899" stroke="black" stroke-width="1.6" stroke-linecap="round" stroke-linejoin="round"/>
<path d="M240.49 218.01H275.929C290.642 218.01 302.568 230.887 302.568 246.772V246.795H240.49V218.01Z" fill="#FDD504" stroke="black" stroke-width="1.6" stroke-linecap="round" stroke-linejoin="round"/>
<rect x="222.148" y="233.842" width="210.691" height="75.0478" fill="#313B78" stroke="black" stroke-width="1.6" stroke-linecap="round" stroke-linejoin="round"/>
<path d="M446.948 263.45H208.04L215.769 354.151H439.218L446.948 263.45Z" fill="white"/>
<mask id="mask10_16_15" style="mask-type:luminance" maskUnits="userSpaceOnUse" x="208" y="263" width="239" height="92">
<path fill-rule="evenodd" clip-rule="evenodd" d="M446.948 263.45H208.04L215.769 354.151H439.218L446.948 263.45Z" fill="white"/>
</mask>
<g mask="url(#mask10_16_15)">
<path d="M208.039 384.388C205.742 295.016 386.492 312.421 415.627 309.505C444.761 306.589 247.957 264.797 247.957 264.797L191.472 279.761L187.905 298.874" fill="#D6DCF2"/>
</g>
<path fill-rule="evenodd" clip-rule="evenodd" d="M446.948 263.45H208.04L215.769 354.151H439.218L446.948 263.45V263.45Z" stroke="black" stroke-width="1.6" stroke-linecap="round" stroke-linejoin="round"/>
<path d="M231.055 533.513L241.237 652.998C241.237 655.88 279.856 658.216 327.493 658.216C375.132 658.216 413.75 655.88 413.75 652.998L423.933 533.513H231.055Z" fill="white" stroke="black" stroke-width="1.6" stroke-linecap="round" stroke-linejoin="round"/>
<path d="M215.769 354.151L231.054 533.513H423.933L439.218 354.151H215.769Z" fill="#1AB995"/>
<mask id="mask11_16_15" style="mask-type:luminance" maskUnits="userSpaceOnUse" x="215" y="354" width="225" height="180">
<path fill-rule="evenodd" clip-rule="evenodd" d="M215.769 354.151L231.054 533.513H423.933L439.218 354.151H215.769Z" fill="white"/>
</mask>
<g mask="url(#mask11_16_15)">
<path d="M432.839 331.986C399.87 567.311 231.054 533.513 231.054 533.513L199.202 595.864H486.381L487.273 384.066L432.839 331.986Z" fill="#313B78"/>
</g>
<path fill-rule="evenodd" clip-rule="evenodd" d="M215.769 354.151L231.054 533.513H423.933L439.218 354.151H215.769V354.151Z" stroke="black" stroke-width="1.6" stroke-linecap="round" stroke-linejoin="round"/>
<rect x="177" y="263.45" width="300.987" height="46.055" fill="#218DBA" stroke="black" stroke-width="1.6" stroke-linecap="round" stroke-linejoin="round"/>
<ellipse cx="327.493" cy="443.79" rx="63.3556" ry="68.5119" fill="white" stroke="black" stroke-width="1.6" stroke-linecap="round" stroke-linejoin="round"/>
<path d="M348.245 280.325L343.488 288.041" stroke="black" stroke-width="1.6" stroke-linecap="round" stroke-linejoin="round"/>
<path d="M386.334 581.269C380.025 588.569 372.301 594.273 363.712 597.972" stroke="black" stroke-width="1.6" stroke-linecap="round" stroke-linejoin="round"/>
<path d="M254.602 392.47L244.883 405.145" stroke="black" stroke-width="1.6" stroke-linecap="round" stroke-linejoin="round"/>
<rect x="327.494" y="353.565" width="495.61" height="299.593" rx="1.77558" fill="#FDD504"/>
<mask id="mask12_16_15" style="mask-type:luminance" maskUnits="userSpaceOnUse" x="327" y="353" width="497" height="301">
<rect x="327.494" y="353.565" width="495.61" height="299.593" rx="1.77558" fill="white"/>
</mask>
<g mask="url(#mask12_16_15)">
<path d="M360.408 344.481C227.52 519.046 389.778 580.526 370.187 645.748C350.597 710.971 284.599 716.757 284.599 716.757L287.275 398.198L319.006 296.259" fill="#FCB006"/>
</g>
<rect x="327.494" y="353.565" width="495.61" height="299.593" rx="1.77558" stroke="black" stroke-width="1.6" stroke-linecap="round" stroke-linejoin="round"/>
<rect x="344.36" y="369.279" width="461.878" height="273.683" rx="1.74922" fill="white"/>
<mask id="mask13_16_15" style="mask-type:luminance" maskUnits="userSpaceOnUse" x="343" y="361" width="462" height="274">
<rect x="343" y="361" width="461.878" height="273.683" rx="1.74922" fill="white"/>
</mask>
<g mask="url(#mask13_16_15)">
<path d="M297.626 613.106C791.774 613.106 808.246 594.715 810.305 439.705C812.364 284.694 838.101 674.127 838.101 674.127L704.657 726.659L397.485 707.634L317.646 626.201" fill="#4E4AFF"/>
</g>
<rect x="344.36" y="369.279" width="461.878" height="273.683" rx="1.74922" stroke="black" stroke-width="1.6" stroke-linecap="round" stroke-linejoin="round"/>
<rect x="319.006" y="634.48" width="512.586" height="22.5364" fill="#FDD504"/>
<mask id="mask14_16_15" style="mask-type:luminance" maskUnits="userSpaceOnUse" x="319" y="634" width="513" height="24">
<rect x="319.006" y="634.48" width="512.586" height="22.5364" fill="white"/>
</mask>
<g mask="url(#mask14_16_15)">
<path d="M864.309 642.133C495.078 663.713 304.22 641.427 291.734 671.859C279.248 702.29 837.553 696.504 837.553 696.504L846.472 682.037" fill="#FCB006"/>
</g>
<rect x="319.006" y="634.48" width="512.586" height="22.5364" stroke="black" stroke-width="1.6" stroke-linecap="round" stroke-linejoin="round"/>
<rect x="619.805" y="627.008" width="48.6289" height="7.47231" rx="1.29457" fill="white" stroke="black" stroke-width="1.6" stroke-linecap="round" stroke-linejoin="round"/>
<rect x="674.512" y="627.008" width="28.0219" height="7.47231" rx="1.08965" fill="#1A80FD" stroke="black" stroke-width="1.6" stroke-linecap="round" stroke-linejoin="round"/>
<rect x="736.548" y="627.008" width="18.0508" height="7.47231" rx="0.87456" fill="white" stroke="black" stroke-width="1.6" stroke-linecap="round" stroke-linejoin="round"/>
<path d="M407.6 407.167C407.81 401.768 411.721 396.794 416.615 395.702" stroke="black" stroke-width="1.6" stroke-linecap="round" stroke-linejoin="round"/>
<path d="M769.909 492.092L768.09 497.866" stroke="black" stroke-width="1.6" stroke-linecap="round" stroke-linejoin="round"/>
<path d="M428.32 464.32C428.8 465.84 429.04 467.587 429.04 469.56C429.04 471 428.893 472.36 428.6 473.64C428.333 474.92 427.933 475.987 427.4 476.84C426.333 477.213 425.107 477.507 423.72 477.72C422.333 477.907 420.907 478 419.44 478C418.027 478 416.667 477.907 415.36 477.72C414.08 477.507 412.973 477.213 412.04 476.84C411.8 475.88 411.6 471.547 411.44 463.84L411.2 455.72L417.64 455.36C417.88 459.333 418 462.973 418 466.28C418 467.293 417.973 468.653 417.92 470.36C418.853 470.493 419.733 470.56 420.56 470.56C421.627 470.56 422.533 470.453 423.28 470.24C423.04 469.253 422.573 467.773 421.88 465.8L428.32 464.32ZM421.12 487.56C420.56 487.347 419.827 486.92 418.92 486.28C418.013 485.667 417.387 485.133 417.04 484.68C417.12 484.333 417.32 483.853 417.64 483.24C417.987 482.653 418.373 482.107 418.8 481.6C419.227 481.12 419.6 480.853 419.92 480.8C420.213 480.747 420.653 480.88 421.24 481.2C421.853 481.52 422.413 481.907 422.92 482.36C423.453 482.84 423.747 483.213 423.8 483.48C423.907 483.88 423.6 484.573 422.88 485.56C422.187 486.573 421.6 487.24 421.12 487.56ZM474.69 457.44C474.21 457.227 473.57 456.84 472.77 456.28C471.97 455.72 471.397 455.253 471.05 454.88C471.13 454.56 471.33 454.12 471.65 453.56C471.97 453 472.317 452.507 472.69 452.08C473.09 451.653 473.437 451.44 473.73 451.44C474.157 451.44 474.797 451.747 475.65 452.36C476.53 452.973 477.01 453.453 477.09 453.8C477.143 454.173 476.863 454.8 476.25 455.68C475.637 456.56 475.117 457.147 474.69 457.44ZM472.29 463.2C471.783 462.987 471.103 462.587 470.25 462C469.423 461.413 468.837 460.92 468.49 460.52C468.623 459.987 468.997 459.28 469.61 458.4C470.25 457.493 470.783 457 471.21 456.92C471.583 456.84 472.21 457.107 473.09 457.72C473.997 458.333 474.557 458.853 474.77 459.28C475.117 458.64 475.503 458.093 475.93 457.64C476.357 457.16 476.73 456.92 477.05 456.92C477.503 456.92 478.17 457.253 479.05 457.92C479.957 458.56 480.45 459.067 480.53 459.44C480.583 459.84 480.29 460.493 479.65 461.4C479.01 462.307 478.463 462.907 478.01 463.2C477.557 463.013 476.943 462.667 476.17 462.16C475.397 461.627 474.797 461.147 474.37 460.72C474.103 461.2 473.757 461.693 473.33 462.2C472.903 462.68 472.557 463.013 472.29 463.2ZM486.97 464.32C487.477 465.813 487.73 467.56 487.73 469.56C487.73 470.973 487.583 472.333 487.29 473.64C486.997 474.92 486.583 475.987 486.05 476.84C484.13 477.773 482.397 478.24 480.85 478.24C478.53 478.24 476.61 477.227 475.09 475.2H474.73C474.25 476.16 473.57 476.92 472.69 477.48C471.81 478.013 470.797 478.28 469.65 478.28C468.61 478.28 467.717 478.08 466.97 477.68C466.223 477.253 465.597 476.747 465.09 476.16C464.583 475.547 464.023 474.773 463.41 473.84C462.743 472.827 462.157 472.08 461.65 471.6C461.17 471.093 460.583 470.84 459.89 470.84C458.983 470.84 457.957 471.347 456.81 472.36C457.797 472.787 458.69 473.28 459.49 473.84C460.317 474.4 460.863 474.973 461.13 475.56C461.343 475.987 461.45 476.667 461.45 477.6C461.45 479.52 460.903 481.613 459.81 483.88C458.343 485.107 456.423 486.187 454.05 487.12C451.677 488.053 449.357 488.52 447.09 488.52C444.343 488.52 442.117 487.76 440.41 486.24C438.703 484.72 437.85 482.453 437.85 479.44C437.85 476.453 438.663 472.84 440.29 468.6L445.81 470.36C445.33 471.693 444.97 472.96 444.73 474.16C444.49 475.36 444.37 476.387 444.37 477.24C444.37 478.627 444.703 479.667 445.37 480.36C446.063 481.08 447.05 481.44 448.33 481.44C450.33 481.44 452.73 480.627 455.53 479L454.57 478.44C453.05 477.56 451.903 476.787 451.13 476.12C450.357 475.427 449.97 474.613 449.97 473.68C449.97 472.587 450.53 471.293 451.65 469.8C452.797 468.28 454.197 466.987 455.85 465.92C457.503 464.827 459.05 464.28 460.49 464.28C461.583 464.28 462.463 464.573 463.13 465.16C463.823 465.72 464.57 466.56 465.37 467.68C466.17 468.747 466.863 469.533 467.45 470.04C468.037 470.547 468.783 470.8 469.69 470.8C470.65 470.8 471.543 470.467 472.37 469.8C473.197 469.107 473.757 467.947 474.05 466.32L477.37 466.84C477.343 467.053 477.33 467.36 477.33 467.76C477.33 468.933 477.557 469.76 478.01 470.24C478.49 470.72 479.143 470.96 479.97 470.96C480.423 470.96 481.103 470.853 482.01 470.64C481.823 469.627 481.557 468.627 481.21 467.64C480.863 466.653 480.65 466.04 480.57 465.8L486.97 464.32ZM495.545 467.32C494.985 467.107 494.252 466.693 493.345 466.08C492.439 465.44 491.812 464.893 491.465 464.44C491.545 464.093 491.745 463.627 492.065 463.04C492.412 462.427 492.799 461.88 493.225 461.4C493.652 460.893 494.025 460.613 494.345 460.56C494.639 460.507 495.079 460.64 495.665 460.96C496.279 461.28 496.839 461.68 497.345 462.16C497.879 462.613 498.172 462.973 498.225 463.24C498.332 463.64 498.025 464.347 497.305 465.36C496.612 466.347 496.025 467 495.545 467.32ZM493.185 488.24C492.252 487.893 491.159 487.293 489.905 486.44C488.625 485.613 487.705 484.853 487.145 484.16C488.425 482.267 489.679 480.013 490.905 477.4C492.185 474.733 493.239 472.04 494.065 469.32L499.665 471.2C499.212 473.84 498.385 476.733 497.185 479.88C496.439 481.827 495.665 483.56 494.865 485.08C494.092 486.627 493.532 487.68 493.185 488.24ZM516.424 470.56C516.851 470.56 517.131 470.867 517.264 471.48C517.424 472.093 517.504 473.027 517.504 474.28C517.504 475.56 517.424 476.507 517.264 477.12C517.104 477.707 516.824 478 516.424 478C515.437 478 514.397 477.92 513.304 477.76C512.637 479.707 511.771 481.56 510.704 483.32C509.637 485.107 508.571 486.64 507.504 487.92C506.651 487.6 505.584 487.013 504.304 486.16C503.051 485.333 502.104 484.56 501.464 483.84C501.544 483.733 501.637 483.627 501.744 483.52C501.877 483.413 501.997 483.293 502.104 483.16C504.344 480.84 506.024 478.84 507.144 477.16C505.571 476.813 504.251 476.16 503.184 475.2C502.117 474.213 501.584 472.987 501.584 471.52C501.584 470.213 501.944 468.88 502.664 467.52C503.384 466.133 504.291 465 505.384 464.12C506.504 463.213 507.611 462.76 508.704 462.76C509.877 462.76 510.891 463.133 511.744 463.88C512.597 464.627 513.251 465.587 513.704 466.76C514.184 467.933 514.464 469.173 514.544 470.48C515.397 470.533 516.024 470.56 516.424 470.56ZM505.704 470C505.864 470.293 506.544 470.52 507.744 470.68C508.384 470.76 509.051 470.8 509.744 470.8C510.331 470.8 510.757 470.787 511.024 470.76C510.571 470.2 509.997 469.747 509.304 469.4C508.637 469.027 507.984 468.84 507.344 468.84C506.864 468.84 506.464 468.947 506.144 469.16C505.851 469.347 505.704 469.627 505.704 470ZM529.286 462.88C530.46 462.88 531.5 463.227 532.406 463.92C533.313 464.587 534.006 465.533 534.486 466.76C534.993 467.96 535.246 469.333 535.246 470.88C535.246 472.987 534.793 474.747 533.886 476.16C532.98 477.547 531.713 478.24 530.086 478.24C529.02 478.24 527.9 477.947 526.726 477.36C525.58 476.773 524.486 476 523.446 475.04C522.566 476 521.526 476.733 520.326 477.24C519.153 477.747 517.846 478 516.406 478C516.006 478 515.726 477.707 515.566 477.12C515.406 476.507 515.326 475.56 515.326 474.28C515.326 473.027 515.406 472.093 515.566 471.48C515.7 470.867 515.98 470.56 516.406 470.56C517.606 470.56 518.646 470.373 519.526 470C520.433 469.6 521.18 469.12 521.766 468.56C522.38 468 523.086 467.253 523.886 466.32C524.846 465.173 525.7 464.32 526.446 463.76C527.22 463.173 528.166 462.88 529.286 462.88ZM529.766 471.36C530.246 471.36 530.7 471.32 531.126 471.24C531.553 471.133 531.82 471.013 531.926 470.88C531.9 470.507 531.633 470.187 531.126 469.92C530.646 469.653 529.98 469.52 529.126 469.52C527.926 469.52 526.86 469.8 525.926 470.36C526.406 470.707 526.993 470.96 527.686 471.12C528.38 471.28 529.073 471.36 529.766 471.36ZM537.925 477.92C538.059 475.787 538.125 473.573 538.125 471.28C538.125 466.987 537.965 461.8 537.645 455.72L544.125 455.36C544.472 460.48 544.645 465.333 544.645 469.92C544.645 472.827 544.592 475.187 544.485 477C543.925 477.32 543.032 477.587 541.805 477.8C540.579 477.987 539.365 478.093 538.165 478.12L537.925 477.92ZM546.845 448.36C547.165 448.92 547.325 449.52 547.325 450.16C547.325 451.093 547.005 451.893 546.365 452.56C545.725 453.227 544.805 453.56 543.605 453.56C543.072 453.56 542.192 453.453 540.965 453.24C540.725 453.213 540.352 453.16 539.845 453.08C539.339 453 538.925 452.96 538.605 452.96C537.992 452.96 537.565 453.08 537.325 453.32C537.085 453.533 536.925 453.827 536.845 454.2H535.085C534.685 453.347 534.485 452.533 534.485 451.76C534.485 450.747 534.832 449.907 535.525 449.24C536.192 448.573 537.112 448.24 538.285 448.24C538.925 448.24 539.859 448.4 541.085 448.72C541.219 448.747 541.565 448.827 542.125 448.96C542.685 449.093 543.232 449.16 543.765 449.16C544.352 449.16 544.832 449.093 545.205 448.96C545.605 448.8 545.872 448.6 546.005 448.36H546.845ZM582.506 470.56C582.932 470.56 583.212 470.867 583.346 471.48C583.506 472.093 583.586 473.027 583.586 474.28C583.586 475.56 583.506 476.507 583.346 477.12C583.186 477.707 582.906 478 582.506 478C581.172 478 579.999 477.76 578.986 477.28C577.972 476.8 577.239 476.107 576.786 475.2H576.386C574.892 477.227 570.959 478.24 564.586 478.24C562.932 478.24 561.092 478.16 559.066 478C557.066 477.867 555.199 477.653 553.466 477.36C553.706 475.067 554.159 472.627 554.826 470.04C558.239 470.627 561.839 470.92 565.626 470.92C567.972 470.92 569.866 470.773 571.306 470.48C572.746 470.187 573.826 469.707 574.546 469.04C575.292 468.347 575.746 467.413 575.906 466.24H579.186C579.186 467.76 579.452 468.867 579.986 469.56C580.519 470.227 581.359 470.56 582.506 470.56ZM571.506 463.96C571.559 464.36 571.266 465.013 570.626 465.92C569.986 466.827 569.439 467.44 568.986 467.76C568.479 467.547 567.839 467.187 567.066 466.68C566.292 466.147 565.719 465.667 565.346 465.24C565.079 465.72 564.732 466.213 564.306 466.72C563.879 467.227 563.532 467.573 563.266 467.76C562.732 467.52 562.052 467.12 561.226 466.56C560.399 465.973 559.812 465.48 559.466 465.08C559.626 464.52 560.026 463.773 560.666 462.84C561.306 461.907 561.839 461.44 562.266 461.44C562.692 461.44 563.332 461.747 564.186 462.36C565.039 462.947 565.559 463.44 565.746 463.84C566.119 463.173 566.506 462.613 566.906 462.16C567.306 461.68 567.666 461.44 567.986 461.44C568.412 461.44 569.079 461.773 569.986 462.44C570.919 463.08 571.426 463.587 571.506 463.96ZM593.9 464.32C594.407 465.92 594.66 467.653 594.66 469.52C594.66 470.933 594.513 472.293 594.22 473.6C593.927 474.907 593.513 475.987 592.98 476.84C591.86 477.16 590.38 477.44 588.54 477.68C586.7 477.893 584.687 478 582.5 478C582.1 478 581.82 477.707 581.66 477.12C581.5 476.507 581.42 475.56 581.42 474.28C581.42 473.027 581.5 472.093 581.66 471.48C581.793 470.867 582.073 470.56 582.5 470.56C585.353 470.56 587.46 470.4 588.82 470.08C588.607 469.173 588.34 468.28 588.02 467.4C587.727 466.52 587.553 465.987 587.5 465.8L593.9 464.32ZM593.78 483.32C593.833 483.72 593.54 484.373 592.9 485.28C592.26 486.187 591.713 486.8 591.26 487.12C590.753 486.907 590.113 486.533 589.34 486C588.567 485.493 587.993 485.027 587.62 484.6C587.353 485.08 587.007 485.573 586.58 486.08C586.153 486.587 585.807 486.933 585.54 487.12C585.007 486.88 584.327 486.467 583.5 485.88C582.673 485.32 582.087 484.84 581.74 484.44C581.9 483.88 582.3 483.133 582.94 482.2C583.58 481.267 584.113 480.8 584.54 480.8C584.967 480.8 585.607 481.093 586.46 481.68C587.313 482.293 587.833 482.8 588.02 483.2C588.393 482.533 588.78 481.96 589.18 481.48C589.58 481.027 589.94 480.8 590.26 480.8C590.687 480.8 591.353 481.12 592.26 481.76C593.193 482.427 593.7 482.947 593.78 483.32ZM605.619 470.56C606.046 470.56 606.326 470.867 606.459 471.48C606.619 472.093 606.699 473.027 606.699 474.28C606.699 475.56 606.619 476.507 606.459 477.12C606.299 477.707 606.019 478 605.619 478C604.153 478 602.726 477.907 601.339 477.72C599.979 477.533 598.833 477.24 597.899 476.84C597.659 475.88 597.459 471.547 597.299 463.84L597.059 455.72L603.499 455.36C603.739 459.333 603.859 462.987 603.859 466.32C603.859 467.333 603.833 468.693 603.779 470.4C604.446 470.507 605.059 470.56 605.619 470.56ZM634.665 464.32C635.172 465.84 635.425 467.6 635.425 469.6C635.425 471.013 635.278 472.36 634.985 473.64C634.718 474.92 634.318 475.987 633.785 476.84C631.972 477.693 630.212 478.12 628.505 478.12C627.252 478.12 626.132 477.88 625.145 477.4C624.185 476.893 623.412 476.16 622.825 475.2H622.465C621.878 476.16 621.118 476.907 620.185 477.44C619.278 477.947 618.265 478.2 617.145 478.2C616.105 478.2 615.118 477.973 614.185 477.52C613.278 477.04 612.558 476.4 612.025 475.6H611.665C610.785 476.587 609.878 477.24 608.945 477.56C608.038 477.853 606.932 478 605.625 478C605.225 478 604.945 477.707 604.785 477.12C604.625 476.507 604.545 475.56 604.545 474.28C604.545 473.027 604.625 472.093 604.785 471.48C604.918 470.867 605.198 470.56 605.625 470.56C606.718 470.56 607.625 470.493 608.345 470.36C609.092 470.2 609.772 469.813 610.385 469.2C610.998 468.56 611.385 467.573 611.545 466.24H614.865C614.998 469.28 615.958 470.8 617.745 470.8C618.652 470.8 619.452 470.44 620.145 469.72C620.865 469 621.398 467.867 621.745 466.32L625.105 466.84C625.052 467.32 625.025 467.667 625.025 467.88C625.025 469.933 625.892 470.96 627.625 470.96C628.185 470.96 628.892 470.84 629.745 470.6C629.505 469.587 629.212 468.587 628.865 467.6C628.545 466.613 628.345 466.013 628.265 465.8L634.665 464.32ZM670.056 470.56C670.483 470.56 670.763 470.867 670.896 471.48C671.056 472.093 671.136 473.027 671.136 474.28C671.136 475.56 671.056 476.507 670.896 477.12C670.736 477.707 670.456 478 670.056 478C669.336 478 668.483 477.867 667.496 477.6L667.376 477.68C667.43 479.787 667.323 481.52 667.056 482.88C665.03 484.56 662.803 485.92 660.376 486.96C657.95 488 655.563 488.52 653.216 488.52C650.443 488.52 648.19 487.76 646.456 486.24C644.723 484.72 643.856 482.453 643.856 479.44C643.856 478 644.07 476.333 644.496 474.44C644.923 472.547 645.563 470.56 646.416 468.48L651.936 470.28C650.896 473.24 650.376 475.573 650.376 477.28C650.376 478.613 650.696 479.613 651.336 480.28C652.003 480.947 652.95 481.28 654.176 481.28C656.176 481.28 658.816 480.4 662.096 478.64C661.323 477.947 660.443 477.293 659.456 476.68C658.256 475.933 657.123 475.28 656.056 474.72L658.016 469.44C660.096 469.867 661.963 470.147 663.616 470.28C665.723 470.467 667.87 470.56 670.056 470.56ZM681.799 462.68C684.039 464.12 685.732 465.187 686.879 465.88C688.026 466.547 688.839 466.88 689.319 466.88C689.239 468.4 689.066 469.693 688.799 470.76C688.559 471.8 688.146 473 687.559 474.36C686.866 474.307 686.359 474.28 686.039 474.28C684.466 474.28 682.732 474.613 680.839 475.28C680.119 475.547 679.452 475.8 678.839 476.04C677.212 476.68 675.759 477.173 674.479 477.52C673.199 477.84 671.719 478 670.039 478C669.639 478 669.359 477.707 669.199 477.12C669.039 476.507 668.959 475.56 668.959 474.28C668.959 473.027 669.039 472.093 669.199 471.48C669.332 470.867 669.612 470.56 670.039 470.56C671.479 470.56 672.706 470.467 673.719 470.28C674.759 470.093 676.119 469.8 677.799 469.4L678.799 469.16L681.279 468.6C680.266 468.04 679.412 467.627 678.719 467.36C677.972 467.067 677.172 466.867 676.319 466.76C675.466 466.627 674.359 466.52 672.999 466.44L672.119 466.4L671.959 466.24C672.066 465.227 672.266 464.107 672.559 462.88C672.879 461.627 673.186 460.707 673.479 460.12C674.039 460.04 674.559 460 675.039 460C676.026 460 676.946 460.16 677.799 460.48C678.652 460.773 679.519 461.2 680.399 461.76L681.799 462.68ZM691.871 477.92C692.004 475.787 692.071 473.573 692.071 471.28C692.071 466.987 691.911 461.8 691.591 455.72L698.071 455.36C698.417 460.48 698.591 465.333 698.591 469.92C698.591 472.827 698.537 475.187 698.431 477C697.871 477.32 696.977 477.587 695.751 477.8C694.524 477.987 693.311 478.093 692.111 478.12L691.871 477.92ZM711.38 470.56C711.806 470.56 712.086 470.867 712.22 471.48C712.38 472.093 712.46 473.027 712.46 474.28C712.46 475.56 712.38 476.507 712.22 477.12C712.06 477.707 711.78 478 711.38 478C710.66 478 709.673 477.893 708.42 477.68C707.913 479.067 707.193 480.787 706.26 482.84C705.646 484.173 705.046 485.36 704.46 486.4C703.9 487.467 703.553 488.08 703.42 488.24C702.433 487.893 701.26 487.24 699.9 486.28C698.78 485.507 697.94 484.8 697.38 484.16C698.98 481.973 700.38 479.827 701.58 477.72C702.913 475.347 704.006 472.84 704.86 470.2L705.22 469.96C706.34 470.2 707.486 470.36 708.66 470.44C709.86 470.52 710.766 470.56 711.38 470.56ZM722.767 462.08C722.981 462.053 723.287 462.04 723.687 462.04C725.847 462.04 727.594 462.813 728.927 464.36C730.261 465.907 730.927 468.093 730.927 470.92C730.927 471.507 730.741 472.373 730.367 473.52C729.994 474.667 729.541 475.627 729.007 476.4C727.034 477.04 724.861 477.467 722.487 477.68C720.141 477.893 717.541 478 714.687 478H711.367C710.967 478 710.687 477.707 710.527 477.12C710.367 476.507 710.287 475.56 710.287 474.28C710.287 473.027 710.367 472.093 710.527 471.48C710.661 470.867 710.941 470.56 711.367 470.56H712.687C713.007 469.707 713.234 468.6 713.367 467.24C713.501 465.88 713.567 464.093 713.567 461.88C713.567 461.027 713.541 459.293 713.487 456.68V455.72L719.927 455.36C719.927 458.773 719.781 461.533 719.487 463.64C720.714 462.707 721.807 462.187 722.767 462.08ZM716.687 471.04C717.674 471.12 718.834 471.16 720.167 471.16C721.767 471.16 723.154 471.093 724.327 470.96C725.527 470.827 726.207 470.613 726.367 470.32C726.207 469.893 725.847 469.56 725.287 469.32C724.727 469.053 724.074 468.92 723.327 468.92C722.314 468.92 721.221 469.107 720.047 469.48C718.874 469.827 717.754 470.347 716.687 471.04Z" fill="#5D5AFF"/>
<path d="M592.123 533.641C589.375 533.641 588.001 532.324 588.001 529.689C588.001 529.346 588.011 529.082 588.03 528.899L588.946 518.933H591.522C593.45 518.933 594.919 519.426 595.931 520.411C596.942 521.373 597.62 522.725 597.963 524.466C598.326 526.184 598.507 528.418 598.507 531.167L596.36 534.294C596.36 531.064 596.293 528.75 596.16 527.353C596.026 525.932 595.625 524.832 594.957 524.054C594.289 523.252 593.173 522.851 591.608 522.851H590.663L590.177 529.414C590.558 529.506 591.427 529.552 592.782 529.552C593.812 529.529 594.786 529.46 595.702 529.346C596.637 529.231 597.276 529.117 597.62 529.002V532.645C597.047 532.874 596.265 533.103 595.272 533.332C594.28 533.538 593.23 533.641 592.123 533.641ZM586.61 537.435C588.767 537.16 591.942 536.62 593.297 536.047C594.652 535.497 595.673 534.879 596.36 534.191V530.858C596.36 530.675 596.522 530.411 596.847 530.067C597.19 529.724 597.505 529.552 597.791 529.552C598.268 529.552 598.507 530.09 598.507 531.167C598.507 533.114 598.326 534.672 597.963 535.841C597.62 537.032 596.732 538.097 595.301 539.037C593.889 539.999 591.656 540.744 588.602 541.27L586.61 537.435Z" fill="#4F9DE5"/>
<path d="M578.806 530.213C579.55 530.196 580.398 530.119 581.35 529.982C582.302 529.846 582.967 529.647 583.345 529.386L582.877 519.842L585.708 519.605L585.841 527.954C585.878 530.222 585.293 531.839 584.087 532.807C582.899 533.75 581.161 534.249 578.871 534.302L578.806 530.213Z" fill="#4F9DE5"/>
<path d="M566.228 530.503L567.058 530.484C570.302 530.409 572.236 530.238 572.862 529.972L572.81 526.708C572.799 526.066 572.715 525.541 572.555 525.132C572.415 524.7 572.103 524.318 571.621 523.985C570.713 523.342 569.063 522.211 566.671 520.594L567.328 515.148L577.14 511.038L576.658 514.898L569.064 518.064L570.164 518.829C571.67 519.871 572.732 520.694 573.353 521.299C573.973 521.88 574.424 522.603 574.705 523.467C574.986 524.332 575.139 525.566 575.165 527.169L575.197 529.196C575.22 530.616 574.875 531.713 574.162 532.485C573.449 533.258 572.455 533.796 571.181 534.101C569.907 534.382 568.278 534.546 566.293 534.591L566.228 530.503ZM578.858 534.302C577.885 534.324 577.054 534.286 576.365 534.187C575.695 534.088 575.05 533.725 574.429 533.098C573.808 532.448 573.486 531.401 573.463 529.958L573.418 527.175L575.164 527.135L575.169 527.444C575.187 528.589 575.495 529.35 576.093 529.725C576.691 530.078 577.59 530.241 578.792 530.213L579.084 530.55L579.138 533.952L578.858 534.302Z" fill="#4F9DE5"/>
<path d="M558.741 534.869C557.863 534.889 556.897 534.751 555.843 534.454C554.807 534.157 553.913 533.708 553.159 533.107C552.424 532.505 552.049 531.769 552.035 530.899C552.026 530.303 552.188 529.681 552.521 529.031C554.275 530.114 556.576 530.76 559.423 530.969L559.002 520.736L561.833 520.499L561.99 530.326C562.014 531.86 561.775 533 561.271 533.745C560.768 534.467 559.924 534.841 558.741 534.869ZM538.697 531.137L539.584 531.117C541.225 531.079 542.442 530.81 543.236 530.311L543.107 522.237L545.568 522.18L545.641 526.75C545.678 529.063 545.42 530.833 544.867 532.061C544.314 533.265 543.535 534.085 542.53 534.521C541.545 534.956 540.289 535.191 538.762 535.226L538.697 531.137ZM548.524 535.104C547.016 535.139 545.856 534.776 545.042 534.016C544.247 533.232 543.837 532.107 543.814 530.641L543.679 522.223L545.568 522.18L545.674 528.777C545.687 529.601 545.916 530.18 546.36 530.514C546.824 530.847 547.59 531.001 548.658 530.977L548.524 535.104ZM548.524 535.104C548.409 535.107 548.252 534.813 548.051 534.221C547.87 533.607 547.775 533.025 547.766 532.475C547.759 532.04 547.82 531.683 547.949 531.405C548.097 531.127 548.315 530.984 548.601 530.978C549.307 530.962 549.945 530.89 550.516 530.762C551.105 530.634 551.57 530.474 551.911 530.283L551.776 521.865L554.238 521.808L554.361 529.505C554.39 531.337 553.859 532.724 552.767 533.666C551.674 534.585 550.26 535.064 548.524 535.104ZM566.295 534.591C564.254 534.639 562.807 534.271 561.954 533.489C561.121 532.683 560.69 531.41 560.662 529.669L560.593 525.339L561.91 525.309L561.921 526.031C561.944 527.474 562.066 528.502 562.285 529.116C562.505 529.729 562.893 530.121 563.449 530.292C564.006 530.462 564.933 530.533 566.23 530.503L566.522 530.84L566.576 534.241L566.295 534.591Z" fill="#4F9DE5"/>
<path d="M527.162 540.065C522.678 540.168 520.399 537.895 520.324 533.245C520.312 532.443 520.404 529.863 520.601 525.505L522.837 525.66C522.741 529.191 522.701 531.449 522.716 532.434C522.739 533.831 523.174 534.783 524.022 535.291C524.87 535.776 525.961 536.002 527.297 535.972C528.613 535.941 529.699 535.79 530.553 535.518C531.427 535.246 532.204 534.885 532.884 534.434L532.256 513.069L535.026 512.627L535.359 533.449C535.381 534.846 535.019 536.034 534.271 537.014C533.523 537.994 532.514 538.739 531.243 539.249C529.991 539.759 528.631 540.031 527.162 540.065ZM538.766 535.226C537.926 535.245 537.2 535.193 536.587 535.07C535.975 534.947 535.415 534.57 534.909 533.94C534.421 533.287 534.166 532.262 534.144 530.864L534.085 527.154L535.258 527.126L535.278 528.363C535.296 529.486 535.584 530.235 536.144 530.612C536.722 530.965 537.574 531.14 538.701 531.137L538.992 531.474L539.047 534.876L538.766 535.226Z" fill="#4F9DE5"/>
<g filter="url(#filter0_d_16_15)">
<path d="M576.151 537.435H585.509L587.711 541.4H581.367C578.935 541.4 576.801 539.778 576.151 537.435V537.435Z" fill="#0075FF"/>
</g>
<g filter="url(#filter1_d_16_15)">
<path d="M1224.91 52.9412H1243.05C1251.62 52.9412 1258.58 59.8939 1258.58 68.4706V68.4706C1258.58 77.0472 1251.62 84 1243.05 84H1241.74C1232.45 84 1224.91 76.4637 1224.91 67.1672V52.9412Z" fill="#0038FF"/>
<path d="M1189.2 68.4706C1189.2 59.8939 1196.16 52.9412 1204.73 52.9412H1222.87V67.1672C1222.87 76.4637 1215.33 84 1206.04 84H1204.73C1196.16 84 1189.2 77.0472 1189.2 68.4706V68.4706Z" fill="#0038FF"/>
<path d="M1224.91 36.8328C1224.91 27.5363 1232.45 20 1241.74 20H1243.05C1251.62 20 1258.58 26.9528 1258.58 35.5294V35.5294C1258.58 44.1061 1251.62 51.0588 1243.05 51.0588H1224.91V36.8328Z" fill="#0038FF"/>
<path d="M1193.28 37.4118C1193.28 29.8747 1199.39 23.7647 1206.93 23.7647H1208.08C1216.25 23.7647 1222.87 30.3875 1222.87 38.5571V51.0588H1206.93C1199.39 51.0588 1193.28 44.9488 1193.28 37.4118V37.4118Z" fill="#0038FF"/>
</g>
<path d="M1161.66 71.5862C1157.03 71.5862 1154.71 69.4784 1154.71 65.263C1154.71 64.7131 1154.72 64.2916 1154.76 63.9983L1156.3 48.0529H1160.65C1163.9 48.0529 1166.38 48.841 1168.08 50.4172C1169.79 51.9567 1170.93 54.1195 1171.51 56.9053C1172.12 59.6546 1172.43 63.2285 1172.43 67.6273L1168.81 72.6309C1168.81 67.4623 1168.7 63.76 1168.47 61.524C1168.24 59.2513 1167.57 57.4918 1166.44 56.2455C1165.32 54.9626 1163.43 54.3211 1160.79 54.3211H1159.2L1158.38 64.8231C1159.02 64.9697 1160.49 65.043 1162.77 65.043C1164.51 65.0064 1166.15 64.8964 1167.7 64.7131C1169.28 64.5298 1170.35 64.3465 1170.93 64.1633V69.9916C1169.97 70.3582 1168.65 70.7247 1166.97 71.0913C1165.3 71.4212 1163.53 71.5862 1161.66 71.5862ZM1152.36 77.6556C1156 77.2157 1161.36 76.3515 1163.64 75.4351C1165.93 74.5553 1167.65 73.5656 1168.81 72.4659V67.1324C1168.81 66.8392 1169.08 66.4176 1169.63 65.8678C1170.21 65.3179 1170.74 65.043 1171.22 65.043C1172.03 65.043 1172.43 65.9044 1172.43 67.6273C1172.43 70.7431 1172.12 73.2357 1171.51 75.1052C1170.93 77.0113 1169.44 78.7158 1167.02 80.2187C1164.64 81.7583 1160.87 82.9496 1155.72 83.7927L1152.36 77.6556Z" fill="#313B78"/>
<path d="M1139.2 66.1006C1140.45 66.0732 1141.88 65.9503 1143.49 65.7318C1145.09 65.5134 1146.22 65.1956 1146.85 64.7784L1146.06 49.5071L1150.84 49.1278L1151.06 62.4865C1151.13 66.1148 1150.14 68.7028 1148.1 70.2505C1146.1 71.7608 1143.17 72.5581 1139.31 72.6426L1139.2 66.1006Z" fill="#313B78"/>
<path d="M1117.98 66.5644L1119.38 66.5338C1124.85 66.4142 1128.11 66.1412 1129.17 65.7148L1129.08 60.4923C1129.06 59.4661 1128.92 58.626 1128.65 57.9719C1128.42 57.2805 1127.89 56.6687 1127.08 56.1366C1125.55 55.1068 1122.76 53.2979 1118.73 50.7097L1119.84 41.9963L1136.39 35.4201L1135.57 41.5973L1122.76 46.6618L1124.62 47.8861C1127.16 49.5538 1128.95 50.8711 1130 51.8381C1131.04 52.7685 1131.8 53.9251 1132.28 55.3079C1132.75 56.6908 1133.01 58.6649 1133.05 61.2304L1133.11 64.4738C1133.15 66.7461 1132.57 68.5003 1131.36 69.7365C1130.16 70.9727 1128.48 71.8342 1126.34 72.3212C1124.19 72.7715 1121.44 73.0332 1118.09 73.1064L1117.98 66.5644ZM1139.28 72.643C1137.64 72.6789 1136.24 72.6179 1135.08 72.46C1133.95 72.3013 1132.86 71.7202 1131.81 70.7165C1130.77 69.6762 1130.22 68.0016 1130.18 65.6927L1130.11 61.2398L1133.05 61.1754L1133.06 61.6702C1133.09 63.5026 1133.61 64.7195 1134.62 65.3207C1135.63 65.8853 1137.15 66.1454 1139.17 66.1011L1139.67 66.6403L1139.76 72.0827L1139.28 72.643Z" fill="#313B78"/>
<path d="M1105.35 73.5499C1103.87 73.5823 1102.24 73.3612 1100.46 72.8869C1098.71 72.4118 1097.21 71.6932 1095.93 70.7311C1094.69 69.7683 1094.06 68.5905 1094.04 67.1979C1094.02 66.245 1094.3 65.2491 1094.86 64.2103C1097.82 65.942 1101.7 66.9754 1106.5 67.3104L1105.79 50.9375L1110.57 50.5582L1110.83 66.2808C1110.87 68.7363 1110.47 70.56 1109.62 71.7517C1108.77 72.9069 1107.35 73.5063 1105.35 73.5499ZM1071.54 67.5798L1073.04 67.5471C1075.8 67.4865 1077.86 67.0567 1079.2 66.2575L1078.98 53.3386L1083.13 53.2478L1083.25 60.5594C1083.32 64.2609 1082.88 67.0935 1081.95 69.057C1081.01 70.9839 1079.7 72.2959 1078.01 72.9928C1076.34 73.6891 1074.22 74.0654 1071.65 74.1217L1071.54 67.5798ZM1088.12 73.9267C1085.57 73.9823 1083.61 73.4018 1082.24 72.1853C1080.9 70.9314 1080.21 69.1317 1080.17 66.7861L1079.94 53.3174L1083.13 53.2478L1083.31 63.8028C1083.33 65.1222 1083.72 66.0487 1084.47 66.5822C1085.25 67.1151 1086.54 67.3618 1088.34 67.3224L1088.12 73.9267ZM1088.12 73.9267C1087.92 73.9309 1087.66 73.4601 1087.32 72.5143C1087.01 71.5311 1086.85 70.5997 1086.84 69.7201C1086.83 69.0237 1086.93 68.4532 1087.15 68.0085C1087.4 67.5631 1087.76 67.3351 1088.25 67.3245C1089.44 67.2985 1090.51 67.1833 1091.48 66.9789C1092.47 66.7739 1093.25 66.5184 1093.83 66.2125L1093.6 52.7439L1097.75 52.6531L1097.96 64.9673C1098.01 67.8993 1097.11 70.1186 1095.27 71.6254C1093.43 73.0956 1091.04 73.8627 1088.12 73.9267ZM1118.09 73.1063C1114.65 73.1816 1112.21 72.5934 1110.77 71.3416C1109.36 70.0525 1108.64 68.0152 1108.59 65.2299L1108.47 58.3031L1110.7 58.2546L1110.71 59.409C1110.75 61.7179 1110.96 63.3633 1111.33 64.3451C1111.7 65.3269 1112.35 65.9542 1113.29 66.227C1114.23 66.4998 1115.79 66.6122 1117.98 66.5644L1118.48 67.1036L1118.57 72.546L1118.09 73.1063Z" fill="#313B78"/>
<path d="M1052.08 81.8621C1044.51 82.0287 1040.67 78.3921 1040.54 70.9523C1040.52 69.6695 1040.68 65.5415 1041.01 58.5681L1044.78 58.815C1044.62 64.4647 1044.55 68.0775 1044.58 69.6535C1044.62 71.8891 1045.35 73.4128 1046.78 74.2245C1048.21 74.9996 1050.05 75.3623 1052.3 75.3127C1054.52 75.2637 1056.36 75.0217 1057.8 74.5867C1059.27 74.1509 1060.58 73.5721 1061.73 72.8502L1060.67 38.6668L1065.35 37.9589L1065.9 71.2734C1065.94 73.509 1065.33 75.4106 1064.07 76.9783C1062.81 78.5459 1061.1 79.7383 1058.96 80.5555C1056.85 81.3719 1054.55 81.8074 1052.08 81.8621ZM1071.65 74.1164C1070.23 74.1477 1069.01 74.0647 1067.98 73.8675C1066.94 73.6702 1066 73.0678 1065.14 72.06C1064.32 71.0149 1063.89 69.3745 1063.85 67.1389L1063.76 61.2017L1065.73 61.1581L1065.77 63.1372C1065.8 64.933 1066.28 66.1321 1067.23 66.7346C1068.2 67.2997 1069.64 67.5797 1071.54 67.5745L1072.03 68.1136L1072.12 73.5561L1071.65 74.1164Z" fill="#313B78"/>
<g filter="url(#filter2_d_16_15)">
<path d="M1134.72 77.6556H1150.5L1154.22 83.9999H1143.19C1139.27 83.9999 1135.82 81.416 1134.72 77.6556V77.6556Z" fill="#0038FF"/>
</g>
<g filter="url(#filter3_d_16_15)">
<path d="M772.619 396.588H782.871C788.231 396.588 792.576 400.934 792.576 406.294V406.294C792.576 411.655 788.231 416 782.871 416H782.598C777.087 416 772.619 411.532 772.619 406.021V396.588Z" fill="#5D5AFF"/>
<path d="M751.451 406.294C751.451 400.934 755.797 396.588 761.157 396.588H771.409V406.021C771.409 411.532 766.941 416 761.43 416H761.157C755.797 416 751.451 411.655 751.451 406.294V406.294Z" fill="#5D5AFF"/>
<path d="M772.619 385.979C772.619 380.468 777.087 376 782.598 376H782.871C788.231 376 792.576 380.345 792.576 385.706V385.706C792.576 391.066 788.231 395.412 782.871 395.412H772.619V385.979Z" fill="#5D5AFF"/>
<path d="M753.87 386.882C753.87 382.172 757.689 378.353 762.4 378.353H762.639C767.482 378.353 771.409 382.279 771.409 387.122V395.412H762.4C757.689 395.412 753.87 391.593 753.87 386.882V386.882Z" fill="#5D5AFF"/>
</g>
<path d="M735.123 408.241C732.375 408.241 731.001 406.924 731.001 404.289C731.001 403.946 731.011 403.682 731.03 403.499L731.946 393.533H734.522C736.45 393.533 737.919 394.026 738.931 395.011C739.942 395.973 740.62 397.325 740.963 399.066C741.326 400.784 741.507 403.018 741.507 405.767L739.36 408.894C739.36 405.664 739.293 403.35 739.16 401.952C739.026 400.532 738.625 399.432 737.957 398.653C737.289 397.852 736.173 397.451 734.608 397.451H733.663L733.177 404.014C733.558 404.106 734.427 404.152 735.782 404.152C736.812 404.129 737.786 404.06 738.702 403.946C739.637 403.831 740.276 403.717 740.62 403.602V407.245C740.047 407.474 739.265 407.703 738.272 407.932C737.28 408.138 736.23 408.241 735.123 408.241ZM729.61 412.035C731.767 411.76 734.942 411.22 736.297 410.647C737.652 410.097 738.673 409.478 739.36 408.791V405.458C739.36 405.274 739.522 405.011 739.847 404.667C740.19 404.324 740.505 404.152 740.791 404.152C741.268 404.152 741.507 404.69 741.507 405.767C741.507 407.714 741.326 409.272 740.963 410.441C740.62 411.632 739.732 412.697 738.301 413.637C736.889 414.599 734.656 415.343 731.602 415.87L729.61 412.035Z" fill="#020056"/>
<path d="M721.806 404.813C722.55 404.796 723.398 404.719 724.35 404.582C725.302 404.446 725.967 404.247 726.345 403.986L725.877 394.442L728.708 394.205L728.841 402.554C728.878 404.822 728.293 406.439 727.087 407.407C725.899 408.35 724.161 408.849 721.871 408.902L721.806 404.813Z" fill="#020056"/>
<path d="M709.228 405.103L710.058 405.084C713.302 405.009 715.236 404.838 715.862 404.572L715.81 401.308C715.799 400.666 715.715 400.141 715.555 399.732C715.415 399.3 715.103 398.918 714.621 398.585C713.713 397.942 712.063 396.811 709.671 395.194L710.328 389.748L720.14 385.638L719.658 389.498L712.064 392.664L713.164 393.429C714.67 394.471 715.732 395.294 716.353 395.899C716.973 396.48 717.424 397.203 717.705 398.067C717.986 398.932 718.139 400.166 718.165 401.769L718.197 403.796C718.22 405.216 717.875 406.313 717.162 407.085C716.449 407.858 715.455 408.396 714.181 408.701C712.907 408.982 711.278 409.146 709.293 409.192L709.228 405.103ZM721.858 408.902C720.885 408.924 720.054 408.886 719.365 408.787C718.695 408.688 718.05 408.325 717.429 407.698C716.808 407.048 716.486 406.001 716.463 404.558L716.418 401.775L718.164 401.735L718.169 402.044C718.187 403.189 718.495 403.95 719.093 404.325C719.691 404.678 720.59 404.841 721.792 404.813L722.084 405.15L722.138 408.552L721.858 408.902Z" fill="#020056"/>
<path d="M701.741 409.469C700.863 409.489 699.897 409.351 698.843 409.054C697.807 408.757 696.913 408.308 696.159 407.707C695.424 407.105 695.049 406.369 695.035 405.499C695.026 404.903 695.188 404.281 695.521 403.631C697.275 404.714 699.576 405.36 702.423 405.569L702.002 395.336L704.833 395.099L704.99 404.926C705.014 406.46 704.775 407.6 704.271 408.345C703.768 409.067 702.924 409.441 701.741 409.469ZM681.697 405.737L682.584 405.717C684.225 405.679 685.442 405.41 686.236 404.911L686.107 396.837L688.568 396.78L688.641 401.35C688.678 403.663 688.42 405.433 687.867 406.661C687.314 407.865 686.535 408.685 685.53 409.121C684.545 409.556 683.289 409.791 681.762 409.826L681.697 405.737ZM691.524 409.704C690.016 409.739 688.856 409.376 688.042 408.616C687.247 407.832 686.837 406.707 686.814 405.241L686.679 396.823L688.568 396.78L688.674 403.377C688.687 404.201 688.916 404.78 689.36 405.114C689.824 405.447 690.59 405.601 691.658 405.577L691.524 409.704ZM691.524 409.704C691.409 409.707 691.252 409.413 691.051 408.821C690.87 408.207 690.775 407.625 690.766 407.075C690.759 406.64 690.82 406.283 690.949 406.005C691.097 405.727 691.315 405.584 691.601 405.578C692.307 405.562 692.945 405.49 693.516 405.362C694.105 405.234 694.57 405.074 694.911 404.883L694.776 396.465L697.238 396.408L697.361 404.105C697.39 405.937 696.859 407.324 695.767 408.266C694.674 409.185 693.26 409.664 691.524 409.704ZM709.295 409.191C707.254 409.239 705.807 408.871 704.954 408.089C704.121 407.283 703.69 406.01 703.662 404.269L703.593 399.939L704.91 399.909L704.921 400.631C704.944 402.074 705.066 403.102 705.285 403.716C705.505 404.329 705.893 404.721 706.449 404.892C707.006 405.062 707.933 405.133 709.23 405.103L709.522 405.44L709.576 408.841L709.295 409.191Z" fill="#020056"/>
<path d="M670.162 414.665C665.678 414.768 663.399 412.495 663.324 407.845C663.312 407.043 663.404 404.463 663.601 400.105L665.837 400.26C665.741 403.791 665.701 406.049 665.716 407.034C665.739 408.431 666.174 409.383 667.022 409.891C667.87 410.375 668.961 410.602 670.297 410.572C671.613 410.541 672.699 410.39 673.553 410.118C674.427 409.846 675.204 409.485 675.884 409.034L675.256 387.669L678.026 387.227L678.359 408.048C678.381 409.446 678.019 410.634 677.271 411.614C676.523 412.593 675.514 413.339 674.243 413.849C672.991 414.359 671.631 414.631 670.162 414.665ZM681.766 409.826C680.926 409.845 680.2 409.793 679.587 409.67C678.975 409.547 678.415 409.17 677.909 408.54C677.421 407.887 677.166 406.862 677.144 405.464L677.085 401.753L678.258 401.726L678.278 402.963C678.296 404.086 678.584 404.835 679.144 405.212C679.722 405.565 680.574 405.74 681.701 405.737L681.992 406.074L682.047 409.476L681.766 409.826Z" fill="#020056"/>
<g filter="url(#filter4_d_16_15)">
<path d="M719.151 412.035H728.509L730.711 416H724.367C721.935 416 719.801 414.378 719.151 412.035V412.035Z" fill="#5D5AFF"/>
</g>
</g>
<defs>
<filter id="filter0_d_16_15" x="554.921" y="537.435" width="54.0207" height="46.4254" filterUnits="userSpaceOnUse" color-interpolation-filters="sRGB">
<feFlood flood-opacity="0" result="BackgroundImageFix"/>
<feColorMatrix in="SourceAlpha" type="matrix" values="0 0 0 0 0 0 0 0 0 0 0 0 0 0 0 0 0 0 127 0" result="hardAlpha"/>
<feOffset dy="21.2301"/>
<feGaussianBlur stdDeviation="10.615"/>
<feComposite in2="hardAlpha" operator="out"/>
<feColorMatrix type="matrix" values="0 0 0 0 0.364706 0 0 0 0 0.352941 0 0 0 0 1 0 0 0 0.27 0"/>
<feBlend mode="normal" in2="BackgroundImageFix" result="effect1_dropShadow_16_15"/>
<feBlend mode="normal" in="SourceGraphic" in2="effect1_dropShadow_16_15" result="shape"/>
</filter>
<filter id="filter1_d_16_15" x="1090.65" y="-62.1293" width="266.483" height="261.11" filterUnits="userSpaceOnUse" color-interpolation-filters="sRGB">
<feFlood flood-opacity="0" result="BackgroundImageFix"/>
<feColorMatrix in="SourceAlpha" type="matrix" values="0 0 0 0 0 0 0 0 0 0 0 0 0 0 0 0 0 0 127 0" result="hardAlpha"/>
<feOffset dy="16.4259"/>
<feGaussianBlur stdDeviation="49.2776"/>
<feComposite in2="hardAlpha" operator="out"/>
<feColorMatrix type="matrix" values="0 0 0 0 0.364706 0 0 0 0 0.352941 0 0 0 0 1 0 0 0 0.32 0"/>
<feBlend mode="normal" in2="BackgroundImageFix" result="effect1_dropShadow_16_15"/>
<feBlend mode="normal" in="SourceGraphic" in2="effect1_dropShadow_16_15" result="shape"/>
</filter>
<filter id="filter2_d_16_15" x="1113.49" y="77.6556" width="61.9609" height="48.8045" filterUnits="userSpaceOnUse" color-interpolation-filters="sRGB">
<feFlood flood-opacity="0" result="BackgroundImageFix"/>
<feColorMatrix in="SourceAlpha" type="matrix" values="0 0 0 0 0 0 0 0 0 0 0 0 0 0 0 0 0 0 127 0" result="hardAlpha"/>
<feOffset dy="21.2301"/>
<feGaussianBlur stdDeviation="10.615"/>
<feComposite in2="hardAlpha" operator="out"/>
<feColorMatrix type="matrix" values="0 0 0 0 0.364706 0 0 0 0 0.352941 0 0 0 0 1 0 0 0 0.27 0"/>
<feBlend mode="normal" in2="BackgroundImageFix" result="effect1_dropShadow_16_15"/>
<feBlend mode="normal" in="SourceGraphic" in2="effect1_dropShadow_16_15" result="shape"/>
</filter>
<filter id="filter3_d_16_15" x="652.896" y="293.871" width="238.236" height="237.11" filterUnits="userSpaceOnUse" color-interpolation-filters="sRGB">
<feFlood flood-opacity="0" result="BackgroundImageFix"/>
<feColorMatrix in="SourceAlpha" type="matrix" values="0 0 0 0 0 0 0 0 0 0 0 0 0 0 0 0 0 0 127 0" result="hardAlpha"/>
<feOffset dy="16.4259"/>
<feGaussianBlur stdDeviation="49.2776"/>
<feComposite in2="hardAlpha" operator="out"/>
<feColorMatrix type="matrix" values="0 0 0 0 0.364706 0 0 0 0 0.352941 0 0 0 0 1 0 0 0 0.32 0"/>
<feBlend mode="normal" in2="BackgroundImageFix" result="effect1_dropShadow_16_15"/>
<feBlend mode="normal" in="SourceGraphic" in2="effect1_dropShadow_16_15" result="shape"/>
</filter>
<filter id="filter4_d_16_15" x="697.921" y="412.035" width="54.0207" height="46.4254" filterUnits="userSpaceOnUse" color-interpolation-filters="sRGB">
<feFlood flood-opacity="0" result="BackgroundImageFix"/>
<feColorMatrix in="SourceAlpha" type="matrix" values="0 0 0 0 0 0 0 0 0 0 0 0 0 0 0 0 0 0 127 0" result="hardAlpha"/>
<feOffset dy="21.2301"/>
<feGaussianBlur stdDeviation="10.615"/>
<feComposite in2="hardAlpha" operator="out"/>
<feColorMatrix type="matrix" values="0 0 0 0 0.364706 0 0 0 0 0.352941 0 0 0 0 1 0 0 0 0.27 0"/>
<feBlend mode="normal" in2="BackgroundImageFix" result="effect1_dropShadow_16_15"/>
<feBlend mode="normal" in="SourceGraphic" in2="effect1_dropShadow_16_15" result="shape"/>
</filter>
<clipPath id="clip0_16_15">
<rect width="1280" height="673" rx="5" fill="white"/>
</clipPath>
</defs>
</svg>
