<svg width="208" height="105" viewBox="0 0 208 105" fill="none" xmlns="http://www.w3.org/2000/svg">
<rect y="5" width="196" height="85" rx="42.5" fill="white"/>
<g filter="url(#filter0_d_600_3617)">
<circle cx="155.5" cy="48.5" r="28.5" fill="#6BCD94"/>
</g>
<g clip-path="url(#clip0_600_3617)">
<path d="M155.472 57.4375C160.45 57.4375 164.465 53.4362 164.465 48.5C164.465 43.5638 160.45 39.5625 155.472 39.5625C150.495 39.5625 146.48 43.5638 146.48 48.5C146.48 53.4362 150.495 57.4375 155.472 57.4375Z" stroke="white" stroke-width="2.5" stroke-miterlimit="10" stroke-linecap="round"/>
<path d="M146.686 50.3836C144.088 52.7623 142.644 54.8523 143.263 55.8698C143.881 56.8873 146.384 56.6261 149.766 55.3748C152.42 54.3573 154.991 53.0923 157.411 51.5936C159.859 50.1498 162.169 48.4723 164.286 46.5886C166.954 44.2098 168.343 42.1198 167.724 41.1023C167.105 40.0848 164.589 40.3461 161.22 41.6111" stroke="white" stroke-width="2.5" stroke-miterlimit="10" stroke-linecap="round"/>
</g>
<path d="M31.7578 44.2656L33.1406 45.6406L31.7578 47.0312L30.375 45.6406L31.7578 44.2656ZM29.1016 44.2656L30.5 45.6406L29.1016 47.0312L27.7344 45.6406L29.1016 44.2656ZM34.6484 47.2734L36.7344 47.0078L36.9062 49.3281C36.9323 49.7031 37.0312 50.0052 37.2031 50.2344C37.375 50.4635 37.6667 50.5781 38.0781 50.5781H38.25V53H38.0781C37.4792 53 36.9792 52.8906 36.5781 52.6719C36.1771 52.4531 35.8464 52.1615 35.5859 51.7969C35.2682 52.0781 34.9062 52.3073 34.5 52.4844C34.0938 52.6615 33.6224 52.7917 33.0859 52.875C32.5547 52.9583 31.9323 53 31.2188 53H29.9141C29.0286 53 28.2031 52.9349 27.4375 52.8047C26.6771 52.6693 26.0104 52.4453 25.4375 52.1328C24.8646 51.8151 24.4167 51.388 24.0938 50.8516C23.776 50.3099 23.6172 49.6302 23.6172 48.8125C23.6172 48.3177 23.6719 47.8385 23.7812 47.375C23.8906 46.9115 24.026 46.4844 24.1875 46.0938L26.1953 46.8516C26.1068 47.1016 26.013 47.3932 25.9141 47.7266C25.8151 48.0599 25.7656 48.3802 25.7656 48.6875C25.7656 49.0833 25.8802 49.4062 26.1094 49.6562C26.3385 49.901 26.6484 50.0911 27.0391 50.2266C27.4297 50.362 27.8724 50.4557 28.3672 50.5078C28.862 50.5547 29.3776 50.5781 29.9141 50.5781H31.2188C31.9583 50.5781 32.5885 50.5365 33.1094 50.4531C33.6354 50.3698 34.0365 50.2188 34.3125 50C34.5938 49.776 34.7344 49.4635 34.7344 49.0625C34.7344 48.7865 34.724 48.4844 34.7031 48.1562C34.6875 47.8229 34.6693 47.5286 34.6484 47.2734ZM37.9688 50.5781H39.2812C39.9271 50.5781 40.5365 50.5156 41.1094 50.3906C41.6823 50.2604 42.2708 50.0677 42.875 49.8125C43.4792 49.5573 44.1484 49.2422 44.8828 48.8672C44.6953 48.7839 44.4583 48.6875 44.1719 48.5781C43.8906 48.4635 43.6172 48.3568 43.3516 48.2578C43.0859 48.1536 42.8802 48.0781 42.7344 48.0312C42.6406 48 42.5547 47.974 42.4766 47.9531C42.4036 47.9323 42.3385 47.9167 42.2812 47.9062C42.2292 47.8958 42.1901 47.8906 42.1641 47.8906C41.888 47.8906 41.625 47.9792 41.375 48.1562C41.125 48.3281 40.9323 48.5026 40.7969 48.6797L40.3438 49.25L38.4922 48.3438L38.8828 47.7031C39.2526 47.0938 39.7161 46.5833 40.2734 46.1719C40.8307 45.7604 41.4635 45.5547 42.1719 45.5547C42.6979 45.5547 43.1745 45.6432 43.6016 45.8203C44.0286 45.9974 44.4479 46.1875 44.8594 46.3906C45.3438 46.6302 45.7552 46.8255 46.0938 46.9766C46.4375 47.1224 46.7422 47.2396 47.0078 47.3281C47.2786 47.4115 47.5443 47.474 47.8047 47.5156C48.0703 47.5521 48.3698 47.5807 48.7031 47.6016V49.8047C48.276 49.862 47.8802 49.9557 47.5156 50.0859C47.1562 50.2109 46.7865 50.3698 46.4062 50.5625C46.0312 50.75 45.6094 50.9688 45.1406 51.2188C44.474 51.5729 43.8385 51.8854 43.2344 52.1562C42.6302 52.4219 42.0104 52.6302 41.375 52.7812C40.7396 52.9271 40.0339 53 39.2578 53H37.9688V50.5781ZM52.5391 41.9297V52.9922H50.25V41.9297H52.5391ZM52.7812 57.2734L51.9219 55.0234C52.6562 54.862 53.2995 54.6589 53.8516 54.4141C54.4089 54.1693 54.8411 53.8281 55.1484 53.3906C55.4557 52.9583 55.6094 52.3802 55.6094 51.6562C55.6094 51.1771 55.5286 50.6328 55.3672 50.0234C55.2109 49.4089 55.0469 48.8464 54.875 48.3359L57.1328 47.6016C57.3411 48.1849 57.5 48.8177 57.6094 49.5C57.7188 50.1771 57.7734 50.8281 57.7734 51.4531C57.7734 52.5885 57.5625 53.5521 57.1406 54.3438C56.7188 55.1406 56.1328 55.7786 55.3828 56.2578C54.6328 56.737 53.7656 57.0755 52.7812 57.2734ZM75.8281 41.5938L77.125 42.8906L75.8281 44.1875L74.5312 42.8906L75.8281 41.5938ZM77.2031 43.5938L78.5 44.8906L77.2031 46.1875L75.9062 44.8906L77.2031 43.5938ZM74.4609 43.5938L75.7578 44.8906L74.4609 46.1875L73.1641 44.8906L74.4609 43.5938ZM74.0859 53C73.862 53 73.6589 52.9635 73.4766 52.8906C73.2943 52.8177 73.1198 52.7344 72.9531 52.6406C72.8385 53.5417 72.5651 54.3177 72.1328 54.9688C71.7057 55.625 71.1328 56.1302 70.4141 56.4844C69.7005 56.8385 68.8542 57.0156 67.875 57.0156C66.7552 57.0156 65.8255 56.7995 65.0859 56.3672C64.3516 55.9349 63.8047 55.3438 63.4453 54.5938C63.0859 53.849 62.9062 53 62.9062 52.0469C62.9062 51.4115 62.9766 50.7552 63.1172 50.0781C63.2578 49.3958 63.4609 48.7161 63.7266 48.0391L65.75 48.8125C65.5521 49.375 65.3854 49.9219 65.25 50.4531C65.1146 50.9844 65.0469 51.4766 65.0469 51.9297C65.0469 52.4193 65.1328 52.8672 65.3047 53.2734C65.4766 53.6849 65.7682 54.013 66.1797 54.2578C66.5911 54.5026 67.1562 54.625 67.875 54.625C68.6042 54.625 69.1797 54.5078 69.6016 54.2734C70.0286 54.0443 70.3333 53.7266 70.5156 53.3203C70.7031 52.9193 70.7969 52.4583 70.7969 51.9375C70.7969 51.3854 70.7057 50.8125 70.5234 50.2188C70.3411 49.625 70.1302 49.0417 69.8906 48.4688L72.1172 47.6406L72.6562 49.2812C72.7708 49.6302 72.9375 49.9323 73.1562 50.1875C73.375 50.4427 73.6901 50.5729 74.1016 50.5781C74.513 50.5781 74.8047 50.4583 74.9766 50.2188C75.1484 49.9792 75.2344 49.6406 75.2344 49.2031C75.2344 49.1302 75.2292 49 75.2188 48.8125C75.2083 48.625 75.1927 48.4167 75.1719 48.1875C75.1562 47.9583 75.1406 47.7526 75.125 47.5703L77.2188 47.3125L77.3906 49.3984C77.4062 49.5964 77.4453 49.7865 77.5078 49.9688C77.5703 50.151 77.6667 50.2995 77.7969 50.4141C77.9271 50.5234 78.0938 50.5781 78.2969 50.5781C78.5 50.5781 78.6562 50.5234 78.7656 50.4141C78.8802 50.3047 78.9583 50.1615 79 49.9844C79.0469 49.8021 79.0703 49.6068 79.0703 49.3984C79.0703 49.0182 79.0182 48.5781 78.9141 48.0781C78.8099 47.5729 78.7109 47.1276 78.6172 46.7422L80.7812 46.1797C80.9062 46.6693 81.0052 47.1641 81.0781 47.6641C81.151 48.1641 81.1875 48.6641 81.1875 49.1641C81.1875 49.8516 81.099 50.487 80.9219 51.0703C80.7448 51.6484 80.4479 52.1146 80.0312 52.4688C79.6146 52.8177 79.0469 52.9948 78.3281 53C77.8594 53 77.4583 52.9062 77.125 52.7188C76.7917 52.526 76.513 52.2995 76.2891 52.0391C76.0286 52.2943 75.7109 52.5182 75.3359 52.7109C74.9661 52.9036 74.5495 53 74.0859 53ZM80.8594 57.2734L80 55.0234C80.7344 54.862 81.3776 54.6589 81.9297 54.4141C82.487 54.1693 82.9193 53.8281 83.2266 53.3906C83.5339 52.9583 83.6875 52.3802 83.6875 51.6562C83.6875 51.1771 83.6068 50.6328 83.4453 50.0234C83.2891 49.4089 83.125 48.8464 82.9531 48.3359L85.2109 47.6016C85.4193 48.1849 85.5781 48.8177 85.6875 49.5C85.7969 50.1771 85.8516 50.8281 85.8516 51.4531C85.8516 52.5885 85.6406 53.5521 85.2188 54.3438C84.7969 55.1406 84.2109 55.7786 83.4609 56.2578C82.7109 56.737 81.8438 57.0755 80.8594 57.2734ZM87.4609 41.9297H89.75V49.0859C89.75 49.6068 89.8151 49.987 89.9453 50.2266C90.0807 50.4609 90.3984 50.5781 90.8984 50.5781H91.0859V53H90.8984C89.7005 53 88.8281 52.6927 88.2812 52.0781C87.7344 51.4583 87.4609 50.5365 87.4609 49.3125V41.9297ZM95.0156 41.7656L96.4766 43.2266L95.0156 44.6797L93.5625 43.2266L95.0156 41.7656ZM95.1641 47.8281C95.0234 47.8281 94.8724 47.8854 94.7109 48C94.5495 48.1146 94.4115 48.2526 94.2969 48.4141C94.1823 48.5703 94.125 48.7188 94.125 48.8594C94.125 49.0469 94.1849 49.2292 94.3047 49.4062C94.4245 49.5833 94.5677 49.7422 94.7344 49.8828C94.901 50.0182 95.0495 50.1224 95.1797 50.1953C95.3203 50.112 95.474 50.0026 95.6406 49.8672C95.8073 49.7266 95.9479 49.5703 96.0625 49.3984C96.1823 49.2214 96.2422 49.0365 96.2422 48.8438C96.2422 48.6979 96.1797 48.5469 96.0547 48.3906C95.9349 48.2344 95.7917 48.1016 95.625 47.9922C95.4583 47.8828 95.3047 47.8281 95.1641 47.8281ZM98.3672 48.8438C98.3672 49.0573 98.349 49.263 98.3125 49.4609C98.2812 49.6589 98.2266 49.849 98.1484 50.0312C98.0755 50.2135 97.9792 50.3958 97.8594 50.5781C97.9167 50.5781 97.9688 50.5781 98.0156 50.5781C98.0677 50.5781 98.1172 50.5781 98.1641 50.5781C98.2161 50.5781 98.263 50.5781 98.3047 50.5781H99.0469V53H97.9297C97.6224 53 97.3073 52.9688 96.9844 52.9062C96.6667 52.8385 96.3516 52.7578 96.0391 52.6641C95.7318 52.5703 95.4349 52.4766 95.1484 52.3828C94.8568 52.4818 94.5495 52.5781 94.2266 52.6719C93.9036 52.7656 93.5755 52.8438 93.2422 52.9062C92.9141 52.9688 92.5885 53 92.2656 53H90.7969V50.5781H91.9609C92.0286 50.5781 92.0885 50.5781 92.1406 50.5781C92.1927 50.5781 92.2474 50.5781 92.3047 50.5781C92.362 50.5729 92.4271 50.5703 92.5 50.5703C92.3854 50.388 92.2891 50.2031 92.2109 50.0156C92.138 49.8281 92.0833 49.638 92.0469 49.4453C92.0156 49.2474 92 49.0417 92 48.8281C92 48.401 92.0885 47.9896 92.2656 47.5938C92.4427 47.1979 92.6797 46.8438 92.9766 46.5312C93.2786 46.2135 93.6172 45.9635 93.9922 45.7812C94.3672 45.599 94.7526 45.5078 95.1484 45.5078C95.5547 45.5078 95.9479 45.599 96.3281 45.7812C96.7135 45.9635 97.0599 46.2109 97.3672 46.5234C97.6745 46.8359 97.9167 47.1927 98.0938 47.5938C98.276 47.9896 98.3672 48.4062 98.3672 48.8438ZM104.117 53C103.602 53 103.161 52.9141 102.797 52.7422C102.438 52.5651 102.141 52.3359 101.906 52.0547C101.609 52.3411 101.25 52.5703 100.828 52.7422C100.406 52.9141 99.901 53 99.3125 53H98.7656V50.5781H99.3281C99.8802 50.5781 100.284 50.4922 100.539 50.3203C100.799 50.1432 100.93 49.7969 100.93 49.2812C100.93 49.2031 100.922 49.0651 100.906 48.8672C100.896 48.6641 100.883 48.4427 100.867 48.2031C100.852 47.9635 100.836 47.7526 100.82 47.5703L102.906 47.3125L103.078 49.4766C103.094 49.6953 103.141 49.888 103.219 50.0547C103.302 50.2214 103.419 50.3516 103.57 50.4453C103.721 50.5339 103.909 50.5781 104.133 50.5781C104.544 50.5781 104.836 50.4714 105.008 50.2578C105.185 50.0443 105.273 49.7188 105.273 49.2812C105.273 49.2083 105.268 49.0729 105.258 48.875C105.247 48.6719 105.232 48.4505 105.211 48.2109C105.195 47.9661 105.18 47.7526 105.164 47.5703L107.25 47.3125L107.422 49.4766C107.438 49.6745 107.477 49.8594 107.539 50.0312C107.602 50.1979 107.698 50.3307 107.828 50.4297C107.958 50.5286 108.125 50.5781 108.328 50.5781C108.531 50.5781 108.688 50.5234 108.797 50.4141C108.911 50.3047 108.99 50.1615 109.031 49.9844C109.078 49.8021 109.102 49.6068 109.102 49.3984C109.102 49.0182 109.049 48.5781 108.945 48.0781C108.841 47.5729 108.742 47.1276 108.648 46.7422L110.812 46.1797C110.938 46.6693 111.036 47.1641 111.109 47.6641C111.182 48.1641 111.219 48.6641 111.219 49.1641C111.219 49.8516 111.13 50.487 110.953 51.0703C110.776 51.6484 110.479 52.1146 110.062 52.4688C109.646 52.8177 109.078 52.9948 108.359 53C107.891 53 107.49 52.9062 107.156 52.7188C106.823 52.526 106.544 52.2995 106.32 52.0391C106.06 52.2943 105.742 52.5182 105.367 52.7109C104.997 52.9036 104.581 53 104.117 53Z" fill="#020056"/>
<defs>
<filter id="filter0_d_600_3617" x="103" y="0" width="105" height="105" filterUnits="userSpaceOnUse" color-interpolation-filters="sRGB">
<feFlood flood-opacity="0" result="BackgroundImageFix"/>
<feColorMatrix in="SourceAlpha" type="matrix" values="0 0 0 0 0 0 0 0 0 0 0 0 0 0 0 0 0 0 127 0" result="hardAlpha"/>
<feOffset dy="4"/>
<feGaussianBlur stdDeviation="12"/>
<feComposite in2="hardAlpha" operator="out"/>
<feColorMatrix type="matrix" values="0 0 0 0 0.419608 0 0 0 0 0.803922 0 0 0 0 0.580392 0 0 0 0.69 0"/>
<feBlend mode="normal" in2="BackgroundImageFix" result="effect1_dropShadow_600_3617"/>
<feBlend mode="normal" in="SourceGraphic" in2="effect1_dropShadow_600_3617" result="shape"/>
</filter>
<clipPath id="clip0_600_3617">
<rect width="33" height="33" fill="white" transform="translate(139 32)"/>
</clipPath>
</defs>
</svg>
