<svg width="418" height="211" viewBox="0 0 418 211" fill="none" xmlns="http://www.w3.org/2000/svg">
<g filter="url(#filter0_d_599_3540)">
<path d="M30 103.937C30 75.8556 30 61.815 38.5229 52.0174C47.0458 42.2198 60.4632 40.3437 87.298 36.5915C124.116 31.4433 171.822 26 208.941 26C246.061 26 293.766 31.4433 330.584 36.5915C357.419 40.3437 370.837 42.2198 379.359 52.0174C387.882 61.815 387.882 75.8556 387.882 103.937V103.937C387.882 134.317 387.882 149.507 378.557 159.507C369.232 169.508 354.42 170.544 324.794 172.617C288.866 175.131 244.143 177.645 208.941 177.645C173.739 177.645 129.016 175.131 93.088 172.617C63.4628 170.544 48.6502 169.508 39.3251 159.507C30 149.507 30 134.317 30 103.937V103.937Z" fill="#4EC881"/>
</g>
<mask id="mask0_599_3540" style="mask-type:alpha" maskUnits="userSpaceOnUse" x="30" y="26" width="358" height="162">
<path d="M30 103.607C30 75.7457 30 61.815 38.5229 52.0174C47.0458 42.2198 60.4632 40.3437 87.298 36.5915C124.116 31.4433 171.822 26 208.941 26C246.061 26 293.766 31.4433 330.584 36.5915C357.419 40.3437 370.836 42.2198 379.359 52.0174C387.882 61.815 387.882 75.7457 387.882 103.607V109.57C387.882 137.431 387.882 151.362 379.359 161.16C370.836 170.957 357.419 172.833 330.584 176.586C293.766 181.734 246.061 187.177 208.941 187.177C171.822 187.177 124.116 181.734 87.298 176.586C60.4632 172.833 47.0458 170.957 38.5229 161.16C30 151.362 30 137.431 30 109.57V103.607Z" fill="#5D5AFF"/>
</mask>
<g mask="url(#mask0_599_3540)">
<g opacity="0.1">
<path style="mix-blend-mode:screen" opacity="0.6" d="M214.135 228.852L140.529 -503.457H287.743L214.135 228.852Z" fill="url(#paint0_linear_599_3540)"/>
<path style="mix-blend-mode:screen" opacity="0.6" d="M214.135 228.851L-149.471 -444.433L-10.2347 -483.104L214.135 228.851Z" fill="url(#paint1_linear_599_3540)"/>
<path style="mix-blend-mode:screen" opacity="0.6" d="M214.135 228.852L-400.057 -312.425L-283.892 -385.576L214.135 228.852Z" fill="url(#paint2_linear_599_3540)"/>
<path style="mix-blend-mode:screen" opacity="0.6" d="M214.135 228.851L-584.067 -121.748L-503.564 -221.451L214.135 228.851Z" fill="url(#paint3_linear_599_3540)"/>
<path style="mix-blend-mode:screen" opacity="0.6" d="M214.135 228.852L-681.555 106.936L-645.441 -8.51172L214.135 228.852Z" fill="url(#paint4_linear_599_3540)"/>
<path style="mix-blend-mode:screen" opacity="0.6" d="M214.135 228.851L1073.46 -9.11914L1109.7 106.302L214.135 228.851Z" fill="url(#paint5_linear_599_3540)"/>
<path style="mix-blend-mode:screen" opacity="0.6" d="M214.135 228.851L931.35 -221.957L1011.96 -122.312L214.135 228.851Z" fill="url(#paint6_linear_599_3540)"/>
<path style="mix-blend-mode:screen" opacity="0.6" d="M214.135 228.851L711.5 -385.93L827.745 -312.86L214.135 228.851Z" fill="url(#paint7_linear_599_3540)"/>
<path style="mix-blend-mode:screen" opacity="0.6" d="M214.135 228.851L437.738 -483.262L577.016 -444.688L214.135 228.851Z" fill="url(#paint8_linear_599_3540)"/>
</g>
</g>
<path d="M74.3675 106.509L72.3871 107.264C71.2133 104.173 67.7419 102.607 64.6404 103.779C61.5388 104.951 59.9833 108.424 61.155 111.526L59.1746 112.281C57.5901 108.09 59.7015 103.395 63.8948 101.801C68.086 100.216 72.7809 102.328 74.3752 106.521L74.3675 106.509Z" fill="white" fill-opacity="0.2"/>
<path d="M85.8341 130.519L91.1797 131.01L94.0015 135.587L88.6558 135.096L85.8341 130.519ZM83.3219 128.963L87.8778 136.352L96.5234 137.145L91.9675 129.756L83.3219 128.963Z" fill="white" fill-opacity="0.2"/>
<path d="M111.553 104.743C111.445 105.251 110.964 105.589 110.439 105.508C109.905 105.425 109.53 104.927 109.615 104.382L110.921 95.7741C111.016 95.2318 111.503 94.8648 112.047 94.9497C112.582 95.0326 112.957 95.5313 112.872 96.0757L111.565 104.684C111.565 104.684 111.557 104.723 111.553 104.743Z" fill="white" fill-opacity="0.2"/>
<path d="M103.26 68.6257L102.159 69.8642L97.1116 65.3672L92.6167 70.4046L91.3782 69.3032L96.9864 63.0195L103.26 68.6257Z" fill="white" fill-opacity="0.2"/>
<path d="M317.774 83.1832C319.735 82.7265 321.792 83.5504 322.906 85.2457C324.356 87.4692 323.727 90.458 321.503 91.9085C321.026 92.2219 320.515 92.442 319.961 92.571C318 93.0278 315.933 92.2063 314.83 90.5086C314.128 89.4251 313.886 88.1446 314.153 86.8803C314.423 85.6267 315.159 84.5451 316.23 83.8351C316.707 83.5217 317.218 83.3017 317.772 83.1726M317.285 81.084C316.518 81.2628 315.759 81.5743 315.059 82.0408C311.84 84.1387 310.937 88.4608 313.035 91.6793C314.677 94.1952 317.677 95.305 320.448 94.6596C321.215 94.4809 321.974 94.1693 322.674 93.7028C325.892 91.6049 326.795 87.2829 324.697 84.0643C323.055 81.5485 320.056 80.4386 317.285 81.084Z" fill="white" fill-opacity="0.2"/>
<path d="M343.749 129.82L340.274 139.111L330.757 141.901L334.242 132.608L343.759 129.817M347.768 126.097L332.382 130.603L326.756 145.608L342.142 141.103L347.766 126.087L347.768 126.097Z" fill="white" fill-opacity="0.2"/>
<path d="M293.981 139.56C293.342 139.709 292.687 139.693 292.05 139.516C290.991 139.212 290.124 138.481 289.617 137.465C289.34 136.9 288.863 136.494 288.285 136.326C287.709 136.168 287.1 136.254 286.561 136.593C285.588 137.19 284.47 137.361 283.4 137.059C282.341 136.756 281.474 136.025 280.968 135.009C280.752 134.565 280.931 134.029 281.364 133.815C281.808 133.6 282.344 133.778 282.557 134.211C282.835 134.776 283.311 135.182 283.89 135.35C284.466 135.508 285.075 135.422 285.624 135.081C286.597 134.483 287.715 134.313 288.774 134.617C289.834 134.92 290.7 135.651 291.207 136.668C291.484 137.232 291.961 137.638 292.539 137.806C293.118 137.975 293.735 137.876 294.274 137.537C294.697 137.281 295.245 137.412 295.498 137.825C295.752 138.238 295.634 138.793 295.21 139.049C294.816 139.287 294.408 139.461 293.981 139.56Z" fill="white" fill-opacity="0.2"/>
<path d="M363.697 109.164L361.211 103.317L355.354 105.805L354.748 104.362L362.038 101.271L365.129 108.561L363.697 109.164Z" fill="white" fill-opacity="0.2"/>
<defs>
<filter id="filter0_d_599_3540" x="0.537535" y="0.00370717" width="416.807" height="210.569" filterUnits="userSpaceOnUse" color-interpolation-filters="sRGB">
<feFlood flood-opacity="0" result="BackgroundImageFix"/>
<feColorMatrix in="SourceAlpha" type="matrix" values="0 0 0 0 0 0 0 0 0 0 0 0 0 0 0 0 0 0 127 0" result="hardAlpha"/>
<feOffset dy="3.46617"/>
<feGaussianBlur stdDeviation="14.7312"/>
<feComposite in2="hardAlpha" operator="out"/>
<feColorMatrix type="matrix" values="0 0 0 0 0.30613 0 0 0 0 0.784948 0 0 0 0 0.506452 0 0 0 0.18 0"/>
<feBlend mode="normal" in2="BackgroundImageFix" result="effect1_dropShadow_599_3540"/>
<feBlend mode="normal" in="SourceGraphic" in2="effect1_dropShadow_599_3540" result="shape"/>
</filter>
<linearGradient id="paint0_linear_599_3540" x1="214.135" y1="228.852" x2="214.135" y2="-503.457" gradientUnits="userSpaceOnUse">
<stop offset="0.08" stop-color="#29ABE2"/>
<stop offset="0.21" stop-color="#218DBA"/>
<stop offset="0.49" stop-color="#104358"/>
<stop offset="0.74"/>
</linearGradient>
<linearGradient id="paint1_linear_599_3540" x1="214.143" y1="228.832" x2="14.4908" y2="-490.005" gradientUnits="userSpaceOnUse">
<stop offset="0.08" stop-color="#29ABE2"/>
<stop offset="0.21" stop-color="#218DBA"/>
<stop offset="0.49" stop-color="#104358"/>
<stop offset="0.74"/>
</linearGradient>
<linearGradient id="paint2_linear_599_3540" x1="214.111" y1="228.851" x2="-204.35" y2="-435.663" gradientUnits="userSpaceOnUse">
<stop offset="0.08" stop-color="#29ABE2"/>
<stop offset="0.22" stop-color="#218DBA"/>
<stop offset="0.53" stop-color="#104358"/>
<stop offset="0.79"/>
</linearGradient>
<linearGradient id="paint3_linear_599_3540" x1="214.209" y1="228.843" x2="-440.385" y2="-299.689" gradientUnits="userSpaceOnUse">
<stop offset="0.08" stop-color="#29ABE2"/>
<stop offset="0.22" stop-color="#218DBA"/>
<stop offset="0.52" stop-color="#104358"/>
<stop offset="0.77"/>
</linearGradient>
<linearGradient id="paint4_linear_599_3540" x1="214.185" y1="228.827" x2="-636.452" y2="-37.2622" gradientUnits="userSpaceOnUse">
<stop offset="0.08" stop-color="#29ABE2"/>
<stop offset="0.21" stop-color="#218DBA"/>
<stop offset="0.49" stop-color="#104358"/>
<stop offset="0.74"/>
</linearGradient>
<linearGradient id="paint5_linear_599_3540" x1="214.078" y1="228.878" x2="1064.32" y2="-38.0654" gradientUnits="userSpaceOnUse">
<stop offset="0.08" stop-color="#29ABE2"/>
<stop offset="0.21" stop-color="#218DBA"/>
<stop offset="0.49" stop-color="#104358"/>
<stop offset="0.74"/>
</linearGradient>
<linearGradient id="paint6_linear_599_3540" x1="214.14" y1="228.806" x2="868.056" y2="-300.186" gradientUnits="userSpaceOnUse">
<stop offset="0.08" stop-color="#29ABE2"/>
<stop offset="0.21" stop-color="#218DBA"/>
<stop offset="0.51" stop-color="#104358"/>
<stop offset="0.76"/>
</linearGradient>
<linearGradient id="paint7_linear_599_3540" x1="214.148" y1="228.858" x2="632.014" y2="-435.908" gradientUnits="userSpaceOnUse">
<stop offset="0.08" stop-color="#29ABE2"/>
<stop offset="0.22" stop-color="#218DBA"/>
<stop offset="0.53" stop-color="#104358"/>
<stop offset="0.79"/>
</linearGradient>
<linearGradient id="paint8_linear_599_3540" x1="214.124" y1="228.858" x2="413.225" y2="-490.036" gradientUnits="userSpaceOnUse">
<stop offset="0.08" stop-color="#29ABE2"/>
<stop offset="0.21" stop-color="#218DBA"/>
<stop offset="0.49" stop-color="#104358"/>
<stop offset="0.74"/>
</linearGradient>
</defs>
</svg>
