<svg width="23" height="23" viewBox="0 0 23 23" fill="none" xmlns="http://www.w3.org/2000/svg">
<g clip-path="url(#clip0_556_3582)">
<path d="M11.0186 17.0154C14.3481 17.0154 17.0338 14.3389 17.0338 11.037C17.0338 7.73507 14.3481 5.05859 11.0186 5.05859C7.68907 5.05859 5.00342 7.73507 5.00342 11.037C5.00342 14.3389 7.68907 17.0154 11.0186 17.0154Z" stroke="white" stroke-width="1.67228" stroke-miterlimit="10" stroke-linecap="round"/>
<path d="M5.14137 12.2968C3.40304 13.888 2.43725 15.286 2.85114 15.9666C3.26503 16.6472 4.93901 16.4725 7.2016 15.6355C8.97672 14.9549 10.6967 14.1087 12.3154 13.1062C13.9526 12.1405 15.4978 11.0184 16.9142 9.7583C18.6985 8.16713 19.6274 6.76911 19.2136 6.0885C18.7997 5.40788 17.1165 5.58263 14.8631 6.4288" stroke="white" stroke-width="1.67228" stroke-miterlimit="10" stroke-linecap="round"/>
</g>
<defs>
<clipPath id="clip0_556_3582">
<rect width="22.074" height="22.074" fill="white"/>
</clipPath>
</defs>
</svg>
