<svg width="170" height="52" viewBox="0 0 170 52" fill="none" xmlns="http://www.w3.org/2000/svg">
<path d="M144.747 26.7471H157.356C164.319 26.7471 169.965 32.3924 169.965 39.3562C169.965 46.32 164.319 51.9653 157.356 51.9653C150.392 51.9653 144.747 46.32 144.747 39.3562V26.7471Z" fill="white"/>
<path d="M118 39.3562C118 32.3924 123.645 26.7471 130.609 26.7471H143.218V39.3562C143.218 46.32 137.573 51.9653 130.609 51.9653C123.645 51.9653 118 46.32 118 39.3562Z" fill="white"/>
<path d="M144.747 12.6091C144.747 5.64529 150.392 0 157.356 0C164.319 0 169.965 5.64529 169.965 12.6091C169.965 19.5729 164.319 25.2182 157.356 25.2182H144.747V12.6091Z" fill="white"/>
<path d="M121.057 14.1374C121.057 8.01765 126.018 3.05664 132.137 3.05664C138.257 3.05664 143.218 8.01765 143.218 14.1374V25.2181H132.137C126.018 25.2181 121.057 20.2571 121.057 14.1374Z" fill="white"/>
<g filter="url(#filter0_d_312_22)">
<path d="M97.6106 27.9616C94.0438 27.9616 92.2604 26.5373 92.2604 23.6888C92.2604 23.3173 92.2727 23.0324 92.2975 22.8343L93.4864 12.0596H96.8303C99.332 12.0596 101.239 12.5921 102.552 13.6572C103.865 14.6975 104.744 16.1589 105.19 18.0414C105.661 19.8991 105.896 22.3141 105.896 25.2865L103.109 28.6675C103.109 25.175 103.023 22.6733 102.849 21.1624C102.676 19.6266 102.156 18.4377 101.289 17.5955C100.422 16.7286 98.9729 16.2951 96.9418 16.2951H95.7157L95.0841 23.3916C95.5795 23.4907 96.7065 23.5402 98.4651 23.5402C99.8027 23.5155 101.066 23.4411 102.255 23.3173C103.469 23.1934 104.298 23.0696 104.744 22.9458V26.8841C104.001 27.1318 102.986 27.3795 101.698 27.6272C100.41 27.8501 99.0472 27.9616 97.6106 27.9616ZM90.4551 32.0628C93.254 31.7656 97.3752 31.1816 99.1339 30.5624C100.893 29.9679 102.218 29.2991 103.109 28.556V24.9521C103.109 24.7539 103.32 24.4691 103.741 24.0975C104.187 23.726 104.596 23.5402 104.967 23.5402C105.586 23.5402 105.896 24.1223 105.896 25.2865C105.896 27.3919 105.661 29.0762 105.19 30.3394C104.744 31.6275 103.592 32.7792 101.735 33.7948C99.9017 34.8351 97.0037 35.6401 93.0406 36.2098L90.4551 32.0628Z" fill="white"/>
<path d="M80.3247 24.2547C81.2906 24.2362 82.3914 24.1531 83.6273 24.0055C84.8631 23.8579 85.7261 23.6431 86.2162 23.3612L85.6093 13.0421L89.2833 12.7857L89.4566 21.8126C89.5037 24.2643 88.7445 26.013 87.179 27.0588C85.6379 28.0794 83.3814 28.6182 80.4096 28.6752L80.3247 24.2547Z" fill="white"/>
<path d="M64.0003 24.5681L65.0775 24.5474C69.2876 24.4666 71.7986 24.2821 72.6106 23.994L72.5428 20.465C72.5295 19.7716 72.4195 19.2039 72.2129 18.7619C72.0305 18.2947 71.6261 17.8813 70.9999 17.5218C69.8222 16.8259 67.6805 15.6036 64.5749 13.8547L65.4281 7.96687L78.1633 3.52315L77.5374 7.6972L67.6811 11.1195L69.1091 11.9467C71.0631 13.0736 72.4428 13.9638 73.2481 14.6172C74.0529 15.2459 74.6378 16.0274 75.0025 16.9618C75.3673 17.8962 75.5663 19.2302 75.5996 20.9637L75.6417 23.1554C75.6712 24.6909 75.2232 25.8762 74.2979 26.7115C73.3725 27.5469 72.083 28.129 70.4295 28.4581C68.7755 28.7623 66.6607 28.9392 64.0851 28.9886L64.0003 24.5681ZM80.3928 28.6755C79.1298 28.6998 78.0514 28.6586 77.1574 28.5519C76.2883 28.4447 75.4508 28.052 74.645 27.3738C73.8388 26.6708 73.4207 25.5392 73.3907 23.979L73.3329 20.9701L75.5989 20.9266L75.6053 21.2609C75.6291 22.4992 76.0289 23.3214 76.8047 23.7277C77.58 24.1092 78.7478 24.285 80.308 24.255L80.6866 24.6193L80.7572 28.2969L80.3928 28.6755Z" fill="white"/>
<path d="M54.2837 29.2885C53.1445 29.3103 51.8905 29.161 50.5218 28.8405C49.1778 28.5194 48.0165 28.0338 47.0379 27.3837C46.0839 26.7332 45.598 25.9373 45.5799 24.9963C45.5675 24.3524 45.7776 23.6794 46.21 22.9775C48.4869 24.1477 51.4732 24.8459 55.1689 25.0723L54.622 14.0088L58.2961 13.7524L58.5 24.3766C58.5319 26.0358 58.2211 27.2681 57.5677 28.0734C56.9138 28.854 55.8191 29.259 54.2837 29.2885ZM28.2678 25.2543L29.4194 25.2322C31.5491 25.1913 33.1291 24.9009 34.1593 24.3608L33.9916 15.6312L37.1863 15.5699L37.2812 20.5105C37.3292 23.0117 36.9943 24.9258 36.2766 26.2526C35.5584 27.5546 34.5473 28.4411 33.2433 28.9121C31.9641 29.3826 30.3339 29.6368 28.3527 29.6749L28.2678 25.2543ZM41.0221 29.5431C39.0656 29.5807 37.5593 29.1884 36.503 28.3664C35.471 27.5191 34.9398 26.303 34.9093 24.718L34.7346 15.6169L37.1863 15.5699L37.3233 22.7022C37.3404 23.5937 37.6373 24.2197 38.214 24.5803C38.8155 24.9403 39.8097 25.1071 41.1965 25.0804L41.0221 29.5431ZM41.0221 29.5431C40.8735 29.546 40.6692 29.2278 40.4092 28.5887C40.1734 27.9243 40.0499 27.2949 40.0385 26.7006C40.0294 26.2301 40.1087 25.8445 40.2764 25.544C40.4688 25.243 40.7507 25.089 41.1222 25.0819C42.0385 25.0643 42.8669 24.9864 43.6075 24.8483C44.3729 24.7098 44.9765 24.5371 45.4185 24.3305L45.2437 15.2294L48.4384 15.168L48.5982 23.489C48.6362 25.4702 47.9465 26.9699 46.5292 27.9881C45.1114 28.9815 43.2757 29.4998 41.0221 29.5431ZM64.0884 28.9887C61.4386 29.0396 59.5605 28.6421 58.4542 27.7963C57.3722 26.9252 56.8131 25.5486 56.777 23.6664L56.6871 18.9859L58.3959 18.9531L58.4109 19.7332C58.4408 21.2934 58.5985 22.4052 58.8837 23.0686C59.169 23.732 59.6726 24.1559 60.3946 24.3402C61.1165 24.5245 62.3195 24.6005 64.0036 24.5682L64.3822 24.9325L64.4528 28.6101L64.0884 28.9887Z" fill="white"/>
<path d="M13.2952 34.9065C7.47547 35.0182 4.51733 32.5604 4.42081 27.5332C4.40417 26.6664 4.52403 23.877 4.78039 19.165L7.68217 19.3323C7.55727 23.1499 7.50505 25.5911 7.52549 26.656C7.5545 28.1667 8.1193 29.1963 9.21989 29.745C10.32 30.2689 11.7368 30.5142 13.4704 30.4809C15.1792 30.4481 16.5881 30.2848 17.6973 29.991C18.8313 29.6967 19.8395 29.3057 20.722 28.8181L19.9069 5.71957L23.5024 5.24176L23.9346 27.7531C23.9636 29.2637 23.4928 30.5486 22.5222 31.6078C21.5515 32.6669 20.2416 33.4725 18.5923 34.0244C16.9678 34.5758 15.2021 34.8698 13.2952 34.9065ZM28.3565 29.6749C27.2668 29.6958 26.3243 29.6396 25.529 29.5062C24.7337 29.3728 24.0074 28.9656 23.3502 28.2845C22.7173 27.5782 22.3863 26.4698 22.3573 24.9591L22.2803 20.9472L23.8034 20.918L23.829 22.2553C23.8523 23.4687 24.2271 24.2791 24.9534 24.6863C25.7039 25.0683 26.81 25.2576 28.2716 25.2543L28.6502 25.6187L28.7208 29.2963L28.3565 29.6749Z" fill="white"/>
<path d="M76.8794 32.0625H89.026L91.884 36.3495H82.8273C80.1287 36.3495 77.7328 34.6227 76.8794 32.0625Z" fill="white"/>
</g>
<path d="M33.6836 49.0078C33.1211 49.0078 32.6602 48.901 32.3008 48.6875C31.944 48.4766 31.6797 48.1888 31.5078 47.8242C31.3385 47.4622 31.2539 47.0534 31.2539 46.5977C31.2539 46.3398 31.2799 46.0638 31.332 45.7695C31.3867 45.4727 31.4753 45.1615 31.5977 44.8359L32.4844 45.1758C32.3906 45.4518 32.319 45.7057 32.2695 45.9375C32.2227 46.1693 32.1992 46.3789 32.1992 46.5664C32.1992 46.8216 32.2435 47.056 32.332 47.2695C32.4232 47.4831 32.5768 47.6536 32.793 47.7812C33.0091 47.9089 33.306 47.9727 33.6836 47.9727C34.0924 47.9727 34.4245 47.9284 34.6797 47.8398C34.9375 47.7513 35.1263 47.651 35.2461 47.5391C35.3659 47.4271 35.4258 47.3359 35.4258 47.2656C35.4258 47.1693 35.3789 47.1003 35.2852 47.0586C35.194 47.0195 35.0482 47 34.8477 47H34.2422C34.1432 47 34.0794 46.974 34.0508 46.9219C34.0247 46.8698 33.9987 46.7995 33.9727 46.7109L33.8203 46.1484C33.7995 46.0833 33.7956 46.0352 33.8086 46.0039C33.8216 45.9701 33.8672 45.9531 33.9453 45.9531H36.2578V47C36.2786 47.0573 36.2917 47.1042 36.2969 47.1406C36.3021 47.1771 36.3047 47.2174 36.3047 47.2617C36.3047 47.4883 36.2474 47.7057 36.1328 47.9141C36.0182 48.125 35.849 48.3125 35.625 48.4766C35.401 48.6406 35.1263 48.7695 34.8008 48.8633C34.4753 48.9596 34.1029 49.0078 33.6836 49.0078ZM40.9961 44.5664C40.8451 44.5664 40.6914 44.6029 40.5352 44.6758C40.3815 44.7487 40.2292 44.849 40.0781 44.9766C39.9271 45.1042 39.7812 45.2513 39.6406 45.418C39.5 45.5846 39.3659 45.7617 39.2383 45.9492H39.6484C39.9323 45.9492 40.1966 45.9388 40.4414 45.918C40.6862 45.8971 40.901 45.8594 41.0859 45.8047C41.2708 45.7474 41.4141 45.6706 41.5156 45.5742C41.6172 45.4753 41.668 45.3503 41.668 45.1992C41.668 45.0091 41.6042 44.8568 41.4766 44.7422C41.3516 44.625 41.1914 44.5664 40.9961 44.5664ZM38.2539 45.8047C38.4388 45.4922 38.6328 45.1992 38.8359 44.9258C39.0417 44.6523 39.2565 44.4115 39.4805 44.2031C39.7044 43.9948 39.9401 43.832 40.1875 43.7148C40.4349 43.5951 40.6953 43.5352 40.9688 43.5352C41.2917 43.5352 41.5781 43.6042 41.8281 43.7422C42.0781 43.8776 42.2734 44.0664 42.4141 44.3086C42.5573 44.5482 42.6289 44.8216 42.6289 45.1289C42.6289 45.4805 42.5547 45.776 42.4062 46.0156C42.2578 46.2552 42.0469 46.4479 41.7734 46.5938C41.5026 46.737 41.1836 46.8411 40.8164 46.9062C40.4492 46.9688 40.0482 47 39.6133 47H39.4062C39.1016 47 38.8307 46.9831 38.5938 46.9492C38.3568 46.9128 38.1497 46.8555 37.9727 46.7773C37.7982 46.6992 37.651 46.599 37.5312 46.4766C37.3828 46.6432 37.2096 46.7721 37.0117 46.8633C36.8164 46.9544 36.569 47 36.2695 47H36.1133L36.1172 45.9492H36.2695C36.5924 45.9492 36.806 45.8828 36.9102 45.75C37.0169 45.6146 37.0703 45.4128 37.0703 45.1445C37.0703 44.9987 37.0664 44.8581 37.0586 44.7227C37.0508 44.5846 37.0417 44.4479 37.0312 44.3125L37.9453 44.2031L38.0156 45.2734C38.026 45.3932 38.0495 45.5091 38.0859 45.6211C38.125 45.7305 38.181 45.7917 38.2539 45.8047ZM43.5 41.5039H44.4883V45.1445C44.4883 45.4388 44.5326 45.6471 44.6211 45.7695C44.7096 45.8893 44.8828 45.9492 45.1406 45.9492H45.2344V47H45.1406C44.5755 47 44.1602 46.8529 43.8945 46.5586C43.6315 46.2643 43.5 45.8177 43.5 45.2188V41.5039ZM49.9727 44.5664C49.8216 44.5664 49.668 44.6029 49.5117 44.6758C49.3581 44.7487 49.2057 44.849 49.0547 44.9766C48.9036 45.1042 48.7578 45.2513 48.6172 45.418C48.4766 45.5846 48.3424 45.7617 48.2148 45.9492H48.625C48.9089 45.9492 49.1732 45.9388 49.418 45.918C49.6628 45.8971 49.8776 45.8594 50.0625 45.8047C50.2474 45.7474 50.3906 45.6706 50.4922 45.5742C50.5938 45.4753 50.6445 45.3503 50.6445 45.1992C50.6445 45.0091 50.5807 44.8568 50.4531 44.7422C50.3281 44.625 50.168 44.5664 49.9727 44.5664ZM48.5898 47H48.3828C48.0781 47 47.8073 46.9831 47.5703 46.9492C47.3333 46.9128 47.1263 46.8555 46.9492 46.7773C46.7747 46.6992 46.6276 46.599 46.5078 46.4766C46.3594 46.6432 46.1862 46.7721 45.9883 46.8633C45.793 46.9544 45.5456 47 45.2461 47H45.0898L45.0938 45.9492H45.2461C45.569 45.9492 45.7826 45.8828 45.8867 45.75C45.9935 45.6146 46.0469 45.4128 46.0469 45.1445C46.0469 44.9987 46.043 44.8581 46.0352 44.7227C46.0273 44.5846 46.0182 44.4479 46.0078 44.3125L46.9219 44.2031L46.9922 45.2734C47.0026 45.3932 47.026 45.5091 47.0625 45.6211C47.1016 45.7305 47.1576 45.7917 47.2305 45.8047C47.418 45.4922 47.6133 45.1992 47.8164 44.9258C48.0195 44.6523 48.2331 44.4115 48.457 44.2031C48.681 43.9948 48.9154 43.832 49.1602 43.7148C49.4076 43.5951 49.6693 43.5352 49.9453 43.5352C50.2682 43.5352 50.5547 43.6042 50.8047 43.7422C51.0547 43.8776 51.25 44.0664 51.3906 44.3086C51.5339 44.5482 51.6055 44.8216 51.6055 45.1289C51.6055 45.2539 51.5898 45.3906 51.5586 45.5391C51.5299 45.6875 51.4831 45.8125 51.418 45.9141C51.4596 45.9219 51.5078 45.9284 51.5625 45.9336C51.6172 45.9388 51.6797 45.9427 51.75 45.9453C51.8229 45.9479 51.9076 45.9492 52.0039 45.9492H52.1172V47H52.0078C51.6927 47 51.4297 46.9609 51.2188 46.8828C51.0078 46.8021 50.8216 46.7044 50.6602 46.5898C50.3971 46.7122 50.0872 46.8112 49.7305 46.8867C49.3763 46.9622 48.9961 47 48.5898 47ZM51.9688 45.9492H52.2461V47H51.9688V45.9492ZM53.6992 42.3047L54.3438 42.9453L53.6992 43.5938L53.0547 42.9453L53.6992 42.3047ZM52.3789 42.3047L53.0312 42.9453L52.3789 43.5938L51.7422 42.9453L52.3789 42.3047ZM53.2617 44.3086L54.1758 44.1992L54.2539 45.2773C54.2617 45.4128 54.2891 45.5312 54.3359 45.6328C54.3854 45.7344 54.457 45.8125 54.5508 45.8672C54.6445 45.9219 54.7643 45.9492 54.9102 45.9492H54.9883V47H54.9023C54.7253 47 54.5664 46.9779 54.4258 46.9336C54.2852 46.8893 54.1615 46.8281 54.0547 46.75C53.9479 46.6719 53.8555 46.5807 53.7773 46.4766C53.6237 46.6432 53.4362 46.7721 53.2148 46.8633C52.9961 46.9544 52.763 47 52.5156 47H52.1445V45.9492H52.5156C52.8099 45.9492 53.0143 45.8828 53.1289 45.75C53.2435 45.6172 53.3008 45.4154 53.3008 45.1445C53.3008 44.9987 53.2969 44.8568 53.2891 44.7188C53.2839 44.5781 53.2747 44.4414 53.2617 44.3086ZM57.2695 41.5703L57.9453 42.2461L57.2695 42.9219L56.5938 42.2461L57.2695 41.5703ZM54.8438 45.9492H55.5C55.8516 45.9492 56.181 45.9102 56.4883 45.832C56.7982 45.7539 57.112 45.6445 57.4297 45.5039C57.75 45.3607 58.0977 45.1927 58.4727 45C58.3763 44.9583 58.2682 44.9141 58.1484 44.8672C58.0312 44.8203 57.9141 44.7747 57.7969 44.7305C57.6823 44.6836 57.5807 44.6445 57.4922 44.6133C57.401 44.5768 57.319 44.5469 57.2461 44.5234C57.1758 44.4974 57.1146 44.4779 57.0625 44.4648C57.013 44.4518 56.9727 44.4453 56.9414 44.4453C56.7956 44.4453 56.6562 44.4909 56.5234 44.582C56.3932 44.6706 56.2891 44.7656 56.2109 44.8672L56.0234 45.1016L55.2031 44.6992L55.3555 44.4531C55.5352 44.1562 55.7604 43.9115 56.0312 43.7188C56.3021 43.526 56.6068 43.4297 56.9453 43.4297C57.1771 43.4297 57.3984 43.4714 57.6094 43.5547C57.8229 43.6354 58.0378 43.7292 58.2539 43.8359C58.4857 43.9505 58.6875 44.0456 58.8594 44.1211C59.0312 44.194 59.1849 44.2539 59.3203 44.3008C59.4583 44.3451 59.5924 44.3789 59.7227 44.4023C59.8529 44.4232 59.9935 44.4375 60.1445 44.4453V45.4102C59.9648 45.4336 59.7917 45.4753 59.625 45.5352C59.4583 45.5924 59.2799 45.668 59.0898 45.7617C58.8997 45.8555 58.681 45.9688 58.4336 46.1016C58.1003 46.2786 57.7799 46.4349 57.4727 46.5703C57.168 46.7057 56.8555 46.8112 56.5352 46.8867C56.2174 46.9622 55.8685 47 55.4883 47H54.8438V45.9492ZM61.9609 41.5039V46.9961H60.9688V41.5039H61.9609ZM68.8398 42.8047L69.4844 43.4453L68.8398 44.0938L68.1953 43.4453L68.8398 42.8047ZM67.5195 42.8047L68.1719 43.4453L67.5195 44.0938L66.8828 43.4453L67.5195 42.8047ZM70.3672 44.2891L71.2852 44.1758L71.3672 45.2578C71.3802 45.4661 71.4362 45.6341 71.5352 45.7617C71.6341 45.8867 71.7943 45.9492 72.0156 45.9492H72.1016V47H72.0156C71.7188 47 71.4714 46.9453 71.2734 46.8359C71.0781 46.7266 70.9167 46.5703 70.7891 46.3672C70.6328 46.5156 70.4544 46.6367 70.2539 46.7305C70.0534 46.8242 69.8177 46.8932 69.5469 46.9375C69.276 46.9792 68.9557 47 68.5859 47H67.9336C67.4753 47 67.0573 46.9661 66.6797 46.8984C66.3021 46.8281 65.9766 46.7148 65.7031 46.5586C65.4297 46.4023 65.2188 46.194 65.0703 45.9336C64.9219 45.6732 64.8477 45.3516 64.8477 44.9688C64.8477 44.7448 64.8724 44.5273 64.9219 44.3164C64.974 44.1029 65.0378 43.9036 65.1133 43.7188L65.9883 44.0508C65.944 44.1706 65.901 44.3086 65.8594 44.4648C65.8177 44.6185 65.7969 44.7669 65.7969 44.9102C65.7969 45.1185 65.8503 45.2904 65.957 45.4258C66.0664 45.5586 66.2174 45.6641 66.4102 45.7422C66.6055 45.8177 66.832 45.8711 67.0898 45.9023C67.3503 45.9336 67.6315 45.9492 67.9336 45.9492H68.5859C68.9714 45.9492 69.2995 45.9245 69.5703 45.875C69.8411 45.8255 70.0482 45.7409 70.1914 45.6211C70.3346 45.4987 70.4062 45.3333 70.4062 45.125C70.4062 44.9974 70.4023 44.8568 70.3945 44.7031C70.3867 44.5469 70.3776 44.4089 70.3672 44.2891ZM71.9453 45.9492H72.2578V47H71.9453V45.9492ZM73.3672 47.5234L74.0117 48.1641L73.3672 48.8125L72.7227 48.1641L73.3672 47.5234ZM72.0469 47.5234L72.6992 48.1641L72.0469 48.8125L71.4102 48.1641L72.0469 47.5234ZM72.6016 47H72.168V45.9492H72.5938C72.8464 45.9492 73.0312 45.9036 73.1484 45.8125C73.2682 45.7188 73.3281 45.5482 73.3281 45.3008C73.3281 45.1576 73.3125 44.9714 73.2812 44.7422C73.2526 44.513 73.2018 44.2578 73.1289 43.9766L74.0742 43.7227C74.1393 43.9779 74.1875 44.2292 74.2188 44.4766C74.2526 44.7214 74.2695 44.9557 74.2695 45.1797C74.2695 45.5443 74.2174 45.8633 74.1133 46.1367C74.0091 46.4076 73.8359 46.6198 73.5938 46.7734C73.3516 46.9245 73.0208 47 72.6016 47ZM75.1406 41.5039H76.1289V45.1445C76.1289 45.4388 76.1732 45.6471 76.2617 45.7695C76.3503 45.8893 76.5234 45.9492 76.7812 45.9492H76.875V47H76.7812C76.2161 47 75.8008 46.8529 75.5352 46.5586C75.2721 46.2643 75.1406 45.8177 75.1406 45.2188V41.5039ZM79.4102 47C79.1393 47 78.9154 46.9544 78.7383 46.8633C78.5638 46.7695 78.4219 46.6445 78.3125 46.4883C78.1719 46.6471 77.9974 46.7721 77.7891 46.8633C77.5807 46.9544 77.3203 47 77.0078 47H76.7344V45.9492H77.0156C77.3099 45.9492 77.5273 45.8958 77.668 45.7891C77.8086 45.6797 77.8789 45.4844 77.8789 45.2031C77.8789 45.1615 77.8763 45.099 77.8711 45.0156C77.8659 44.9323 77.8594 44.8385 77.8516 44.7344C77.8464 44.6302 77.8398 44.5286 77.832 44.4297L78.7461 44.3164L78.8281 45.3086C78.8359 45.4284 78.862 45.5378 78.9062 45.6367C78.9531 45.7331 79.0182 45.8099 79.1016 45.8672C79.1875 45.9219 79.293 45.9492 79.418 45.9492C79.6471 45.9492 79.8099 45.8854 79.9062 45.7578C80.0026 45.6276 80.0508 45.4427 80.0508 45.2031C80.0508 45.1641 80.0482 45.1029 80.043 45.0195C80.0404 44.9336 80.0352 44.8385 80.0273 44.7344C80.0195 44.6302 80.0117 44.5286 80.0039 44.4297L80.918 44.3164L81 45.3086C81.0078 45.4206 81.0299 45.526 81.0664 45.625C81.1029 45.724 81.1576 45.8034 81.2305 45.8633C81.306 45.9206 81.4023 45.9492 81.5195 45.9492C81.6289 45.9492 81.7161 45.918 81.7812 45.8555C81.8464 45.7904 81.8932 45.7057 81.9219 45.6016C81.9505 45.4948 81.9648 45.3789 81.9648 45.2539C81.9648 45.0768 81.9427 44.875 81.8984 44.6484C81.8542 44.4193 81.8073 44.2057 81.7578 44.0078L82.7031 43.7578C82.7656 43.9896 82.8138 44.2227 82.8477 44.457C82.8815 44.6888 82.8984 44.9206 82.8984 45.1523C82.8984 45.4857 82.8555 45.793 82.7695 46.0742C82.6836 46.3529 82.5417 46.5768 82.3438 46.7461C82.1458 46.9128 81.875 46.9974 81.5312 47C81.2917 47 81.0898 46.9518 80.9258 46.8555C80.7617 46.7565 80.6263 46.6315 80.5195 46.4805C80.3841 46.6367 80.2214 46.763 80.0312 46.8594C79.8411 46.9531 79.6341 47 79.4102 47ZM88.0195 49.0078C87.457 49.0078 86.9961 48.901 86.6367 48.6875C86.2799 48.4766 86.0156 48.1888 85.8438 47.8242C85.6745 47.4622 85.5898 47.0534 85.5898 46.5977C85.5898 46.3398 85.6159 46.0638 85.668 45.7695C85.7227 45.4727 85.8112 45.1615 85.9336 44.8359L86.8203 45.1758C86.7266 45.4518 86.6549 45.7057 86.6055 45.9375C86.5586 46.1693 86.5352 46.3789 86.5352 46.5664C86.5352 46.8216 86.5794 47.056 86.668 47.2695C86.7591 47.4831 86.9128 47.6536 87.1289 47.7812C87.3451 47.9089 87.6419 47.9727 88.0195 47.9727C88.4284 47.9727 88.7604 47.9284 89.0156 47.8398C89.2734 47.7513 89.4622 47.651 89.582 47.5391C89.7018 47.4271 89.7617 47.3359 89.7617 47.2656C89.7617 47.1693 89.7148 47.1003 89.6211 47.0586C89.5299 47.0195 89.3841 47 89.1836 47H88.5781C88.4792 47 88.4154 46.974 88.3867 46.9219C88.3607 46.8698 88.3346 46.7995 88.3086 46.7109L88.1562 46.1484C88.1354 46.0833 88.1315 46.0352 88.1445 46.0039C88.1576 45.9701 88.2031 45.9531 88.2812 45.9531H90.5938V47C90.6146 47.0573 90.6276 47.1042 90.6328 47.1406C90.638 47.1771 90.6406 47.2174 90.6406 47.2617C90.6406 47.4883 90.5833 47.7057 90.4688 47.9141C90.3542 48.125 90.1849 48.3125 89.9609 48.4766C89.737 48.6406 89.4622 48.7695 89.1367 48.8633C88.8112 48.9596 88.4388 49.0078 88.0195 49.0078ZM90.4531 45.9492H91.1094C91.4609 45.9492 91.7904 45.9102 92.0977 45.832C92.4076 45.7539 92.7214 45.6445 93.0391 45.5039C93.3594 45.3607 93.707 45.1927 94.082 45C93.9857 44.9583 93.8776 44.9141 93.7578 44.8672C93.6406 44.8203 93.5234 44.7747 93.4062 44.7305C93.2917 44.6836 93.1901 44.6445 93.1016 44.6133C93.0104 44.5768 92.9284 44.5469 92.8555 44.5234C92.7852 44.4974 92.724 44.4779 92.6719 44.4648C92.6224 44.4518 92.582 44.4453 92.5508 44.4453C92.4049 44.4453 92.2656 44.4909 92.1328 44.582C92.0026 44.6706 91.8984 44.7656 91.8203 44.8672L91.6328 45.1016L90.8125 44.6992L90.9648 44.4531C91.1445 44.1562 91.3698 43.9115 91.6406 43.7188C91.9115 43.526 92.2161 43.4297 92.5547 43.4297C92.7865 43.4297 93.0078 43.4714 93.2188 43.5547C93.4323 43.6354 93.6471 43.7292 93.8633 43.8359C94.0951 43.9505 94.2969 44.0456 94.4688 44.1211C94.6406 44.194 94.7943 44.2539 94.9297 44.3008C95.0677 44.3451 95.2018 44.3789 95.332 44.4023C95.4622 44.4232 95.6029 44.4375 95.7539 44.4453V45.4102C95.5742 45.4336 95.401 45.4753 95.2344 45.5352C95.0677 45.5924 94.8893 45.668 94.6992 45.7617C94.5091 45.8555 94.2904 45.9688 94.043 46.1016C93.7096 46.2786 93.3893 46.4349 93.082 46.5703C92.7773 46.7057 92.4648 46.8112 92.1445 46.8867C91.8268 46.9622 91.4779 47 91.0977 47H90.4531V45.9492ZM97.5703 41.5039V46.9961H96.5781V41.5039H97.5703ZM100.672 47C100.547 47 100.431 46.9857 100.324 46.957C100.217 46.9284 100.129 46.8919 100.059 46.8477C99.9961 47.2357 99.8672 47.5846 99.6719 47.8945C99.4766 48.2044 99.2148 48.4635 98.8867 48.6719C98.5612 48.8828 98.1693 49.0339 97.7109 49.125L97.3516 48.1641C97.737 48.0781 98.0638 47.9635 98.332 47.8203C98.6029 47.6797 98.8086 47.4935 98.9492 47.2617C99.0898 47.0299 99.1602 46.7409 99.1602 46.3945C99.1602 46.1602 99.125 45.8997 99.0547 45.6133C98.987 45.3268 98.9102 45.0573 98.8242 44.8047L99.793 44.4844L100.02 45.3555C100.066 45.5352 100.135 45.6797 100.227 45.7891C100.32 45.8958 100.454 45.9492 100.629 45.9492H100.777V47H100.672ZM104.031 44.5664C103.88 44.5664 103.727 44.6029 103.57 44.6758C103.417 44.7487 103.264 44.849 103.113 44.9766C102.962 45.1042 102.816 45.2513 102.676 45.418C102.535 45.5846 102.401 45.7617 102.273 45.9492H102.684C102.967 45.9492 103.232 45.9388 103.477 45.918C103.721 45.8971 103.936 45.8594 104.121 45.8047C104.306 45.7474 104.449 45.6706 104.551 45.5742C104.652 45.4753 104.703 45.3503 104.703 45.1992C104.703 45.0091 104.639 44.8568 104.512 44.7422C104.387 44.625 104.227 44.5664 104.031 44.5664ZM101.203 45.9492C101.242 45.8867 101.28 45.8281 101.316 45.7734C101.353 45.7161 101.392 45.6576 101.434 45.5977V41.5039H102.422V44.3398C102.547 44.2122 102.671 44.099 102.793 44C102.918 43.901 103.046 43.8177 103.176 43.75C103.306 43.6797 103.439 43.6263 103.574 43.5898C103.71 43.5534 103.852 43.5352 104 43.5352C104.326 43.5352 104.613 43.6042 104.863 43.7422C105.113 43.8776 105.309 44.0651 105.449 44.3047C105.592 44.5443 105.664 44.819 105.664 45.1289C105.664 45.4805 105.589 45.776 105.438 46.0156C105.289 46.2552 105.079 46.4479 104.809 46.5938C104.538 46.737 104.219 46.8411 103.852 46.9062C103.484 46.9688 103.083 47 102.648 47H100.633V45.9492H101.203Z" fill="#E4E6EB"/>
<defs>
<filter id="filter0_d_312_22" x="0.419189" y="3.52344" width="109.477" height="40.8262" filterUnits="userSpaceOnUse" color-interpolation-filters="sRGB">
<feFlood flood-opacity="0" result="BackgroundImageFix"/>
<feColorMatrix in="SourceAlpha" type="matrix" values="0 0 0 0 0 0 0 0 0 0 0 0 0 0 0 0 0 0 127 0" result="hardAlpha"/>
<feOffset dy="4"/>
<feGaussianBlur stdDeviation="2"/>
<feComposite in2="hardAlpha" operator="out"/>
<feColorMatrix type="matrix" values="0 0 0 0 0.484945 0 0 0 0 0.456885 0 0 0 0 0.456885 0 0 0 0.25 0"/>
<feBlend mode="normal" in2="BackgroundImageFix" result="effect1_dropShadow_312_22"/>
<feBlend mode="normal" in="SourceGraphic" in2="effect1_dropShadow_312_22" result="shape"/>
</filter>
</defs>
</svg>
