<svg width="197" height="106" viewBox="0 0 197 106" fill="none" xmlns="http://www.w3.org/2000/svg">
<g filter="url(#filter0_d_312_22)">
<path d="M144.747 49.7471H157.356C164.319 49.7471 169.965 55.3924 169.965 62.3562V62.3562C169.965 69.32 164.319 74.9653 157.356 74.9653V74.9653C150.392 74.9653 144.747 69.32 144.747 62.3562V49.7471Z" fill="white"/>
<path d="M118 62.3562C118 55.3924 123.645 49.7471 130.609 49.7471H143.218V62.3562C143.218 69.32 137.573 74.9653 130.609 74.9653V74.9653C123.645 74.9653 118 69.32 118 62.3562V62.3562Z" fill="white"/>
<path d="M144.747 35.6091C144.747 28.6453 150.392 23 157.356 23V23C164.319 23 169.965 28.6453 169.965 35.6091V35.6091C169.965 42.5729 164.319 48.2182 157.356 48.2182H144.747V35.6091Z" fill="white"/>
<path d="M121.057 37.1374C121.057 31.0177 126.018 26.0566 132.137 26.0566V26.0566C138.257 26.0566 143.218 31.0177 143.218 37.1374V48.2181H132.137C126.018 48.2181 121.057 43.2571 121.057 37.1374V37.1374Z" fill="white"/>
</g>
<g filter="url(#filter1_d_312_22)">
<path d="M97.6106 50.9616C94.0438 50.9616 92.2604 49.5373 92.2604 46.6888C92.2604 46.3173 92.2727 46.0324 92.2975 45.8343L93.4864 35.0596H96.8303C99.332 35.0596 101.239 35.5921 102.552 36.6572C103.865 37.6975 104.744 39.1589 105.19 41.0414C105.661 42.8991 105.896 45.3141 105.896 48.2865L103.109 51.6675C103.109 48.175 103.023 45.6733 102.849 44.1624C102.676 42.6266 102.156 41.4377 101.289 40.5955C100.422 39.7286 98.9729 39.2952 96.9418 39.2952H95.7157L95.0841 46.3916C95.5795 46.4907 96.7065 46.5402 98.4651 46.5402C99.8027 46.5155 101.066 46.4411 102.255 46.3173C103.469 46.1934 104.298 46.0696 104.744 45.9458V49.8841C104.001 50.1318 102.986 50.3795 101.698 50.6272C100.41 50.8501 99.0472 50.9616 97.6106 50.9616ZM90.4551 55.0628C93.254 54.7656 97.3752 54.1816 99.1339 53.5624C100.893 52.9679 102.218 52.2991 103.109 51.556V47.9521C103.109 47.7539 103.32 47.4691 103.741 47.0975C104.187 46.726 104.596 46.5402 104.967 46.5402C105.586 46.5402 105.896 47.1223 105.896 48.2865C105.896 50.3919 105.661 52.0762 105.19 53.3394C104.744 54.6275 103.592 55.7792 101.735 56.7948C99.9017 57.8351 97.0037 58.6401 93.0406 59.2098L90.4551 55.0628Z" fill="white"/>
<path d="M80.3247 47.2547C81.2906 47.2362 82.3914 47.1531 83.6273 47.0055C84.8631 46.8579 85.7261 46.6431 86.2162 46.3612L85.6093 36.0421L89.2833 35.7857L89.4566 44.8126C89.5037 47.2643 88.7445 49.013 87.179 50.0588C85.6379 51.0794 83.3814 51.6182 80.4096 51.6752L80.3247 47.2547Z" fill="white"/>
<path d="M64.0003 47.5681L65.0775 47.5474C69.2876 47.4666 71.7986 47.2821 72.6106 46.994L72.5428 43.465C72.5295 42.7716 72.4195 42.2039 72.2129 41.7619C72.0305 41.2947 71.6261 40.8813 70.9999 40.5218C69.8222 39.8259 67.6805 38.6036 64.5749 36.8547L65.4281 30.9669L78.1633 26.5231L77.5374 30.6972L67.6811 34.1195L69.1091 34.9467C71.0631 36.0736 72.4428 36.9638 73.2481 37.6172C74.0529 38.2459 74.6378 39.0274 75.0025 39.9618C75.3673 40.8962 75.5663 42.2302 75.5996 43.9637L75.6417 46.1554C75.6712 47.6909 75.2232 48.8762 74.2979 49.7115C73.3725 50.5469 72.083 51.129 70.4295 51.4581C68.7755 51.7623 66.6607 51.9392 64.0851 51.9886L64.0003 47.5681ZM80.3928 51.6755C79.1298 51.6998 78.0514 51.6586 77.1574 51.5519C76.2883 51.4447 75.4508 51.052 74.645 50.3738C73.8388 49.6708 73.4207 48.5392 73.3907 46.979L73.3329 43.9701L75.5989 43.9266L75.6053 44.2609C75.6291 45.4992 76.0289 46.3214 76.8047 46.7277C77.58 47.1092 78.7478 47.285 80.308 47.255L80.6866 47.6193L80.7572 51.2969L80.3928 51.6755Z" fill="white"/>
<path d="M54.2837 52.2885C53.1445 52.3103 51.8905 52.161 50.5218 51.8405C49.1778 51.5194 48.0165 51.0338 47.0379 50.3837C46.084 49.7332 45.598 48.9373 45.5799 47.9963C45.5675 47.3524 45.7776 46.6794 46.21 45.9775C48.4869 47.1477 51.4732 47.8459 55.1689 48.0723L54.622 37.0088L58.2961 36.7524L58.5 47.3766C58.5319 49.0358 58.2211 50.2681 57.5677 51.0734C56.9138 51.854 55.8191 52.259 54.2837 52.2885ZM28.2678 48.2543L29.4194 48.2322C31.5491 48.1913 33.1291 47.9009 34.1593 47.3608L33.9916 38.6312L37.1863 38.5699L37.2812 43.5105C37.3292 46.0117 36.9943 47.9258 36.2766 49.2526C35.5584 50.5546 34.5473 51.4411 33.2433 51.9121C31.9641 52.3826 30.3339 52.6368 28.3527 52.6749L28.2678 48.2543ZM41.0221 52.5431C39.0656 52.5807 37.5593 52.1884 36.503 51.3664C35.471 50.5191 34.9398 49.303 34.9093 47.718L34.7346 38.6169L37.1863 38.5699L37.3233 45.7022C37.3404 46.5937 37.6373 47.2197 38.214 47.5803C38.8155 47.9403 39.8097 48.1071 41.1965 48.0804L41.0221 52.5431ZM41.0221 52.5431C40.8735 52.546 40.6692 52.2278 40.4092 51.5887C40.1734 50.9243 40.0499 50.2949 40.0385 49.7006C40.0294 49.2301 40.1087 48.8445 40.2764 48.544C40.4688 48.243 40.7507 48.089 41.1222 48.0819C42.0385 48.0643 42.8669 47.9864 43.6075 47.8483C44.3729 47.7098 44.9765 47.5371 45.4185 47.3305L45.2437 38.2294L48.4384 38.168L48.5982 46.489C48.6362 48.4702 47.9465 49.9699 46.5292 50.9881C45.1114 51.9815 43.2757 52.4998 41.0221 52.5431ZM64.0884 51.9887C61.4386 52.0396 59.5605 51.6421 58.4542 50.7963C57.3722 49.9252 56.8131 48.5486 56.777 46.6664L56.6871 41.9859L58.3959 41.9531L58.4109 42.7332C58.4408 44.2934 58.5985 45.4052 58.8837 46.0686C59.169 46.732 59.6726 47.1559 60.3946 47.3402C61.1165 47.5245 62.3195 47.6005 64.0036 47.5682L64.3822 47.9325L64.4528 51.6101L64.0884 51.9887Z" fill="white"/>
<path d="M13.2952 57.9065C7.47547 58.0182 4.51733 55.5604 4.42081 50.5332C4.40417 49.6664 4.52403 46.877 4.78039 42.165L7.68217 42.3323C7.55727 46.1499 7.50505 48.5911 7.52549 49.656C7.5545 51.1667 8.1193 52.1963 9.21989 52.745C10.32 53.2689 11.7368 53.5142 13.4704 53.4809C15.1792 53.4481 16.5881 53.2848 17.6973 52.991C18.8313 52.6967 19.8395 52.3057 20.722 51.8181L19.9069 28.7196L23.5024 28.2418L23.9346 50.7531C23.9636 52.2637 23.4928 53.5486 22.5222 54.6078C21.5515 55.6669 20.2416 56.4725 18.5923 57.0244C16.9678 57.5758 15.2021 57.8698 13.2952 57.9065ZM28.3565 52.6749C27.2668 52.6958 26.3243 52.6396 25.529 52.5062C24.7337 52.3728 24.0074 51.9656 23.3502 51.2845C22.7173 50.5782 22.3863 49.4698 22.3573 47.9591L22.2803 43.9472L23.8034 43.918L23.829 45.2553C23.8523 46.4687 24.2271 47.2791 24.9534 47.6863C25.7039 48.0683 26.81 48.2576 28.2716 48.2543L28.6502 48.6187L28.7208 52.2963L28.3565 52.6749Z" fill="white"/>
<path d="M76.8794 55.0625H89.026L91.884 59.3495H82.8273C80.1287 59.3495 77.7328 57.6227 76.8794 55.0625V55.0625Z" fill="white"/>
</g>
<path d="M33.6836 72.0078C33.1211 72.0078 32.6602 71.901 32.3008 71.6875C31.944 71.4766 31.6797 71.1888 31.5078 70.8242C31.3385 70.4622 31.2539 70.0534 31.2539 69.5977C31.2539 69.3398 31.2799 69.0638 31.332 68.7695C31.3867 68.4727 31.4753 68.1615 31.5977 67.8359L32.4844 68.1758C32.3906 68.4518 32.319 68.7057 32.2695 68.9375C32.2227 69.1693 32.1992 69.3789 32.1992 69.5664C32.1992 69.8216 32.2435 70.056 32.332 70.2695C32.4232 70.4831 32.5768 70.6536 32.793 70.7812C33.0091 70.9089 33.306 70.9727 33.6836 70.9727C34.0924 70.9727 34.4245 70.9284 34.6797 70.8398C34.9375 70.7513 35.1263 70.651 35.2461 70.5391C35.3659 70.4271 35.4258 70.3359 35.4258 70.2656C35.4258 70.1693 35.3789 70.1003 35.2852 70.0586C35.194 70.0195 35.0482 70 34.8477 70H34.2422C34.1432 70 34.0794 69.974 34.0508 69.9219C34.0247 69.8698 33.9987 69.7995 33.9727 69.7109L33.8203 69.1484C33.7995 69.0833 33.7956 69.0352 33.8086 69.0039C33.8216 68.9701 33.8672 68.9531 33.9453 68.9531H36.2578V70C36.2786 70.0573 36.2917 70.1042 36.2969 70.1406C36.3021 70.1771 36.3047 70.2174 36.3047 70.2617C36.3047 70.4883 36.2474 70.7057 36.1328 70.9141C36.0182 71.125 35.849 71.3125 35.625 71.4766C35.401 71.6406 35.1263 71.7695 34.8008 71.8633C34.4753 71.9596 34.1029 72.0078 33.6836 72.0078ZM40.9961 67.5664C40.8451 67.5664 40.6914 67.6029 40.5352 67.6758C40.3815 67.7487 40.2292 67.849 40.0781 67.9766C39.9271 68.1042 39.7812 68.2513 39.6406 68.418C39.5 68.5846 39.3659 68.7617 39.2383 68.9492H39.6484C39.9323 68.9492 40.1966 68.9388 40.4414 68.918C40.6862 68.8971 40.901 68.8594 41.0859 68.8047C41.2708 68.7474 41.4141 68.6706 41.5156 68.5742C41.6172 68.4753 41.668 68.3503 41.668 68.1992C41.668 68.0091 41.6042 67.8568 41.4766 67.7422C41.3516 67.625 41.1914 67.5664 40.9961 67.5664ZM38.2539 68.8047C38.4388 68.4922 38.6328 68.1992 38.8359 67.9258C39.0417 67.6523 39.2565 67.4115 39.4805 67.2031C39.7044 66.9948 39.9401 66.832 40.1875 66.7148C40.4349 66.5951 40.6953 66.5352 40.9688 66.5352C41.2917 66.5352 41.5781 66.6042 41.8281 66.7422C42.0781 66.8776 42.2734 67.0664 42.4141 67.3086C42.5573 67.5482 42.6289 67.8216 42.6289 68.1289C42.6289 68.4805 42.5547 68.776 42.4062 69.0156C42.2578 69.2552 42.0469 69.4479 41.7734 69.5938C41.5026 69.737 41.1836 69.8411 40.8164 69.9062C40.4492 69.9688 40.0482 70 39.6133 70H39.4062C39.1016 70 38.8307 69.9831 38.5938 69.9492C38.3568 69.9128 38.1497 69.8555 37.9727 69.7773C37.7982 69.6992 37.651 69.599 37.5312 69.4766C37.3828 69.6432 37.2096 69.7721 37.0117 69.8633C36.8164 69.9544 36.569 70 36.2695 70H36.1133L36.1172 68.9492H36.2695C36.5924 68.9492 36.806 68.8828 36.9102 68.75C37.0169 68.6146 37.0703 68.4128 37.0703 68.1445C37.0703 67.9987 37.0664 67.8581 37.0586 67.7227C37.0508 67.5846 37.0417 67.4479 37.0312 67.3125L37.9453 67.2031L38.0156 68.2734C38.026 68.3932 38.0495 68.5091 38.0859 68.6211C38.125 68.7305 38.181 68.7917 38.2539 68.8047ZM43.5 64.5039H44.4883V68.1445C44.4883 68.4388 44.5326 68.6471 44.6211 68.7695C44.7096 68.8893 44.8828 68.9492 45.1406 68.9492H45.2344V70H45.1406C44.5755 70 44.1602 69.8529 43.8945 69.5586C43.6315 69.2643 43.5 68.8177 43.5 68.2188V64.5039ZM49.9727 67.5664C49.8216 67.5664 49.668 67.6029 49.5117 67.6758C49.3581 67.7487 49.2057 67.849 49.0547 67.9766C48.9036 68.1042 48.7578 68.2513 48.6172 68.418C48.4766 68.5846 48.3424 68.7617 48.2148 68.9492H48.625C48.9089 68.9492 49.1732 68.9388 49.418 68.918C49.6628 68.8971 49.8776 68.8594 50.0625 68.8047C50.2474 68.7474 50.3906 68.6706 50.4922 68.5742C50.5938 68.4753 50.6445 68.3503 50.6445 68.1992C50.6445 68.0091 50.5807 67.8568 50.4531 67.7422C50.3281 67.625 50.168 67.5664 49.9727 67.5664ZM48.5898 70H48.3828C48.0781 70 47.8073 69.9831 47.5703 69.9492C47.3333 69.9128 47.1263 69.8555 46.9492 69.7773C46.7747 69.6992 46.6276 69.599 46.5078 69.4766C46.3594 69.6432 46.1862 69.7721 45.9883 69.8633C45.793 69.9544 45.5456 70 45.2461 70H45.0898L45.0938 68.9492H45.2461C45.569 68.9492 45.7826 68.8828 45.8867 68.75C45.9935 68.6146 46.0469 68.4128 46.0469 68.1445C46.0469 67.9987 46.043 67.8581 46.0352 67.7227C46.0273 67.5846 46.0182 67.4479 46.0078 67.3125L46.9219 67.2031L46.9922 68.2734C47.0026 68.3932 47.026 68.5091 47.0625 68.6211C47.1016 68.7305 47.1576 68.7917 47.2305 68.8047C47.418 68.4922 47.6133 68.1992 47.8164 67.9258C48.0195 67.6523 48.2331 67.4115 48.457 67.2031C48.681 66.9948 48.9154 66.832 49.1602 66.7148C49.4076 66.5951 49.6693 66.5352 49.9453 66.5352C50.2682 66.5352 50.5547 66.6042 50.8047 66.7422C51.0547 66.8776 51.25 67.0664 51.3906 67.3086C51.5339 67.5482 51.6055 67.8216 51.6055 68.1289C51.6055 68.2539 51.5898 68.3906 51.5586 68.5391C51.5299 68.6875 51.4831 68.8125 51.418 68.9141C51.4596 68.9219 51.5078 68.9284 51.5625 68.9336C51.6172 68.9388 51.6797 68.9427 51.75 68.9453C51.8229 68.9479 51.9076 68.9492 52.0039 68.9492H52.1172V70H52.0078C51.6927 70 51.4297 69.9609 51.2188 69.8828C51.0078 69.8021 50.8216 69.7044 50.6602 69.5898C50.3971 69.7122 50.0872 69.8112 49.7305 69.8867C49.3763 69.9622 48.9961 70 48.5898 70ZM51.9688 68.9492H52.2461V70H51.9688V68.9492ZM53.6992 65.3047L54.3438 65.9453L53.6992 66.5938L53.0547 65.9453L53.6992 65.3047ZM52.3789 65.3047L53.0312 65.9453L52.3789 66.5938L51.7422 65.9453L52.3789 65.3047ZM53.2617 67.3086L54.1758 67.1992L54.2539 68.2773C54.2617 68.4128 54.2891 68.5312 54.3359 68.6328C54.3854 68.7344 54.457 68.8125 54.5508 68.8672C54.6445 68.9219 54.7643 68.9492 54.9102 68.9492H54.9883V70H54.9023C54.7253 70 54.5664 69.9779 54.4258 69.9336C54.2852 69.8893 54.1615 69.8281 54.0547 69.75C53.9479 69.6719 53.8555 69.5807 53.7773 69.4766C53.6237 69.6432 53.4362 69.7721 53.2148 69.8633C52.9961 69.9544 52.763 70 52.5156 70H52.1445V68.9492H52.5156C52.8099 68.9492 53.0143 68.8828 53.1289 68.75C53.2435 68.6172 53.3008 68.4154 53.3008 68.1445C53.3008 67.9987 53.2969 67.8568 53.2891 67.7188C53.2839 67.5781 53.2747 67.4414 53.2617 67.3086ZM57.2695 64.5703L57.9453 65.2461L57.2695 65.9219L56.5938 65.2461L57.2695 64.5703ZM54.8438 68.9492H55.5C55.8516 68.9492 56.181 68.9102 56.4883 68.832C56.7982 68.7539 57.112 68.6445 57.4297 68.5039C57.75 68.3607 58.0977 68.1927 58.4727 68C58.3763 67.9583 58.2682 67.9141 58.1484 67.8672C58.0312 67.8203 57.9141 67.7747 57.7969 67.7305C57.6823 67.6836 57.5807 67.6445 57.4922 67.6133C57.401 67.5768 57.319 67.5469 57.2461 67.5234C57.1758 67.4974 57.1146 67.4779 57.0625 67.4648C57.013 67.4518 56.9727 67.4453 56.9414 67.4453C56.7956 67.4453 56.6562 67.4909 56.5234 67.582C56.3932 67.6706 56.2891 67.7656 56.2109 67.8672L56.0234 68.1016L55.2031 67.6992L55.3555 67.4531C55.5352 67.1562 55.7604 66.9115 56.0312 66.7188C56.3021 66.526 56.6068 66.4297 56.9453 66.4297C57.1771 66.4297 57.3984 66.4714 57.6094 66.5547C57.8229 66.6354 58.0378 66.7292 58.2539 66.8359C58.4857 66.9505 58.6875 67.0456 58.8594 67.1211C59.0312 67.194 59.1849 67.2539 59.3203 67.3008C59.4583 67.3451 59.5924 67.3789 59.7227 67.4023C59.8529 67.4232 59.9935 67.4375 60.1445 67.4453V68.4102C59.9648 68.4336 59.7917 68.4753 59.625 68.5352C59.4583 68.5924 59.2799 68.668 59.0898 68.7617C58.8997 68.8555 58.681 68.9688 58.4336 69.1016C58.1003 69.2786 57.7799 69.4349 57.4727 69.5703C57.168 69.7057 56.8555 69.8112 56.5352 69.8867C56.2174 69.9622 55.8685 70 55.4883 70H54.8438V68.9492ZM61.9609 64.5039V69.9961H60.9688V64.5039H61.9609ZM68.8398 65.8047L69.4844 66.4453L68.8398 67.0938L68.1953 66.4453L68.8398 65.8047ZM67.5195 65.8047L68.1719 66.4453L67.5195 67.0938L66.8828 66.4453L67.5195 65.8047ZM70.3672 67.2891L71.2852 67.1758L71.3672 68.2578C71.3802 68.4661 71.4362 68.6341 71.5352 68.7617C71.6341 68.8867 71.7943 68.9492 72.0156 68.9492H72.1016V70H72.0156C71.7188 70 71.4714 69.9453 71.2734 69.8359C71.0781 69.7266 70.9167 69.5703 70.7891 69.3672C70.6328 69.5156 70.4544 69.6367 70.2539 69.7305C70.0534 69.8242 69.8177 69.8932 69.5469 69.9375C69.276 69.9792 68.9557 70 68.5859 70H67.9336C67.4753 70 67.0573 69.9661 66.6797 69.8984C66.3021 69.8281 65.9766 69.7148 65.7031 69.5586C65.4297 69.4023 65.2188 69.194 65.0703 68.9336C64.9219 68.6732 64.8477 68.3516 64.8477 67.9688C64.8477 67.7448 64.8724 67.5273 64.9219 67.3164C64.974 67.1029 65.0378 66.9036 65.1133 66.7188L65.9883 67.0508C65.944 67.1706 65.901 67.3086 65.8594 67.4648C65.8177 67.6185 65.7969 67.7669 65.7969 67.9102C65.7969 68.1185 65.8503 68.2904 65.957 68.4258C66.0664 68.5586 66.2174 68.6641 66.4102 68.7422C66.6055 68.8177 66.832 68.8711 67.0898 68.9023C67.3503 68.9336 67.6315 68.9492 67.9336 68.9492H68.5859C68.9714 68.9492 69.2995 68.9245 69.5703 68.875C69.8411 68.8255 70.0482 68.7409 70.1914 68.6211C70.3346 68.4987 70.4062 68.3333 70.4062 68.125C70.4062 67.9974 70.4023 67.8568 70.3945 67.7031C70.3867 67.5469 70.3776 67.4089 70.3672 67.2891ZM71.9453 68.9492H72.2578V70H71.9453V68.9492ZM73.3672 70.5234L74.0117 71.1641L73.3672 71.8125L72.7227 71.1641L73.3672 70.5234ZM72.0469 70.5234L72.6992 71.1641L72.0469 71.8125L71.4102 71.1641L72.0469 70.5234ZM72.6016 70H72.168V68.9492H72.5938C72.8464 68.9492 73.0312 68.9036 73.1484 68.8125C73.2682 68.7188 73.3281 68.5482 73.3281 68.3008C73.3281 68.1576 73.3125 67.9714 73.2812 67.7422C73.2526 67.513 73.2018 67.2578 73.1289 66.9766L74.0742 66.7227C74.1393 66.9779 74.1875 67.2292 74.2188 67.4766C74.2526 67.7214 74.2695 67.9557 74.2695 68.1797C74.2695 68.5443 74.2174 68.8633 74.1133 69.1367C74.0091 69.4076 73.8359 69.6198 73.5938 69.7734C73.3516 69.9245 73.0208 70 72.6016 70ZM75.1406 64.5039H76.1289V68.1445C76.1289 68.4388 76.1732 68.6471 76.2617 68.7695C76.3503 68.8893 76.5234 68.9492 76.7812 68.9492H76.875V70H76.7812C76.2161 70 75.8008 69.8529 75.5352 69.5586C75.2721 69.2643 75.1406 68.8177 75.1406 68.2188V64.5039ZM79.4102 70C79.1393 70 78.9154 69.9544 78.7383 69.8633C78.5638 69.7695 78.4219 69.6445 78.3125 69.4883C78.1719 69.6471 77.9974 69.7721 77.7891 69.8633C77.5807 69.9544 77.3203 70 77.0078 70H76.7344V68.9492H77.0156C77.3099 68.9492 77.5273 68.8958 77.668 68.7891C77.8086 68.6797 77.8789 68.4844 77.8789 68.2031C77.8789 68.1615 77.8763 68.099 77.8711 68.0156C77.8659 67.9323 77.8594 67.8385 77.8516 67.7344C77.8464 67.6302 77.8398 67.5286 77.832 67.4297L78.7461 67.3164L78.8281 68.3086C78.8359 68.4284 78.862 68.5378 78.9062 68.6367C78.9531 68.7331 79.0182 68.8099 79.1016 68.8672C79.1875 68.9219 79.293 68.9492 79.418 68.9492C79.6471 68.9492 79.8099 68.8854 79.9062 68.7578C80.0026 68.6276 80.0508 68.4427 80.0508 68.2031C80.0508 68.1641 80.0482 68.1029 80.043 68.0195C80.0404 67.9336 80.0352 67.8385 80.0273 67.7344C80.0195 67.6302 80.0117 67.5286 80.0039 67.4297L80.918 67.3164L81 68.3086C81.0078 68.4206 81.0299 68.526 81.0664 68.625C81.1029 68.724 81.1576 68.8034 81.2305 68.8633C81.306 68.9206 81.4023 68.9492 81.5195 68.9492C81.6289 68.9492 81.7161 68.918 81.7812 68.8555C81.8464 68.7904 81.8932 68.7057 81.9219 68.6016C81.9505 68.4948 81.9648 68.3789 81.9648 68.2539C81.9648 68.0768 81.9427 67.875 81.8984 67.6484C81.8542 67.4193 81.8073 67.2057 81.7578 67.0078L82.7031 66.7578C82.7656 66.9896 82.8138 67.2227 82.8477 67.457C82.8815 67.6888 82.8984 67.9206 82.8984 68.1523C82.8984 68.4857 82.8555 68.793 82.7695 69.0742C82.6836 69.3529 82.5417 69.5768 82.3438 69.7461C82.1458 69.9128 81.875 69.9974 81.5312 70C81.2917 70 81.0898 69.9518 80.9258 69.8555C80.7617 69.7565 80.6263 69.6315 80.5195 69.4805C80.3841 69.6367 80.2214 69.763 80.0312 69.8594C79.8411 69.9531 79.6341 70 79.4102 70ZM88.0195 72.0078C87.457 72.0078 86.9961 71.901 86.6367 71.6875C86.2799 71.4766 86.0156 71.1888 85.8438 70.8242C85.6745 70.4622 85.5898 70.0534 85.5898 69.5977C85.5898 69.3398 85.6159 69.0638 85.668 68.7695C85.7227 68.4727 85.8112 68.1615 85.9336 67.8359L86.8203 68.1758C86.7266 68.4518 86.6549 68.7057 86.6055 68.9375C86.5586 69.1693 86.5352 69.3789 86.5352 69.5664C86.5352 69.8216 86.5794 70.056 86.668 70.2695C86.7591 70.4831 86.9128 70.6536 87.1289 70.7812C87.3451 70.9089 87.6419 70.9727 88.0195 70.9727C88.4284 70.9727 88.7604 70.9284 89.0156 70.8398C89.2734 70.7513 89.4622 70.651 89.582 70.5391C89.7018 70.4271 89.7617 70.3359 89.7617 70.2656C89.7617 70.1693 89.7148 70.1003 89.6211 70.0586C89.5299 70.0195 89.3841 70 89.1836 70H88.5781C88.4792 70 88.4154 69.974 88.3867 69.9219C88.3607 69.8698 88.3346 69.7995 88.3086 69.7109L88.1562 69.1484C88.1354 69.0833 88.1315 69.0352 88.1445 69.0039C88.1576 68.9701 88.2031 68.9531 88.2812 68.9531H90.5938V70C90.6146 70.0573 90.6276 70.1042 90.6328 70.1406C90.638 70.1771 90.6406 70.2174 90.6406 70.2617C90.6406 70.4883 90.5833 70.7057 90.4688 70.9141C90.3542 71.125 90.1849 71.3125 89.9609 71.4766C89.737 71.6406 89.4622 71.7695 89.1367 71.8633C88.8112 71.9596 88.4388 72.0078 88.0195 72.0078ZM90.4531 68.9492H91.1094C91.4609 68.9492 91.7904 68.9102 92.0977 68.832C92.4076 68.7539 92.7214 68.6445 93.0391 68.5039C93.3594 68.3607 93.707 68.1927 94.082 68C93.9857 67.9583 93.8776 67.9141 93.7578 67.8672C93.6406 67.8203 93.5234 67.7747 93.4062 67.7305C93.2917 67.6836 93.1901 67.6445 93.1016 67.6133C93.0104 67.5768 92.9284 67.5469 92.8555 67.5234C92.7852 67.4974 92.724 67.4779 92.6719 67.4648C92.6224 67.4518 92.582 67.4453 92.5508 67.4453C92.4049 67.4453 92.2656 67.4909 92.1328 67.582C92.0026 67.6706 91.8984 67.7656 91.8203 67.8672L91.6328 68.1016L90.8125 67.6992L90.9648 67.4531C91.1445 67.1562 91.3698 66.9115 91.6406 66.7188C91.9115 66.526 92.2161 66.4297 92.5547 66.4297C92.7865 66.4297 93.0078 66.4714 93.2188 66.5547C93.4323 66.6354 93.6471 66.7292 93.8633 66.8359C94.0951 66.9505 94.2969 67.0456 94.4688 67.1211C94.6406 67.194 94.7943 67.2539 94.9297 67.3008C95.0677 67.3451 95.2018 67.3789 95.332 67.4023C95.4622 67.4232 95.6029 67.4375 95.7539 67.4453V68.4102C95.5742 68.4336 95.401 68.4753 95.2344 68.5352C95.0677 68.5924 94.8893 68.668 94.6992 68.7617C94.5091 68.8555 94.2904 68.9688 94.043 69.1016C93.7096 69.2786 93.3893 69.4349 93.082 69.5703C92.7773 69.7057 92.4648 69.8112 92.1445 69.8867C91.8268 69.9622 91.4779 70 91.0977 70H90.4531V68.9492ZM97.5703 64.5039V69.9961H96.5781V64.5039H97.5703ZM100.672 70C100.547 70 100.431 69.9857 100.324 69.957C100.217 69.9284 100.129 69.8919 100.059 69.8477C99.9961 70.2357 99.8672 70.5846 99.6719 70.8945C99.4766 71.2044 99.2148 71.4635 98.8867 71.6719C98.5612 71.8828 98.1693 72.0339 97.7109 72.125L97.3516 71.1641C97.737 71.0781 98.0638 70.9635 98.332 70.8203C98.6029 70.6797 98.8086 70.4935 98.9492 70.2617C99.0898 70.0299 99.1602 69.7409 99.1602 69.3945C99.1602 69.1602 99.125 68.8997 99.0547 68.6133C98.987 68.3268 98.9102 68.0573 98.8242 67.8047L99.793 67.4844L100.02 68.3555C100.066 68.5352 100.135 68.6797 100.227 68.7891C100.32 68.8958 100.454 68.9492 100.629 68.9492H100.777V70H100.672ZM104.031 67.5664C103.88 67.5664 103.727 67.6029 103.57 67.6758C103.417 67.7487 103.264 67.849 103.113 67.9766C102.962 68.1042 102.816 68.2513 102.676 68.418C102.535 68.5846 102.401 68.7617 102.273 68.9492H102.684C102.967 68.9492 103.232 68.9388 103.477 68.918C103.721 68.8971 103.936 68.8594 104.121 68.8047C104.306 68.7474 104.449 68.6706 104.551 68.5742C104.652 68.4753 104.703 68.3503 104.703 68.1992C104.703 68.0091 104.639 67.8568 104.512 67.7422C104.387 67.625 104.227 67.5664 104.031 67.5664ZM101.203 68.9492C101.242 68.8867 101.28 68.8281 101.316 68.7734C101.353 68.7161 101.392 68.6576 101.434 68.5977V64.5039H102.422V67.3398C102.547 67.2122 102.671 67.099 102.793 67C102.918 66.901 103.046 66.8177 103.176 66.75C103.306 66.6797 103.439 66.6263 103.574 66.5898C103.71 66.5534 103.852 66.5352 104 66.5352C104.326 66.5352 104.613 66.6042 104.863 66.7422C105.113 66.8776 105.309 67.0651 105.449 67.3047C105.592 67.5443 105.664 67.819 105.664 68.1289C105.664 68.4805 105.589 68.776 105.438 69.0156C105.289 69.2552 105.079 69.4479 104.809 69.5938C104.538 69.737 104.219 69.8411 103.852 69.9062C103.484 69.9688 103.083 70 102.648 70H100.633V68.9492H101.203Z" fill="#E4E6EB"/>
<defs>
<filter id="filter0_d_312_22" x="91.4648" y="0.887325" width="105.035" height="105.035" filterUnits="userSpaceOnUse" color-interpolation-filters="sRGB">
<feFlood flood-opacity="0" result="BackgroundImageFix"/>
<feColorMatrix in="SourceAlpha" type="matrix" values="0 0 0 0 0 0 0 0 0 0 0 0 0 0 0 0 0 0 127 0" result="hardAlpha"/>
<feOffset dy="4.42253"/>
<feGaussianBlur stdDeviation="13.2676"/>
<feComposite in2="hardAlpha" operator="out"/>
<feColorMatrix type="matrix" values="0 0 0 0 0.633297 0 0 0 0 0.631099 0 0 0 0 0.752279 0 0 0 0.32 0"/>
<feBlend mode="normal" in2="BackgroundImageFix" result="effect1_dropShadow_312_22"/>
<feBlend mode="normal" in="SourceGraphic" in2="effect1_dropShadow_312_22" result="shape"/>
</filter>
<filter id="filter1_d_312_22" x="0.419189" y="26.5234" width="109.477" height="40.8262" filterUnits="userSpaceOnUse" color-interpolation-filters="sRGB">
<feFlood flood-opacity="0" result="BackgroundImageFix"/>
<feColorMatrix in="SourceAlpha" type="matrix" values="0 0 0 0 0 0 0 0 0 0 0 0 0 0 0 0 0 0 127 0" result="hardAlpha"/>
<feOffset dy="4"/>
<feGaussianBlur stdDeviation="2"/>
<feComposite in2="hardAlpha" operator="out"/>
<feColorMatrix type="matrix" values="0 0 0 0 0.484945 0 0 0 0 0.456885 0 0 0 0 0.456885 0 0 0 0.25 0"/>
<feBlend mode="normal" in2="BackgroundImageFix" result="effect1_dropShadow_312_22"/>
<feBlend mode="normal" in="SourceGraphic" in2="effect1_dropShadow_312_22" result="shape"/>
</filter>
</defs>
</svg>
