<svg width="202" height="106" viewBox="0 0 202 106" fill="none" xmlns="http://www.w3.org/2000/svg">
<g filter="url(#filter0_d_600_3629)">
<path d="M149.782 49.2637H162.391C169.355 49.2637 175 54.909 175 61.8728V61.8728C175 68.8366 169.355 74.4819 162.391 74.4819V74.4819C155.427 74.4819 149.782 68.8366 149.782 61.8728V49.2637Z" fill="#5D5AFF"/>
<path d="M123.035 61.8728C123.035 54.909 128.68 49.2637 135.644 49.2637H148.253V61.8728C148.253 68.8366 142.608 74.4819 135.644 74.4819V74.4819C128.68 74.4819 123.035 68.8366 123.035 61.8728V61.8728Z" fill="#5D5AFF"/>
<path d="M149.782 35.1267C149.782 28.1629 155.427 22.5176 162.391 22.5176V22.5176C169.355 22.5176 175 28.1629 175 35.1267V35.1267C175 42.0905 169.355 47.7358 162.391 47.7358H149.782V35.1267Z" fill="#5D5AFF"/>
<path d="M126.092 36.6549C126.092 30.5352 131.053 25.5742 137.173 25.5742V25.5742C143.292 25.5742 148.253 30.5352 148.253 36.6549V47.7357H137.173C131.053 47.7357 126.092 42.7747 126.092 36.6549V36.6549Z" fill="#8A88FF"/>
</g>
<path opacity="0.7" d="M3.09125 65.4021C3.56189 65.9084 3.91487 66.3077 4.15019 66.6001C4.39264 66.8854 4.58161 67.1777 4.7171 67.4772C4.85971 67.7767 4.93102 68.0833 4.93102 68.3971C4.93102 68.775 4.83119 69.1209 4.63153 69.4347C4.43186 69.7484 4.16445 69.998 3.8293 70.1834C3.49415 70.3617 3.13047 70.4508 2.73827 70.4508C2.34607 70.4508 1.97883 70.3617 1.63654 70.1834C1.30139 69.998 1.03398 69.7484 0.834316 69.4347C0.634651 69.1209 0.534818 68.775 0.534818 68.3971C0.534818 68.062 0.602562 67.7482 0.738049 67.4558C0.873536 67.1563 1.04111 66.8818 1.24078 66.6322C1.44044 66.3826 1.71142 66.076 2.0537 65.7123L2.31041 65.4449L3.03777 66.2043L2.75966 66.5038C2.43877 66.8319 2.20345 67.0886 2.0537 67.274C1.90395 67.4523 1.77916 67.6305 1.67933 67.8088C1.58663 67.9871 1.54028 68.1689 1.54028 68.3543C1.54028 68.6253 1.64724 68.8535 1.86117 69.0389C2.07509 69.2172 2.36746 69.3063 2.73827 69.3063C3.10195 69.3063 3.39075 69.2172 3.60467 69.0389C3.8186 68.8535 3.92557 68.6253 3.92557 68.3543C3.92557 68.1903 3.87208 68.0156 3.76512 67.8302C3.66529 67.6448 3.51554 67.4344 3.31587 67.1991C3.11621 66.9638 2.79532 66.6072 2.3532 66.1295C2.24624 66.0154 2.14284 65.9049 2.04301 65.7979C1.94317 65.6838 1.83264 65.559 1.71142 65.4235L2.44947 64.6855L3.09125 65.4021ZM8.97124 65.723C9.21369 66.101 9.40266 66.4004 9.53815 66.6215C9.68077 66.8354 9.86974 67.1242 10.1051 67.4879C10.3261 67.8302 10.4473 68.1974 10.4687 68.5896C10.4901 68.9818 10.4081 69.3099 10.2227 69.5737C10.0159 69.8661 9.76277 70.0729 9.46327 70.1941C9.16378 70.3082 8.82506 70.3652 8.44712 70.3652H7.88021C7.47375 70.3652 7.11007 70.3046 6.78918 70.1834C6.46829 70.0622 6.20801 69.9231 6.00835 69.7662L6.51108 68.8143L6.56456 68.8464C6.72857 68.9462 6.91041 69.0318 7.11007 69.1031C7.31687 69.1744 7.57358 69.21 7.88021 69.21H8.43642C8.686 69.21 8.88567 69.1886 9.03542 69.1458C9.1923 69.0959 9.31352 69.0104 9.3991 68.8891C9.46327 68.7964 9.48467 68.6895 9.46327 68.5682C9.44188 68.4399 9.37414 68.2794 9.26004 68.0869C8.61113 67.0815 8.06562 66.2543 7.6235 65.6054L8.47921 64.9636L8.97124 65.723ZM13.8657 70.3652C13.3736 70.3652 12.9814 70.2725 12.6891 70.0871C12.4038 69.8946 12.2006 69.6308 12.0794 69.2956C11.9581 68.9533 11.8975 68.5397 11.8975 68.0548L11.8868 63.3591H12.8923L12.903 68.0548C12.903 68.4042 12.9244 68.6574 12.9672 68.8143C13.01 68.964 13.0955 69.0674 13.2239 69.1245C13.3522 69.1815 13.5662 69.21 13.8657 69.21H14.101L14.1652 69.7983L14.101 70.3652H13.8657ZM13.9959 69.21H14.2847C14.4488 69.21 14.5771 69.1744 14.6698 69.1031C14.7625 69.0318 14.8267 68.9177 14.8623 68.7608L15.1832 67.6056C15.3401 67.028 15.5897 66.5787 15.932 66.2578C16.2743 65.9369 16.6879 65.7765 17.1728 65.7765C17.5578 65.7765 17.9001 65.887 18.1996 66.1081C18.4991 66.322 18.7309 66.6179 18.8949 66.9959C19.0589 67.3738 19.1409 67.7874 19.1409 68.2367C19.1409 68.7857 19.0589 69.235 18.8949 69.5844C18.7309 69.9338 18.5205 70.1905 18.2638 70.3545C18.0071 70.5114 17.7397 70.5899 17.4616 70.5899C17.1906 70.5899 16.9089 70.5328 16.6166 70.4187C16.3313 70.3046 15.8785 70.0907 15.2581 69.7769L14.98 69.6379L15.44 68.6324C15.5113 68.6681 15.579 68.7037 15.6432 68.7394C16.2208 69.0246 16.6237 69.2136 16.8519 69.3063C17.0801 69.399 17.2904 69.4453 17.483 69.4453C17.704 69.4453 17.8716 69.3598 17.9857 69.1886C18.1069 69.0104 18.1675 68.693 18.1675 68.2367C18.1675 67.8231 18.082 67.4986 17.9108 67.2633C17.7397 67.028 17.5008 66.9103 17.1942 66.9103C16.9517 66.9032 16.7378 66.9852 16.5524 67.1563C16.3741 67.3275 16.2422 67.5806 16.1566 67.9158L15.825 69.1352C15.7608 69.3705 15.6503 69.5844 15.4934 69.7769C15.3366 69.9623 15.1511 70.1085 14.9372 70.2155C14.7304 70.3153 14.5165 70.3652 14.2954 70.3652H13.9959V69.21ZM20.6309 63.3591H21.6363L21.647 70.3652H20.6416L20.6309 63.3591ZM26.7224 71.9055C27.2144 71.9055 27.5888 71.852 27.8455 71.7451C28.1093 71.6381 28.2876 71.4705 28.3803 71.2423C28.4801 71.0213 28.53 70.7146 28.53 70.3224V68.2153C28.53 67.8088 28.4373 67.4915 28.2519 67.2633C28.0737 67.0351 27.7991 66.921 27.4283 66.921C27.0932 66.921 26.8329 67.0387 26.6475 67.274C26.4621 67.5093 26.3694 67.8195 26.3694 68.2046C26.3694 68.5611 26.4549 68.8178 26.6261 68.9747C26.7972 69.1245 27.0682 69.1993 27.439 69.1993H28.9793V70.3331H27.439C26.8186 70.3331 26.3195 70.1477 25.9415 69.7769C25.5636 69.4061 25.3746 68.8891 25.3746 68.226C25.3746 67.7696 25.4602 67.356 25.6313 66.9852C25.8096 66.6144 26.0556 66.3256 26.3694 66.1188C26.6831 65.9049 27.0361 65.7979 27.4283 65.7979C27.8562 65.7979 28.227 65.9013 28.5407 66.1081C28.8616 66.3077 29.1076 66.593 29.2788 66.9638C29.4571 67.3275 29.5462 67.7482 29.5462 68.226V70.3224C29.5462 70.8644 29.4499 71.3386 29.2574 71.7451C29.072 72.1515 28.7689 72.4724 28.3482 72.7077C27.9346 72.9431 27.3927 73.0607 26.7224 73.0607H25.5351V71.9055H26.7224ZM34.6989 67.6163C34.4993 68.0513 34.3424 68.4648 34.2283 68.857C34.1213 69.2492 34.0714 69.6094 34.0785 69.9374C34.0857 70.3367 34.1534 70.6826 34.2818 70.9749C34.4172 71.2673 34.6205 71.4955 34.8915 71.6595C35.1624 71.8235 35.5047 71.9055 35.9183 71.9055H36.9986C37.3552 71.9055 37.6618 71.8734 37.9185 71.8092C38.1824 71.7451 38.382 71.6524 38.5175 71.5311C38.653 71.417 38.7208 71.2887 38.7208 71.1461C38.7279 71.0605 38.6994 70.9749 38.6352 70.8894C38.5781 70.8038 38.4783 70.7253 38.3357 70.654C38.1859 70.5827 37.9934 70.5221 37.7581 70.4722C37.5228 70.4294 37.2375 70.3973 36.9024 70.3759C36.8025 70.3688 36.6492 70.3652 36.4424 70.3652V69.21H39.9936L40.0578 69.7769L39.9936 70.3652H39.4588C39.5515 70.4508 39.6192 70.5578 39.662 70.6861C39.7119 70.8216 39.7369 70.9642 39.7369 71.114C39.7298 71.442 39.6264 71.7522 39.4267 72.0446C39.227 72.3441 38.9204 72.5865 38.5068 72.7719C38.1004 72.9645 37.5976 73.0607 36.9986 73.0607H35.9183C35.3407 73.0607 34.838 72.9181 34.4101 72.6329C33.9823 72.3476 33.6542 71.9697 33.4261 71.499C33.205 71.0284 33.0873 70.5114 33.0731 69.9481C33.0659 69.5416 33.1301 69.0924 33.2656 68.6003C33.4082 68.1012 33.5829 67.6163 33.7897 67.1456L34.6989 67.6163ZM44.2121 67.3916C44.5758 66.8354 44.9323 66.4361 45.2817 66.1937C45.6383 65.9441 46.0554 65.8193 46.5332 65.8193C46.9539 65.8193 47.314 65.9298 47.6135 66.1509C47.9202 66.3648 48.1519 66.65 48.3088 67.0066C48.4657 67.3631 48.5441 67.7482 48.5441 68.1618C48.5441 68.5968 48.4443 68.9818 48.2446 69.317C48.0449 69.645 47.7704 69.9017 47.421 70.0871C47.0787 70.2725 46.6972 70.3652 46.2765 70.3652H43.5168C43.2672 70.3652 42.9998 70.3046 42.7146 70.1834C42.4365 70.0622 42.1905 69.8661 41.9765 69.5951C41.7697 69.317 41.6663 68.9676 41.6663 68.5469V66.9745H42.6718V68.5469C42.6718 68.7964 42.7502 68.9711 42.9071 69.071C43.0711 69.1637 43.2601 69.21 43.474 69.21H46.2765C46.6829 69.21 46.9967 69.1245 47.2178 68.9533C47.4388 68.775 47.5493 68.5112 47.5493 68.1618C47.5493 67.791 47.4638 67.5022 47.2926 67.2954C47.1286 67.0815 46.8719 66.9745 46.5225 66.9745C46.3228 66.9745 46.1481 67.0101 45.9984 67.0815C45.8558 67.1456 45.7131 67.2455 45.5705 67.3809C45.435 67.5164 45.2639 67.7232 45.0571 68.0013C44.7576 68.3935 44.2905 69.0389 43.6559 69.9374L42.8857 69.4133L44.2121 67.3916ZM42.6718 68.5469C42.6718 68.9177 42.5684 69.2421 42.3616 69.5202C42.1619 69.7983 41.9052 70.0087 41.5915 70.1513C41.2848 70.2939 40.9746 70.3652 40.6609 70.3652H39.8908V69.21H40.6716C40.9782 69.21 41.2207 69.1565 41.3989 69.0496C41.5772 68.9426 41.6663 68.775 41.6663 68.5469H42.6718ZM51.9401 70.3652C51.4481 70.3652 51.0559 70.2725 50.7635 70.0871C50.4783 69.8946 50.2751 69.6308 50.1538 69.2956C50.0326 68.9533 49.972 68.5397 49.972 68.0548L49.9613 63.3591H50.9668L50.9774 68.0548C50.9774 68.4042 50.9988 68.6574 51.0416 68.8143C51.0844 68.964 51.17 69.0674 51.2983 69.1245C51.4267 69.1815 51.6406 69.21 51.9401 69.21H52.1754L52.2396 69.7983L52.1754 70.3652H51.9401ZM56.3596 67.3916C56.7162 66.8354 57.0727 66.4361 57.4293 66.1937C57.7858 65.9441 58.203 65.8193 58.6808 65.8193C59.1015 65.8193 59.4616 65.9298 59.7611 66.1509C60.0677 66.3648 60.2995 66.65 60.4563 67.0066C60.6132 67.3631 60.6917 67.7482 60.6917 68.1618C60.6917 68.5968 60.5918 68.9818 60.3922 69.317C60.1925 69.645 59.918 69.9017 59.5686 70.0871C59.2263 70.2725 58.8448 70.3652 58.424 70.3652H55.6644C55.4148 70.3652 55.1474 70.3046 54.8622 70.1834C54.584 70.0622 54.338 69.8661 54.1241 69.5951C53.9173 69.317 53.8139 68.9676 53.8139 68.5469V66.9745H54.8194V68.5469C54.8194 68.7964 54.8978 68.9711 55.0547 69.071C55.2187 69.1637 55.4077 69.21 55.6216 69.21H58.424C58.8234 69.21 59.1336 69.1245 59.3546 68.9533C59.5757 68.775 59.6862 68.5112 59.6862 68.1618C59.6862 67.791 59.6042 67.5022 59.4402 67.2954C59.2762 67.0815 59.0195 66.9745 58.6701 66.9745C58.4633 66.9745 58.2886 67.0101 58.1459 67.0815C58.0033 67.1456 57.8607 67.2455 57.7181 67.3809C57.5826 67.5164 57.4115 67.7232 57.2047 68.0013C56.9052 68.3935 56.4345 69.0389 55.7927 69.9374L55.0333 69.4133L56.3596 67.3916ZM54.8194 68.5469C54.8194 68.9177 54.716 69.2421 54.5092 69.5202C54.3095 69.7983 54.0528 70.0087 53.739 70.1513C53.4324 70.2939 53.1222 70.3652 52.8084 70.3652H52.0383V69.21H52.8191C53.1258 69.21 53.3682 69.1565 53.5465 69.0496C53.7248 68.9426 53.8139 68.775 53.8139 68.5469H54.8194ZM61.3762 70.3652C61.1053 70.3652 60.845 70.3118 60.5954 70.2048C60.353 70.0907 60.1533 69.9481 59.9964 69.7769C59.8395 69.6058 59.7504 69.4347 59.729 69.2635L60.3494 68.611C60.4136 68.8107 60.5312 68.9604 60.7024 69.0603C60.8735 69.1601 61.1017 69.21 61.3869 69.21H61.6971L61.7827 69.7983L61.6971 70.3652H61.3762ZM64.7734 66.9745V68.5041C64.7734 68.7608 64.834 68.9426 64.9553 69.0496C65.0836 69.1565 65.2868 69.21 65.5649 69.21H66.1212L66.1853 69.8197L66.1212 70.3652H65.5649C65.3011 70.3652 65.0301 70.2975 64.752 70.162C64.4739 70.0265 64.2386 69.8126 64.0461 69.5202C63.8535 69.2207 63.7573 68.8464 63.7573 68.3971V66.9745H64.7734ZM64.6451 68.5469C64.6451 68.9391 64.5524 69.2742 64.367 69.5523C64.1887 69.8233 63.9534 70.0265 63.661 70.162C63.3758 70.2975 63.0798 70.3652 62.7732 70.3652H61.6073V69.21H62.7732C63.1155 69.21 63.3651 69.1458 63.5219 69.0175C63.6788 68.8891 63.7573 68.6823 63.7573 68.3971L64.6451 68.5469ZM62.1528 64.7389C62.3382 64.7247 62.4773 64.714 62.57 64.7069C62.6627 64.6926 62.7982 64.6783 62.9764 64.6641C63.1904 64.6498 63.4007 64.6355 63.6075 64.6213C63.6218 64.7568 63.6325 64.8887 63.6396 65.0171C63.6467 65.1454 63.6467 65.2702 63.6396 65.3914C63.6396 65.5055 63.6289 65.6267 63.6075 65.7551C63.2795 65.7836 63.0335 65.805 62.8695 65.8193C62.7126 65.8335 62.4737 65.8549 62.1528 65.8835C62.1528 65.6196 62.1528 65.4271 62.1528 65.3059C62.1528 65.1775 62.1528 64.9885 62.1528 64.7389ZM63.6075 64.6213C63.9427 64.5928 64.1887 64.5714 64.3456 64.5571C64.5096 64.5428 64.752 64.5215 65.0729 64.4929C65.0729 64.7496 65.0729 64.9422 65.0729 65.0705C65.0729 65.1918 65.0729 65.3772 65.0729 65.6267C64.7449 65.6553 64.4989 65.6767 64.3349 65.6909C64.1709 65.7052 63.9284 65.7266 63.6075 65.7551C63.6004 65.6481 63.5897 65.5269 63.5754 65.3914C63.5683 65.2702 63.5683 65.149 63.5754 65.0277C63.5826 64.8994 63.5933 64.7639 63.6075 64.6213ZM65.9726 69.21H67.2882C67.766 69.21 68.2153 69.1565 68.636 69.0496C69.0638 68.9426 69.4632 68.8 69.834 68.6217C70.2048 68.4435 70.6433 68.2046 71.1496 67.9051L71.4705 67.7125L71.4812 68.0334L70.9143 67.8088C70.244 67.545 69.6913 67.3417 69.2564 67.1991C68.8214 67.0494 68.529 66.9745 68.3793 66.9745C68.1867 66.9745 68.0334 67.0208 67.9193 67.1135C67.8052 67.2062 67.7018 67.3845 67.6091 67.6484L66.6678 67.3489C66.8319 66.8283 67.0636 66.4468 67.3631 66.2043C67.6626 65.9548 68.0013 65.83 68.3793 65.83C68.6288 65.83 69.0139 65.9227 69.5345 66.1081C70.055 66.2935 70.7539 66.568 71.631 66.9317C71.8378 67.0173 72.016 67.0921 72.1658 67.1563L72.3797 68.3864L71.8663 68.7073C71.2601 69.0924 70.7432 69.3954 70.3153 69.6165C69.8874 69.8375 69.4204 70.0194 68.9141 70.162C68.4149 70.2975 67.873 70.3652 67.2882 70.3652H65.9726V69.21ZM67.9407 63.7228C68.1332 63.7014 68.3222 63.6836 68.5076 63.6693C68.7144 63.6479 68.9176 63.6301 69.1173 63.6158C69.1173 63.8868 69.1173 64.0865 69.1173 64.2148C69.1173 64.3361 69.1173 64.525 69.1173 64.7817C68.8749 64.8031 68.6788 64.821 68.529 64.8352C68.3864 64.8495 68.1903 64.8673 67.9407 64.8887C67.9407 64.6249 67.9407 64.4288 67.9407 64.3004C67.9407 64.172 67.9407 63.9795 67.9407 63.7228ZM73.8306 63.3591H74.8361L74.8468 70.3652H73.8413L73.8306 63.3591ZM80.6174 70.3652C80.1753 70.3652 79.7902 70.2618 79.4622 70.055C79.1342 69.8411 78.8917 69.563 78.7348 69.2207C78.5851 68.8713 78.5387 68.4969 78.5958 68.0976C78.6528 67.7054 78.7669 67.1599 78.9381 66.4611L79.8687 66.7071L79.8259 66.9317C79.669 67.5806 79.5799 68.0192 79.5585 68.2474C79.5228 68.5397 79.5941 68.775 79.7724 68.9533C79.9578 69.1245 80.2395 69.21 80.6174 69.21H85.2489C85.5912 69.21 85.8408 69.1458 85.9977 69.0175C86.1617 68.8891 86.2437 68.6823 86.2437 68.3971V66.9745H87.2492V68.5041C87.2492 68.7608 87.3133 68.9426 87.4417 69.0496C87.57 69.1565 87.7733 69.21 88.0514 69.21H88.4151L88.4792 69.7769L88.4151 70.3652H88.0514C87.8232 70.3652 87.5843 70.3118 87.3347 70.2048C87.0923 70.0978 86.8819 69.9374 86.7036 69.7235C86.5325 69.9302 86.3186 70.0907 86.0619 70.2048C85.8051 70.3118 85.5342 70.3652 85.2489 70.3652H80.6174ZM81.655 65.7123C81.8404 65.6981 81.9794 65.6874 82.0721 65.6802C82.1648 65.666 82.3003 65.6517 82.4786 65.6374C82.6925 65.6232 82.9029 65.6089 83.1097 65.5947C83.1239 65.7301 83.1346 65.8621 83.1417 65.9904C83.1489 66.1188 83.1489 66.2436 83.1417 66.3648C83.1417 66.4789 83.1311 66.6001 83.1097 66.7285C82.7816 66.757 82.5356 66.7784 82.3716 66.7926C82.2147 66.8069 81.9758 66.8283 81.655 66.8568C81.655 66.593 81.655 66.4004 81.655 66.2792C81.655 66.1509 81.655 65.9619 81.655 65.7123ZM83.1097 65.5947C83.4448 65.5661 83.6908 65.5447 83.8477 65.5305C84.0117 65.5162 84.2542 65.4948 84.5751 65.4663C84.5751 65.723 84.5751 65.9155 84.5751 66.0439C84.5751 66.1651 84.5751 66.3505 84.5751 66.6001C84.247 66.6286 84.001 66.65 83.837 66.6643C83.673 66.6786 83.4305 66.6999 83.1097 66.7285C83.1025 66.6215 83.0918 66.5003 83.0776 66.3648C83.0704 66.2436 83.0704 66.1223 83.0776 66.0011C83.0847 65.8728 83.0954 65.7373 83.1097 65.5947ZM88.3064 69.21H89.6649C90.0428 69.21 90.3102 69.1458 90.4671 69.0175C90.624 68.882 90.6953 68.693 90.681 68.4506C90.6668 68.2509 90.6275 67.9692 90.5634 67.6056C90.5063 67.2419 90.4421 66.896 90.3708 66.568L91.3442 66.322C91.4226 66.6572 91.4975 67.0351 91.5688 67.4558C91.6401 67.8765 91.6829 68.2153 91.6972 68.472C91.7043 68.8 91.6366 69.1102 91.4939 69.4026C91.3513 69.6878 91.1267 69.9196 90.8201 70.0978C90.5206 70.2761 90.1462 70.3652 89.6969 70.3652H88.3064V69.21ZM87.9214 72.0125C88.1068 71.9982 88.2458 71.984 88.3385 71.9697C88.4312 71.9626 88.5667 71.9519 88.745 71.9376C88.9589 71.9233 89.1693 71.9091 89.3761 71.8948C89.3903 72.0303 89.401 72.1622 89.4081 72.2906C89.4153 72.4189 89.4153 72.5437 89.4081 72.665C89.4081 72.779 89.3974 72.9003 89.3761 73.0286C89.048 73.0572 88.802 73.0785 88.638 73.0928C88.4811 73.1071 88.2422 73.1285 87.9214 73.157C87.9214 72.8931 87.9214 72.697 87.9214 72.5687C87.9214 72.4475 87.9214 72.2621 87.9214 72.0125ZM89.3761 71.8948C89.7112 71.8663 89.9572 71.8449 90.1141 71.8306C90.2781 71.8164 90.5206 71.795 90.8415 71.7665C90.8415 72.0232 90.8415 72.2121 90.8415 72.3334C90.8415 72.4617 90.8415 72.6507 90.8415 72.9003C90.5134 72.9288 90.2674 72.9502 90.1034 72.9645C89.9394 72.9787 89.6969 73.0001 89.3761 73.0286C89.3689 72.9217 89.3582 72.8004 89.344 72.665C89.3368 72.5437 89.3368 72.4189 89.344 72.2906C89.3511 72.1694 89.3618 72.0374 89.3761 71.8948ZM95.0912 70.3652C94.5991 70.3652 94.2069 70.2725 93.9146 70.0871C93.6293 69.8946 93.4261 69.6308 93.3049 69.2956C93.1837 68.9533 93.123 68.5397 93.123 68.0548L93.1123 63.3591H94.1178L94.1285 68.0548C94.1285 68.4042 94.1499 68.6574 94.1927 68.8143C94.2355 68.964 94.321 69.0674 94.4494 69.1245C94.5777 69.1815 94.7917 69.21 95.0912 69.21H95.3265L95.3907 69.7983L95.3265 70.3652H95.0912ZM95.2215 69.21H95.9167C96.2305 69.21 96.4515 69.1423 96.5799 69.0068C96.7154 68.8713 96.7831 68.6574 96.7831 68.365V66.9745H97.7993V68.4613C97.7993 68.718 97.8635 68.907 97.9918 69.0282C98.1273 69.1423 98.327 69.2029 98.5908 69.21C98.8903 69.2029 99.1078 69.1316 99.2433 68.9961C99.3859 68.8606 99.4572 68.6467 99.4572 68.3543V66.9745H100.463V68.4613C100.463 68.718 100.527 68.907 100.655 69.0282C100.784 69.1423 100.98 69.2029 101.244 69.21C101.529 69.2029 101.739 69.1316 101.875 68.9961C102.01 68.8606 102.071 68.6788 102.056 68.4506C102.035 68.2081 101.992 67.9193 101.928 67.5842C101.871 67.2419 101.807 66.9032 101.736 66.568L102.698 66.322C102.784 66.6572 102.862 67.0351 102.934 67.4558C103.005 67.8765 103.048 68.2153 103.062 68.472C103.069 68.7857 103.005 69.0888 102.869 69.3812C102.741 69.6735 102.538 69.9124 102.26 70.0978C101.982 70.2761 101.643 70.3652 101.244 70.3652C101.001 70.3652 100.762 70.3118 100.527 70.2048C100.292 70.0907 100.092 69.9231 99.9279 69.7021C99.7567 69.916 99.557 70.08 99.3289 70.1941C99.1007 70.3082 98.8475 70.3652 98.5694 70.3652C98.3341 70.3652 98.0916 70.3046 97.8421 70.1834C97.5925 70.055 97.3928 69.8946 97.2431 69.7021C97.0862 69.916 96.8901 70.08 96.6548 70.1941C96.4266 70.3082 96.1734 70.3652 95.8953 70.3652H95.2215V69.21Z" fill="#313B78"/>
<path d="M93.6106 47.4782C90.0438 47.4782 88.2604 46.0539 88.2604 43.2054C88.2604 42.8339 88.2727 42.549 88.2975 42.3509L89.4864 31.5762H92.8303C95.332 31.5762 97.2393 32.1087 98.5521 33.1738C99.8649 34.2141 100.744 35.6755 101.19 37.558C101.661 39.4157 101.896 41.8307 101.896 44.8031L99.1094 48.1841C99.1094 44.6916 99.0227 42.1899 98.8493 40.679C98.6759 39.1432 98.1558 37.9543 97.2888 37.1121C96.4219 36.2452 94.9729 35.8118 92.9418 35.8118H91.7157L91.0841 42.9082C91.5795 43.0073 92.7065 43.0568 94.4651 43.0568C95.8027 43.0321 97.0659 42.9577 98.2548 42.8339C99.4685 42.71 100.298 42.5862 100.744 42.4624V46.4007C100.001 46.6484 98.9855 46.8961 97.6975 47.1438C96.4095 47.3667 95.0472 47.4782 93.6106 47.4782ZM86.4551 51.5794C89.254 51.2822 93.3752 50.6982 95.1339 50.079C96.8925 49.4845 98.2177 48.8157 99.1094 48.0726V44.4687C99.1094 44.2705 99.3199 43.9857 99.741 43.6141C100.187 43.2426 100.596 43.0568 100.967 43.0568C101.586 43.0568 101.896 43.6389 101.896 44.8031C101.896 46.9085 101.661 48.5928 101.19 49.856C100.744 51.1441 99.5924 52.2958 97.7347 53.3114C95.9017 54.3517 93.0037 55.1567 89.0406 55.7264L86.4551 51.5794Z" fill="#313B78"/>
<path d="M76.3247 43.7713C77.2906 43.7528 78.3914 43.6697 79.6273 43.5221C80.8631 43.3745 81.7261 43.1597 82.2162 42.8778L81.6093 32.5587L85.2833 32.3023L85.4566 41.3292C85.5037 43.7809 84.7445 45.5296 83.179 46.5754C81.6379 47.596 79.3814 48.1348 76.4096 48.1919L76.3247 43.7713Z" fill="#313B78"/>
<path d="M60.0003 44.0857L61.0775 44.065C65.2876 43.9842 67.7986 43.7997 68.6106 43.5116L68.5428 39.9826C68.5295 39.2892 68.4195 38.7215 68.2129 38.2795C68.0305 37.8123 67.6261 37.3989 66.9999 37.0393C65.8222 36.3435 63.6805 35.1211 60.5749 33.3723L61.4281 27.4844L74.1633 23.0407L73.5374 27.2148L63.6811 30.637L65.1091 31.4643C67.0631 32.5912 68.4428 33.4813 69.2481 34.1348C70.0529 34.7634 70.6378 35.545 71.0025 36.4794C71.3673 37.4138 71.5663 38.7478 71.5996 40.4813L71.6417 42.673C71.6712 44.2084 71.2232 45.3938 70.2979 46.2291C69.3725 47.0644 68.083 47.6466 66.4295 47.9756C64.7755 48.2799 62.6607 48.4568 60.0851 48.5062L60.0003 44.0857ZM76.3928 48.1931C75.1298 48.2174 74.0514 48.1761 73.1574 48.0694C72.2883 47.9622 71.4508 47.5696 70.645 46.8914C69.8388 46.1884 69.4207 45.0568 69.3907 43.4966L69.3329 40.4877L71.5989 40.4442L71.6053 40.7785C71.6291 42.0167 72.0289 42.839 72.8047 43.2453C73.58 43.6268 74.7478 43.8025 76.308 43.7726L76.6866 44.1369L76.7572 47.8145L76.3928 48.1931Z" fill="#313B78"/>
<path d="M50.2837 48.8051C49.1445 48.8269 47.8905 48.6776 46.5218 48.3571C45.1778 48.036 44.0165 47.5504 43.0379 46.9003C42.084 46.2498 41.598 45.4539 41.5799 44.5129C41.5675 43.869 41.7776 43.196 42.21 42.4941C44.4869 43.6643 47.4732 44.3625 51.1689 44.5889L50.622 33.5254L54.2961 33.269L54.5 43.8932C54.5319 45.5524 54.2211 46.7847 53.5677 47.59C52.9138 48.3706 51.8191 48.7756 50.2837 48.8051ZM24.2678 44.7709L25.4194 44.7488C27.5491 44.7079 29.1291 44.4175 30.1593 43.8774L29.9916 35.1478L33.1863 35.0865L33.2812 40.0271C33.3292 42.5283 32.9943 44.4424 32.2766 45.7692C31.5584 47.0712 30.5473 47.9577 29.2433 48.4287C27.9641 48.8992 26.3339 49.1534 24.3527 49.1915L24.2678 44.7709ZM37.0221 49.0597C35.0656 49.0973 33.5593 48.705 32.503 47.883C31.471 47.0357 30.9398 45.8196 30.9093 44.2346L30.7346 35.1335L33.1863 35.0865L33.3233 42.2188C33.3404 43.1103 33.6373 43.7363 34.214 44.0969C34.8155 44.4569 35.8097 44.6237 37.1965 44.597L37.0221 49.0597ZM37.0221 49.0597C36.8735 49.0626 36.6692 48.7444 36.4092 48.1053C36.1734 47.4409 36.0499 46.8115 36.0385 46.2172C36.0294 45.7467 36.1087 45.3611 36.2764 45.0606C36.4688 44.7596 36.7507 44.6056 37.1222 44.5985C38.0385 44.5809 38.8669 44.503 39.6075 44.3649C40.3729 44.2264 40.9765 44.0537 41.4185 43.8471L41.2437 34.746L44.4384 34.6846L44.5982 43.0056C44.6362 44.9868 43.9465 46.4865 42.5292 47.5047C41.1114 48.4981 39.2757 49.0164 37.0221 49.0597ZM60.0884 48.5053C57.4386 48.5562 55.5605 48.1587 54.4542 47.3129C53.3722 46.4418 52.8131 45.0652 52.777 43.183L52.6871 38.5025L54.3959 38.4697L54.4109 39.2498C54.4408 40.81 54.5985 41.9218 54.8837 42.5852C55.169 43.2486 55.6726 43.6725 56.3946 43.8568C57.1165 44.0411 58.3195 44.1171 60.0036 44.0848L60.3822 44.4491L60.4528 48.1267L60.0884 48.5053Z" fill="#313B78"/>
<path d="M9.29522 54.4231C3.47547 54.5348 0.517332 52.077 0.420807 47.0498C0.404165 46.183 0.524027 43.3936 0.780393 38.6816L3.68217 38.8489C3.55727 42.6665 3.50505 45.1077 3.52549 46.1726C3.5545 47.6833 4.1193 48.7129 5.21989 49.2616C6.32001 49.7855 7.73684 50.0308 9.47038 49.9975C11.1792 49.9647 12.5881 49.8014 13.6973 49.5076C14.8313 49.2133 15.8395 48.8223 16.722 48.3347L15.9069 25.2362L19.5024 24.7584L19.9346 47.2697C19.9636 48.7803 19.4928 50.0652 18.5222 51.1244C17.5515 52.1835 16.2416 52.9891 14.5923 53.541C12.9678 54.0924 11.2021 54.3864 9.29522 54.4231ZM24.3565 49.1915C23.2668 49.2124 22.3243 49.1562 21.529 49.0228C20.7337 48.8894 20.0074 48.4822 19.3502 47.8011C18.7173 47.0948 18.3863 45.9864 18.3573 44.4757L18.2803 40.4638L19.8034 40.4346L19.829 41.7719C19.8523 42.9853 20.2271 43.7957 20.9534 44.2029C21.7039 44.5849 22.81 44.7742 24.2716 44.7709L24.6502 45.1353L24.7208 48.8129L24.3565 49.1915Z" fill="#313B78"/>
<g filter="url(#filter1_d_600_3629)">
<path d="M72.8794 51.5801H85.026L87.884 55.8671H78.8273C76.1287 55.8671 73.7328 54.1402 72.8794 51.5801V51.5801Z" fill="#5D5AFF"/>
</g>
<defs>
<filter id="filter0_d_600_3629" x="96.4999" y="0.404903" width="105.035" height="105.035" filterUnits="userSpaceOnUse" color-interpolation-filters="sRGB">
<feFlood flood-opacity="0" result="BackgroundImageFix"/>
<feColorMatrix in="SourceAlpha" type="matrix" values="0 0 0 0 0 0 0 0 0 0 0 0 0 0 0 0 0 0 127 0" result="hardAlpha"/>
<feOffset dy="4.42253"/>
<feGaussianBlur stdDeviation="13.2676"/>
<feComposite in2="hardAlpha" operator="out"/>
<feColorMatrix type="matrix" values="0 0 0 0 0.364706 0 0 0 0 0.352941 0 0 0 0 1 0 0 0 0.32 0"/>
<feBlend mode="normal" in2="BackgroundImageFix" result="effect1_dropShadow_600_3629"/>
<feBlend mode="normal" in="SourceGraphic" in2="effect1_dropShadow_600_3629" result="shape"/>
</filter>
<filter id="filter1_d_600_3629" x="67.1634" y="51.5801" width="26.4367" height="15.7192" filterUnits="userSpaceOnUse" color-interpolation-filters="sRGB">
<feFlood flood-opacity="0" result="BackgroundImageFix"/>
<feColorMatrix in="SourceAlpha" type="matrix" values="0 0 0 0 0 0 0 0 0 0 0 0 0 0 0 0 0 0 127 0" result="hardAlpha"/>
<feOffset dy="5.71603"/>
<feGaussianBlur stdDeviation="2.85802"/>
<feComposite in2="hardAlpha" operator="out"/>
<feColorMatrix type="matrix" values="0 0 0 0 0.364706 0 0 0 0 0.352941 0 0 0 0 1 0 0 0 0.27 0"/>
<feBlend mode="normal" in2="BackgroundImageFix" result="effect1_dropShadow_600_3629"/>
<feBlend mode="normal" in="SourceGraphic" in2="effect1_dropShadow_600_3629" result="shape"/>
</filter>
</defs>
</svg>
