<svg width="848" height="656" viewBox="0 0 848 656" fill="none" xmlns="http://www.w3.org/2000/svg">
<g clip-path="url(#clip0_482_2844)">
<path d="M37.5938 637.288C64.0163 656.323 98.2579 657.278 131.356 654.94C135.978 654.614 140.567 654.231 145.113 653.818C145.141 653.811 145.177 653.814 145.205 653.807C145.423 653.786 145.642 653.765 145.851 653.753C146.79 653.665 147.729 653.577 148.658 653.489L148.439 653.908L147.749 655.208C147.997 654.773 148.245 654.347 148.492 653.912C148.565 653.781 148.647 653.651 148.719 653.52C157.293 638.6 165.798 623.131 167.967 606.093C170.209 588.408 163.908 568.384 148.343 559.692C146.302 558.555 144.14 557.65 141.898 556.992C140.967 556.709 140.024 556.48 139.07 556.277C133.233 554.981 127.155 555.263 121.463 557.094C115.771 558.925 110.669 562.239 106.682 566.696C102.696 571.152 99.9679 576.59 98.7794 582.45C97.591 588.31 97.9849 594.381 99.9205 600.039C86.7247 586.508 89.1863 564.557 93.7382 546.211C98.299 527.866 103.82 507.453 94.544 490.975C89.3876 481.804 80.3197 476.113 70.1434 473.821C69.8312 473.754 69.5194 473.687 69.2066 473.628C57.0818 471.172 44.4767 473.381 33.9092 479.813C14.4511 492.075 4.45722 515.323 1.21362 538.097C-4.01243 574.745 7.55289 615.644 37.5938 637.288Z" fill="#F2F2F2"/>
<path d="M46.1242 578.541C46.8913 586.625 48.8331 594.553 51.8883 602.076C54.704 608.734 58.4993 614.933 63.1481 620.468C72.6447 631.892 85.2018 640.48 98.8391 646.203C109.267 650.474 120.192 653.409 131.356 654.94C135.977 654.614 140.566 654.231 145.113 653.818C145.14 653.811 145.176 653.814 145.204 653.807C145.423 653.786 145.642 653.765 145.851 653.753C146.789 653.665 147.728 653.577 148.658 653.489L148.438 653.908L147.749 655.208C147.997 654.773 148.244 654.347 148.492 653.912C148.565 653.781 148.646 653.651 148.719 653.52C140.349 645.182 134.101 634.959 130.496 623.707C126.891 612.456 126.036 600.505 128.002 588.856C130.058 577.288 134.82 566.37 141.898 556.992C140.967 556.71 140.024 556.48 139.069 556.277C136.379 559.955 134.02 563.863 132.018 567.956C124.836 582.553 122.545 599.075 125.484 615.075C128.215 629.555 135.022 642.954 145.103 653.7C144.22 653.638 143.329 653.566 142.457 653.486C125.935 652.087 109.447 648.535 94.4619 641.26C81.6528 635.192 70.5323 626.067 62.0799 614.69C53.0042 602.173 49.0051 587.117 48.3181 571.815C47.5896 555.433 49.7152 538.764 53.4539 522.832C57.2714 506.5 63.0732 490.696 70.7299 475.773C70.9011 475.434 70.9356 475.043 70.8264 474.68C70.7171 474.316 70.4725 474.009 70.1429 473.821C69.8683 473.636 69.5316 473.567 69.2062 473.628C69.0469 473.671 68.8992 473.748 68.7741 473.855C68.649 473.962 68.5497 474.097 68.4836 474.247C67.5391 476.091 66.6121 477.936 65.7203 479.801C58.2937 495.338 52.826 511.738 49.4429 528.624C46.1586 544.913 44.4056 561.953 46.1242 578.541Z" fill="white"/>
<path d="M830.693 564H393.693C389.186 563.995 384.865 562.202 381.678 559.015C378.491 555.828 376.698 551.507 376.693 547V17C376.698 12.4929 378.491 8.17181 381.678 4.98479C384.865 1.79777 389.186 0.00507387 393.693 0H830.693C835.2 0.00507387 839.522 1.79777 842.709 4.98479C845.896 8.17181 847.688 12.4929 847.693 17V547C847.688 551.507 845.896 555.828 842.709 559.015C839.522 562.202 835.2 563.995 830.693 564ZM393.693 2C389.716 2.0045 385.904 3.58629 383.092 6.39836C380.28 9.21043 378.698 13.0231 378.693 17V547C378.698 550.977 380.28 554.79 383.092 557.602C385.904 560.414 389.716 561.996 393.693 562H830.693C834.67 561.996 838.483 560.414 841.295 557.602C844.107 554.79 845.689 550.977 845.693 547V17C845.689 13.0231 844.107 9.21043 841.295 6.39836C838.483 3.58629 834.67 2.0045 830.693 2H393.693Z" fill="#B2B2B7"/>
<path d="M846.693 41.5898H377.693V43.5898H846.693V41.5898Z" fill="#B2B2B7"/>
<path d="M400.693 30C405.112 30 408.693 26.4183 408.693 22C408.693 17.5817 405.112 14 400.693 14C396.275 14 392.693 17.5817 392.693 22C392.693 26.4183 396.275 30 400.693 30Z" fill="#B2B2B7"/>
<path d="M425.693 30C430.112 30 433.693 26.4183 433.693 22C433.693 17.5817 430.112 14 425.693 14C421.275 14 417.693 17.5817 417.693 22C417.693 26.4183 421.275 30 425.693 30Z" fill="#B2B2B7"/>
<path d="M450.693 30C455.112 30 458.693 26.4183 458.693 22C458.693 17.5817 455.112 14 450.693 14C446.275 14 442.693 17.5817 442.693 22C442.693 26.4183 446.275 30 450.693 30Z" fill="#B2B2B7"/>
<path d="M762.953 121H450.953C447.505 121 444.199 119.63 441.761 117.192C439.323 114.754 437.953 111.448 437.953 108C437.953 104.552 439.323 101.246 441.761 98.8076C444.199 96.3696 447.505 95 450.953 95H762.953C766.401 95 769.708 96.3696 772.146 98.8076C774.584 101.246 775.953 104.552 775.953 108C775.953 111.448 774.584 114.754 772.146 117.192C769.708 119.63 766.401 121 762.953 121ZM450.953 97C448.036 97 445.238 98.1589 443.175 100.222C441.112 102.285 439.953 105.083 439.953 108C439.953 110.917 441.112 113.715 443.175 115.778C445.238 117.841 448.036 119 450.953 119H762.953C765.871 119 768.668 117.841 770.731 115.778C772.794 113.715 773.953 110.917 773.953 108C773.953 105.083 772.794 102.285 770.731 100.222C768.668 98.1589 765.871 97 762.953 97H450.953Z" fill="#B2B2B7"/>
<path d="M567.693 304H444.693C440.186 303.995 435.865 302.202 432.678 299.015C429.491 295.828 427.698 291.507 427.693 287V186C427.698 181.493 429.491 177.172 432.678 173.985C435.865 170.798 440.186 169.005 444.693 169H567.693C572.2 169.005 576.522 170.798 579.709 173.985C582.896 177.172 584.688 181.493 584.693 186V287C584.688 291.507 582.896 295.828 579.709 299.015C576.522 302.202 572.2 303.995 567.693 304ZM444.693 171C440.716 171.004 436.904 172.586 434.092 175.398C431.28 178.21 429.698 182.023 429.693 186V287C429.698 290.977 431.28 294.79 434.092 297.602C436.904 300.414 440.716 301.996 444.693 302H567.693C571.67 301.996 575.483 300.414 578.295 297.602C581.107 294.79 582.689 290.977 582.693 287V186C582.689 182.023 581.107 178.21 578.295 175.398C575.483 172.586 571.67 171.004 567.693 171H444.693Z" fill="#B2B2B7"/>
<path d="M779.693 174H656.693C647.857 174 640.693 181.163 640.693 190V291C640.693 299.837 647.857 307 656.693 307H779.693C788.53 307 795.693 299.837 795.693 291V190C795.693 181.163 788.53 174 779.693 174Z" fill="#F2F2F2"/>
<path d="M567.693 492H444.693C440.186 491.995 435.865 490.202 432.678 487.015C429.491 483.828 427.698 479.507 427.693 475V374C427.698 369.493 429.491 365.172 432.678 361.985C435.865 358.798 440.186 357.005 444.693 357H567.693C572.2 357.005 576.522 358.798 579.709 361.985C582.896 365.172 584.688 369.493 584.693 374V475C584.688 479.507 582.896 483.828 579.709 487.015C576.522 490.202 572.2 491.995 567.693 492ZM444.693 359C440.716 359.004 436.904 360.586 434.092 363.398C431.28 366.21 429.698 370.023 429.693 374V475C429.698 478.977 431.28 482.79 434.092 485.602C436.904 488.414 440.716 489.996 444.693 490H567.693C571.67 489.996 575.483 488.414 578.295 485.602C581.107 482.79 582.689 478.977 582.693 475V374C582.689 370.023 581.107 366.21 578.295 363.398C575.483 360.586 571.67 359.004 567.693 359H444.693Z" fill="#B2B2B7"/>
<path d="M779.693 362H656.693C647.857 362 640.693 369.163 640.693 378V479C640.693 487.837 647.857 495 656.693 495H779.693C788.53 495 795.693 487.837 795.693 479V378C795.693 369.163 788.53 362 779.693 362Z" fill="#F2F2F2"/>
<path d="M475.585 279.572C475.563 279.572 475.54 279.572 475.518 279.571L461.528 279.053C461.092 279.04 460.675 278.869 460.355 278.573C460.034 278.276 459.832 277.874 459.785 277.44C458.822 268.849 454.86 225.069 471.46 206.873C473.81 204.245 476.715 202.174 479.965 200.809C483.214 199.444 486.727 198.819 490.248 198.981C490.391 198.99 490.534 198.959 490.661 198.893C490.788 198.827 490.895 198.727 490.969 198.605L494.356 193.282C494.541 192.994 494.804 192.763 495.114 192.616C495.423 192.47 495.768 192.412 496.109 192.451C498.824 192.779 512.665 194.328 518.485 192.643C518.828 192.542 519.194 192.544 519.536 192.649C519.878 192.755 520.181 192.958 520.408 193.235L524.856 198.671C524.932 198.769 525.031 198.848 525.144 198.9C525.257 198.952 525.381 198.977 525.505 198.971C527.767 198.926 535.699 199.364 542.64 207.128C550.157 215.535 557.914 234.504 552.184 277.124C552.124 277.562 551.908 277.963 551.575 278.255C551.243 278.546 550.816 278.707 550.375 278.709H539.356C538.919 278.707 538.496 278.548 538.166 278.262C537.835 277.976 537.617 277.581 537.553 277.148L533.953 252.312C533.924 252.108 533.818 251.922 533.658 251.792C533.498 251.662 533.295 251.597 533.089 251.61C532.883 251.622 532.69 251.712 532.547 251.861C532.404 252.009 532.322 252.207 532.318 252.413L532.07 264.073C532.062 264.419 531.956 264.756 531.764 265.044C531.573 265.332 531.303 265.56 530.987 265.7C527.059 267.427 506.304 275.528 483.365 265.382C483.054 265.243 482.789 265.02 482.598 264.739C482.407 264.457 482.297 264.129 482.282 263.789L481.831 253.194C481.822 252.987 481.736 252.791 481.589 252.645C481.442 252.5 481.245 252.415 481.038 252.407C480.831 252.4 480.629 252.471 480.472 252.607C480.316 252.742 480.216 252.931 480.192 253.137L477.396 277.954C477.344 278.399 477.131 278.809 476.797 279.107C476.464 279.405 476.032 279.571 475.585 279.572Z" fill="#6C63FF"/>
<path d="M533.459 462.539H533.448L478.627 462.192C478.229 462.189 477.845 462.041 477.548 461.775C477.251 461.509 477.061 461.144 477.014 460.748L471.499 413.875C471.465 413.573 471.324 413.293 471.1 413.086C470.876 412.88 470.586 412.762 470.281 412.753C465.929 412.611 455.575 411.619 453.429 405.49C451.518 400.031 456.745 391.98 468.964 381.559C469.172 381.381 469.421 381.258 469.689 381.201C469.956 381.145 470.234 381.156 470.496 381.234C470.758 381.312 470.997 381.455 471.189 381.649C471.382 381.843 471.523 382.082 471.6 382.345L477.943 404.23C478.021 404.492 478.18 404.723 478.399 404.888C478.617 405.053 478.883 405.144 479.156 405.147L531.135 405.496C531.408 405.499 531.673 405.414 531.894 405.253C532.114 405.093 532.276 404.866 532.357 404.606L539.415 382.148C539.494 381.897 539.631 381.669 539.817 381.483C540.002 381.297 540.23 381.158 540.48 381.079C540.73 380.999 540.996 380.981 541.255 381.026C541.513 381.071 541.758 381.178 541.966 381.338C546.782 385.016 562.298 397.645 559.744 405.722C558.407 409.952 552.374 412.31 541.814 412.73C541.511 412.74 541.221 412.859 540.999 413.065C540.776 413.271 540.634 413.55 540.6 413.852L535.083 461.094C535.037 461.492 534.846 461.859 534.546 462.126C534.247 462.393 533.86 462.54 533.459 462.539Z" fill="#6C63FF"/>
<path d="M773.693 265.154C756.467 268.47 740.221 275.665 726.188 286.193C725.478 284.304 724.141 282.716 722.4 281.694C721.212 280.957 719.914 280.412 718.556 280.079C717.32 279.764 716.133 280.515 715.043 281.597C713.789 282.985 712.736 284.543 711.917 286.225C693.091 273.303 664.533 265.057 664.533 265.057V262.472C664.556 261.863 664.618 261.256 664.719 260.655C664.816 259.961 664.937 259.347 665.091 258.596C667.513 246.271 677.092 218.109 677.092 218.109H687.922L708.921 222.47L732.544 221.025L756.337 216.074L759.422 215.428C764.567 219.466 770.406 247.733 772.7 259.767C772.991 261.293 773.217 262.553 773.386 263.482C773.588 264.532 773.693 265.154 773.693 265.154Z" fill="white"/>
<path d="M709.069 389.219C709.069 389.219 704.039 390.476 696.237 411.608C688.435 432.739 685.671 460.041 685.671 460.041C685.671 460.041 681.284 467.47 700.01 467.967C700.01 467.967 698.503 472.874 709.069 472.121C719.635 471.367 718.114 471.375 718.114 471.375C718.114 471.375 724.907 467.097 727.926 467.85C730.946 468.604 732.833 468.859 736.101 471.623C739.369 474.387 749.818 473.261 749.942 471.126C750.026 470.077 750.026 469.024 749.942 467.975C749.942 467.975 765.919 468.984 762.899 457.409C759.879 445.834 757.364 426.838 757.364 426.838C757.364 426.838 749.189 389.731 739.874 389.226C730.559 388.722 709.069 389.219 709.069 389.219Z" fill="white"/>
<path d="M192.641 353.596C209.209 353.596 222.641 340.164 222.641 323.596C222.641 307.027 209.209 293.596 192.641 293.596C176.072 293.596 162.641 307.027 162.641 323.596C162.641 340.164 176.072 353.596 192.641 353.596Z" fill="white"/>
<path d="M195.16 353.653C208.724 353.653 219.721 342.657 219.721 329.092C219.721 315.528 208.724 304.531 195.16 304.531C181.595 304.531 170.599 315.528 170.599 329.092C170.599 342.657 181.595 353.653 195.16 353.653Z" fill="#FFB8B8"/>
<path d="M288.699 403.797C288.309 404.19 287.95 404.612 287.627 405.061L238.064 403.31L232.396 392.679L215.233 399.137L223.44 418.932C224.103 420.532 225.267 421.873 226.757 422.754C228.247 423.635 229.982 424.01 231.703 423.821L287.788 417.663C289.091 419.35 290.876 420.6 292.907 421.247C294.938 421.895 297.118 421.908 299.157 421.287C301.196 420.665 302.998 419.437 304.322 417.766C305.646 416.096 306.43 414.062 306.57 411.935C306.709 409.807 306.198 407.688 305.104 405.859C304.01 404.029 302.385 402.576 300.445 401.693C298.505 400.809 296.342 400.538 294.244 400.913C292.146 401.289 290.212 402.295 288.699 403.797Z" fill="#FFB8B8"/>
<path d="M208.631 408.696C208 408.413 207.437 407.996 206.981 407.476C206.525 406.955 206.186 406.342 205.989 405.679L199.086 382.509C197.587 379.301 197.421 375.629 198.625 372.298C199.829 368.968 202.305 366.251 205.51 364.743C208.714 363.235 212.386 363.059 215.72 364.254C219.053 365.449 221.777 367.918 223.294 371.118L236.666 391.353C237.048 391.93 237.3 392.583 237.407 393.267C237.513 393.951 237.471 394.65 237.283 395.316C237.095 395.982 236.766 396.6 236.318 397.128C235.869 397.655 235.313 398.08 234.686 398.373L212.643 408.666C212.016 408.959 211.333 409.114 210.64 409.119C209.948 409.124 209.263 408.98 208.631 408.696Z" fill="#CCCCCC"/>
<path d="M257.446 643.927L268.214 638.065L250.729 593.743L234.837 602.394L257.446 643.927Z" fill="#FFB8B8"/>
<path d="M252.786 641.907L273.992 630.363C275.766 629.397 277.715 628.79 279.724 628.576C281.733 628.363 283.765 628.547 285.703 629.119C287.641 629.691 289.447 630.639 291.019 631.909C292.59 633.179 293.896 634.746 294.862 636.521L295.101 636.96L260.382 655.86L252.786 641.907Z" fill="white"/>
<path d="M138.959 643.975H151.218L157.051 596.688L138.956 596.688L138.959 643.975Z" fill="#FFB8B8"/>
<path d="M135.831 639.973L159.975 639.972C161.995 639.972 163.997 640.37 165.864 641.143C167.731 641.916 169.427 643.049 170.856 644.478C172.285 645.907 173.418 647.603 174.191 649.47C174.964 651.337 175.362 653.337 175.362 655.358V655.858L135.832 655.859L135.831 639.973Z" fill="white"/>
<path d="M215.14 434.096L219.14 482.096L263.759 615.951C263.934 616.478 263.998 617.035 263.947 617.588C263.895 618.14 263.729 618.676 263.46 619.161C263.19 619.646 262.822 620.069 262.38 620.404C261.938 620.74 261.43 620.979 260.891 621.108L247.215 624.364C246.34 624.572 245.419 624.479 244.603 624.1C243.787 623.72 243.122 623.077 242.717 622.273L185.673 509.12C185.487 508.751 185.192 508.449 184.827 508.255C184.463 508.061 184.047 507.984 183.637 508.036C183.227 508.088 182.844 508.265 182.539 508.544C182.234 508.822 182.022 509.188 181.934 509.592L156.83 623.953C156.635 624.844 156.141 625.641 155.43 626.213C154.719 626.784 153.835 627.096 152.923 627.096H140.201C139.671 627.096 139.147 626.991 138.658 626.787C138.169 626.583 137.725 626.283 137.353 625.906C136.981 625.529 136.688 625.081 136.491 624.589C136.294 624.098 136.196 623.571 136.205 623.042C137.37 543.745 133.525 453.388 164.14 439.096L169.14 426.096L215.14 434.096Z" fill="#B2B2B7"/>
<path d="M167.7 429.5L162.544 398.322C161.691 393.21 162.139 387.964 163.846 383.07C165.553 378.175 168.465 373.79 172.313 370.317C176.074 366.877 180.641 364.44 185.593 363.23C190.544 362.019 195.72 362.075 200.644 363.392C200.936 363.47 201.229 363.551 201.522 363.633C207.581 365.368 212.961 368.92 216.936 373.811C220.911 378.701 223.289 384.693 223.749 390.979C224.733 404.519 223.853 424.162 214.071 440.849L213.881 441.173L167.7 429.5Z" fill="#CCCCCC"/>
<path d="M219.593 316.038C213.98 319.906 207.319 321.965 200.502 321.938C202.934 323.624 205.702 324.763 208.616 325.276C199.553 327.22 190.186 327.273 181.102 325.431C179.083 325.107 177.134 324.438 175.342 323.452C174.449 322.954 173.671 322.272 173.058 321.453C172.446 320.634 172.013 319.695 171.787 318.698C171.183 315.249 173.87 312.116 176.663 310.004C180.938 306.821 185.868 304.628 191.095 303.583C196.323 302.538 201.717 302.669 206.887 303.965C210.264 304.838 213.646 306.312 215.839 309.023C218.032 311.735 218.681 315.915 216.592 318.707L219.593 316.038Z" fill="white"/>
<path d="M192.245 293.448C195.092 281.952 184.888 269.18 173.047 269.419C161.034 269.662 152.194 280.518 146.117 290.884C140.04 301.25 134 313 122.844 317.463C119.152 318.94 115.151 319.478 111.201 319.028C107.25 318.578 103.472 317.155 100.207 314.886C96.9419 312.617 94.2908 309.573 92.4915 306.027C90.6921 302.481 89.8009 298.544 89.8976 294.569C88.3997 307.162 90.475 320.788 98.5964 330.528C106.718 340.269 121.83 344.659 132.692 338.113C138.895 334.374 142.86 327.876 146.129 321.412C149.399 314.949 152.307 308.133 157.261 302.849C162.214 297.564 169.873 294.057 176.766 296.28C179.503 297.163 181.957 298.883 184.784 299.406C187.612 299.93 191.171 298.586 191.557 295.737L192.245 293.448Z" fill="white"/>
<path d="M133.049 501.89C132.03 500.695 131.285 499.292 130.866 497.778C130.448 496.264 130.367 494.677 130.628 493.128C130.89 491.58 131.488 490.107 132.38 488.815C133.272 487.522 134.437 486.441 135.792 485.647L157.097 390.15L178.71 399.021L150.971 490.102C152.154 492.467 152.428 495.184 151.741 497.737C151.054 500.29 149.455 502.503 147.246 503.956C145.037 505.409 142.372 506.001 139.755 505.621C137.138 505.24 134.752 503.912 133.049 501.89Z" fill="#FFB8B8"/>
<path d="M148.656 403.851C148.315 403.248 148.109 402.579 148.051 401.889C147.993 401.199 148.085 400.505 148.319 399.854L156.512 377.109C157.209 373.636 159.255 370.582 162.201 368.616C165.147 366.65 168.752 365.932 172.226 366.62C175.7 367.308 178.76 369.346 180.734 372.286C182.708 375.226 183.436 378.829 182.757 382.305L181.512 406.528C181.477 407.219 181.293 407.894 180.973 408.508C180.652 409.122 180.204 409.659 179.657 410.084C179.11 410.509 178.479 410.811 177.805 410.969C177.131 411.128 176.431 411.139 175.753 411.003L151.902 406.207C151.223 406.071 150.582 405.79 150.022 405.383C149.461 404.977 148.995 404.454 148.656 403.851Z" fill="#CCCCCC"/>
<path d="M323.215 393.14L322.86 393.091L324.197 383.369C324.402 381.876 324.006 380.363 323.096 379.163C322.185 377.962 320.835 377.173 319.343 376.968L298.743 374.136C297.251 373.931 295.738 374.327 294.538 375.237C293.337 376.147 292.548 377.497 292.342 378.99L285.01 432.33C284.805 433.823 285.201 435.336 286.111 436.536C287.022 437.736 288.371 438.526 289.864 438.731L310.463 441.563C311.956 441.768 313.469 441.372 314.669 440.462C315.87 439.551 316.659 438.202 316.864 436.709L321.909 400.012L322.264 400.061L323.215 393.14Z" fill="#3F3D56"/>
<path d="M318.695 379.82L316.131 379.467C316.209 379.773 316.211 380.093 316.136 380.399C316.062 380.705 315.913 380.989 315.703 381.224C315.493 381.459 315.229 381.639 314.933 381.748C314.637 381.857 314.319 381.892 314.007 381.849L302.75 380.301C302.438 380.258 302.141 380.139 301.886 379.955C301.63 379.77 301.424 379.525 301.286 379.242C301.147 378.959 301.08 378.646 301.091 378.331C301.102 378.016 301.19 377.708 301.348 377.435L298.952 377.106C298.426 377.034 297.89 377.066 297.376 377.2C296.862 377.335 296.38 377.569 295.956 377.89C295.533 378.212 295.177 378.613 294.909 379.071C294.64 379.53 294.465 380.037 294.393 380.564L287.409 431.368C287.336 431.894 287.368 432.43 287.503 432.944C287.638 433.458 287.872 433.94 288.193 434.364C288.514 434.787 288.916 435.143 289.374 435.411C289.833 435.68 290.34 435.855 290.866 435.927L310.61 438.641C311.673 438.787 312.75 438.505 313.605 437.857C314.461 437.208 315.023 436.247 315.169 435.184L322.153 384.38C322.299 383.316 322.017 382.239 321.369 381.384C320.72 380.529 319.759 379.966 318.695 379.82Z" fill="white"/>
<path d="M304.693 422C310.768 422 315.693 417.075 315.693 411C315.693 404.925 310.768 400 304.693 400C298.618 400 293.693 404.925 293.693 411C293.693 417.075 298.618 422 304.693 422Z" fill="#6C63FF"/>
<path d="M303.603 415.196C303.355 415.196 303.114 415.116 302.916 414.968L302.904 414.959L300.319 412.98C300.199 412.888 300.098 412.774 300.022 412.643C299.946 412.512 299.896 412.368 299.876 412.218C299.856 412.068 299.866 411.916 299.905 411.77C299.944 411.624 300.011 411.487 300.103 411.367C300.195 411.247 300.31 411.147 300.44 411.071C300.571 410.996 300.716 410.947 300.866 410.927C301.016 410.907 301.168 410.918 301.314 410.957C301.46 410.996 301.596 411.064 301.716 411.156L303.39 412.44L307.347 407.28C307.439 407.16 307.553 407.06 307.684 406.984C307.815 406.909 307.959 406.86 308.108 406.84C308.258 406.82 308.41 406.83 308.556 406.869C308.701 406.908 308.838 406.975 308.958 407.067C309.199 407.253 309.358 407.527 309.397 407.829C309.437 408.131 309.356 408.436 309.171 408.678L304.516 414.748C304.409 414.888 304.27 415.001 304.112 415.079C303.953 415.156 303.779 415.196 303.603 415.196Z" fill="white"/>
<path d="M406.075 656H25.0752C24.81 656 24.5556 655.895 24.3681 655.707C24.1806 655.52 24.0752 655.265 24.0752 655C24.0752 654.735 24.1806 654.48 24.3681 654.293C24.5556 654.105 24.81 654 25.0752 654H406.075C406.34 654 406.595 654.105 406.782 654.293C406.97 654.48 407.075 654.735 407.075 655C407.075 655.265 406.97 655.52 406.782 655.707C406.595 655.895 406.34 656 406.075 656Z" fill="#3F3D56"/>
</g>
<defs>
<clipPath id="clip0_482_2844">
<rect width="847.693" height="656" fill="white"/>
</clipPath>
</defs>
</svg>
