<svg width="1789" height="727" viewBox="0 0 1789 727" fill="none" xmlns="http://www.w3.org/2000/svg">
<rect x="-314" width="1486" height="629" rx="20" fill="#313136" fill-opacity="0.66"/>
<rect x="-313.5" y="0.5" width="1485" height="628" rx="19.5" stroke="#3D3E48" stroke-opacity="0.84"/>
<rect x="590" y="46" width="543" height="540" rx="10" fill="#D9D9D9" fill-opacity="0.15"/>
<path opacity="0.5" d="M966 166H756C744.065 166 732.619 170.741 724.18 179.18C715.741 187.619 711 199.065 711 211V421C711 432.935 715.741 444.381 724.18 452.82C732.619 461.259 744.065 466 756 466H966C968.467 465.966 970.927 465.715 973.35 465.25L977.85 464.2H978.9H979.65L985.2 462.1L987.15 461.05C988.65 460.15 990.3 459.4 991.8 458.35C993.803 456.876 995.707 455.273 997.5 453.55L998.55 452.2C1000.02 450.708 1001.38 449.103 1002.6 447.4L1003.95 445.45C1005 443.78 1005.9 442.024 1006.65 440.2C1007.06 439.48 1007.41 438.728 1007.7 437.95C1008.45 436.15 1008.9 434.2 1009.5 432.25V430C1010.35 427.069 1010.85 424.048 1011 421V211C1011 199.065 1006.26 187.619 997.82 179.18C989.381 170.741 977.935 166 966 166ZM756 436C752.022 436 748.206 434.42 745.393 431.607C742.58 428.794 741 424.978 741 421V356.35L790.35 306.85C791.744 305.444 793.403 304.328 795.231 303.567C797.059 302.805 799.02 302.413 801 302.413C802.98 302.413 804.941 302.805 806.769 303.567C808.597 304.328 810.256 305.444 811.65 306.85L940.65 436H756ZM981 421C980.986 422.849 980.63 424.68 979.95 426.4C979.607 427.131 979.206 427.833 978.75 428.5C978.349 429.135 977.897 429.737 977.4 430.3L897.15 350.05L910.35 336.85C911.744 335.444 913.403 334.328 915.231 333.567C917.059 332.805 919.02 332.413 921 332.413C922.98 332.413 924.941 332.805 926.769 333.567C928.597 334.328 930.256 335.444 931.65 336.85L981 386.35V421ZM981 343.9L952.8 316C944.216 307.855 932.833 303.314 921 303.314C909.167 303.314 897.784 307.855 889.2 316L876 329.2L832.8 286C824.216 277.855 812.833 273.314 801 273.314C789.167 273.314 777.784 277.855 769.2 286L741 313.9V211C741 207.022 742.58 203.206 745.393 200.393C748.206 197.58 752.022 196 756 196H966C969.978 196 973.794 197.58 976.607 200.393C979.42 203.206 981 207.022 981 211V343.9ZM883.5 226C879.05 226 874.7 227.32 871 229.792C867.3 232.264 864.416 235.778 862.713 239.89C861.01 244.001 860.564 248.525 861.432 252.89C862.3 257.254 864.443 261.263 867.59 264.41C870.737 267.557 874.746 269.7 879.11 270.568C883.475 271.436 887.999 270.99 892.11 269.287C896.222 267.584 899.736 264.7 902.208 261C904.68 257.3 906 252.95 906 248.5C906 242.533 903.629 236.81 899.41 232.59C895.19 228.371 889.467 226 883.5 226Z" fill="#0A0B0C" fill-opacity="0.47"/>
<rect x="199" y="61" width="351" height="64" rx="10" fill="#4F5056" fill-opacity="0.74"/>
<rect x="41" y="149" width="509" height="49" rx="10" fill="#4F5056" fill-opacity="0.74"/>
<rect x="-261" y="245" width="811" height="246" rx="10" fill="#4F5056" fill-opacity="0.74"/>
<rect x="1208" width="581" height="727" rx="20" fill="#313136" fill-opacity="0.66"/>
<rect x="1208.5" y="0.5" width="580" height="726" rx="19.5" stroke="#3D3E48" stroke-opacity="0.84"/>
<rect x="1238" y="26" width="518" height="392" rx="10" fill="#D9D9D9" fill-opacity="0.15"/>
<path opacity="0.5" d="M1579.5 107H1418.5C1409.35 107 1400.57 110.635 1394.1 117.105C1387.63 123.575 1384 132.35 1384 141.5V302.5C1384 311.65 1387.63 320.425 1394.1 326.895C1400.57 333.365 1409.35 337 1418.5 337H1579.5C1581.39 336.974 1583.28 336.781 1585.13 336.425L1588.59 335.62H1589.39H1589.96L1594.22 334.01L1595.71 333.205C1596.86 332.515 1598.13 331.94 1599.28 331.135C1600.82 330.005 1602.28 328.776 1603.65 327.455L1604.46 326.42C1605.58 325.276 1606.62 324.045 1607.56 322.74L1608.6 321.245C1609.4 319.965 1610.09 318.618 1610.66 317.22C1610.98 316.668 1611.25 316.091 1611.47 315.495C1612.05 314.115 1612.39 312.62 1612.85 311.125V309.4C1613.5 307.153 1613.89 304.837 1614 302.5V141.5C1614 132.35 1610.37 123.575 1603.9 117.105C1597.43 110.635 1588.65 107 1579.5 107ZM1418.5 314C1415.45 314 1412.52 312.788 1410.37 310.632C1408.21 308.475 1407 305.55 1407 302.5V252.935L1444.83 214.985C1445.9 213.907 1447.18 213.052 1448.58 212.468C1449.98 211.884 1451.48 211.583 1453 211.583C1454.52 211.583 1456.02 211.884 1457.42 212.468C1458.82 213.052 1460.1 213.907 1461.17 214.985L1560.06 314H1418.5ZM1591 302.5C1590.99 303.918 1590.72 305.321 1590.2 306.64C1589.93 307.201 1589.62 307.739 1589.28 308.25C1588.97 308.737 1588.62 309.198 1588.24 309.63L1526.71 248.105L1536.83 237.985C1537.9 236.907 1539.18 236.052 1540.58 235.468C1541.98 234.884 1543.48 234.583 1545 234.583C1546.52 234.583 1548.02 234.884 1549.42 235.468C1550.82 236.052 1552.1 236.907 1553.16 237.985L1591 275.935V302.5ZM1591 243.39L1569.38 222C1562.8 215.755 1554.07 212.274 1545 212.274C1535.93 212.274 1527.2 215.755 1520.62 222L1510.5 232.12L1477.38 199C1470.8 192.755 1462.07 189.274 1453 189.274C1443.93 189.274 1435.2 192.755 1428.62 199L1407 220.39V141.5C1407 138.45 1408.21 135.525 1410.37 133.368C1412.52 131.212 1415.45 130 1418.5 130H1579.5C1582.55 130 1585.48 131.212 1587.63 133.368C1589.79 135.525 1591 138.45 1591 141.5V243.39ZM1516.25 153C1512.84 153 1509.5 154.012 1506.67 155.907C1503.83 157.803 1501.62 160.497 1500.31 163.649C1499.01 166.801 1498.67 170.269 1499.33 173.615C1500 176.961 1501.64 180.035 1504.05 182.448C1506.46 184.86 1509.54 186.503 1512.88 187.169C1516.23 187.834 1519.7 187.493 1522.85 186.187C1526 184.881 1528.7 182.67 1530.59 179.834C1532.49 176.997 1533.5 173.662 1533.5 170.25C1533.5 165.675 1531.68 161.287 1528.45 158.052C1525.21 154.817 1520.82 153 1516.25 153Z" fill="#0A0B0C" fill-opacity="0.47"/>
<rect x="1405" y="466" width="351" height="64" rx="10" fill="#4F5056" fill-opacity="0.74"/>
<rect x="1264" y="545" width="492" height="49" rx="10" fill="#4F5056" fill-opacity="0.74"/>
<path d="M1238 628C1238 622.477 1242.48 618 1248 618H1746C1751.52 618 1756 622.477 1756 628V727H1238V628Z" fill="#4F5056" fill-opacity="0.74"/>
</svg>
