<svg width="49" height="49" viewBox="0 0 49 49" fill="none" xmlns="http://www.w3.org/2000/svg">
<rect width="48.251" height="48.251" rx="24.1255" fill="#0088FF"/>
<path d="M13.4238 23.2728C13.4238 23.2728 23.2403 19.1383 26.6448 17.6824C27.9499 17.1001 32.3758 15.2366 32.3758 15.2366C32.3758 15.2366 34.4186 14.4214 34.2484 16.4013C34.1916 17.2166 33.7377 20.07 33.2837 23.1564C32.6028 27.5239 31.8651 32.299 31.8651 32.299C31.8651 32.299 31.7517 33.6384 30.787 33.8714C29.8224 34.1043 28.2336 33.0561 27.9499 32.8231C27.7229 32.6485 23.6942 30.0279 22.2189 28.7468C21.8217 28.3974 21.3677 27.6986 22.2756 26.8833C24.3184 24.9616 26.7583 22.5741 28.2336 21.06C28.9145 20.3612 29.5954 18.7306 26.7583 20.7105C22.7296 23.564 18.7576 26.2428 18.7576 26.2428C18.7576 26.2428 17.8497 26.8251 16.1474 26.301C14.4451 25.7769 12.4591 25.0781 12.4591 25.0781C12.4591 25.0781 11.0973 24.2046 13.4238 23.2728Z" fill="white"/>
</svg>
