<svg width="236" height="116" viewBox="0 0 236 116" fill="none" xmlns="http://www.w3.org/2000/svg">
<g filter="url(#filter0_d_600_3661)">
<path d="M34.447 50.3826C35.5847 42.4471 36.1536 38.4794 38.5413 35.7857C39.1735 35.0725 39.8883 34.4372 40.6708 33.8932C43.6262 31.8383 47.6333 31.7392 55.6474 31.5411L118 30L180.353 31.5411C188.367 31.7392 192.374 31.8383 195.329 33.8932C196.112 34.4372 196.827 35.0725 197.459 35.7857C199.846 38.4794 200.415 42.4471 201.553 50.3826V50.3826C201.755 51.7943 201.857 52.5001 201.874 53.2103C201.878 53.4034 201.878 53.5966 201.874 53.7897C201.857 54.4999 201.755 55.2074 201.552 56.6223V56.6223C200.398 64.675 199.821 68.7013 197.372 71.4161C196.813 72.0359 196.191 72.5957 195.516 73.0864C192.559 75.2357 188.504 75.3861 180.394 75.6868L118 78L55.6065 75.6868C47.4964 75.3861 43.4413 75.2357 40.4841 73.0864C39.8089 72.5957 39.1868 72.0359 38.6279 71.4161C36.1795 68.7013 35.6022 64.675 34.4477 56.6223V56.6223C34.2448 55.2074 34.1434 54.4999 34.1262 53.7897C34.1215 53.5966 34.1215 53.4034 34.1262 53.2103C34.1434 52.5001 34.2446 51.7943 34.447 50.3826V50.3826Z" fill="#4EC881"/>
</g>
<path d="M63.2603 57C62.6408 57 62.1091 56.8521 61.6653 56.5562C61.2307 56.2603 60.9117 55.8673 60.7082 55.3772C60.5141 54.8871 60.4632 54.3739 60.5557 53.8376C60.6574 53.2459 60.8007 52.5801 60.9856 51.8404L62.4004 52.201L62.331 52.52C62.1461 53.269 62.0398 53.7868 62.012 54.0734C61.9658 54.434 62.049 54.7207 62.2617 54.9334C62.4836 55.146 62.8165 55.2524 63.2603 55.2524H69.2799C69.6868 55.2524 69.9826 55.1877 70.1676 55.0582C70.3525 54.9195 70.445 54.693 70.445 54.3786V52.4784H71.9707V54.4757C71.9707 54.7623 72.0447 54.9657 72.1926 55.0859C72.3405 55.1969 72.5763 55.2524 72.9 55.2524H73.3438L73.427 56.1262L73.3438 57H72.9C72.6041 57 72.2989 56.9353 71.9845 56.8058C71.6702 56.6764 71.3928 56.4868 71.1523 56.2371C70.9304 56.4868 70.653 56.6764 70.3201 56.8058C69.9965 56.9353 69.6498 57 69.2799 57H63.2603ZM64.3422 51.3549C64.3422 51.1885 64.3838 51.0313 64.467 50.8833C64.5502 50.7354 64.6704 50.6198 64.8276 50.5366C64.9571 50.4534 65.1097 50.4117 65.2853 50.4117C65.4518 50.4025 65.609 50.4441 65.7569 50.5366C65.9049 50.6198 66.0204 50.7354 66.1037 50.8833C66.1776 51.0405 66.2146 51.1977 66.2146 51.3549C66.2146 51.6138 66.1222 51.8357 65.9372 52.0207C65.7615 52.2056 65.5442 52.2981 65.2853 52.2981C65.0357 52.2981 64.8138 52.2056 64.6196 52.0207C64.4346 51.8357 64.3422 51.6138 64.3422 51.3549ZM66.7556 51.3549C66.7648 51.096 66.8573 50.8741 67.033 50.6891C67.2179 50.5042 67.4398 50.4117 67.6987 50.4117C67.9576 50.4117 68.1795 50.5042 68.3645 50.6891C68.5494 50.8741 68.6419 51.096 68.6419 51.3549C68.6419 51.6046 68.5494 51.8265 68.3645 52.0207C68.1795 52.2056 67.9576 52.2981 67.6987 52.2981C67.5415 52.2981 67.3843 52.2565 67.2271 52.1732C67.0884 52.09 66.9729 51.9744 66.8804 51.8265C66.7972 51.6785 66.7556 51.5213 66.7556 51.3549ZM73.2013 55.2524H74.838C75.3003 55.2524 75.6239 55.1738 75.8089 55.0166C76.0031 54.8594 76.0909 54.6375 76.0724 54.3508C76.0539 54.0919 76.0031 53.7359 75.9198 53.2828C75.8459 52.8205 75.7673 52.3859 75.684 51.9791L77.1404 51.6046C77.2514 52.0577 77.3531 52.557 77.4455 53.1025C77.538 53.6388 77.5935 54.0781 77.612 54.4202C77.6212 54.864 77.5288 55.2847 77.3346 55.6823C77.1404 56.0707 76.8399 56.3897 76.433 56.6394C76.0262 56.8798 75.5269 57 74.9351 57H73.2013V55.2524ZM72.4107 59.6214C72.4107 59.455 72.4523 59.2978 72.5356 59.1498C72.6188 59.0019 72.739 58.8863 72.8962 58.8031C73.0256 58.7199 73.1782 58.6783 73.3539 58.6783C73.5203 58.669 73.6775 58.706 73.8255 58.7892C73.9734 58.8817 74.089 59.0019 74.1722 59.1498C74.2462 59.307 74.2832 59.4642 74.2832 59.6214C74.2832 59.8803 74.1907 60.1023 74.0058 60.2872C73.8301 60.4721 73.6128 60.5646 73.3539 60.5646C73.1042 60.5646 72.8869 60.4721 72.702 60.2872C72.5078 60.1023 72.4107 59.8803 72.4107 59.6214ZM74.8241 59.6214C74.8334 59.3625 74.9258 59.1406 75.1015 58.9557C75.2864 58.7707 75.5084 58.6783 75.7673 58.6783C76.0262 58.6783 76.2481 58.7707 76.433 58.9557C76.618 59.1406 76.7104 59.3625 76.7104 59.6214C76.7104 59.8711 76.618 60.0884 76.433 60.2733C76.2481 60.4675 76.0262 60.5646 75.7673 60.5646C75.6101 60.5646 75.4529 60.523 75.2957 60.4398C75.157 60.3565 75.0414 60.241 74.9489 60.093C74.8657 59.9451 74.8241 59.7879 74.8241 59.6214ZM82.0404 57C81.3931 57 80.8707 56.8752 80.4731 56.6255C80.0755 56.3666 79.7888 56.0106 79.6132 55.5575C79.4375 55.1044 79.3496 54.5681 79.3496 53.9486L79.3358 47.8319H80.8615L80.8753 53.9486C80.8753 54.3462 80.8984 54.6329 80.9447 54.8085C81.0002 54.975 81.1019 55.0906 81.2498 55.1553C81.407 55.22 81.6705 55.2524 82.0404 55.2524H82.4426L82.512 56.1539L82.4426 57H82.0404ZM88.4895 56.1678C88.2953 56.4267 88.0457 56.6301 87.7405 56.7781C87.4354 56.926 87.1025 57 86.7419 57C86.409 57 86.0715 56.9214 85.7294 56.7642C85.3965 56.607 85.1515 56.4082 84.9943 56.1678C84.8093 56.4267 84.5597 56.6301 84.2453 56.7781C83.9402 56.926 83.5934 57 83.2051 57H82.3035V55.2524H83.2605C83.6304 55.2524 83.8893 55.183 84.0373 55.0443C84.1944 54.8964 84.273 54.6421 84.273 54.2815V52.4784H85.8126V54.2676C85.8126 54.6097 85.8912 54.8594 86.0484 55.0166C86.2056 55.1738 86.446 55.2524 86.7696 55.2524C87.1025 55.2524 87.3429 55.1738 87.4909 55.0166C87.6481 54.8594 87.7267 54.6097 87.7267 54.2676V52.4784H89.2662L89.2524 54.2676C89.2524 54.6097 89.3402 54.8594 89.5159 55.0166C89.6916 55.1738 89.932 55.2524 90.2371 55.2524C90.5608 55.2524 90.7966 55.1738 90.9445 55.0166C91.0925 54.8594 91.1664 54.6097 91.1664 54.2676V52.4784H92.706V54.2815C92.706 54.6421 92.78 54.8964 92.9279 55.0443C93.0851 55.183 93.3486 55.2524 93.7185 55.2524H94.6755L94.7588 56.1262L94.6755 57H93.774C93.3949 57 93.0481 56.926 92.7337 56.7781C92.4194 56.6301 92.1697 56.4267 91.9848 56.1678C91.8276 56.4082 91.5779 56.607 91.2358 56.7642C90.9029 56.9214 90.5746 57 90.251 57C89.8904 57 89.5621 56.926 89.2662 56.7781C88.9703 56.6301 88.7114 56.4267 88.4895 56.1678ZM94.5346 55.2524H95.9216C96.3192 55.2524 96.6012 55.1738 96.7676 55.0166C96.9433 54.8594 97.0219 54.6375 97.0034 54.3508C96.9942 54.0919 96.9479 53.7359 96.8647 53.2828C96.7908 52.8205 96.7075 52.3859 96.6151 51.9791L98.0853 51.6046C98.187 52.0577 98.2841 52.557 98.3766 53.1025C98.4783 53.6388 98.5337 54.0781 98.543 54.4202C98.5522 54.864 98.4598 55.2847 98.2656 55.6823C98.0807 56.0707 97.7986 56.3897 97.4195 56.6394C97.0404 56.8798 96.5735 57 96.0187 57H94.5346V55.2524ZM94.2849 59.663C94.2849 59.3764 94.3866 59.1314 94.59 58.9279C94.8027 58.7338 95.0431 58.6367 95.3113 58.6367C95.5979 58.6459 95.8383 58.7476 96.0325 58.9418C96.236 59.1452 96.3377 59.3856 96.3377 59.663C96.3377 59.9497 96.236 60.1901 96.0325 60.3843C95.8383 60.5877 95.5979 60.6894 95.3113 60.6894C95.0246 60.6894 94.7842 60.5877 94.59 60.3843C94.3866 60.1901 94.2849 59.9497 94.2849 59.663ZM101.707 58.7476C102.326 58.7476 102.793 58.6829 103.108 58.5534C103.422 58.4332 103.635 58.2344 103.746 57.957C103.866 57.6889 103.926 57.3098 103.926 56.8197V54.0734C103.926 53.5834 103.82 53.1996 103.607 52.9222C103.404 52.6448 103.075 52.5061 102.622 52.5061C102.206 52.5061 101.887 52.6494 101.665 52.9361C101.452 53.2135 101.346 53.5834 101.346 54.0457C101.346 54.4618 101.448 54.7669 101.651 54.9611C101.855 55.146 102.183 55.2385 102.636 55.2385H104.633V56.9306H102.636C101.785 56.9306 101.11 56.681 100.611 56.1817C100.112 55.6823 99.8621 54.9888 99.8621 54.1012C99.8621 53.4724 99.9776 52.913 100.209 52.4229C100.449 51.9236 100.777 51.5352 101.194 51.2578C101.61 50.9804 102.086 50.8417 102.622 50.8417C103.186 50.8417 103.681 50.9804 104.106 51.2578C104.541 51.526 104.874 51.9051 105.105 52.3952C105.345 52.8852 105.466 53.4539 105.466 54.1012V56.8197C105.466 57.5409 105.341 58.1743 105.091 58.7199C104.841 59.2654 104.435 59.6954 103.87 60.0098C103.316 60.3334 102.594 60.4952 101.707 60.4952H100.098V58.7476H101.707ZM115.617 53.9486C115.737 54.4294 115.963 54.7669 116.296 54.9611C116.629 55.1553 117.036 55.2524 117.517 55.2524H117.794L117.891 56.0984L117.794 57H117.517C116.768 57 116.07 56.7919 115.422 56.3758C114.784 55.9505 114.35 55.2801 114.119 54.3647C113.73 52.7188 113.342 51.0729 112.953 49.427L114.451 49.0386L115.617 53.9486ZM115.173 52.3535C115.237 52.9546 115.237 53.4585 115.173 53.8654C115.117 54.2722 114.983 54.656 114.77 55.0166C114.512 55.4697 114.183 55.821 113.786 56.0707C113.388 56.3204 112.958 56.4452 112.496 56.4452C112.033 56.4452 111.58 56.3204 111.137 56.0707C110.702 55.821 110.364 55.4697 110.124 55.0166C109.884 54.5635 109.763 54.0827 109.763 53.5741C109.763 53.0655 109.884 52.6032 110.124 52.1871C110.3 51.8912 110.494 51.6462 110.707 51.452C110.928 51.2578 111.28 51.0359 111.761 50.7862C112.241 50.5366 112.953 50.2222 113.897 49.8431L114.479 51.452C113.758 51.7017 113.189 51.9236 112.773 52.1178C112.357 52.3119 112.057 52.483 111.872 52.6309C111.696 52.7789 111.557 52.9268 111.456 53.0748C111.298 53.3429 111.257 53.6203 111.331 53.907C111.405 54.1844 111.571 54.4109 111.83 54.5866C112.089 54.7531 112.38 54.8085 112.704 54.7531C113.027 54.6883 113.305 54.5265 113.536 54.2676C113.693 54.0919 113.786 53.8839 113.813 53.6435C113.841 53.3938 113.813 53.0563 113.73 52.6309L115.173 52.3535ZM121.567 52.4784V54.4757C121.567 54.7623 121.641 54.9657 121.789 55.0859C121.937 55.1969 122.168 55.2524 122.483 55.2524H122.926L123.01 56.1678L122.926 57H122.483C122.122 57 121.752 56.9075 121.373 56.7226C120.994 56.5377 120.675 56.251 120.416 55.8627C120.157 55.4651 120.028 54.9704 120.028 54.3786V52.4784H121.567ZM121.456 54.5173C121.456 55.0443 121.331 55.4974 121.082 55.8765C120.832 56.2464 120.508 56.5284 120.111 56.7226C119.713 56.9075 119.297 57 118.862 57H117.656V55.2524H118.862C119.279 55.2524 119.574 55.1877 119.75 55.0582C119.935 54.9195 120.028 54.693 120.028 54.3786L121.456 54.5173ZM117.503 59.663C117.503 59.3764 117.605 59.1314 117.808 58.9279C118.021 58.7338 118.261 58.6367 118.53 58.6367C118.816 58.6459 119.057 58.7476 119.251 58.9418C119.454 59.1452 119.556 59.3856 119.556 59.663C119.556 59.9497 119.454 60.1901 119.251 60.3843C119.057 60.5877 118.816 60.6894 118.53 60.6894C118.243 60.6894 117.998 60.5877 117.794 60.3843C117.6 60.1901 117.503 59.9497 117.503 59.663ZM122.789 55.2524H124.426C124.888 55.2524 125.212 55.1738 125.397 55.0166C125.591 54.8594 125.679 54.6375 125.66 54.3508C125.642 54.0919 125.591 53.7359 125.508 53.2828C125.434 52.8205 125.355 52.3859 125.272 51.9791L126.728 51.6046C126.839 52.0577 126.941 52.557 127.033 53.1025C127.126 53.6388 127.181 54.0781 127.2 54.4202C127.209 54.864 127.117 55.2847 126.923 55.6823C126.728 56.0707 126.428 56.3897 126.021 56.6394C125.614 56.8798 125.115 57 124.523 57H122.789V55.2524ZM123.178 49.2605C123.178 49.0941 123.219 48.9369 123.302 48.789C123.386 48.641 123.506 48.5254 123.663 48.4422C123.793 48.359 123.945 48.3174 124.121 48.3174C124.287 48.3081 124.444 48.3497 124.592 48.4422C124.74 48.5254 124.856 48.641 124.939 48.789C125.013 48.9462 125.05 49.1033 125.05 49.2605C125.05 49.5194 124.958 49.7414 124.773 49.9263C124.597 50.1112 124.38 50.2037 124.121 50.2037C123.871 50.2037 123.649 50.1112 123.455 49.9263C123.27 49.7414 123.178 49.5194 123.178 49.2605ZM125.591 49.2605C125.6 49.0016 125.693 48.7797 125.868 48.5948C126.053 48.4098 126.275 48.3174 126.534 48.3174C126.793 48.3174 127.015 48.4098 127.2 48.5948C127.385 48.7797 127.477 49.0016 127.477 49.2605C127.477 49.5102 127.385 49.7321 127.2 49.9263C127.015 50.1112 126.793 50.2037 126.534 50.2037C126.377 50.2037 126.22 50.1621 126.063 50.0789C125.924 49.9956 125.808 49.8801 125.716 49.7321C125.633 49.5842 125.591 49.427 125.591 49.2605ZM132.655 52.4784V56.3897C132.655 57.2589 132.507 57.9986 132.211 58.6089C131.915 59.2192 131.476 59.6862 130.893 60.0098C130.311 60.3334 129.603 60.4952 128.771 60.4952H127.897V58.7476H128.771C129.363 58.7476 129.825 58.6736 130.158 58.5257C130.5 58.3778 130.745 58.1327 130.893 57.7906C131.05 57.4577 131.129 56.9908 131.129 56.3897V52.4784H132.655ZM139.101 53.5325C138.86 54.0318 138.675 54.5173 138.546 54.9888C138.416 55.4512 138.352 55.9135 138.352 56.3758C138.352 56.8752 138.425 57.3005 138.573 57.6519C138.731 58.0033 138.98 58.2714 139.322 58.4564C139.665 58.6505 140.113 58.7476 140.668 58.7476H141.944C142.554 58.7476 143.012 58.6875 143.317 58.5673C143.631 58.4564 143.849 58.2668 143.969 57.9986C144.098 57.7305 144.163 57.3421 144.163 56.8336V52.4784H145.703V56.8336C145.703 57.9617 145.397 58.854 144.787 59.5105C144.186 60.167 143.238 60.4952 141.944 60.4952H140.668C139.854 60.4952 139.161 60.3103 138.587 59.9404C138.014 59.5706 137.579 59.0713 137.284 58.4425C136.988 57.8137 136.84 57.1248 136.84 56.3758C136.84 55.7933 136.932 55.1923 137.117 54.5727C137.302 53.944 137.533 53.3661 137.811 52.839L139.101 53.5325ZM148.435 56.1678C148.241 56.4267 147.987 56.6301 147.672 56.7781C147.358 56.926 147.02 57 146.66 57C146.225 57 145.837 56.889 145.495 56.6671C145.152 56.4452 144.88 56.1262 144.676 55.7101C144.482 55.294 144.385 54.8132 144.385 54.2676H145.703C145.703 54.6097 145.781 54.8594 145.938 55.0166C146.105 55.1738 146.355 55.2524 146.687 55.2524C147.02 55.2524 147.265 55.1738 147.423 55.0166C147.589 54.8594 147.672 54.6097 147.672 54.2676V52.4784H149.212L149.198 54.2676C149.198 54.6097 149.286 54.8594 149.461 55.0166C149.637 55.1738 149.877 55.2524 150.183 55.2524C150.506 55.2524 150.742 55.1738 150.89 55.0166C151.038 54.8594 151.112 54.6097 151.112 54.2676V52.4784H152.651V54.2815C152.651 54.6421 152.725 54.8964 152.873 55.0443C153.031 55.183 153.294 55.2524 153.664 55.2524H154.621L154.704 56.1678L154.621 57H153.719C153.34 57 152.994 56.926 152.679 56.7781C152.365 56.6301 152.115 56.4267 151.93 56.1678C151.773 56.4082 151.523 56.607 151.181 56.7642C150.848 56.9214 150.52 57 150.197 57C149.836 57 149.508 56.926 149.212 56.7781C148.916 56.6301 148.657 56.4267 148.435 56.1678ZM147.575 48.2203C147.575 47.9799 147.663 47.7718 147.839 47.5961C148.014 47.4112 148.227 47.3187 148.477 47.3187C148.717 47.3187 148.925 47.4066 149.101 47.5823C149.286 47.758 149.378 47.9706 149.378 48.2203C149.378 48.4607 149.29 48.6688 149.115 48.8444C148.939 49.0201 148.726 49.108 148.477 49.108C148.227 49.108 148.014 49.0247 147.839 48.8583C147.663 48.6826 147.575 48.4699 147.575 48.2203ZM146.313 50.0373C146.304 49.8708 146.341 49.7182 146.424 49.5795C146.516 49.4316 146.637 49.316 146.784 49.2328C146.923 49.1403 147.08 49.0941 147.256 49.0941C147.506 49.0941 147.723 49.1912 147.908 49.3854C148.093 49.5703 148.185 49.7876 148.185 50.0373C148.185 50.2962 148.093 50.5181 147.908 50.703C147.723 50.888 147.506 50.9804 147.256 50.9804C146.997 50.9804 146.775 50.888 146.59 50.703C146.405 50.5181 146.313 50.2962 146.313 50.0373ZM148.768 50.0373C148.768 49.7876 148.86 49.5703 149.045 49.3854C149.23 49.1912 149.448 49.0941 149.697 49.0941C149.956 49.0941 150.178 49.1912 150.363 49.3854C150.548 49.5703 150.64 49.7876 150.64 50.0373C150.64 50.2962 150.548 50.5181 150.363 50.703C150.178 50.888 149.956 50.9804 149.697 50.9804C149.448 50.9804 149.23 50.888 149.045 50.703C148.86 50.5181 148.768 50.2962 148.768 50.0373ZM154.484 55.2524H156.121C156.583 55.2524 156.907 55.1738 157.092 55.0166C157.286 54.8594 157.374 54.6375 157.355 54.3508C157.337 54.0919 157.286 53.7359 157.203 53.2828C157.129 52.8205 157.05 52.3859 156.967 51.9791L158.423 51.6046C158.534 52.0577 158.636 52.557 158.729 53.1025C158.821 53.6388 158.877 54.0781 158.895 54.4202C158.904 54.864 158.812 55.2847 158.618 55.6823C158.423 56.0707 158.123 56.3897 157.716 56.6394C157.309 56.8798 156.81 57 156.218 57H154.484V55.2524ZM153.694 59.6214C153.694 59.455 153.735 59.2978 153.819 59.1498C153.902 59.0019 154.022 58.8863 154.179 58.8031C154.309 58.7199 154.461 58.6783 154.637 58.6783C154.803 58.669 154.961 58.706 155.109 58.7892C155.256 58.8817 155.372 59.0019 155.455 59.1498C155.529 59.307 155.566 59.4642 155.566 59.6214C155.566 59.8803 155.474 60.1023 155.289 60.2872C155.113 60.4721 154.896 60.5646 154.637 60.5646C154.387 60.5646 154.17 60.4721 153.985 60.2872C153.791 60.1023 153.694 59.8803 153.694 59.6214ZM156.107 59.6214C156.116 59.3625 156.209 59.1406 156.385 58.9557C156.57 58.7707 156.791 58.6783 157.05 58.6783C157.309 58.6783 157.531 58.7707 157.716 58.9557C157.901 59.1406 157.994 59.3625 157.994 59.6214C157.994 59.8711 157.901 60.0884 157.716 60.2733C157.531 60.4675 157.309 60.5646 157.05 60.5646C156.893 60.5646 156.736 60.523 156.579 60.4398C156.44 60.3565 156.324 60.241 156.232 60.093C156.149 59.9451 156.107 59.7879 156.107 59.6214ZM160.73 47.8319H162.255L162.269 57H160.744L160.73 47.8319ZM166.829 52.4784V56.3897C166.829 57.2589 166.681 57.9986 166.385 58.6089C166.089 59.2192 165.65 59.6862 165.067 60.0098C164.485 60.3334 163.777 60.4952 162.945 60.4952H162.071V58.7476H162.945C163.537 58.7476 163.999 58.6736 164.332 58.5257C164.674 58.3778 164.919 58.1327 165.067 57.7906C165.224 57.4577 165.303 56.9908 165.303 56.3897V52.4784H166.829ZM166.829 54.4757C166.829 54.7623 166.903 54.9657 167.051 55.0859C167.198 55.1969 167.434 55.2524 167.758 55.2524H167.98L168.063 56.1401L167.98 57H167.758C167.48 57 167.226 56.9445 166.995 56.8336C166.773 56.7226 166.584 56.533 166.426 56.2649C166.278 55.9967 166.195 55.65 166.177 55.2246L166.829 54.4757ZM164.984 49.9124C164.984 49.6165 165.086 49.3669 165.289 49.1635C165.502 48.9785 165.742 48.886 166.01 48.886C166.297 48.886 166.537 48.9878 166.731 49.1912C166.935 49.3854 167.037 49.6258 167.037 49.9124C167.037 50.1991 166.935 50.4441 166.731 50.6475C166.537 50.8417 166.297 50.9388 166.01 50.9388C165.724 50.9296 165.479 50.8278 165.275 50.6337C165.081 50.4395 164.984 50.1991 164.984 49.9124ZM167.84 55.2524H170.1H170.17C170.808 55.2431 171.266 55.1969 171.543 55.1137C171.83 55.0305 172.019 54.8779 172.112 54.656C172.204 54.434 172.25 54.0827 172.25 53.6018V52.0345C172.25 51.6832 172.163 51.4011 171.987 51.1885C171.811 50.9758 171.543 50.8695 171.182 50.8695C170.84 50.8695 170.577 50.9804 170.392 51.2023C170.207 51.415 170.114 51.6924 170.114 52.0345C170.114 52.3212 170.193 52.5431 170.35 52.7003C170.517 52.8575 170.776 52.9546 171.127 52.9916L172.958 53.3244L172.805 54.8502L171.002 54.656C170.512 54.5912 170.091 54.4572 169.74 54.2537C169.398 54.0503 169.125 53.7637 168.922 53.3938C168.727 53.0239 168.63 52.5755 168.63 52.0484C168.63 51.5029 168.746 51.0174 168.977 50.5921C169.208 50.1667 169.518 49.8338 169.906 49.5934C170.295 49.353 170.72 49.2328 171.182 49.2328C171.672 49.2328 172.112 49.353 172.5 49.5934C172.888 49.8246 173.189 50.1575 173.402 50.5921C173.614 51.0174 173.721 51.5029 173.721 52.0484V53.2412C173.721 53.9995 173.61 54.656 173.388 55.2108C173.166 55.7656 172.787 56.2048 172.25 56.5284C171.723 56.8428 171.007 57 170.1 57H167.84V55.2524ZM170.156 47.4713C170.156 47.1754 170.258 46.9258 170.461 46.7223C170.674 46.5374 170.914 46.4449 171.182 46.4449C171.469 46.4449 171.709 46.5466 171.904 46.7501C172.107 46.9442 172.209 47.1847 172.209 47.4713C172.209 47.7487 172.107 47.9891 171.904 48.1925C171.709 48.396 171.469 48.4977 171.182 48.4977C170.905 48.4884 170.665 48.3867 170.461 48.1925C170.258 47.9891 170.156 47.7487 170.156 47.4713ZM175.548 47.8319H177.074L177.088 57H175.562L175.548 47.8319Z" fill="white"/>
<defs>
<filter id="filter0_d_600_3661" x="0.122681" y="0" width="235.755" height="116" filterUnits="userSpaceOnUse" color-interpolation-filters="sRGB">
<feFlood flood-opacity="0" result="BackgroundImageFix"/>
<feColorMatrix in="SourceAlpha" type="matrix" values="0 0 0 0 0 0 0 0 0 0 0 0 0 0 0 0 0 0 127 0" result="hardAlpha"/>
<feOffset dy="4"/>
<feGaussianBlur stdDeviation="17"/>
<feComposite in2="hardAlpha" operator="out"/>
<feColorMatrix type="matrix" values="0 0 0 0 0.419608 0 0 0 0 0.803922 0 0 0 0 0.580392 0 0 0 0.35 0"/>
<feBlend mode="normal" in2="BackgroundImageFix" result="effect1_dropShadow_600_3661"/>
<feBlend mode="normal" in="SourceGraphic" in2="effect1_dropShadow_600_3661" result="shape"/>
</filter>
</defs>
</svg>
