<svg width="152" height="49" viewBox="0 0 152 49" fill="none" xmlns="http://www.w3.org/2000/svg">
<rect x="1.5" y="1.5" width="149" height="44.7841" rx="22.3921" stroke="#21C47F" stroke-width="3"/>
<path d="M56.6125 28.0746C55.9392 28.0717 55.3639 27.8942 54.8866 27.5419C54.4093 27.1896 54.0443 26.6768 53.7914 26.0036C53.5386 25.3303 53.4122 24.5192 53.4122 23.5703C53.4122 22.6243 53.5386 21.8161 53.7914 21.1456C54.0471 20.4751 54.4136 19.9638 54.8909 19.6115C55.371 19.2592 55.9448 19.0831 56.6125 19.0831C57.2801 19.0831 57.8525 19.2607 58.3298 19.6158C58.8071 19.968 59.1721 20.4794 59.425 21.1499C59.6806 21.8175 59.8085 22.6243 59.8085 23.5703C59.8085 24.522 59.6821 25.3345 59.4292 26.0078C59.1764 26.6783 58.8113 27.1911 58.3341 27.5462C57.8568 27.8984 57.2829 28.0746 56.6125 28.0746ZM56.6125 26.9368C57.2034 26.9368 57.665 26.6484 57.9974 26.0717C58.3326 25.495 58.5002 24.6612 58.5002 23.5703C58.5002 22.8459 58.4235 22.2337 58.2701 21.7337C58.1196 21.2308 57.9022 20.8501 57.6181 20.5916C57.3369 20.3303 57.0017 20.1996 56.6125 20.1996C56.0244 20.1996 55.5627 20.4893 55.2275 21.0689C54.8923 21.6484 54.7233 22.4822 54.7204 23.5703C54.7204 24.2976 54.7957 24.9126 54.9463 25.4155C55.0997 25.9155 55.317 26.2947 55.5983 26.5533C55.8795 26.8089 56.2176 26.9368 56.6125 26.9368ZM64.8222 19.0831C65.2114 19.0859 65.5949 19.157 65.9728 19.2962C66.3506 19.4354 66.6915 19.6626 66.9955 19.978C67.3023 20.2933 67.5466 20.7195 67.7284 21.2564C67.9131 21.7905 68.0069 22.4553 68.0097 23.2507C68.0097 24.0149 67.933 24.6953 67.7796 25.2919C67.6262 25.8857 67.406 26.3871 67.1191 26.7962C66.835 27.2053 66.4898 27.5163 66.0836 27.7294C65.6773 27.9425 65.2199 28.049 64.7114 28.049C64.1915 28.049 63.7299 27.9467 63.3265 27.7422C62.923 27.5376 62.5949 27.255 62.3421 26.8942C62.0892 26.5305 61.9316 26.1129 61.8691 25.6413H63.1688C63.254 26.0163 63.4273 26.3203 63.6887 26.5533C63.9529 26.7834 64.2938 26.8984 64.7114 26.8984C65.3506 26.8984 65.8492 26.62 66.2071 26.0632C66.5651 25.5036 66.7455 24.7223 66.7483 23.7195H66.6801C66.5324 23.9638 66.3478 24.174 66.1262 24.3501C65.9074 24.5263 65.6617 24.6626 65.389 24.7592C65.1162 24.8558 64.825 24.9041 64.5154 24.9041C64.0125 24.9041 63.5551 24.7805 63.1432 24.5334C62.7313 24.2862 62.4032 23.9467 62.1588 23.5149C61.9145 23.0831 61.7924 22.5902 61.7924 22.0362C61.7924 21.4851 61.9174 20.9851 62.1674 20.5362C62.4202 20.0874 62.7725 19.7322 63.2242 19.4709C63.6787 19.2067 64.2114 19.0774 64.8222 19.0831ZM64.8265 20.1911C64.4941 20.1911 64.1943 20.2734 63.9273 20.4382C63.6631 20.6001 63.4543 20.8203 63.3009 21.0987C63.1475 21.3743 63.0708 21.6811 63.0708 22.0192C63.0708 22.3572 63.1446 22.6641 63.2924 22.9396C63.4429 23.2124 63.6475 23.4297 63.906 23.5916C64.1674 23.7507 64.4657 23.8303 64.8009 23.8303C65.0509 23.8303 65.2838 23.782 65.4997 23.6854C65.7157 23.5888 65.9046 23.4553 66.0665 23.2848C66.2284 23.1115 66.3549 22.9155 66.4458 22.6967C66.5367 22.478 66.5821 22.2479 66.5821 22.0064C66.5821 21.6854 66.5054 21.3871 66.352 21.1115C66.2015 20.8359 65.9941 20.6143 65.7299 20.4467C65.4657 20.2763 65.1645 20.1911 64.8265 20.1911ZM73.1875 28.0746C72.5142 28.0717 71.9389 27.8942 71.4616 27.5419C70.9843 27.1896 70.6193 26.6768 70.3664 26.0036C70.1136 25.3303 69.9872 24.5192 69.9872 23.5703C69.9872 22.6243 70.1136 21.8161 70.3664 21.1456C70.6221 20.4751 70.9886 19.9638 71.4659 19.6115C71.946 19.2592 72.5198 19.0831 73.1875 19.0831C73.8551 19.0831 74.4275 19.2607 74.9048 19.6158C75.3821 19.968 75.7471 20.4794 76 21.1499C76.2556 21.8175 76.3835 22.6243 76.3835 23.5703C76.3835 24.522 76.2571 25.3345 76.0042 26.0078C75.7514 26.6783 75.3863 27.1911 74.9091 27.5462C74.4318 27.8984 73.8579 28.0746 73.1875 28.0746ZM73.1875 26.9368C73.7784 26.9368 74.24 26.6484 74.5724 26.0717C74.9076 25.495 75.0752 24.6612 75.0752 23.5703C75.0752 22.8459 74.9985 22.2337 74.8451 21.7337C74.6946 21.2308 74.4772 20.8501 74.1931 20.5916C73.9119 20.3303 73.5767 20.1996 73.1875 20.1996C72.5994 20.1996 72.1377 20.4893 71.8025 21.0689C71.4673 21.6484 71.2983 22.4822 71.2954 23.5703C71.2954 24.2976 71.3707 24.9126 71.5213 25.4155C71.6747 25.9155 71.892 26.2947 72.1733 26.5533C72.4545 26.8089 72.7926 26.9368 73.1875 26.9368ZM78.4952 27.9297V26.9751L81.4483 23.9155C81.7637 23.5831 82.0236 23.2919 82.2282 23.0419C82.4355 22.7891 82.5904 22.549 82.6926 22.3217C82.7949 22.0945 82.8461 21.853 82.8461 21.5973C82.8461 21.3075 82.7779 21.0575 82.6415 20.8473C82.5051 20.6342 82.3191 20.4709 82.0833 20.3572C81.8475 20.2408 81.5818 20.1825 81.2864 20.1825C80.9739 20.1825 80.7012 20.2464 80.4682 20.3743C80.2353 20.5021 80.0563 20.6825 79.9313 20.9155C79.8063 21.1484 79.7438 21.4212 79.7438 21.7337H78.4867C78.4867 21.2024 78.6088 20.7379 78.8532 20.3402C79.0975 19.9425 79.4327 19.6342 79.8588 19.4155C80.285 19.1939 80.7693 19.0831 81.312 19.0831C81.8603 19.0831 82.3432 19.1925 82.7608 19.4112C83.1813 19.6271 83.5094 19.9226 83.7452 20.2976C83.981 20.6697 84.0989 21.0902 84.0989 21.5589C84.0989 21.8828 84.0378 22.1996 83.9157 22.5092C83.7963 22.8189 83.5875 23.1641 83.2892 23.5447C82.9909 23.9226 82.5762 24.3814 82.0449 24.9212L80.3105 26.7365V26.8004H84.2395V27.9297H78.4952ZM86.0838 26.2251V25.1598L89.8551 19.2024H90.6946V20.7706H90.162L87.4645 25.0405V25.1087H92.6336V26.2251H86.0838ZM90.2216 27.9297V25.9013L90.2301 25.4155V19.2024H91.4787V27.9297H90.2216ZM97.6206 19.0831C98.0098 19.0859 98.3934 19.157 98.7712 19.2962C99.149 19.4354 99.4899 19.6626 99.7939 19.978C100.101 20.2933 100.345 20.7195 100.527 21.2564C100.712 21.7905 100.805 22.4553 100.808 23.2507C100.808 24.0149 100.731 24.6953 100.578 25.2919C100.425 25.8857 100.204 26.3871 99.9175 26.7962C99.6334 27.2053 99.2882 27.5163 98.882 27.7294C98.4757 27.9425 98.0184 28.049 97.5098 28.049C96.9899 28.049 96.5283 27.9467 96.1249 27.7422C95.7215 27.5376 95.3934 27.255 95.1405 26.8942C94.8877 26.5305 94.73 26.1129 94.6675 25.6413H95.9672C96.0524 26.0163 96.2257 26.3203 96.4871 26.5533C96.7513 26.7834 97.0922 26.8984 97.5098 26.8984C98.149 26.8984 98.6476 26.62 99.0056 26.0632C99.3635 25.5036 99.5439 24.7223 99.5468 23.7195H99.4786C99.3309 23.9638 99.1462 24.174 98.9246 24.3501C98.7059 24.5263 98.4601 24.6626 98.1874 24.7592C97.9147 24.8558 97.6235 24.9041 97.3138 24.9041C96.811 24.9041 96.3536 24.7805 95.9417 24.5334C95.5297 24.2862 95.2016 23.9467 94.9573 23.5149C94.713 23.0831 94.5908 22.5902 94.5908 22.0362C94.5908 21.4851 94.7158 20.9851 94.9658 20.5362C95.2186 20.0874 95.5709 19.7322 96.0226 19.4709C96.4772 19.2067 97.0098 19.0774 97.6206 19.0831ZM97.6249 20.1911C97.2925 20.1911 96.9928 20.2734 96.7257 20.4382C96.4615 20.6001 96.2527 20.8203 96.0993 21.0987C95.9459 21.3743 95.8692 21.6811 95.8692 22.0192C95.8692 22.3572 95.9431 22.6641 96.0908 22.9396C96.2414 23.2124 96.4459 23.4297 96.7044 23.5916C96.9658 23.7507 97.2641 23.8303 97.5993 23.8303C97.8493 23.8303 98.0823 23.782 98.2982 23.6854C98.5141 23.5888 98.703 23.4553 98.8649 23.2848C99.0269 23.1115 99.1533 22.9155 99.2442 22.6967C99.3351 22.478 99.3806 22.2479 99.3806 22.0064C99.3806 21.6854 99.3039 21.3871 99.1505 21.1115C98.9999 20.8359 98.7925 20.6143 98.5283 20.4467C98.2641 20.2763 97.963 20.1911 97.6249 20.1911ZM102.948 27.9297V26.9751L105.901 23.9155C106.216 23.5831 106.476 23.2919 106.68 23.0419C106.888 22.7891 107.043 22.549 107.145 22.3217C107.247 22.0945 107.298 21.853 107.298 21.5973C107.298 21.3075 107.23 21.0575 107.094 20.8473C106.957 20.6342 106.771 20.4709 106.536 20.3572C106.3 20.2408 106.034 20.1825 105.739 20.1825C105.426 20.1825 105.154 20.2464 104.921 20.3743C104.688 20.5021 104.509 20.6825 104.384 20.9155C104.259 21.1484 104.196 21.4212 104.196 21.7337H102.939C102.939 21.2024 103.061 20.7379 103.305 20.3402C103.55 19.9425 103.885 19.6342 104.311 19.4155C104.737 19.1939 105.222 19.0831 105.764 19.0831C106.313 19.0831 106.796 19.1925 107.213 19.4112C107.634 19.6271 107.962 19.9226 108.198 20.2976C108.433 20.6697 108.551 21.0902 108.551 21.5589C108.551 21.8828 108.49 22.1996 108.368 22.5092C108.249 22.8189 108.04 23.1641 107.742 23.5447C107.443 23.9226 107.029 24.3814 106.497 24.9212L104.763 26.7365V26.8004H108.692V27.9297H102.948ZM111.201 27.9297L115.011 20.3956V20.3317H110.604V19.2024H116.374V20.37L112.577 27.9297H111.201ZM118.456 27.9297V26.9751L121.409 23.9155C121.725 23.5831 121.985 23.2919 122.189 23.0419C122.396 22.7891 122.551 22.549 122.654 22.3217C122.756 22.0945 122.807 21.853 122.807 21.5973C122.807 21.3075 122.739 21.0575 122.602 20.8473C122.466 20.6342 122.28 20.4709 122.044 20.3572C121.808 20.2408 121.543 20.1825 121.247 20.1825C120.935 20.1825 120.662 20.2464 120.429 20.3743C120.196 20.5021 120.017 20.6825 119.892 20.9155C119.767 21.1484 119.705 21.4212 119.705 21.7337H118.448C118.448 21.2024 118.57 20.7379 118.814 20.3402C119.058 19.9425 119.394 19.6342 119.82 19.4155C120.246 19.1939 120.73 19.0831 121.273 19.0831C121.821 19.0831 122.304 19.1925 122.722 19.4112C123.142 19.6271 123.47 19.9226 123.706 20.2976C123.942 20.6697 124.06 21.0902 124.06 21.5589C124.06 21.8828 123.999 22.1996 123.877 22.5092C123.757 22.8189 123.548 23.1641 123.25 23.5447C122.952 23.9226 122.537 24.3814 122.006 24.9212L120.271 26.7365V26.8004H124.2V27.9297H118.456ZM129.454 28.0746C128.781 28.0717 128.205 27.8942 127.728 27.5419C127.251 27.1896 126.886 26.6768 126.633 26.0036C126.38 25.3303 126.254 24.5192 126.254 23.5703C126.254 22.6243 126.38 21.8161 126.633 21.1456C126.889 20.4751 127.255 19.9638 127.732 19.6115C128.212 19.2592 128.786 19.0831 129.454 19.0831C130.121 19.0831 130.694 19.2607 131.171 19.6158C131.648 19.968 132.014 20.4794 132.266 21.1499C132.522 21.8175 132.65 22.6243 132.65 23.5703C132.65 24.522 132.523 25.3345 132.271 26.0078C132.018 26.6783 131.653 27.1911 131.175 27.5462C130.698 27.8984 130.124 28.0746 129.454 28.0746ZM129.454 26.9368C130.045 26.9368 130.506 26.6484 130.839 26.0717C131.174 25.495 131.342 24.6612 131.342 23.5703C131.342 22.8459 131.265 22.2337 131.112 21.7337C130.961 21.2308 130.744 20.8501 130.46 20.5916C130.178 20.3303 129.843 20.1996 129.454 20.1996C128.866 20.1996 128.404 20.4893 128.069 21.0689C127.734 21.6484 127.565 22.4822 127.562 23.5703C127.562 24.2976 127.637 24.9126 127.788 25.4155C127.941 25.9155 128.158 26.2947 128.44 26.5533C128.721 26.8089 129.059 26.9368 129.454 26.9368ZM137.664 19.0831C138.053 19.0859 138.436 19.157 138.814 19.2962C139.192 19.4354 139.533 19.6626 139.837 19.978C140.144 20.2933 140.388 20.7195 140.57 21.2564C140.755 21.7905 140.848 22.4553 140.851 23.2507C140.851 24.0149 140.774 24.6953 140.621 25.2919C140.468 25.8857 140.247 26.3871 139.96 26.7962C139.676 27.2053 139.331 27.5163 138.925 27.7294C138.519 27.9425 138.061 28.049 137.553 28.049C137.033 28.049 136.571 27.9467 136.168 27.7422C135.764 27.5376 135.436 27.255 135.183 26.8942C134.931 26.5305 134.773 26.1129 134.71 25.6413H136.01C136.095 26.0163 136.269 26.3203 136.53 26.5533C136.794 26.7834 137.135 26.8984 137.553 26.8984C138.192 26.8984 138.691 26.62 139.049 26.0632C139.406 25.5036 139.587 24.7223 139.59 23.7195H139.522C139.374 23.9638 139.189 24.174 138.968 24.3501C138.749 24.5263 138.503 24.6626 138.23 24.7592C137.958 24.8558 137.666 24.9041 137.357 24.9041C136.854 24.9041 136.397 24.7805 135.985 24.5334C135.573 24.2862 135.245 23.9467 135 23.5149C134.756 23.0831 134.634 22.5902 134.634 22.0362C134.634 21.4851 134.759 20.9851 135.009 20.5362C135.262 20.0874 135.614 19.7322 136.066 19.4709C136.52 19.2067 137.053 19.0774 137.664 19.0831ZM137.668 20.1911C137.335 20.1911 137.036 20.2734 136.769 20.4382C136.505 20.6001 136.296 20.8203 136.142 21.0987C135.989 21.3743 135.912 21.6811 135.912 22.0192C135.912 22.3572 135.986 22.6641 136.134 22.9396C136.284 23.2124 136.489 23.4297 136.747 23.5916C137.009 23.7507 137.307 23.8303 137.642 23.8303C137.892 23.8303 138.125 23.782 138.341 23.6854C138.557 23.5888 138.746 23.4553 138.908 23.2848C139.07 23.1115 139.196 22.9155 139.287 22.6967C139.378 22.478 139.424 22.2479 139.424 22.0064C139.424 21.6854 139.347 21.3871 139.193 21.1115C139.043 20.8359 138.835 20.6143 138.571 20.4467C138.307 20.2763 138.006 20.1911 137.668 20.1911Z" fill="#100F28"/>
<rect width="48.251" height="48.251" rx="24.1255" fill="#21C47F"/>
<path fill-rule="evenodd" clip-rule="evenodd" d="M28.529 26.0496C28.2855 25.8608 28.0003 25.7279 27.6952 25.6611C27.3902 25.5942 27.0733 25.5952 26.7686 25.6638C26.3109 25.8466 26.0152 26.5369 25.7194 26.8821C25.6571 26.9648 25.5654 27.0229 25.4617 27.0453C25.358 27.0677 25.2493 27.053 25.1561 27.0039C23.4804 26.3731 22.0759 25.2163 21.1706 23.7214C21.0934 23.6281 21.0568 23.5097 21.0686 23.391C21.0805 23.2723 21.1397 23.1627 21.234 23.0852C21.5638 22.7713 21.806 22.3826 21.9381 21.9549C21.9674 21.4832 21.855 21.0133 21.6142 20.6013C21.428 20.0237 21.0737 19.5094 20.5932 19.1191C20.3453 19.012 20.0705 18.976 19.8019 19.0157C19.5332 19.0553 19.2823 19.1688 19.0792 19.3425C18.7268 19.6347 18.447 19.9993 18.2606 20.4092C18.0741 20.8192 17.9857 21.2641 18.0019 21.7113C18.003 21.9624 18.0361 22.2124 18.1005 22.4558C18.264 23.0405 18.5154 23.5991 18.8469 24.114C19.086 24.5083 19.3469 24.8902 19.6285 25.2578C20.5436 26.4652 21.6938 27.4903 23.0155 28.2763C23.6787 28.6757 24.3875 29.0005 25.1279 29.2442C25.8971 29.5793 26.7463 29.7079 27.5854 29.6164C28.0635 29.5468 28.5165 29.3654 28.9045 29.0881C29.2925 28.8107 29.6037 28.446 29.8106 28.0259C29.9321 27.7721 29.969 27.4884 29.9162 27.2137C29.7895 26.652 29.0078 26.3203 28.529 26.0496Z" fill="white"/>
<path d="M12 36.0213L13.7886 29.6187C12.3461 27.1246 11.8879 24.2141 12.4978 21.4215C13.1078 18.6288 14.7451 16.1412 17.1093 14.4151C19.4735 12.6891 22.406 11.8404 25.3686 12.0248C28.3313 12.2092 31.1254 13.4143 33.2383 15.419C35.3511 17.4237 36.641 20.0934 36.8712 22.9384C37.1013 25.7834 36.2564 28.6127 34.4913 30.9072C32.7263 33.2018 30.1596 34.8075 27.2622 35.4299C24.3648 36.0523 21.331 35.6495 18.7177 34.2955L12 36.0213ZM19.0416 31.8996L19.457 32.1365C21.3499 33.2149 23.5608 33.6611 25.7452 33.4057C27.9295 33.1503 29.9646 32.2075 31.5333 30.7243C33.102 29.2412 34.1162 27.3009 34.4178 25.2059C34.7194 23.1108 34.2915 20.9788 33.2008 19.1419C32.1101 17.305 30.4178 15.8665 28.3877 15.0506C26.3576 14.2346 24.1037 14.087 21.9772 14.6309C19.8508 15.1747 17.9712 16.3794 16.6314 18.0571C15.2916 19.7349 14.5669 21.7915 14.5702 23.9065C14.5684 25.6601 15.073 27.3799 16.0278 28.8742L16.2883 29.2871L15.2884 32.8606L19.0416 31.8996Z" fill="white"/>
</svg>
